<?xml version="1.0" encoding="UTF-8"?><svg id="Layer_1" xmlns="http://www.w3.org/2000/svg" xmlns:xlink="http://www.w3.org/1999/xlink" viewBox="0 0 667.4 205.58"><defs><style>.cls-1{fill:none;}.cls-2{fill:url(#linear-gradient);}.cls-3{clip-path:url(#clippath);}.cls-4{fill:#344167;}.cls-5{filter:url(#drop-shadow-2);}.cls-6{filter:url(#drop-shadow-1);}.cls-6,.cls-7{fill:#fff;}.cls-7{opacity:.6;}</style><linearGradient id="linear-gradient" x1="129.41" y1="174.37" x2="87.1" y2="74.85" gradientUnits="userSpaceOnUse"><stop offset=".34" stop-color="#c35037"/><stop offset=".92" stop-color="#e68760"/></linearGradient><filter id="drop-shadow-1" filterUnits="userSpaceOnUse"><feOffset dx="0" dy="5.85"/><feGaussianBlur result="blur" stdDeviation="5.16"/><feFlood flood-color="#000" flood-opacity=".6"/><feComposite in2="blur" operator="in"/><feComposite in="SourceGraphic"/></filter><clipPath id="clippath"><path class="cls-1" d="M149.78,153.86H61.21c-3.92,0-7.1-3.18-7.1-7.1v-57.29c0-2.36,1.18-4.57,3.13-5.89l44.28-29.82c2.4-1.61,5.53-1.61,7.93,0l44.28,29.82c1.96,1.32,3.13,3.53,3.13,5.89v57.29c0,3.92-3.18,7.1-7.1,7.1Z"/></clipPath><filter id="drop-shadow-2" filterUnits="userSpaceOnUse"><feOffset dx="0" dy="5.24"/><feGaussianBlur result="blur-2" stdDeviation="2.62"/><feFlood flood-color="#000" flood-opacity=".6"/><feComposite in2="blur-2" operator="in"/><feComposite in="SourceGraphic"/></filter></defs><g><path class="cls-2" d="M149.78,153.86H61.21c-3.92,0-7.1-3.18-7.1-7.1v-57.29c0-2.36,1.18-4.57,3.13-5.89l44.28-29.82c2.4-1.61,5.53-1.61,7.93,0l44.28,29.82c1.96,1.32,3.13,3.53,3.13,5.89v57.29c0,3.92-3.18,7.1-7.1,7.1Z"/><path class="cls-6" d="M115.35,108.33c0-5.47-4.43-9.91-9.91-9.91s-9.91,4.43-9.91,9.91c0,3.71,2.05,6.95,5.07,8.64v12.96c0,1.32,1.07,2.39,2.39,2.39h4.88c1.32,0,2.39-1.07,2.39-2.39v-12.96c3.02-1.7,5.07-4.93,5.07-8.64Z"/><g class="cls-3"><g class="cls-5"><path class="cls-7" d="M109.83,53.03l47.05,31.69,4.8,3.39c0-2.36-3.55-10.42-5.51-11.74l-46.71-30.14c-2.4-1.61-5.53-1.61-7.93,0l-48.71,28.84c-1.96,1.32-4.22,11.15-4.22,13.51l5.51-3.87,47.05-31.69c2.62-1.76,6.04-1.76,8.66,0Z"/></g></g></g><path class="cls-4" d="M185.73,143.14v-40.21c0-.79-.4-1.19-1.19-1.19h-11.92c-1.94,0-2.97-1.03-2.97-2.97v-2.24c0-1.95,1.03-2.97,2.97-2.97h35.89c1.94,0,2.97,1.03,2.97,2.97v2.24c0,1.95-1.03,2.97-2.97,2.97h-11.99c-.79,0-1.19,.4-1.19,1.19v40.21c0,1.95-1.03,2.97-2.97,2.97h-3.66c-1.94,0-2.97-1.03-2.97-2.97Z"/><path class="cls-4" d="M210.54,143.14v-31.41c0-1.95,1.03-2.97,2.97-2.97h1.47c1.74,0,2.73,.48,3.04,2.03l.1,.44c.2,.9,.92,1.13,1.64,.6,4.22-2.44,7.97-3.58,12.81-3.9,2.04-.24,3.08,1.03,2.83,3.06l-.25,2.59c-.24,1.87-1.23,2.54-2.98,2.81-1.54,.26-6.61,.87-11.37,2.07-.66,.21-1,.68-1,1.34v23.37c0,1.95-1.03,2.97-2.97,2.97h-3.32c-1.94,0-2.97-1.03-2.97-2.97Z"/><path class="cls-4" d="M240.45,136.78v-24.86c0-2.08,1.09-3.17,3.17-3.17h2.92c2.08,0,3.17,1.09,3.17,3.17v22.06c0,4.18,.97,5.33,4.01,5.33,3.28,0,6.28-.6,10.72-2.75,.53-.21,.79-.55,.79-1.14v-23.51c0-2.08,1.09-3.17,3.17-3.17h2.94c2.08,0,3.17,1.09,3.17,3.17v31.02c0,2.08-1.09,3.17-3.17,3.17h-1.64c-1.89,0-2.88-.67-3.2-1.98l-.09-.49c-.14-.69-.66-.84-1.42-.38-4.7,2.79-9.48,3.79-14.25,3.79-6.67,0-10.28-3.57-10.28-10.27Z"/><path class="cls-4" d="M284.58,146.17c-2.01-.25-2.74-1.43-2.56-3.68,.17-2.32,1.13-3.13,3.13-3.06,2.9,.07,6.52,.13,10.02,.13,7.9,0,10.01-.4,10.01-3.59,0-2.83-1.91-3.42-5.48-4.23l-9.83-2.28c-6.4-1.58-8.53-5.16-8.53-11.17,0-7.5,4.27-10.55,15.03-10.48,4.15,.07,9.34,.36,13.65,.87,1.87,.25,2.85,1.37,2.62,3.56-.25,2.45-1.21,3.26-3.26,3.19-3.76-.13-7.59-.2-11.42-.2-6.03,0-7.69,.25-7.69,3.16s1.56,3.41,4.89,4.27l10.01,2.34c6.18,1.51,8.93,4.35,8.93,10.91,0,8.45-5.05,11.01-16.65,11.01-2.17,0-7.21-.07-12.88-.74Z"/><path class="cls-4" d="M334.33,146.91c-6.6,0-10.2-3.89-10.2-10.86v-19.35c0-.79-.4-1.19-1.19-1.19h-2.21c-2.52-.01-3.34-1.01-3.34-3.13,0-2.51,1.02-3.26,3.28-3.41l2.26-.13c.79-.08,1.18-.48,1.18-1.2v-6.62c0-1.95,1.03-2.97,2.97-2.97h3.27c1.94,0,2.97,1.03,2.97,2.97v6.54c0,.79,.4,1.19,1.19,1.19h6.37c2.41,0,3.37,1.15,3.37,3.35,0,2.4-.83,3.41-3.37,3.41h-6.37c-.79,0-1.19,.4-1.19,1.19v17.79c0,3.23,1.08,4.33,4.36,4.33h2.42c2.12,.02,3.02,.93,3.3,3.39,.27,2.78-.61,3.81-2.34,4.08-2.44,.4-5.17,.62-6.73,.62h0Z"/><path class="cls-4" d="M366.84,147.03c-13.54,0-18.67-5.45-18.67-19.65s5.4-19.62,18.07-19.62,16.95,4.45,16.96,12.9c.01,6.75-2.46,10.65-7.98,10.65h-15.95c-.83,0-1.2,.44-1.11,1.18,.91,5.81,3.84,6.97,9.84,6.97,2.81,0,6.69-.24,10.39-.61,2.01-.16,3.19,.69,3.51,2.76,.34,2-.37,3.31-2.22,3.83-3.9,1.17-9.05,1.59-12.85,1.59h0Zm4.48-22.14c2.47,0,2.71-1.61,2.71-4.35,0-3.96-1.76-5.46-7.4-5.47-6.83-.01-8.35,1.84-8.74,8.6-.07,.83,.3,1.21,1.12,1.21h12.32Z"/><path class="cls-4" d="M406.14,147.03c-14.13,0-17.72-7.56-17.72-19.36,0-16.9,6.31-19.91,15.52-19.91,1.81,0,5.9,.14,9.53,1.5,1.04,.36,1.53,.41,1.37-.8-.33-2.16-.42-3.48-.41-6.04v-6.45c.02-2.09,1.1-3.17,3.19-3.17h2.92c2.08,0,3.17,1.09,3.17,3.17v45.92c0,1.56-.61,2.56-2.24,3.12-3.09,1.1-10.79,2.03-15.32,2.03h0Zm-.42-7.37c2.36,.08,5.87-.26,7.24-.6,.94-.22,1.49-.75,1.49-1.74l.07-19.19c0-1.05-.26-1.72-.98-1.86-2.96-.67-5.68-.87-7.83-.87-5.57,0-7.75,1.65-7.75,12.03,0,9.42,2.19,12.08,7.77,12.24h0Z"/><path class="cls-4" d="M434.39,145.85c-1.93-.34-2.78-1.47-2.62-3.33l.1-1.28c.16-1.87,1.26-2.87,3.29-2.8,7.69,.15,10.63,.23,13.84,.23,6.9,0,8.81-2.03,8.81-6.45,0-3.89-1.75-5.7-5.56-6.9l-10.57-3.38c-7.8-2.49-10.61-8.22-10.61-15.18,0-10.77,5.46-14.14,18.07-14.14,4.2,0,9.2,.24,13.98,1.18,1.78,.36,2.6,1.55,2.43,3.4l-.09,1.11c-.16,1.87-1.25,2.87-3.12,2.8-3.93-.14-8.82-.21-12.93-.21-6.38,0-8.77,.98-8.77,6.01,0,3.76,1.78,5.71,5.89,6.95l10.11,3.17c8.3,2.62,10.82,8.43,10.82,15.27,0,10.68-5.17,14.75-18.64,14.75-2.84,0-8.16-.15-14.44-1.19Z"/><path class="cls-4" d="M487.36,146.91c-6.6,0-10.2-3.89-10.2-10.86v-19.35c0-.79-.4-1.19-1.19-1.19h-2.21c-2.52-.01-3.34-1.01-3.34-3.13,0-2.51,1.02-3.26,3.28-3.41l2.26-.13c.79-.08,1.18-.48,1.18-1.2v-6.62c0-1.95,1.03-2.97,2.97-2.97h3.27c1.94,0,2.97,1.03,2.97,2.97v6.54c0,.79,.4,1.19,1.19,1.19h6.37c2.41,0,3.37,1.15,3.37,3.35,0,2.4-.83,3.41-3.37,3.41h-6.37c-.79,0-1.19,.4-1.19,1.19v17.79c0,3.23,1.08,4.33,4.36,4.33h2.42c2.12,.02,3.02,.93,3.3,3.39,.27,2.78-.61,3.81-2.34,4.08-2.44,.4-5.17,.62-6.73,.62h0Z"/><path class="cls-4" d="M512.8,146.91c-6.89,0-11.85-3.79-11.85-10.75v-3.81c0-5.96,4.07-9.43,11.05-9.43h13.14c.63,0,.91-.31,.91-.92v-1.48c-.08-4.21-1.52-5.21-6.86-5.21-2.88,0-7.71-.05-12.67,.23-1.96,.14-3.08-.72-3.47-2.85-.45-2.51,.32-3.61,2.89-4,5.06-.75,11.3-.94,15.35-.94,9.22,0,14.04,3,14.04,12.96v22.22c0,2.04-1.14,3.18-3.18,3.18h-1.34c-1.74,0-2.62-.3-3.16-2.38l-.17-.47c-.23-.73-.66-.94-1.18-.44-2.92,2.57-7.43,4.08-13.5,4.08h0Zm12.52-9.88c.5-.28,.75-.87,.75-1.5v-5.28c0-.64-.32-.95-.95-.95h-10.94c-3.09,.13-3.95,1.65-3.95,4.14v1.48c0,3.22,1.46,4.54,4.85,4.54,2.72,0,6.52,.05,10.25-2.43Z"/><path class="cls-4" d="M549.39,161.53c-1.85,.18-2.85-.86-3.24-2.7-.45-1.97,.41-3.17,2.24-3.91,3.52-1.4,5.7-3.34,7.24-5.97,.31-.51,.63-1.02,.87-1.59,.38-.73-.03-1.24-.89-1.31-1.91-.33-3.15-1.45-3.84-3.34l-11.03-30.56c-.75-2.04,.19-3.39,2.4-3.39h3.65c1.73,0,2.82,.79,3.3,2.49l7.41,23.22c.38,1.31,.69,2.62,1.05,3.93,.15,.73,.37,1.05,.73,1.05s.66-.33,.82-.96c.45-1.4,.83-2.81,1.21-4.02l7.28-23.22c.48-1.71,1.57-2.49,3.3-2.49h3.71c2.2,0,3.14,1.35,2.4,3.39l-12.59,35.14c-2.23,6.29-6.91,13.46-15.99,14.24h0Z"/><path class="cls-4" d="M585.31,146.17c-2.01-.25-2.74-1.43-2.56-3.68,.17-2.32,1.13-3.13,3.13-3.06,2.9,.07,6.52,.13,10.02,.13,7.9,0,10.01-.4,10.01-3.59,0-2.83-1.91-3.42-5.48-4.23l-9.83-2.28c-6.4-1.58-8.53-5.16-8.53-11.17,0-7.5,4.27-10.55,15.03-10.48,4.15,.07,9.34,.36,13.65,.87,1.87,.25,2.85,1.37,2.62,3.56-.25,2.45-1.21,3.26-3.26,3.19-3.76-.13-7.59-.2-11.42-.2-6.03,0-7.69,.25-7.69,3.16s1.56,3.41,4.89,4.27l10.01,2.34c6.18,1.51,8.93,4.35,8.93,10.91,0,8.45-5.05,11.01-16.65,11.01-2.17,0-7.21-.07-12.88-.74Z"/><path class="cls-4" d="M627.72,118.95c-.96,0-1.85-.18-2.69-.54-.84-.36-1.57-.85-2.2-1.49-.63-.63-1.13-1.37-1.49-2.2-.36-.84-.54-1.73-.54-2.69s.18-1.85,.54-2.69c.36-.84,.85-1.57,1.49-2.2,.63-.63,1.37-1.13,2.2-1.49,.84-.36,1.73-.54,2.69-.54s1.85,.18,2.69,.54c.84,.36,1.57,.85,2.2,1.49,.63,.63,1.13,1.37,1.49,2.2,.36,.84,.54,1.73,.54,2.69s-.18,1.85-.54,2.69c-.36,.84-.85,1.57-1.49,2.2-.63,.63-1.37,1.13-2.2,1.49-.84,.36-1.73,.54-2.69,.54Zm0-1.29c1.04,0,1.98-.25,2.83-.76s1.53-1.19,2.04-2.04c.51-.85,.76-1.79,.76-2.83s-.25-1.98-.76-2.83c-.51-.85-1.19-1.53-2.04-2.03-.85-.51-1.79-.76-2.83-.76s-1.98,.25-2.83,.76c-.85,.51-1.53,1.19-2.04,2.03-.51,.85-.76,1.79-.76,2.83s.25,1.98,.76,2.83c.51,.85,1.19,1.53,2.04,2.04,.85,.51,1.79,.76,2.83,.76Zm-2.34-2.51v-6.38h3.06c.32,0,.64,.08,.94,.23,.3,.15,.55,.38,.75,.67,.2,.3,.3,.66,.3,1.09s-.1,.81-.31,1.12c-.2,.31-.46,.55-.78,.72s-.64,.25-.97,.25h-2.37v-.87h2.07c.29,0,.56-.1,.79-.32,.23-.21,.35-.51,.35-.9s-.12-.69-.35-.86c-.23-.17-.49-.26-.76-.26h-1.61v5.5h-1.11Zm3.72-2.96l1.59,2.96h-1.24l-1.55-2.96h1.2Z"/></svg>