<svg width="961" height="202" viewBox="0 0 961 202" fill="none" xmlns="http://www.w3.org/2000/svg">
<g clip-path="url(#clip0)">
<path fill-rule="evenodd" clip-rule="evenodd" d="M383.962 0V159.953H347.511V141.889C338.718 155.045 325.021 162.532 307.184 162.532C274.359 162.532 248.243 132.865 248.243 96.4877C248.243 60.1107 274.359 30.7073 307.184 30.7073C325.021 30.7073 338.718 38.1936 347.511 51.3497V0H383.962ZM347.511 96.4877C347.511 78.9511 333.55 65.2676 315.714 65.2676C298.141 65.2676 283.916 79.2002 283.916 96.4877C283.916 114.024 298.141 127.708 315.714 127.708C333.55 127.708 347.511 114.288 347.511 96.4877ZM239.215 96.7514C239.215 134.418 210.515 162.532 173.301 162.532C135.822 162.532 107.387 134.418 107.387 96.7514C107.387 59.0852 135.822 30.7073 173.301 30.7073C210.515 30.7073 239.215 59.0852 239.215 96.7514ZM143.045 96.7514C143.045 114.288 155.964 127.708 173.286 127.708C190.345 127.708 203.528 114.288 203.528 96.7514C203.528 78.6874 190.345 65.5313 173.286 65.5313C155.978 65.5313 143.045 78.6874 143.045 96.7514ZM529.738 159.953V33.2858H493.286V51.3497C484.493 38.1937 470.796 30.7073 452.96 30.7073C420.135 30.7073 394.018 60.1107 394.018 96.4877C394.018 132.865 420.135 162.532 452.96 162.532C470.796 162.532 484.493 155.045 493.286 141.889V159.953H529.738ZM461.489 65.2676C479.326 65.2676 493.286 78.9511 493.286 96.4877C493.286 114.288 479.326 127.708 461.489 127.708C443.917 127.708 429.692 114.024 429.692 96.4877C429.692 79.2002 443.917 65.2676 461.489 65.2676ZM635.671 33.2857L607.499 107.329L579.313 33.2857H540.029L588.885 149.639L565.352 202H604.387L674.97 33.2857H635.671ZM818.572 159.953V33.2857H782.121V159.953H818.572ZM914.978 94.4219L961 159.953H917.048L893.001 125.642L868.955 159.953H825.531L871.289 94.6857L828.379 33.2857H872.332L893.266 63.2166L914.978 94.4219ZM770.876 33.2711V67.8461H739.577V107.842C739.577 121.511 748.885 127.444 761.554 127.444C764.651 127.444 768.013 127.195 770.861 126.418V159.968C765.958 161.257 758.456 162.034 753.289 162.034C723.312 162.034 703.141 142.417 703.141 108.369V67.8607H672.944L687.404 33.2857H703.141V0.322288H739.592V33.2711H770.876ZM97.9321 67.9486V33.3736H66.6484V0.410201H30.1973V33.3736H14.4601L0 67.9486H30.1973V108.457C30.1973 142.505 50.368 162.122 80.3451 162.122C85.5126 162.122 93.0142 161.345 97.9174 160.056V126.521C95.0695 127.297 91.7077 127.547 88.6101 127.547C75.9411 127.547 66.6338 121.613 66.6338 107.944V67.9486H97.9321ZM925.209 70.3806C937.35 70.3806 947.435 60.3304 947.435 48.1999C947.435 36.333 937.35 26.2682 925.209 26.2682C913.069 26.2682 902.983 36.333 902.983 48.1999C902.983 60.3158 913.054 70.3806 925.209 70.3806Z" fill="white"/>
</g>
<defs>
<clipPath id="clip0">
<rect width="961" height="202" fill="white"/>
</clipPath>
</defs>
</svg>
