<svg xmlns="http://www.w3.org/2000/svg" xmlns:xlink="http://www.w3.org/1999/xlink" width="1200" zoomAndPan="magnify" viewBox="0 0 900 675.000002" height="900" preserveAspectRatio="xMidYMid meet" version="1.2"><g id="e871766aba"><path style=" stroke:none;fill-rule:nonzero;fill:#091319;fill-opacity:1;" d="M 444.714844 637.097656 C 534.570312 573.859375 621.847656 512.167969 661.847656 418.058594 C 702.015625 323.5625 695 195.476562 687.648438 64.59375 L 696.378906 72.101562 C 662.382812 75.320312 627.890625 78.59375 596.570312 78.59375 C 580.722656 78.59375 565.53125 77.757812 551.480469 75.617188 C 509.472656 69.214844 478.929688 51.292969 449.644531 34.179688 L 456.757812 34.652344 L 456.261719 34.859375 C 407.757812 55.152344 357.886719 76.039062 315.894531 81.914062 C 306.640625 83.210938 297.78125 83.78125 289.230469 83.78125 C 258.453125 83.78125 231.820312 76.371094 206.277344 69.304688 L 216.394531 61.859375 L 216.378906 62.363281 C 211.863281 205.003906 207.648438 344.851562 246.941406 439.789062 C 285.945312 534.015625 368.300781 584.691406 453.488281 636.816406 L 444.714844 637.097656 M 453.914062 650.171875 C 451.308594 652.003906 447.863281 652.113281 445.144531 650.453125 C 360.722656 598.792969 273.472656 545.683594 232.171875 445.898438 C 191.261719 347.054688 195.929688 203.113281 200.402344 61.855469 L 200.417969 61.351562 C 200.496094 58.902344 201.695312 56.621094 203.667969 55.167969 C 205.640625 53.714844 208.175781 53.246094 210.539062 53.902344 C 236.277344 61.019531 260.925781 67.796875 289.230469 67.796875 C 297.0625 67.796875 305.1875 67.273438 313.679688 66.085938 C 353.171875 60.558594 400.921875 40.683594 450.09375 20.113281 L 450.097656 20.113281 L 450.59375 19.90625 C 452.90625 18.9375 455.542969 19.113281 457.707031 20.378906 C 487.105469 37.558594 515.25 53.925781 553.890625 59.816406 C 566.902344 61.796875 581.242188 62.609375 596.570312 62.609375 C 626.988281 62.609375 660.691406 59.425781 694.875 56.1875 C 697.035156 55.984375 699.191406 56.667969 700.835938 58.085938 C 702.484375 59.503906 703.484375 61.527344 703.605469 63.699219 C 710.882812 193.277344 718.496094 325.644531 676.558594 424.3125 C 634.457031 523.367188 542.894531 587.542969 453.914062 650.171875 Z M 453.914062 650.171875 "/><path style=" stroke:none;fill-rule:nonzero;fill:#091319;fill-opacity:1;" d="M 185.742188 22.902344 L 185.746094 22.902344 L 185.835938 22.9375 C 223.128906 37.050781 259.539062 50.757812 303.703125 47.21875 C 305.949219 47.039062 308.214844 46.816406 310.503906 46.546875 C 353.542969 41.523438 403.523438 21.515625 454.230469 1.1875 C 455.414062 0.710938 456.753906 0.816406 457.851562 1.464844 C 488.210938 19.425781 517.898438 36.949219 560.359375 42.390625 C 596.828125 47.070312 642.898438 42.863281 690.90625 37.257812 C 699.113281 36.296875 707.351562 35.300781 715.609375 34.304688 C 716.742188 34.167969 717.875 34.503906 718.75 35.238281 C 719.621094 35.972656 720.148438 37.035156 720.207031 38.171875 L 720.230469 38.636719 C 728.007812 188.285156 735.902344 339.355469 691.492188 445.433594 C 646.894531 551.964844 549.820312 612.6875 454.21875 672.636719 C 452.960938 673.425781 451.375 673.472656 450.070312 672.761719 L 449.820312 672.625 C 352.816406 619.722656 254.210938 566.03125 208.980469 457.507812 C 163.914062 349.382812 172.132812 187.203125 180.183594 26.539062 C 180.25 25.230469 180.941406 24.027344 182.039062 23.308594 C 183.136719 22.589844 184.515625 22.4375 185.742188 22.902344 M 182.835938 30.589844 L 188.394531 26.953125 C 180.304688 188.402344 172.382812 348.339844 216.566406 454.347656 C 260.507812 559.777344 356.285156 612.25 453.753906 665.410156 L 454.003906 665.546875 L 449.855469 665.671875 C 545.90625 605.441406 640.488281 545.984375 683.910156 442.257812 C 727.433594 338.300781 719.839844 189.4375 712.023438 39.0625 L 712 38.597656 L 716.597656 42.464844 C 708.355469 43.460938 700.070312 44.460938 691.859375 45.421875 C 643.980469 51.011719 596.933594 55.367188 559.3125 50.542969 C 514.992188 44.863281 483.996094 26.480469 453.667969 8.539062 L 457.289062 8.816406 C 406.917969 29.011719 355.816406 49.53125 311.457031 54.710938 C 309.074219 54.992188 306.710938 55.226562 304.359375 55.414062 C 258.113281 59.117188 220.070312 44.683594 182.925781 30.625 L 182.832031 30.589844 Z M 182.835938 30.589844 "/></g></svg>