<svg xmlns="http://www.w3.org/2000/svg" xmlns:xlink="http://www.w3.org/1999/xlink" width="1200" zoomAndPan="magnify" viewBox="0 0 900 675.000002" height="900" preserveAspectRatio="xMidYMid meet" version="1.2"><defs><clipPath id="a42764e6f1"><path d="M 0.1875 0.917969 L 733.5 0.917969 L 733.5 659.460938 L 0.1875 659.460938 Z M 0.1875 0.917969 "/></clipPath><filter x="0%" y="0%" width="100%" filterUnits="objectBoundingBox" id="8a149b59ad" height="100%"><feColorMatrix values="0 0 0 0 1 0 0 0 0 1 0 0 0 0 1 0 0 0 1 0" type="matrix" in="SourceGraphic"/></filter><clipPath id="41c2b5bb3c"><rect x="0" width="734" y="0" height="660"/></clipPath><clipPath id="ae1b656006"><path d="M 431.175781 99.351562 L 692.519531 99.351562 L 692.519531 448 L 431.175781 448 Z M 431.175781 99.351562 "/></clipPath><clipPath id="7a0e1f639d"><rect x="0" width="734" y="0" height="660"/></clipPath></defs><g id="e348efcea2"><g transform="matrix(1,0,0,1,81,1)"><g clip-path="url(#7a0e1f639d)"><g clip-rule="nonzero" clip-path="url(#a42764e6f1)"><g mask="url(#337c6d3483)" transform="matrix(1,0,0,1,-0.000000000000014211,-0.000000000000005551)"><g id="981b294416" clip-path="url(#41c2b5bb3c)"><path style=" stroke:none;fill-rule:nonzero;fill:#0c1e27;fill-opacity:1;" d="M 732.441406 573.375 C 724.164062 526.746094 689.203125 488.097656 646.066406 470.140625 C 640.742188 467.890625 635.292969 466 629.71875 464.46875 C 624.144531 462.9375 618.496094 461.78125 612.769531 461 C 607.042969 460.214844 601.289062 459.8125 595.511719 459.792969 C 589.730469 459.769531 583.972656 460.128906 578.242188 460.867188 C 552.007812 464.40625 527.773438 475.527344 504.035156 486.75 C 476.953125 499.566406 449.175781 513.429688 418.652344 515.027344 C 418.015625 515.046875 417.390625 515.148438 416.777344 515.335938 C 416.167969 515.519531 415.589844 515.78125 415.046875 516.117188 C 414.503906 516.453125 414.015625 516.855469 413.578125 517.324219 C 413.140625 517.789062 412.773438 518.304688 412.46875 518.867188 C 389.03125 509.441406 371.773438 486.050781 365.191406 461.964844 C 353.921875 420.371094 367.1875 377.183594 378.808594 336.988281 C 390.425781 296.789062 399.652344 257.941406 393.769531 216.5 C 387.984375 177.300781 370.878906 140.246094 348.882812 107.53125 C 323.050781 69.328125 290.882812 36.015625 258.917969 3.351562 C 258.453125 2.878906 257.933594 2.476562 257.359375 2.144531 C 256.785156 1.8125 256.179688 1.5625 255.539062 1.398438 C 254.898438 1.230469 254.246094 1.152344 253.582031 1.160156 C 252.921875 1.171875 252.273438 1.269531 251.636719 1.453125 C 212.714844 16.621094 173.113281 29.71875 132.824219 40.746094 C 92.535156 51.773438 51.777344 60.667969 10.558594 67.433594 C 10.277344 67.480469 10 67.542969 9.726562 67.621094 C 9.453125 67.703125 9.183594 67.800781 8.921875 67.917969 C 8.660156 68.035156 8.410156 68.167969 8.164062 68.316406 C 7.921875 68.464844 7.6875 68.628906 7.464844 68.808594 C 7.242188 68.984375 7.035156 69.179688 6.835938 69.386719 C 6.636719 69.589844 6.457031 69.808594 6.285156 70.039062 C 6.117188 70.269531 5.964844 70.511719 5.828125 70.761719 C 5.6875 71.011719 5.566406 71.269531 5.464844 71.535156 C 5.359375 71.800781 5.273438 72.074219 5.203125 72.351562 C 5.136719 72.628906 5.085938 72.90625 5.050781 73.191406 C 5.019531 73.476562 5.007812 73.761719 5.011719 74.046875 C 5.015625 74.332031 5.039062 74.617188 5.082031 74.898438 C 5.121094 75.179688 5.183594 75.460938 5.261719 75.734375 C 5.339844 76.007812 5.433594 76.277344 5.546875 76.539062 C 5.660156 76.800781 5.789062 77.054688 5.9375 77.300781 C 6.082031 77.546875 6.242188 77.78125 6.421875 78.007812 C 6.152344 78.414062 5.933594 78.84375 5.753906 79.296875 C 5.578125 79.75 5.453125 80.21875 5.375 80.699219 C 5.296875 81.179688 5.269531 81.664062 5.292969 82.148438 C 5.316406 82.632812 5.390625 83.113281 5.515625 83.582031 C 5.640625 84.054688 5.8125 84.507812 6.035156 84.941406 C 6.253906 85.375 6.515625 85.78125 6.820312 86.160156 C 7.128906 86.539062 7.46875 86.882812 7.847656 87.1875 C 8.222656 87.496094 8.628906 87.757812 9.0625 87.980469 C 62.875 118.101562 89.953125 177.699219 99.929688 236.347656 C 112.996094 312.898438 96.4375 390.945312 93.945312 467.550781 C 92.746094 505.050781 92.996094 545.597656 107.757812 580.757812 C 109.320312 584.367188 111.058594 587.898438 112.964844 591.339844 C 114.871094 594.785156 116.941406 598.128906 119.175781 601.371094 C 121.40625 604.613281 123.792969 607.742188 126.332031 610.75 C 128.867188 613.761719 131.546875 616.640625 134.363281 619.390625 C 137.179688 622.140625 140.125 624.746094 143.195312 627.207031 C 146.269531 629.671875 149.453125 631.980469 152.75 634.132812 C 156.042969 636.285156 159.4375 638.273438 162.925781 640.09375 C 166.417969 641.917969 169.988281 643.566406 173.636719 645.039062 C 236.875 671.621094 306.09375 647.035156 354.269531 602.351562 C 366.339844 591.179688 376.511719 578.210938 388.183594 566.691406 C 398.953125 556.121094 411.820312 546.742188 427.53125 546.742188 C 456.105469 546.742188 474.757812 575.96875 486.179688 598.460938 C 489.519531 605.042969 492.511719 611.824219 495.257812 618.707031 C 495.417969 619.253906 495.640625 619.773438 495.917969 620.265625 C 496.199219 620.761719 496.53125 621.21875 496.914062 621.636719 C 497.296875 622.058594 497.71875 622.429688 498.1875 622.753906 C 498.652344 623.082031 499.148438 623.347656 499.675781 623.5625 C 500.203125 623.777344 500.746094 623.925781 501.308594 624.019531 C 501.867188 624.109375 502.433594 624.136719 503 624.101562 C 503.566406 624.066406 504.121094 623.964844 504.667969 623.804688 C 505.210938 623.644531 505.730469 623.425781 506.226562 623.144531 C 514.332031 618.394531 522.625 614.003906 531.109375 609.972656 C 539.589844 605.9375 548.234375 602.277344 557.03125 598.992188 C 565.832031 595.707031 574.757812 592.804688 583.808594 590.289062 C 592.859375 587.777344 602 585.65625 611.234375 583.929688 C 620.46875 582.207031 629.757812 580.882812 639.105469 579.960938 C 648.453125 579.042969 657.824219 578.523438 667.21875 578.414062 C 676.609375 578.300781 685.988281 578.59375 695.355469 579.292969 C 704.722656 579.996094 714.042969 581.097656 723.316406 582.601562 C 723.632812 582.671875 723.949219 582.726562 724.273438 582.757812 C 724.59375 582.789062 724.917969 582.800781 725.242188 582.792969 C 725.5625 582.78125 725.886719 582.753906 726.207031 582.703125 C 726.527344 582.652344 726.839844 582.582031 727.152344 582.492188 C 727.460938 582.402344 727.765625 582.292969 728.0625 582.164062 C 728.359375 582.035156 728.648438 581.886719 728.925781 581.722656 C 729.203125 581.558594 729.46875 581.375 729.726562 581.175781 C 729.980469 580.976562 730.222656 580.761719 730.449219 580.53125 C 730.675781 580.300781 730.890625 580.058594 731.085938 579.800781 C 731.28125 579.542969 731.460938 579.273438 731.625 578.996094 C 731.785156 578.714844 731.929688 578.425781 732.058594 578.125 C 732.183594 577.828125 732.289062 577.523438 732.375 577.210938 C 732.460938 576.898438 732.527344 576.582031 732.574219 576.261719 C 732.621094 575.941406 732.648438 575.621094 732.652344 575.296875 C 732.660156 574.972656 732.644531 574.652344 732.609375 574.328125 C 732.574219 574.007812 732.519531 573.691406 732.441406 573.375 Z M 380.851562 552.828125 C 368.582031 564.148438 358.410156 577.464844 346.390625 589.035156 C 333.84375 601.167969 319.980469 611.542969 304.796875 620.152344 C 276.222656 636.3125 242.507812 645.089844 209.644531 640.101562 C 179.722656 635.117188 149.800781 620.152344 131.945312 594.570312 C 110.152344 563.351562 108.308594 522.707031 108.40625 485.953125 C 108.40625 406.15625 126.710938 326.613281 116.335938 247.117188 C 116.085938 245.125 115.738281 243.128906 115.4375 241.132812 L 116.984375 241.132812 L 122.867188 239.9375 C 123.835938 239.710938 124.683594 239.261719 125.414062 238.589844 C 126.21875 238.039062 126.867188 237.339844 127.359375 236.496094 C 127.910156 235.648438 128.210938 234.714844 128.253906 233.703125 C 128.507812 232.707031 128.507812 231.707031 128.253906 230.710938 L 127.507812 228.964844 C 126.835938 227.839844 125.941406 226.941406 124.8125 226.273438 L 123.019531 225.523438 C 121.6875 225.117188 120.359375 225.117188 119.027344 225.523438 L 113.144531 226.671875 C 102.769531 173.160156 79.429688 120.796875 35.695312 87.480469 C 32.203125 84.789062 28.613281 82.496094 24.972656 80 C 102.585938 66.570312 178.140625 45.6875 251.636719 17.363281 C 294.722656 61.597656 339.660156 109.074219 363.695312 166.277344 L 362.796875 165.679688 C 361.925781 165.160156 360.988281 164.835938 359.984375 164.707031 C 358.976562 164.574219 357.988281 164.652344 357.011719 164.933594 L 347.585938 168.371094 C 346.605469 168.566406 345.757812 169.015625 345.042969 169.71875 C 344.1875 170.222656 343.539062 170.921875 343.097656 171.8125 C 342.546875 172.644531 342.25 173.558594 342.203125 174.558594 C 341.949219 175.554688 341.949219 176.550781 342.203125 177.550781 C 342.464844 178.492188 342.894531 179.351562 343.488281 180.125 C 344.082031 180.902344 344.800781 181.539062 345.644531 182.039062 C 346.507812 182.550781 347.4375 182.875 348.433594 183.003906 C 349.429688 183.136719 350.410156 183.0625 351.378906 182.785156 L 360.851562 179.34375 C 361.828125 179.136719 362.675781 178.6875 363.398438 177.996094 C 364.226562 177.46875 364.875 176.769531 365.34375 175.902344 C 365.878906 175.050781 366.160156 174.117188 366.191406 173.109375 C 366.21875 172.992188 366.21875 172.878906 366.191406 172.761719 C 371.949219 187.511719 376.074219 202.703125 378.558594 218.34375 C 385.390625 261.730469 372.824219 303.125 360.953125 344.21875 C 349.433594 384.113281 338.808594 428.351562 351.578125 469.394531 C 360.605469 498.367188 382.347656 524.253906 411.023438 534.226562 C 405.371094 536.175781 400 538.722656 394.910156 541.859375 C 389.820312 544.996094 385.132812 548.652344 380.851562 552.828125 Z M 505.929688 605.890625 C 495.65625 581.804688 482.140625 557.515625 460.445312 542.355469 C 453.785156 537.679688 446.46875 534.503906 438.503906 532.828125 C 438.894531 531.015625 438.730469 529.253906 438.003906 527.542969 C 481.390625 518.964844 518.644531 491.636719 561.285156 479.617188 C 563.957031 478.886719 566.652344 478.246094 569.367188 477.695312 C 572.085938 477.140625 574.816406 476.679688 577.5625 476.308594 C 580.308594 475.941406 583.0625 475.660156 585.828125 475.472656 C 588.59375 475.285156 591.363281 475.191406 594.132812 475.1875 C 596.902344 475.183594 599.671875 475.273438 602.4375 475.453125 C 605.203125 475.636719 607.960938 475.90625 610.707031 476.273438 C 613.453125 476.636719 616.1875 477.089844 618.902344 477.636719 C 621.621094 478.183594 624.316406 478.816406 626.992188 479.542969 C 629.664062 480.265625 632.3125 481.078125 634.933594 481.980469 C 637.554688 482.882812 640.144531 483.867188 642.699219 484.941406 C 645.253906 486.015625 647.769531 487.171875 650.25 488.410156 C 652.726562 489.652344 655.160156 490.972656 657.550781 492.375 C 659.941406 493.777344 662.28125 495.253906 664.574219 496.8125 C 666.867188 498.371094 669.105469 500.003906 671.289062 501.707031 C 673.472656 503.414062 675.597656 505.191406 677.664062 507.039062 C 679.726562 508.886719 681.730469 510.800781 683.667969 512.78125 C 687.421875 516.472656 690.921875 520.390625 694.167969 524.535156 C 697.414062 528.679688 700.378906 533.015625 703.0625 537.546875 C 705.746094 542.074219 708.128906 546.757812 710.210938 551.59375 C 712.289062 556.429688 714.046875 561.378906 715.484375 566.441406 C 706.523438 565.265625 697.527344 564.449219 688.5 563.984375 C 679.472656 563.519531 670.441406 563.414062 661.402344 563.664062 C 652.367188 563.917969 643.355469 564.527344 634.367188 565.492188 C 625.378906 566.457031 616.441406 567.773438 607.558594 569.445312 C 598.675781 571.117188 589.871094 573.140625 581.148438 575.507812 C 572.425781 577.878906 563.808594 580.589844 555.300781 583.640625 C 546.789062 586.691406 538.414062 590.074219 530.171875 593.789062 C 521.933594 597.503906 513.851562 601.535156 505.929688 605.890625 Z M 243.558594 118.152344 L 126.757812 144.832031 C 117.382812 146.976562 113.394531 132.566406 122.769531 130.421875 L 239.566406 103.738281 C 248.941406 101.59375 252.933594 115.808594 243.558594 118.152344 Z M 139.078125 170.367188 C 139.09375 169.882812 139.152344 169.398438 139.261719 168.925781 C 139.367188 168.449219 139.515625 167.988281 139.710938 167.542969 C 139.902344 167.09375 140.136719 166.671875 140.410156 166.269531 C 140.683594 165.863281 140.992188 165.492188 141.335938 165.148438 C 141.683594 164.804688 142.054688 164.492188 142.457031 164.21875 C 142.859375 163.945312 143.285156 163.710938 143.730469 163.519531 C 144.179688 163.324219 144.640625 163.175781 145.113281 163.070312 C 145.589844 162.964844 146.070312 162.902344 146.558594 162.886719 C 172.648438 159.621094 198.113281 153.6875 222.960938 145.082031 C 232.085938 141.992188 235.976562 156.402344 226.898438 159.546875 C 200.753906 168.425781 173.972656 174.527344 146.558594 177.847656 C 146.066406 177.84375 145.582031 177.792969 145.101562 177.695312 C 144.621094 177.597656 144.15625 177.453125 143.703125 177.265625 C 143.25 177.078125 142.820312 176.84375 142.414062 176.574219 C 142.007812 176.300781 141.628906 175.988281 141.28125 175.644531 C 140.9375 175.296875 140.625 174.917969 140.351562 174.511719 C 140.078125 174.105469 139.847656 173.675781 139.660156 173.222656 C 139.472656 172.769531 139.328125 172.304688 139.230469 171.824219 C 139.132812 171.34375 139.082031 170.859375 139.078125 170.367188 Z M 245.652344 262.378906 C 221.878906 269.363281 197.925781 275.777344 173.789062 281.628906 C 164.410156 283.925781 160.472656 269.460938 169.796875 267.21875 C 193.902344 261.332031 217.855469 254.898438 241.660156 247.917969 C 250.9375 245.472656 254.878906 259.636719 245.652344 262.378906 Z M 238.667969 306.515625 C 217.613281 311.515625 196.933594 317.765625 176.628906 325.265625 C 176.164062 325.394531 175.691406 325.476562 175.210938 325.515625 C 174.730469 325.550781 174.25 325.542969 173.769531 325.488281 C 173.292969 325.433594 172.824219 325.332031 172.363281 325.1875 C 171.902344 325.039062 171.460938 324.851562 171.035156 324.621094 C 170.613281 324.390625 170.214844 324.125 169.84375 323.816406 C 169.472656 323.511719 169.132812 323.171875 168.824219 322.796875 C 168.515625 322.425781 168.25 322.027344 168.019531 321.605469 C 167.789062 321.179688 167.597656 320.738281 167.453125 320.28125 C 167.335938 319.804688 167.261719 319.324219 167.234375 318.835938 C 167.207031 318.347656 167.226562 317.859375 167.292969 317.375 C 167.359375 316.890625 167.46875 316.414062 167.625 315.953125 C 167.78125 315.488281 167.980469 315.042969 168.222656 314.617188 C 168.464844 314.191406 168.746094 313.792969 169.0625 313.421875 C 169.378906 313.046875 169.730469 312.710938 170.113281 312.40625 C 170.496094 312.097656 170.902344 311.832031 171.335938 311.605469 C 171.769531 311.378906 172.222656 311.195312 172.691406 311.054688 C 192.945312 303.511719 213.574219 297.195312 234.582031 292.101562 C 235.058594 291.953125 235.546875 291.855469 236.042969 291.804688 C 236.542969 291.757812 237.039062 291.757812 237.539062 291.808594 C 238.035156 291.855469 238.523438 291.957031 239.003906 292.105469 C 239.480469 292.253906 239.9375 292.445312 240.378906 292.6875 C 240.816406 292.925781 241.226562 293.207031 241.609375 293.53125 C 241.992188 293.855469 242.339844 294.210938 242.652344 294.605469 C 242.960938 294.996094 243.230469 295.414062 243.457031 295.859375 C 243.683594 296.308594 243.863281 296.773438 244 297.253906 C 244.132812 297.738281 244.214844 298.226562 244.25 298.726562 C 244.285156 299.226562 244.269531 299.722656 244.207031 300.21875 C 244.140625 300.714844 244.027344 301.203125 243.867188 301.675781 C 243.703125 302.148438 243.496094 302.601562 243.242188 303.03125 C 242.988281 303.464844 242.695312 303.867188 242.363281 304.238281 C 242.027344 304.613281 241.660156 304.949219 241.257812 305.246094 C 240.859375 305.546875 240.429688 305.804688 239.976562 306.015625 C 239.523438 306.230469 239.054688 306.394531 238.570312 306.515625 Z M 234.980469 338.882812 C 235.101562 339.347656 235.179688 339.820312 235.210938 340.296875 C 235.242188 340.777344 235.230469 341.257812 235.171875 341.734375 C 235.113281 342.210938 235.011719 342.679688 234.867188 343.136719 C 234.71875 343.59375 234.53125 344.035156 234.300781 344.457031 C 234.070312 344.878906 233.804688 345.277344 233.5 345.648438 C 233.195312 346.019531 232.859375 346.359375 232.488281 346.667969 C 232.121094 346.976562 231.726562 347.246094 231.308594 347.480469 C 230.886719 347.714844 230.449219 347.90625 229.992188 348.058594 C 211.9375 354.40625 194.152344 361.472656 176.628906 369.253906 C 176.207031 369.46875 175.769531 369.644531 175.316406 369.78125 C 174.863281 369.914062 174.402344 370.007812 173.929688 370.058594 C 173.460938 370.105469 172.988281 370.113281 172.515625 370.074219 C 172.042969 370.039062 171.578125 369.957031 171.121094 369.835938 C 170.664062 369.710938 170.222656 369.546875 169.796875 369.339844 C 169.371094 369.136719 168.964844 368.894531 168.582031 368.613281 C 168.203125 368.332031 167.847656 368.019531 167.523438 367.675781 C 167.199219 367.332031 166.910156 366.957031 166.65625 366.558594 C 166.429688 366.140625 166.246094 365.703125 166.105469 365.25 C 165.964844 364.796875 165.863281 364.332031 165.8125 363.859375 C 165.757812 363.386719 165.746094 362.914062 165.78125 362.4375 C 165.820312 361.964844 165.898438 361.496094 166.023438 361.039062 C 166.144531 360.578125 166.3125 360.136719 166.519531 359.707031 C 166.730469 359.28125 166.976562 358.875 167.257812 358.492188 C 167.542969 358.113281 167.863281 357.761719 168.214844 357.441406 C 168.566406 357.121094 168.945312 356.835938 169.347656 356.585938 C 188 348.242188 206.984375 340.675781 226.300781 333.894531 C 226.75 333.796875 227.203125 333.742188 227.660156 333.730469 C 228.117188 333.71875 228.574219 333.746094 229.027344 333.816406 C 229.480469 333.890625 229.921875 334 230.351562 334.152344 C 230.785156 334.304688 231.199219 334.496094 231.597656 334.722656 C 231.996094 334.953125 232.367188 335.214844 232.714844 335.511719 C 233.066406 335.808594 233.382812 336.132812 233.671875 336.488281 C 233.960938 336.84375 234.214844 337.222656 234.4375 337.625 C 234.65625 338.027344 234.835938 338.445312 234.980469 338.882812 Z M 333.074219 234.152344 C 333.203125 234.617188 333.285156 235.089844 333.324219 235.570312 C 333.359375 236.050781 333.351562 236.53125 333.296875 237.011719 C 333.242188 237.492188 333.140625 237.960938 332.996094 238.421875 C 332.847656 238.878906 332.660156 239.320312 332.429688 239.746094 C 332.199219 240.167969 331.933594 240.566406 331.625 240.941406 C 331.320312 241.3125 330.980469 241.652344 330.605469 241.957031 C 330.234375 242.265625 329.835938 242.535156 329.414062 242.765625 C 328.988281 242.996094 328.546875 243.183594 328.089844 243.328125 L 302.207031 249.910156 C 301.726562 250.058594 301.238281 250.160156 300.742188 250.207031 C 300.242188 250.257812 299.746094 250.257812 299.246094 250.207031 C 298.75 250.15625 298.261719 250.058594 297.78125 249.910156 C 297.304688 249.761719 296.847656 249.566406 296.40625 249.328125 C 295.96875 249.085938 295.558594 248.804688 295.175781 248.484375 C 294.792969 248.160156 294.445312 247.804688 294.132812 247.410156 C 293.824219 247.019531 293.554688 246.597656 293.328125 246.152344 C 293.101562 245.707031 292.921875 245.242188 292.789062 244.761719 C 292.652344 244.277344 292.570312 243.789062 292.535156 243.289062 C 292.5 242.789062 292.515625 242.289062 292.578125 241.792969 C 292.644531 241.296875 292.757812 240.8125 292.921875 240.339844 C 293.082031 239.867188 293.289062 239.414062 293.542969 238.980469 C 293.796875 238.550781 294.089844 238.148438 294.421875 237.773438 C 294.757812 237.402344 295.125 237.066406 295.527344 236.765625 C 295.925781 236.46875 296.355469 236.210938 296.808594 235.996094 C 297.261719 235.785156 297.730469 235.617188 298.214844 235.5 L 324.097656 228.917969 C 324.5625 228.8125 325.035156 228.75 325.507812 228.730469 C 325.984375 228.714844 326.457031 228.742188 326.929688 228.8125 C 327.402344 228.886719 327.859375 229 328.308594 229.15625 C 328.757812 229.316406 329.191406 229.511719 329.601562 229.75 C 330.015625 229.988281 330.402344 230.261719 330.761719 230.574219 C 331.125 230.886719 331.453125 231.226562 331.75 231.597656 C 332.046875 231.972656 332.308594 232.367188 332.53125 232.789062 C 332.753906 233.210938 332.933594 233.648438 333.074219 234.101562 Z M 294.675781 286.667969 C 294.433594 285.699219 294.378906 284.71875 294.507812 283.726562 C 294.636719 282.738281 294.941406 281.804688 295.421875 280.929688 C 295.917969 280.089844 296.554688 279.367188 297.332031 278.773438 C 298.109375 278.179688 298.96875 277.75 299.910156 277.492188 L 316.019531 274.746094 C 317.332031 274.390625 318.644531 274.390625 319.960938 274.746094 L 321.753906 275.496094 C 322.390625 275.867188 322.957031 276.324219 323.457031 276.863281 C 323.957031 277.402344 324.367188 278 324.691406 278.660156 C 325.015625 279.324219 325.234375 280.015625 325.351562 280.742188 C 325.472656 281.46875 325.484375 282.195312 325.386719 282.921875 C 325.292969 283.652344 325.09375 284.351562 324.789062 285.023438 C 324.488281 285.691406 324.097656 286.304688 323.613281 286.859375 C 323.128906 287.414062 322.578125 287.886719 321.957031 288.28125 C 321.332031 288.671875 320.667969 288.964844 319.960938 289.160156 L 303.902344 291.902344 C 302.570312 292.257812 301.242188 292.257812 299.910156 291.902344 L 298.117188 291.15625 C 297.269531 290.648438 296.550781 290.003906 295.957031 289.21875 C 295.359375 288.433594 294.933594 287.566406 294.675781 286.617188 Z M 314.921875 332.597656 C 306.835938 336.484375 298.523438 339.808594 289.988281 342.570312 C 289.523438 342.699219 289.046875 342.78125 288.566406 342.820312 C 288.085938 342.855469 287.605469 342.847656 287.128906 342.792969 C 286.648438 342.738281 286.179688 342.636719 285.71875 342.492188 C 285.257812 342.347656 284.816406 342.15625 284.394531 341.929688 C 283.96875 341.699219 283.570312 341.429688 283.199219 341.121094 C 282.828125 340.816406 282.488281 340.476562 282.179688 340.105469 C 281.875 339.730469 281.605469 339.332031 281.375 338.910156 C 281.144531 338.488281 280.957031 338.042969 280.8125 337.585938 C 280.683594 337.117188 280.605469 336.644531 280.570312 336.160156 C 280.535156 335.679688 280.546875 335.199219 280.601562 334.71875 C 280.65625 334.238281 280.757812 333.769531 280.90625 333.308594 C 281.050781 332.847656 281.238281 332.40625 281.46875 331.980469 C 281.699219 331.554688 281.964844 331.15625 282.269531 330.78125 C 282.578125 330.40625 282.914062 330.0625 283.285156 329.753906 C 283.65625 329.445312 284.054688 329.171875 284.476562 328.9375 C 284.898438 328.703125 285.339844 328.507812 285.796875 328.359375 C 290.234375 326.960938 294.625 325.316406 298.914062 323.371094 C 301.757812 322.125 304.550781 320.878906 307.34375 319.53125 C 307.761719 319.3125 308.195312 319.132812 308.648438 318.992188 C 309.101562 318.855469 309.5625 318.757812 310.035156 318.707031 C 310.503906 318.652344 310.976562 318.644531 311.449219 318.675781 C 311.921875 318.710938 312.386719 318.789062 312.84375 318.910156 C 313.300781 319.03125 313.742188 319.195312 314.171875 319.398438 C 314.597656 319.601562 315.003906 319.84375 315.386719 320.125 C 315.769531 320.402344 316.121094 320.714844 316.445312 321.058594 C 316.769531 321.402344 317.0625 321.777344 317.316406 322.175781 C 317.574219 322.59375 317.789062 323.035156 317.960938 323.5 C 318.136719 323.960938 318.261719 324.433594 318.339844 324.921875 C 318.421875 325.410156 318.453125 325.898438 318.4375 326.390625 C 318.421875 326.886719 318.359375 327.371094 318.246094 327.851562 C 318.136719 328.332031 317.980469 328.796875 317.777344 329.25 C 317.574219 329.699219 317.332031 330.125 317.046875 330.527344 C 316.761719 330.929688 316.441406 331.300781 316.082031 331.640625 C 315.726562 331.980469 315.339844 332.285156 314.921875 332.546875 Z M 176.332031 542.457031 C 176.550781 542.035156 176.734375 541.597656 176.875 541.144531 C 177.011719 540.691406 177.109375 540.226562 177.160156 539.753906 C 177.214844 539.28125 177.222656 538.808594 177.1875 538.335938 C 177.152344 537.863281 177.070312 537.398438 176.945312 536.9375 C 176.824219 536.480469 176.65625 536.035156 176.449219 535.609375 C 176.242188 535.179688 176 534.777344 175.714844 534.394531 C 175.433594 534.015625 175.117188 533.664062 174.765625 533.339844 C 174.417969 533.019531 174.039062 532.730469 173.636719 532.480469 C 173.628906 532.363281 173.628906 532.25 173.636719 532.132812 L 173.386719 531.683594 C 173.234375 531.257812 173.101562 530.824219 172.988281 530.386719 C 172.863281 529.941406 172.765625 529.496094 172.691406 529.039062 C 172.691406 528.691406 172.691406 528.339844 172.691406 528.042969 C 172.691406 526.796875 172.691406 525.550781 172.691406 524.300781 C 172.699219 517.234375 173.082031 510.183594 173.835938 503.15625 C 173.835938 502.667969 173.785156 502.179688 173.683594 501.699219 C 173.585938 501.21875 173.445312 500.753906 173.253906 500.300781 C 173.066406 499.847656 172.835938 499.417969 172.5625 499.011719 C 172.289062 498.605469 171.976562 498.226562 171.632812 497.882812 C 171.285156 497.535156 170.90625 497.226562 170.5 496.953125 C 170.09375 496.679688 169.664062 496.449219 169.210938 496.257812 C 168.757812 496.070312 168.292969 495.925781 167.8125 495.828125 C 167.332031 495.730469 166.847656 495.679688 166.355469 495.675781 C 165.867188 495.6875 165.386719 495.746094 164.910156 495.851562 C 164.433594 495.957031 163.972656 496.105469 163.523438 496.296875 C 163.074219 496.488281 162.648438 496.722656 162.246094 496.996094 C 161.84375 497.269531 161.46875 497.578125 161.121094 497.921875 C 160.777344 498.269531 160.46875 498.640625 160.195312 499.046875 C 159.921875 499.449219 159.6875 499.875 159.496094 500.324219 C 159.304688 500.773438 159.15625 501.234375 159.050781 501.710938 C 158.945312 502.1875 158.886719 502.667969 158.875 503.15625 C 157.945312 510.910156 157.5625 518.691406 157.730469 526.496094 C 157.613281 528.363281 157.730469 530.214844 158.082031 532.050781 C 158.433594 533.886719 159.007812 535.652344 159.804688 537.34375 C 160.605469 539.035156 161.601562 540.601562 162.792969 542.039062 C 163.988281 543.480469 165.339844 544.75 166.855469 545.847656 C 167.28125 546.019531 167.71875 546.15625 168.171875 546.25 C 168.621094 546.34375 169.078125 546.394531 169.539062 546.40625 C 170 546.414062 170.457031 546.382812 170.910156 546.308594 C 171.363281 546.234375 171.808594 546.121094 172.242188 545.964844 C 172.675781 545.8125 173.09375 545.617188 173.492188 545.386719 C 173.886719 545.15625 174.261719 544.890625 174.613281 544.589844 C 174.960938 544.289062 175.28125 543.960938 175.570312 543.601562 C 175.859375 543.242188 176.113281 542.859375 176.332031 542.457031 Z M 172.09375 528.339844 C 172.09375 528.339844 172.09375 527.84375 172.09375 527.84375 Z M 191.492188 537.46875 C 191.027344 537.59375 190.554688 537.671875 190.074219 537.707031 C 189.59375 537.742188 189.113281 537.730469 188.636719 537.675781 C 188.15625 537.617188 187.6875 537.515625 187.230469 537.371094 C 186.773438 537.226562 186.332031 537.035156 185.90625 536.808594 C 185.484375 536.578125 185.085938 536.308594 184.714844 536.003906 C 184.34375 535.699219 184.003906 535.359375 183.695312 534.988281 C 183.386719 534.617188 183.117188 534.222656 182.886719 533.800781 C 182.652344 533.378906 182.464844 532.9375 182.316406 532.480469 C 179.199219 522.75 177.75 512.773438 177.976562 502.558594 C 177.976562 502.066406 178.023438 501.582031 178.121094 501.097656 C 178.214844 500.617188 178.359375 500.148438 178.546875 499.695312 C 178.734375 499.242188 178.964844 498.8125 179.238281 498.402344 C 179.511719 497.992188 179.820312 497.617188 180.167969 497.269531 C 180.515625 496.921875 180.894531 496.609375 181.300781 496.339844 C 181.710938 496.066406 182.140625 495.835938 182.59375 495.648438 C 183.046875 495.460938 183.515625 495.316406 183.996094 495.222656 C 184.480469 495.125 184.964844 495.078125 185.457031 495.078125 C 185.949219 495.078125 186.433594 495.125 186.917969 495.222656 C 187.398438 495.316406 187.867188 495.460938 188.320312 495.648438 C 188.773438 495.835938 189.203125 496.066406 189.613281 496.339844 C 190.023438 496.609375 190.398438 496.921875 190.746094 497.269531 C 191.09375 497.617188 191.402344 497.992188 191.675781 498.402344 C 191.949219 498.8125 192.179688 499.242188 192.367188 499.695312 C 192.554688 500.148438 192.699219 500.617188 192.792969 501.097656 C 192.890625 501.582031 192.9375 502.066406 192.9375 502.558594 C 192.9375 504.902344 192.9375 507.246094 192.9375 509.589844 L 193.238281 512.980469 L 193.238281 514.777344 C 193.949219 519.347656 195.011719 523.835938 196.429688 528.242188 C 196.558594 528.707031 196.640625 529.179688 196.679688 529.660156 C 196.71875 530.140625 196.710938 530.621094 196.65625 531.101562 C 196.605469 531.582031 196.507812 532.050781 196.363281 532.511719 C 196.21875 532.972656 196.035156 533.417969 195.808594 533.84375 C 195.578125 534.269531 195.3125 534.667969 195.007812 535.042969 C 194.707031 535.417969 194.367188 535.761719 194 536.070312 C 193.628906 536.382812 193.234375 536.65625 192.8125 536.890625 C 192.390625 537.125 191.949219 537.316406 191.492188 537.46875 Z M 216.425781 521.308594 C 216.628906 522.027344 216.71875 522.757812 216.703125 523.503906 C 216.683594 524.246094 216.558594 524.972656 216.324219 525.679688 C 216.089844 526.386719 215.757812 527.042969 215.328125 527.648438 C 214.894531 528.257812 214.386719 528.789062 213.796875 529.246094 C 213.207031 529.699219 212.566406 530.058594 211.867188 530.324219 C 211.171875 530.585938 210.453125 530.742188 209.710938 530.789062 C 208.964844 530.839844 208.230469 530.777344 207.507812 530.605469 C 206.78125 530.4375 206.097656 530.164062 205.457031 529.789062 C 204.636719 529.261719 203.933594 528.617188 203.34375 527.84375 C 202.75 527.074219 202.308594 526.226562 202.015625 525.300781 C 200.351562 520.621094 199.402344 515.800781 199.164062 510.839844 C 198.925781 505.878906 199.410156 500.992188 200.617188 496.175781 C 200.738281 495.6875 200.902344 495.21875 201.117188 494.765625 C 201.332031 494.3125 201.585938 493.886719 201.886719 493.484375 C 202.183594 493.085938 202.519531 492.714844 202.894531 492.382812 C 203.265625 492.050781 203.667969 491.753906 204.101562 491.503906 C 204.53125 491.25 204.984375 491.042969 205.457031 490.878906 C 205.933594 490.71875 206.417969 490.601562 206.914062 490.539062 C 207.410156 490.472656 207.90625 490.457031 208.40625 490.492188 C 208.90625 490.527344 209.398438 490.613281 209.878906 490.746094 C 210.363281 490.878906 210.824219 491.058594 211.273438 491.285156 C 211.71875 491.511719 212.136719 491.78125 212.53125 492.09375 C 212.921875 492.402344 213.28125 492.75 213.601562 493.132812 C 213.925781 493.515625 214.207031 493.925781 214.445312 494.367188 C 214.6875 494.804688 214.882812 495.265625 215.027344 495.742188 C 215.175781 496.21875 215.277344 496.707031 215.328125 497.207031 C 215.375 497.703125 215.375 498.203125 215.328125 498.699219 C 215.277344 499.199219 215.179688 499.6875 215.03125 500.164062 C 214.730469 501.261719 214.582031 502.410156 214.382812 503.554688 C 214.058594 506.746094 214.058594 509.9375 214.382812 513.132812 C 214.894531 515.929688 215.65625 518.65625 216.675781 521.308594 Z M 239.417969 512.832031 C 239.53125 513.300781 239.601562 513.773438 239.625 514.253906 C 239.648438 514.738281 239.625 515.214844 239.554688 515.691406 C 239.484375 516.167969 239.371094 516.636719 239.210938 517.089844 C 239.050781 517.542969 238.847656 517.980469 238.605469 518.394531 C 238.363281 518.8125 238.082031 519.199219 237.761719 519.5625 C 237.445312 519.921875 237.09375 520.25 236.710938 520.542969 C 236.328125 520.835938 235.921875 521.09375 235.492188 521.308594 C 235.058594 521.523438 234.613281 521.695312 234.148438 521.824219 C 233.683594 521.949219 233.210938 522.035156 232.730469 522.070312 C 232.25 522.109375 231.769531 522.097656 231.292969 522.042969 C 230.8125 521.988281 230.34375 521.886719 229.886719 521.742188 C 229.425781 521.597656 228.984375 521.40625 228.5625 521.175781 C 228.140625 520.945312 227.742188 520.675781 227.371094 520.367188 C 227 520.058594 226.664062 519.71875 226.359375 519.34375 C 226.054688 518.972656 225.789062 518.574219 225.558594 518.148438 C 225.332031 517.722656 225.148438 517.28125 225.003906 516.820312 C 223.972656 514.003906 223.15625 511.125 222.558594 508.183594 C 221.960938 505.242188 221.585938 502.273438 221.4375 499.273438 C 221.292969 496.277344 221.371094 493.285156 221.675781 490.300781 C 221.980469 487.3125 222.507812 484.367188 223.257812 481.460938 C 223.390625 480.988281 223.566406 480.53125 223.785156 480.089844 C 224.007812 479.648438 224.269531 479.234375 224.574219 478.84375 C 224.875 478.457031 225.210938 478.101562 225.585938 477.777344 C 225.957031 477.457031 226.359375 477.175781 226.789062 476.929688 C 227.214844 476.6875 227.664062 476.488281 228.132812 476.332031 C 228.597656 476.179688 229.078125 476.070312 229.566406 476.007812 C 230.054688 475.949219 230.546875 475.9375 231.039062 475.972656 C 231.527344 476.007812 232.011719 476.089844 232.488281 476.222656 C 232.960938 476.351562 233.417969 476.527344 233.859375 476.75 C 234.300781 476.972656 234.714844 477.234375 235.101562 477.535156 C 235.492188 477.839844 235.847656 478.175781 236.167969 478.550781 C 236.492188 478.921875 236.773438 479.324219 237.015625 479.753906 C 237.261719 480.179688 237.457031 480.628906 237.613281 481.097656 C 237.769531 481.566406 237.875 482.042969 237.9375 482.53125 C 237.996094 483.019531 238.007812 483.511719 237.972656 484.003906 C 237.9375 484.496094 237.851562 484.976562 237.722656 485.453125 C 237.363281 486.714844 237.082031 487.996094 236.875 489.292969 C 236.875 489.742188 236.175781 492.136719 236.875 490.039062 C 236.824219 490.605469 236.824219 491.171875 236.875 491.734375 C 236.699219 494.246094 236.699219 496.757812 236.875 499.265625 C 236.890625 500.488281 237.007812 501.703125 237.222656 502.90625 C 236.675781 500.8125 237.222656 503.257812 237.222656 503.65625 L 237.523438 505.300781 C 238 507.867188 238.683594 510.375 239.566406 512.832031 Z M 244.40625 506.746094 C 241.644531 496.398438 240.761719 485.894531 241.761719 475.230469 C 241.777344 474.742188 241.839844 474.261719 241.945312 473.785156 C 242.050781 473.3125 242.199219 472.851562 242.394531 472.402344 C 242.585938 471.957031 242.820312 471.53125 243.09375 471.128906 C 243.367188 470.726562 243.675781 470.351562 244.023438 470.007812 C 244.367188 469.664062 244.738281 469.355469 245.140625 469.082031 C 245.546875 468.808594 245.96875 468.574219 246.417969 468.378906 C 246.863281 468.1875 247.324219 468.039062 247.800781 467.929688 C 248.273438 467.824219 248.753906 467.765625 249.242188 467.75 C 249.734375 467.75 250.21875 467.796875 250.703125 467.890625 C 251.183594 467.988281 251.652344 468.128906 252.105469 468.316406 C 252.558594 468.503906 252.988281 468.734375 253.398438 469.007812 C 253.808594 469.28125 254.183594 469.59375 254.53125 469.9375 C 254.878906 470.285156 255.1875 470.664062 255.460938 471.074219 C 255.734375 471.480469 255.964844 471.914062 256.152344 472.367188 C 256.339844 472.820312 256.484375 473.289062 256.578125 473.769531 C 256.675781 474.25 256.722656 474.738281 256.722656 475.230469 C 256.296875 480.101562 256.296875 484.96875 256.722656 489.839844 C 256.722656 491.039062 256.722656 492.234375 257.070312 493.433594 C 257.070312 493.433594 257.070312 493.78125 257.070312 493.980469 L 257.371094 495.625 C 257.777344 498.03125 258.3125 500.410156 258.96875 502.757812 C 259.097656 503.234375 259.179688 503.714844 259.21875 504.207031 C 259.253906 504.699219 259.242188 505.1875 259.179688 505.675781 C 259.121094 506.164062 259.011719 506.644531 258.855469 507.113281 C 258.703125 507.578125 258.503906 508.027344 258.257812 508.457031 C 258.015625 508.882812 257.734375 509.285156 257.410156 509.65625 C 257.089844 510.03125 256.734375 510.367188 256.347656 510.671875 C 255.957031 510.972656 255.542969 511.234375 255.101562 511.457031 C 254.664062 511.675781 254.207031 511.851562 253.730469 511.984375 C 253.253906 512.113281 252.773438 512.199219 252.28125 512.234375 C 251.789062 512.269531 251.300781 512.257812 250.8125 512.195312 C 250.324219 512.136719 249.84375 512.027344 249.375 511.875 C 248.910156 511.71875 248.460938 511.519531 248.03125 511.277344 C 247.605469 511.035156 247.203125 510.75 246.832031 510.429688 C 246.457031 510.105469 246.121094 509.75 245.816406 509.363281 C 245.515625 508.972656 245.253906 508.558594 245.03125 508.121094 C 244.8125 507.679688 244.636719 507.222656 244.503906 506.746094 Z M 271.882812 462.710938 C 272.824219 462.972656 273.683594 463.402344 274.460938 463.996094 C 275.238281 464.59375 275.875 465.3125 276.371094 466.152344 C 276.84375 467.03125 277.140625 467.964844 277.269531 468.953125 C 277.398438 469.941406 277.347656 470.917969 277.121094 471.886719 C 277.121094 471.886719 277.121094 471.886719 277.121094 472.238281 C 276.769531 475.410156 276.769531 478.585938 277.121094 481.761719 C 277.398438 483.53125 277.777344 485.277344 278.265625 487 C 278.566406 488.046875 278.914062 488.992188 279.265625 489.992188 L 279.265625 490.289062 L 279.863281 491.488281 C 280.078125 491.90625 280.253906 492.347656 280.390625 492.800781 C 280.523438 493.253906 280.617188 493.714844 280.667969 494.1875 C 280.71875 494.65625 280.722656 495.128906 280.6875 495.601562 C 280.648438 496.074219 280.566406 496.539062 280.445312 496.996094 C 280.320312 497.453125 280.15625 497.894531 279.953125 498.320312 C 279.746094 498.746094 279.503906 499.152344 279.222656 499.535156 C 278.945312 499.914062 278.632812 500.269531 278.285156 500.59375 C 277.941406 500.917969 277.570312 501.207031 277.171875 501.460938 C 276.753906 501.691406 276.316406 501.878906 275.863281 502.023438 C 275.410156 502.167969 274.949219 502.269531 274.476562 502.328125 C 274.003906 502.386719 273.53125 502.398438 273.054688 502.367188 C 272.582031 502.332031 272.113281 502.257812 271.652344 502.132812 C 271.195312 502.011719 270.75 501.847656 270.320312 501.640625 C 269.894531 501.433594 269.488281 501.191406 269.105469 500.90625 C 268.722656 500.621094 268.371094 500.304688 268.050781 499.953125 C 267.730469 499.601562 267.445312 499.222656 267.195312 498.816406 C 266.023438 496.421875 265.046875 493.949219 264.269531 491.394531 C 263.492188 488.84375 262.921875 486.246094 262.5625 483.601562 C 262.203125 480.957031 262.054688 478.300781 262.121094 475.632812 C 262.1875 472.964844 262.464844 470.320312 262.957031 467.699219 C 263.101562 467.234375 263.292969 466.785156 263.523438 466.359375 C 263.753906 465.929688 264.027344 465.527344 264.335938 465.152344 C 264.648438 464.773438 264.992188 464.433594 265.367188 464.125 C 265.746094 463.816406 266.148438 463.542969 266.578125 463.3125 C 267.007812 463.082031 267.453125 462.894531 267.921875 462.75 C 268.386719 462.609375 268.863281 462.511719 269.347656 462.457031 C 269.832031 462.40625 270.316406 462.402344 270.800781 462.445312 C 271.289062 462.488281 271.765625 462.574219 272.234375 462.710938 Z M 299.414062 465.902344 L 299.414062 465.453125 C 298.910156 469.476562 298.910156 473.5 299.414062 477.523438 C 299.414062 479.167969 299.960938 480.765625 300.359375 482.511719 C 300.507812 482.988281 300.605469 483.476562 300.65625 483.972656 C 300.707031 484.472656 300.707031 484.96875 300.65625 485.46875 C 300.605469 485.964844 300.507812 486.453125 300.359375 486.933594 C 300.210938 487.410156 300.015625 487.871094 299.777344 488.308594 C 299.535156 488.746094 299.253906 489.160156 298.929688 489.539062 C 298.609375 489.921875 298.25 490.269531 297.859375 490.582031 C 297.464844 490.890625 297.046875 491.160156 296.601562 491.386719 C 296.15625 491.613281 295.691406 491.792969 295.207031 491.929688 C 294.726562 492.0625 294.234375 492.144531 293.734375 492.179688 C 293.238281 492.214844 292.738281 492.199219 292.242188 492.136719 C 291.746094 492.070312 291.261719 491.957031 290.789062 491.796875 C 290.316406 491.632812 289.863281 491.425781 289.429688 491.171875 C 289 490.917969 288.597656 490.625 288.222656 490.292969 C 287.851562 489.957031 287.515625 489.589844 287.214844 489.1875 C 286.914062 488.789062 286.660156 488.359375 286.445312 487.90625 C 286.234375 487.457031 286.066406 486.984375 285.949219 486.5 C 284.894531 482.589844 284.277344 478.609375 284.101562 474.5625 C 283.925781 470.515625 284.191406 466.5 284.898438 462.511719 C 285.132812 461.5625 285.546875 460.699219 286.132812 459.917969 C 286.722656 459.140625 287.441406 458.507812 288.292969 458.023438 C 288.71875 457.777344 289.164062 457.574219 289.628906 457.414062 C 290.09375 457.253906 290.574219 457.140625 291.0625 457.074219 C 291.550781 457.007812 292.039062 456.988281 292.53125 457.019531 C 293.023438 457.046875 293.507812 457.125 293.984375 457.25 C 294.460938 457.375 294.921875 457.546875 295.363281 457.761719 C 295.804688 457.976562 296.226562 458.230469 296.617188 458.53125 C 297.011719 458.828125 297.371094 459.160156 297.699219 459.527344 C 298.027344 459.894531 298.316406 460.292969 298.566406 460.714844 C 299.449219 462.347656 299.734375 464.074219 299.414062 465.902344 Z M 314.375 482.859375 C 313.433594 482.601562 312.582031 482.175781 311.8125 481.582031 C 311.042969 480.984375 310.417969 480.261719 309.933594 479.417969 C 308.777344 477.03125 307.839844 474.566406 307.121094 472.011719 C 306.402344 469.460938 305.914062 466.867188 305.652344 464.230469 C 305.394531 461.59375 305.367188 458.953125 305.578125 456.308594 C 305.785156 453.667969 306.222656 451.0625 306.894531 448.5 C 307.011719 448.011719 307.179688 447.542969 307.390625 447.089844 C 307.605469 446.636719 307.863281 446.210938 308.160156 445.808594 C 308.460938 445.40625 308.796875 445.039062 309.167969 444.707031 C 309.542969 444.371094 309.945312 444.078125 310.375 443.824219 C 310.808594 443.574219 311.261719 443.363281 311.734375 443.203125 C 312.207031 443.039062 312.691406 442.925781 313.1875 442.863281 C 313.683594 442.796875 314.183594 442.78125 314.683594 442.816406 C 315.179688 442.851562 315.671875 442.9375 316.15625 443.070312 C 316.636719 443.203125 317.101562 443.382812 317.546875 443.609375 C 317.992188 443.835938 318.414062 444.105469 318.804688 444.417969 C 319.195312 444.726562 319.554688 445.074219 319.878906 445.457031 C 320.199219 445.839844 320.480469 446.25 320.722656 446.691406 C 320.960938 447.128906 321.15625 447.585938 321.304688 448.066406 C 321.453125 448.542969 321.550781 449.03125 321.601562 449.53125 C 321.652344 450.027344 321.652344 450.527344 321.601562 451.023438 C 321.550781 451.523438 321.453125 452.007812 321.304688 452.488281 C 321.007812 453.683594 320.757812 454.929688 320.558594 456.128906 C 320.308594 458.6875 320.308594 461.25 320.558594 463.808594 C 320.984375 466.503906 321.714844 469.113281 322.753906 471.636719 L 322.753906 471.886719 C 322.96875 472.308594 323.144531 472.746094 323.277344 473.199219 C 323.414062 473.652344 323.507812 474.117188 323.554688 474.585938 C 323.605469 475.058594 323.613281 475.53125 323.574219 476 C 323.539062 476.472656 323.457031 476.9375 323.332031 477.394531 C 323.210938 477.851562 323.046875 478.292969 322.839844 478.722656 C 322.636719 479.148438 322.394531 479.550781 322.113281 479.933594 C 321.832031 480.316406 321.519531 480.667969 321.175781 480.992188 C 320.828125 481.316406 320.457031 481.605469 320.058594 481.863281 C 319.214844 482.394531 318.300781 482.75 317.316406 482.921875 C 316.332031 483.09375 315.351562 483.074219 314.375 482.859375 Z M 187.402344 556.769531 L 187.652344 558.761719 C 187.71875 559.789062 187.5 560.753906 187.003906 561.65625 C 186.660156 562.5625 186.144531 563.363281 185.457031 564.046875 C 184.769531 564.734375 183.972656 565.25 183.0625 565.59375 C 182.164062 566.09375 181.199219 566.308594 180.171875 566.242188 L 177.578125 566.242188 C 176.242188 566.246094 174.996094 565.914062 173.835938 565.246094 L 172.292969 564.050781 C 171.359375 563.125 170.730469 562.027344 170.394531 560.757812 L 170.097656 558.761719 C 170.054688 557.757812 170.269531 556.808594 170.746094 555.921875 C 171.058594 554.976562 171.574219 554.164062 172.292969 553.476562 C 172.96875 552.773438 173.765625 552.257812 174.683594 551.929688 C 175.597656 551.484375 176.5625 551.269531 177.578125 551.28125 L 180.171875 551.28125 C 181.53125 551.273438 182.796875 551.625 183.960938 552.328125 L 185.457031 553.476562 C 186.398438 554.402344 187.046875 555.5 187.402344 556.769531 Z M 207.847656 547.242188 C 208.308594 548.152344 208.507812 549.117188 208.449219 550.136719 C 208.507812 551.136719 208.304688 552.085938 207.847656 552.976562 C 207.515625 553.910156 207.003906 554.722656 206.304688 555.421875 L 205.40625 556.269531 C 204.46875 557.191406 203.371094 557.839844 202.113281 558.214844 L 200.121094 558.464844 C 198.757812 558.464844 197.496094 558.113281 196.328125 557.417969 L 194.832031 556.269531 C 194.109375 555.605469 193.597656 554.808594 193.285156 553.875 C 192.855469 552.960938 192.640625 551.996094 192.640625 550.984375 C 192.640625 549.96875 192.855469 549.007812 193.285156 548.089844 C 193.582031 547.152344 194.097656 546.351562 194.832031 545.695312 L 195.679688 544.847656 C 196.617188 543.894531 197.730469 543.246094 199.023438 542.902344 L 200.96875 542.902344 C 202.328125 542.871094 203.589844 543.203125 204.757812 543.902344 L 206.304688 545.097656 C 206.980469 545.699219 207.496094 546.414062 207.847656 547.242188 Z M 233.332031 538.613281 L 233.332031 540.558594 C 233.398438 541.585938 233.183594 542.550781 232.683594 543.453125 C 232.390625 544.40625 231.875 545.222656 231.140625 545.894531 C 230.464844 546.605469 229.667969 547.121094 228.746094 547.441406 C 227.835938 547.902344 226.871094 548.101562 225.851562 548.039062 L 225.003906 548.039062 C 223.648438 548.058594 222.386719 547.726562 221.214844 547.042969 L 219.71875 545.894531 C 218.785156 544.949219 218.136719 543.835938 217.773438 542.554688 L 217.773438 540.558594 C 217.738281 539.554688 217.953125 538.609375 218.421875 537.71875 C 218.71875 536.761719 219.230469 535.949219 219.96875 535.273438 C 220.644531 534.570312 221.441406 534.054688 222.363281 533.726562 C 223.273438 533.28125 224.238281 533.0625 225.253906 533.078125 L 226.101562 533.078125 C 227.457031 533.097656 228.722656 533.445312 229.890625 534.125 L 231.386719 535.273438 C 232.339844 536.210938 232.988281 537.324219 233.332031 538.613281 Z M 302.40625 510.089844 C 302.527344 510.5625 302.601562 511.042969 302.632812 511.53125 C 302.660156 512.019531 302.644531 512.503906 302.578125 512.988281 C 302.511719 513.472656 302.402344 513.945312 302.246094 514.410156 C 302.089844 514.871094 301.890625 515.316406 301.648438 515.738281 C 301.40625 516.164062 301.125 516.5625 300.808594 516.929688 C 300.488281 517.300781 300.136719 517.636719 299.753906 517.941406 C 299.367188 518.242188 298.960938 518.503906 298.523438 518.726562 C 298.089844 518.949219 297.636719 519.128906 297.167969 519.265625 C 293.925781 520.511719 290.683594 521.859375 287.445312 523.203125 L 286.644531 523.554688 L 286.097656 523.554688 L 283.15625 524.851562 L 277.320312 527.34375 C 269.9375 530.484375 262.359375 533.777344 254.976562 536.621094 C 254.496094 536.777344 254.003906 536.886719 253.5 536.945312 C 252.996094 537.003906 252.488281 537.011719 251.984375 536.96875 C 251.480469 536.921875 250.984375 536.828125 250.496094 536.683594 C 250.011719 536.539062 249.542969 536.347656 249.097656 536.105469 C 248.648438 535.867188 248.230469 535.582031 247.84375 535.257812 C 247.453125 534.933594 247.101562 534.570312 246.785156 534.175781 C 246.46875 533.777344 246.195312 533.351562 245.964844 532.902344 C 245.734375 532.449219 245.554688 531.976562 245.421875 531.488281 C 245.285156 531 245.203125 530.5 245.171875 529.996094 C 245.136719 529.488281 245.15625 528.984375 245.226562 528.480469 C 245.296875 527.976562 245.417969 527.488281 245.585938 527.011719 C 245.757812 526.53125 245.972656 526.074219 246.238281 525.640625 C 246.5 525.207031 246.804688 524.804688 247.148438 524.433594 C 247.492188 524.058594 247.871094 523.726562 248.285156 523.429688 C 248.695312 523.136719 249.136719 522.886719 249.597656 522.679688 C 250.0625 522.472656 250.542969 522.316406 251.039062 522.207031 C 254.277344 520.960938 257.519531 519.613281 260.710938 518.269531 L 261.558594 517.917969 L 262.058594 517.917969 L 265.050781 516.621094 L 270.886719 514.128906 C 278.265625 510.988281 285.847656 507.695312 293.226562 504.851562 C 293.703125 504.730469 294.183594 504.65625 294.667969 504.625 C 295.15625 504.597656 295.644531 504.613281 296.128906 504.679688 C 296.613281 504.742188 297.085938 504.855469 297.546875 505.011719 C 298.011719 505.167969 298.453125 505.367188 298.878906 505.609375 C 299.304688 505.851562 299.699219 506.132812 300.070312 506.449219 C 300.441406 506.769531 300.777344 507.121094 301.078125 507.503906 C 301.382812 507.886719 301.644531 508.296875 301.867188 508.734375 C 302.089844 509.167969 302.269531 509.621094 302.40625 510.089844 Z M 320.609375 506.996094 C 320.117188 506.996094 319.628906 506.949219 319.148438 506.851562 C 318.667969 506.757812 318.199219 506.613281 317.746094 506.425781 C 317.292969 506.238281 316.859375 506.007812 316.453125 505.734375 C 316.042969 505.464844 315.664062 505.152344 315.316406 504.804688 C 314.96875 504.457031 314.660156 504.082031 314.386719 503.671875 C 314.113281 503.265625 313.882812 502.832031 313.695312 502.378906 C 313.507812 501.925781 313.367188 501.457031 313.269531 500.976562 C 313.175781 500.492188 313.128906 500.007812 313.128906 499.515625 C 313.128906 499.023438 313.175781 498.539062 313.269531 498.058594 C 313.367188 497.574219 313.507812 497.105469 313.695312 496.652344 C 313.882812 496.199219 314.113281 495.769531 314.386719 495.359375 C 314.660156 494.953125 314.96875 494.574219 315.316406 494.226562 C 315.664062 493.878906 316.042969 493.570312 316.453125 493.296875 C 316.859375 493.023438 317.292969 492.792969 317.746094 492.605469 C 318.199219 492.417969 318.667969 492.273438 319.148438 492.179688 C 319.628906 492.082031 320.117188 492.035156 320.609375 492.035156 C 321.097656 492.035156 321.585938 492.082031 322.066406 492.179688 C 322.546875 492.273438 323.015625 492.417969 323.46875 492.605469 C 323.925781 492.792969 324.355469 493.023438 324.761719 493.296875 C 325.171875 493.570312 325.550781 493.878906 325.898438 494.226562 C 326.246094 494.574219 326.554688 494.953125 326.828125 495.359375 C 327.101562 495.769531 327.332031 496.199219 327.519531 496.652344 C 327.707031 497.105469 327.847656 497.574219 327.945312 498.058594 C 328.039062 498.539062 328.089844 499.023438 328.089844 499.515625 C 328.089844 500.007812 328.039062 500.492188 327.945312 500.976562 C 327.847656 501.457031 327.707031 501.925781 327.519531 502.378906 C 327.332031 502.832031 327.101562 503.265625 326.828125 503.671875 C 326.554688 504.082031 326.246094 504.457031 325.898438 504.804688 C 325.550781 505.152344 325.171875 505.464844 324.761719 505.734375 C 324.355469 506.007812 323.925781 506.238281 323.46875 506.425781 C 323.015625 506.617188 322.546875 506.757812 322.066406 506.851562 C 321.585938 506.949219 321.097656 506.996094 320.609375 506.996094 Z M 574.652344 516.523438 C 548.285156 522.507812 522.1875 529.554688 496.351562 537.667969 C 487.125 540.609375 483.1875 526.148438 492.363281 523.253906 C 518.128906 515.109375 544.230469 508.042969 570.660156 502.058594 C 580.035156 499.816406 584.027344 514.378906 574.652344 516.523438 Z M 569.664062 534.875 C 569.78125 535.347656 569.855469 535.828125 569.882812 536.316406 C 569.910156 536.800781 569.890625 537.285156 569.824219 537.769531 C 569.757812 538.253906 569.644531 538.726562 569.488281 539.1875 C 569.332031 539.648438 569.132812 540.09375 568.890625 540.515625 C 568.648438 540.9375 568.367188 541.335938 568.050781 541.707031 C 567.734375 542.074219 567.382812 542.414062 567 542.714844 C 566.617188 543.019531 566.210938 543.28125 565.777344 543.507812 C 565.34375 543.730469 564.894531 543.914062 564.425781 544.050781 L 515.800781 560.210938 C 515.335938 560.324219 514.859375 560.394531 514.378906 560.414062 C 513.898438 560.4375 513.417969 560.414062 512.941406 560.347656 C 512.464844 560.277344 512 560.160156 511.542969 560.003906 C 511.089844 559.84375 510.65625 559.640625 510.238281 559.398438 C 509.824219 559.152344 509.433594 558.871094 509.074219 558.554688 C 508.710938 558.234375 508.382812 557.882812 508.089844 557.503906 C 507.796875 557.121094 507.542969 556.714844 507.328125 556.28125 C 507.113281 555.851562 506.941406 555.402344 506.8125 554.9375 C 506.683594 554.476562 506.601562 554.003906 506.5625 553.523438 C 506.527344 553.042969 506.535156 552.5625 506.589844 552.082031 C 506.644531 551.605469 506.746094 551.136719 506.894531 550.675781 C 507.039062 550.21875 507.226562 549.777344 507.457031 549.355469 C 507.691406 548.929688 507.960938 548.535156 508.265625 548.164062 C 508.574219 547.792969 508.914062 547.457031 509.289062 547.152344 C 509.660156 546.84375 510.0625 546.578125 510.484375 546.351562 C 510.910156 546.125 511.351562 545.9375 511.8125 545.796875 L 560.238281 529.738281 C 560.703125 529.609375 561.179688 529.527344 561.660156 529.488281 C 562.144531 529.453125 562.625 529.460938 563.105469 529.515625 C 563.589844 529.570312 564.058594 529.671875 564.519531 529.816406 C 564.984375 529.960938 565.425781 530.148438 565.851562 530.378906 C 566.277344 530.609375 566.679688 530.878906 567.054688 531.183594 C 567.425781 531.492188 567.769531 531.832031 568.078125 532.203125 C 568.386719 532.574219 568.660156 532.972656 568.890625 533.398438 C 569.125 533.820312 569.316406 534.265625 569.464844 534.726562 Z M 161.71875 226.570312 L 149.949219 230.0625 C 149.230469 230.265625 148.5 230.355469 147.757812 230.335938 C 147.011719 230.320312 146.285156 230.195312 145.578125 229.960938 C 144.875 229.726562 144.214844 229.394531 143.609375 228.960938 C 143 228.53125 142.46875 228.023438 142.015625 227.433594 C 141.558594 226.84375 141.199219 226.199219 140.9375 225.503906 C 140.671875 224.808594 140.515625 224.089844 140.46875 223.34375 C 140.421875 222.601562 140.480469 221.867188 140.652344 221.144531 C 140.824219 220.417969 141.097656 219.734375 141.472656 219.089844 C 141.980469 218.261719 142.625 217.550781 143.398438 216.957031 C 144.171875 216.363281 145.023438 215.929688 145.960938 215.652344 L 157.730469 212.109375 C 158.699219 211.863281 159.683594 211.808594 160.675781 211.949219 C 161.667969 212.085938 162.597656 212.40625 163.464844 212.90625 C 164.308594 213.390625 165.03125 214.015625 165.625 214.785156 C 166.222656 215.554688 166.648438 216.40625 166.90625 217.347656 C 167.171875 218.320312 167.238281 219.3125 167.109375 220.3125 C 166.980469 221.316406 166.664062 222.253906 166.15625 223.132812 C 165.65625 223.960938 165.023438 224.671875 164.257812 225.261719 C 163.492188 225.855469 162.644531 226.292969 161.71875 226.570312 Z M 172.539062 215.550781 C 172.136719 213.539062 172.386719 211.609375 173.289062 209.765625 C 173.753906 208.898438 174.402344 208.199219 175.234375 207.671875 C 175.976562 207.023438 176.824219 206.574219 177.777344 206.324219 L 187.152344 203.882812 C 188.132812 203.644531 189.121094 203.597656 190.121094 203.734375 C 191.117188 203.871094 192.058594 204.1875 192.9375 204.679688 C 193.777344 205.167969 194.496094 205.796875 195.089844 206.5625 C 195.6875 207.332031 196.117188 208.183594 196.378906 209.117188 C 196.632812 210.113281 196.632812 211.113281 196.378906 212.109375 C 196.332031 213.121094 196.035156 214.054688 195.480469 214.902344 C 195.003906 215.757812 194.355469 216.457031 193.535156 216.996094 C 192.804688 217.667969 191.957031 218.117188 190.992188 218.34375 L 181.617188 220.738281 C 180.640625 220.992188 179.652344 221.054688 178.652344 220.925781 C 177.652344 220.796875 176.710938 220.484375 175.832031 219.988281 C 175.027344 219.480469 174.339844 218.839844 173.773438 218.078125 C 173.207031 217.3125 172.792969 216.46875 172.539062 215.550781 Z M 214.632812 211.660156 L 213.234375 210.5625 C 212.886719 210.214844 212.578125 209.839844 212.304688 209.429688 C 212.035156 209.023438 211.804688 208.589844 211.617188 208.136719 C 211.429688 207.683594 211.285156 207.21875 211.191406 206.734375 C 211.09375 206.253906 211.046875 205.769531 211.046875 205.277344 C 211.046875 204.785156 211.09375 204.300781 211.191406 203.820312 C 211.285156 203.335938 211.429688 202.871094 211.617188 202.417969 C 211.804688 201.964844 212.035156 201.53125 212.304688 201.125 C 212.578125 200.714844 212.886719 200.339844 213.234375 199.992188 C 213.910156 199.253906 214.726562 198.738281 215.679688 198.445312 C 216.5625 197.9375 217.507812 197.722656 218.523438 197.796875 C 219.867188 197.894531 221.214844 197.894531 222.5625 197.796875 C 223.683594 197.5625 224.78125 197.246094 225.851562 196.847656 L 226.550781 196.5 C 227.417969 196.003906 228.347656 195.679688 229.335938 195.523438 C 230.324219 195.371094 231.308594 195.394531 232.285156 195.601562 C 232.761719 195.730469 233.21875 195.90625 233.660156 196.128906 C 234.101562 196.347656 234.515625 196.609375 234.90625 196.910156 C 235.296875 197.214844 235.652344 197.550781 235.972656 197.925781 C 236.296875 198.296875 236.578125 198.699219 236.824219 199.125 C 237.066406 199.554688 237.265625 200.003906 237.417969 200.472656 C 237.574219 200.941406 237.683594 201.417969 237.742188 201.90625 C 237.800781 202.398438 237.8125 202.886719 237.777344 203.378906 C 237.738281 203.871094 237.65625 204.355469 237.523438 204.828125 C 237.253906 205.765625 236.820312 206.625 236.226562 207.398438 C 235.632812 208.171875 234.917969 208.8125 234.082031 209.316406 C 231.71875 210.597656 229.222656 211.527344 226.601562 212.109375 C 223.933594 212.667969 221.242188 212.851562 218.523438 212.660156 C 217.125 212.710938 215.832031 212.375 214.632812 211.660156 Z M 245.851562 193.457031 L 258.769531 191.015625 C 260.097656 190.660156 261.425781 190.660156 262.757812 191.015625 L 264.550781 191.761719 C 265.390625 192.261719 266.109375 192.898438 266.703125 193.675781 C 267.300781 194.453125 267.730469 195.308594 267.992188 196.25 C 268.234375 197.21875 268.289062 198.199219 268.160156 199.1875 C 268.03125 200.179688 267.726562 201.109375 267.246094 201.984375 C 266.75 202.828125 266.113281 203.546875 265.335938 204.144531 C 264.558594 204.738281 263.699219 205.167969 262.757812 205.425781 L 249.839844 207.871094 C 248.511719 208.226562 247.179688 208.226562 245.851562 207.871094 L 244.054688 207.121094 C 243.632812 206.875 243.234375 206.589844 242.867188 206.261719 C 242.5 205.9375 242.167969 205.578125 241.871094 205.1875 C 241.574219 204.796875 241.320312 204.382812 241.105469 203.941406 C 240.890625 203.5 240.71875 203.042969 240.59375 202.566406 C 240.46875 202.09375 240.390625 201.609375 240.359375 201.121094 C 240.332031 200.632812 240.347656 200.144531 240.414062 199.65625 C 240.480469 199.171875 240.59375 198.695312 240.753906 198.230469 C 240.914062 197.765625 241.117188 197.324219 241.363281 196.898438 C 241.875 196.039062 242.535156 195.3125 243.339844 194.714844 C 244.140625 194.121094 245.03125 193.699219 246 193.457031 Z M 276.273438 192.808594 C 276.148438 192.34375 276.066406 191.871094 276.03125 191.390625 C 276 190.910156 276.007812 190.433594 276.066406 189.953125 C 276.121094 189.476562 276.222656 189.007812 276.371094 188.546875 C 276.515625 188.089844 276.703125 187.648438 276.933594 187.226562 C 277.164062 186.800781 277.429688 186.40625 277.738281 186.03125 C 278.042969 185.660156 278.378906 185.320312 278.75 185.011719 C 279.121094 184.707031 279.519531 184.4375 279.9375 184.203125 C 280.359375 183.972656 280.800781 183.78125 281.257812 183.632812 L 294.226562 178.644531 C 295.195312 178.390625 296.179688 178.328125 297.171875 178.46875 C 298.167969 178.605469 299.097656 178.929688 299.960938 179.445312 C 300.804688 179.925781 301.527344 180.550781 302.125 181.320312 C 302.71875 182.089844 303.144531 182.945312 303.402344 183.882812 C 303.667969 184.859375 303.738281 185.847656 303.605469 186.851562 C 303.476562 187.851562 303.160156 188.792969 302.652344 189.667969 C 302.144531 190.488281 301.507812 191.195312 300.742188 191.785156 C 299.980469 192.378906 299.136719 192.820312 298.214844 193.109375 L 285.25 197.796875 C 284.273438 198.078125 283.285156 198.152344 282.277344 198.023438 C 281.273438 197.894531 280.335938 197.566406 279.464844 197.046875 C 277.957031 195.988281 276.945312 194.574219 276.421875 192.808594 Z M 304.550781 183.582031 C 304.300781 182.605469 304.246094 181.613281 304.382812 180.613281 C 304.523438 179.613281 304.84375 178.675781 305.347656 177.796875 C 305.839844 176.964844 306.472656 176.25 307.238281 175.65625 C 308.003906 175.058594 308.855469 174.628906 309.785156 174.355469 L 321.554688 171.863281 C 322.867188 171.507812 324.183594 171.507812 325.496094 171.863281 L 327.289062 172.613281 C 328.132812 173.109375 328.851562 173.746094 329.445312 174.523438 C 330.039062 175.300781 330.46875 176.15625 330.730469 177.101562 C 330.863281 177.566406 330.949219 178.039062 330.988281 178.519531 C 331.027344 179 331.019531 179.484375 330.964844 179.960938 C 330.910156 180.441406 330.8125 180.914062 330.667969 181.375 C 330.523438 181.835938 330.335938 182.277344 330.105469 182.703125 C 329.875 183.128906 329.605469 183.527344 329.296875 183.898438 C 328.988281 184.269531 328.648438 184.609375 328.273438 184.914062 C 327.898438 185.222656 327.5 185.488281 327.074219 185.71875 C 326.648438 185.949219 326.207031 186.132812 325.746094 186.277344 L 314.023438 188.769531 C 312.695312 189.125 311.363281 189.125 310.035156 188.769531 L 308.238281 188.023438 C 307.386719 187.535156 306.65625 186.910156 306.042969 186.140625 C 305.433594 185.375 304.984375 184.523438 304.699219 183.582031 Z M 304.550781 183.582031 "/></g><mask id="337c6d3483"><g filter="url(#8a149b59ad)"><rect x="0" width="734" height="660" y="0" style="fill:#000000;fill-opacity:0.8;stroke:none;"/></g></mask></g></g><g clip-rule="nonzero" clip-path="url(#ae1b656006)"><path style=" stroke:none;fill-rule:nonzero;fill:#0c1e27;fill-opacity:1;" d="M 659.800781 99.195312 C 659.636719 99.117188 458.453125 99.246094 458.273438 99.191406 C 443.414062 99.195312 431.324219 111.28125 431.324219 126.140625 L 431.324219 429.523438 C 431.324219 431.136719 431.941406 432.691406 433.042969 433.867188 L 444.339844 445.929688 C 446.785156 448.71875 451.605469 448.554688 453.898438 445.613281 C 453.898438 445.613281 459.566406 438.695312 459.566406 438.695312 C 459.566406 438.695312 468.058594 446.316406 468.058594 446.316406 C 470.640625 448.636719 474.605469 448.453125 476.960938 445.914062 L 483.394531 438.992188 C 483.394531 438.992188 489.40625 445.792969 489.40625 445.792969 C 491.75 448.574219 496.40625 448.632812 498.808594 445.933594 C 498.808594 445.933594 506.027344 438.234375 506.027344 438.234375 L 514.164062 444.980469 C 516.757812 447.136719 520.589844 446.878906 522.886719 444.40625 L 528.117188 438.761719 L 535.164062 446.015625 C 537.550781 448.472656 541.886719 448.484375 544.285156 446.011719 C 544.285156 446.011719 551.480469 438.597656 551.480469 438.597656 C 551.480469 438.597656 558.898438 446.066406 558.898438 446.066406 C 560.113281 447.289062 561.792969 447.839844 563.496094 447.941406 C 567.457031 448.355469 572.160156 441.042969 575.070312 438.464844 C 575.070312 438.464844 583.507812 446.257812 583.507812 446.257812 C 586.0625 448.703125 590.453125 448.421875 592.679688 445.691406 C 592.679688 445.691406 598.71875 438.550781 598.71875 438.550781 L 607.703125 446.378906 C 610.410156 448.828125 614.953125 448.300781 617.027344 445.316406 C 617.027344 445.316406 621.296875 439.425781 621.296875 439.425781 L 627.566406 445.980469 C 631.277344 450.117188 638.714844 447.152344 638.519531 441.585938 C 638.519531 441.585938 638.519531 162.925781 638.519531 162.925781 L 686.582031 162.925781 C 690.097656 162.925781 692.941406 160.078125 692.941406 156.570312 L 692.941406 132.761719 C 692.941406 114.394531 678.113281 99.425781 659.800781 99.195312 Z M 625.804688 132.761719 L 625.804688 425.746094 C 623.339844 422.402344 617.886719 422.285156 615.472656 425.792969 C 615.472656 425.792969 610.8125 432.226562 610.8125 432.226562 L 602.207031 424.730469 C 599.628906 422.398438 595.363281 422.746094 593.175781 425.417969 C 593.175781 425.417969 587.257812 432.414062 587.257812 432.414062 L 579.070312 424.851562 C 576.519531 422.496094 572.515625 422.628906 570.125 425.167969 L 563.285156 432.4375 L 555.9375 425.042969 C 554.734375 423.832031 553 423.148438 551.390625 423.164062 C 547.433594 422.765625 542.710938 429.875 539.71875 432.460938 C 539.71875 432.460938 532.5625 425.09375 532.5625 425.09375 C 530.324219 422.472656 525.652344 422.558594 523.339844 425.207031 C 523.339844 425.207031 517.644531 431.355469 517.644531 431.355469 L 509.539062 424.632812 C 506.953125 422.480469 503.140625 422.726562 500.84375 425.175781 L 494.308594 432.144531 C 491.816406 429.78125 487.640625 422.78125 483.589844 423.164062 C 481.835938 423.191406 480.070312 423.882812 478.855469 425.195312 L 471.902344 432.679688 L 463.109375 424.792969 C 460.539062 422.378906 456.117188 422.730469 453.949219 425.492188 C 453.949219 425.492188 448.660156 431.945312 448.660156 431.945312 L 444.039062 427.011719 L 444.039062 126.140625 C 444.039062 118.292969 450.425781 111.90625 458.273438 111.90625 L 633.085938 111.90625 C 628.53125 117.636719 625.804688 124.890625 625.804688 132.761719 Z M 680.226562 150.210938 L 638.519531 150.210938 L 638.519531 132.761719 C 638.519531 121.261719 647.875 111.90625 659.371094 111.90625 C 670.871094 111.90625 680.226562 121.261719 680.226562 132.761719 Z M 680.226562 150.210938 "/></g><path style=" stroke:none;fill-rule:nonzero;fill:#0c1e27;fill-opacity:1;" d="M 495.863281 276.664062 C 511.871094 276.664062 524.410156 260.234375 524.410156 239.253906 C 523.5 189.667969 468.226562 189.675781 467.320312 239.253906 C 467.320312 260.234375 479.855469 276.664062 495.863281 276.664062 Z M 495.863281 214.554688 C 516.707031 215.769531 516.699219 262.742188 495.863281 263.953125 C 475.019531 262.734375 475.03125 215.761719 495.863281 214.554688 Z M 495.863281 214.554688 "/><path style=" stroke:none;fill-rule:nonzero;fill:#0c1e27;fill-opacity:1;" d="M 573.90625 338.78125 C 589.910156 338.78125 602.449219 322.347656 602.449219 301.367188 C 601.535156 251.78125 546.265625 251.789062 545.359375 301.367188 C 545.359375 322.347656 557.898438 338.78125 573.90625 338.78125 Z M 573.90625 276.664062 C 594.746094 277.882812 594.742188 324.859375 573.902344 326.066406 C 553.058594 324.851562 553.070312 277.871094 573.90625 276.664062 Z M 573.90625 276.664062 "/><path style=" stroke:none;fill-rule:nonzero;fill:#0c1e27;fill-opacity:1;" d="M 521.078125 329.324219 C 524.414062 330.109375 527.925781 328.003906 528.699219 324.550781 C 528.699219 324.550781 554.863281 210.851562 554.863281 210.851562 C 555.648438 207.429688 553.515625 204.019531 550.09375 203.230469 C 546.695312 202.464844 543.261719 204.578125 542.472656 208 L 516.308594 321.703125 C 515.523438 325.125 517.65625 328.535156 521.078125 329.324219 Z M 521.078125 329.324219 "/></g></g></g></svg>