<svg xmlns="http://www.w3.org/2000/svg" xmlns:xlink="http://www.w3.org/1999/xlink" width="1200" zoomAndPan="magnify" viewBox="0 0 900 675.000002" height="900" preserveAspectRatio="xMidYMid meet" version="1.2"><defs><clipPath id="4c1bbe24b9"><path d="M 0.605469 1 L 706 1 L 706 607.089844 L 0.605469 607.089844 Z M 0.605469 1 "/></clipPath><filter x="0%" y="0%" width="100%" filterUnits="objectBoundingBox" id="167ce07b70" height="100%"><feColorMatrix values="0 0 0 0 1 0 0 0 0 1 0 0 0 0 1 0 0 0 1 0" type="matrix" in="SourceGraphic"/></filter><clipPath id="77c3e5acf0"><path d="M 0.605469 0.507812 L 703 0.507812 L 703 606 L 0.605469 606 Z M 0.605469 0.507812 "/></clipPath><clipPath id="e67e4f4f6e"><rect x="0" width="706" y="0" height="607"/></clipPath><clipPath id="141f2e7d7d"><path d="M 641 85 L 763 85 L 763 225.242188 L 641 225.242188 Z M 641 85 "/></clipPath><clipPath id="9391f44e7f"><rect x="0" width="817" y="0" height="608"/></clipPath></defs><g id="1727cd9d57"><g transform="matrix(1,0,0,1,42,33)"><g clip-path="url(#9391f44e7f)"><g clip-rule="nonzero" clip-path="url(#4c1bbe24b9)"><g mask="url(#31dff9ae13)" transform="matrix(1,0,0,1,-0.000000000000007105,1)"><g id="d0e945cac9" clip-path="url(#e67e4f4f6e)"><g clip-rule="nonzero" clip-path="url(#77c3e5acf0)"><path style=" stroke:none;fill-rule:nonzero;fill:#0c1e27;fill-opacity:1;" d="M 429.101562 44.019531 L 688.789062 466.820312 C 697.542969 481.089844 702.097656 496.675781 702.429688 512.5 C 702.757812 528.265625 698.832031 544.03125 690.648438 558.660156 C 682.4375 573.347656 671.046875 584.945312 657.410156 592.949219 C 643.710938 600.980469 628.035156 605.296875 611.308594 605.296875 L 91.933594 605.296875 C 75.210938 605.296875 59.535156 600.980469 45.835938 592.949219 C 32.199219 584.945312 20.808594 573.347656 12.597656 558.660156 C 4.414062 544.03125 0.488281 528.265625 0.816406 512.5 C 1.144531 496.675781 5.671875 481.089844 14.425781 466.820312 L 274.140625 44.019531 C 282.59375 30.230469 293.863281 19.410156 307.171875 11.949219 C 320.480469 4.515625 335.558594 0.589844 351.621094 0.589844 C 367.6875 0.589844 382.765625 4.515625 396.074219 11.949219 C 409.351562 19.410156 420.652344 30.230469 429.101562 44.019531 Z M 653.0625 488.640625 L 393.34375 65.808594 C 388.730469 58.257812 382.703125 52.410156 375.722656 48.515625 C 368.765625 44.617188 360.585938 42.550781 351.621094 42.550781 C 342.660156 42.550781 334.476562 44.617188 327.492188 48.515625 C 320.539062 52.410156 314.515625 58.257812 309.871094 65.808594 L 50.183594 488.640625 C 45.328125 496.554688 42.777344 504.976562 42.628906 513.308594 C 42.449219 521.703125 44.636719 530.246094 49.164062 538.335938 C 53.628906 546.371094 59.742188 552.632812 66.96875 556.890625 C 74.128906 561.058594 82.613281 563.304688 91.933594 563.304688 L 611.308594 563.304688 C 620.632812 563.304688 629.113281 561.058594 636.277344 556.890625 C 643.472656 552.632812 649.585938 546.371094 654.082031 538.335938 C 658.609375 530.246094 660.796875 521.703125 660.617188 513.308594 C 660.4375 504.976562 657.917969 496.554688 653.0625 488.640625 Z M 653.0625 488.640625 "/></g><path style=" stroke:none;fill-rule:evenodd;fill:#0c1e27;fill-opacity:1;" d="M 392.175781 231.683594 L 368.796875 403.457031 C 366.097656 423.332031 337.144531 423.332031 334.417969 403.457031 L 311.070312 231.683594 C 301.65625 162.414062 401.617188 162.292969 392.175781 231.683594 Z M 392.175781 231.683594 "/><path style=" stroke:none;fill-rule:evenodd;fill:#0c1e27;fill-opacity:1;" d="M 351.621094 444.25 C 369.1875 444.25 383.453125 458.488281 383.453125 476.082031 C 383.453125 493.648438 369.1875 507.914062 351.621094 507.914062 C 334.027344 507.914062 319.789062 493.648438 319.789062 476.082031 C 319.789062 458.488281 334.027344 444.25 351.621094 444.25 Z M 351.621094 444.25 "/></g><mask id="31dff9ae13"><g filter="url(#167ce07b70)"><rect x="0" width="817" height="608" y="0" style="fill:#000000;fill-opacity:0.8;stroke:none;"/></g></mask></g></g><g clip-rule="nonzero" clip-path="url(#141f2e7d7d)"><path style=" stroke:none;fill-rule:nonzero;fill:#000000;fill-opacity:1;" d="M 744.082031 225.25 L 660.363281 225.25 C 650.105469 225.25 641.757812 216.734375 641.757812 206.257812 L 641.757812 201.90625 C 641.757812 199.328125 643.839844 197.242188 646.402344 197.242188 C 648.972656 197.242188 651.050781 199.328125 651.050781 201.90625 L 651.050781 206.257812 C 651.050781 211.582031 655.222656 215.910156 660.355469 215.910156 L 744.074219 215.910156 C 749.207031 215.910156 753.375 211.582031 753.375 206.257812 L 753.375 89.851562 C 753.375 87.273438 755.460938 85.1875 758.023438 85.1875 C 760.59375 85.1875 762.671875 87.273438 762.671875 89.851562 L 762.671875 206.257812 C 762.6875 216.734375 754.335938 225.25 744.082031 225.25 Z M 744.082031 225.25 "/></g><path style=" stroke:none;fill-rule:nonzero;fill:#000000;fill-opacity:1;" d="M 646.410156 169.222656 C 643.839844 169.222656 641.761719 167.136719 641.761719 164.558594 L 641.761719 20.132812 C 641.761719 9.664062 650.105469 1.148438 660.371094 1.148438 L 744.089844 1.148438 C 754.34375 1.148438 762.695312 9.664062 762.695312 20.132812 L 762.695312 57.175781 C 762.695312 59.757812 760.609375 61.84375 758.046875 61.84375 C 755.476562 61.84375 753.398438 59.757812 753.398438 57.175781 L 753.398438 20.132812 C 753.398438 14.816406 749.226562 10.488281 744.09375 10.488281 L 660.363281 10.488281 C 655.230469 10.488281 651.058594 14.816406 651.058594 20.132812 L 651.058594 164.558594 C 651.058594 167.136719 648.980469 169.222656 646.410156 169.222656 Z M 646.410156 169.222656 "/><path style=" stroke:none;fill-rule:nonzero;fill:#000000;fill-opacity:1;" d="M 716.175781 33.832031 L 688.273438 33.832031 C 685.703125 33.832031 683.625 31.746094 683.625 29.167969 C 683.625 26.585938 685.710938 24.5 688.273438 24.5 L 716.175781 24.5 C 718.746094 24.5 720.824219 26.585938 720.824219 29.167969 C 720.824219 31.738281 718.738281 33.832031 716.175781 33.832031 Z M 716.175781 33.832031 "/><path style=" stroke:none;fill-rule:nonzero;fill:#000000;fill-opacity:1;" d="M 702.21875 206.574219 C 697.085938 206.574219 692.914062 202.386719 692.914062 197.234375 C 692.914062 192.082031 697.085938 187.894531 702.21875 187.894531 C 707.351562 187.894531 711.523438 192.082031 711.523438 197.234375 C 711.523438 202.386719 707.351562 206.574219 702.21875 206.574219 Z M 702.21875 206.574219 "/><path style=" stroke:none;fill-rule:nonzero;fill:#000000;fill-opacity:1;" d="M 595.246094 224.863281 C 594.054688 224.863281 592.863281 224.40625 591.953125 223.492188 C 590.136719 221.667969 590.144531 218.714844 591.960938 216.890625 L 805.90625 2.507812 C 807.722656 0.691406 810.664062 0.691406 812.484375 2.515625 C 814.300781 4.339844 814.292969 7.296875 812.476562 9.121094 L 598.539062 223.5 C 597.628906 224.40625 596.4375 224.863281 595.246094 224.863281 Z M 595.246094 224.863281 "/></g></g></g></svg>