<svg xmlns="http://www.w3.org/2000/svg" xmlns:xlink="http://www.w3.org/1999/xlink" width="1200" zoomAndPan="magnify" viewBox="0 0 900 675.000002" height="900" preserveAspectRatio="xMidYMid meet" version="1.0"><defs><clipPath id="88232cffe2"><path d="M 1 103.910156 L 899 103.910156 L 899 570.46875 L 1 570.46875 Z M 1 103.910156 " clip-rule="nonzero"/></clipPath></defs><g clip-path="url(#88232cffe2)"><path fill="#0d2740" d="M 85.601562 103.921875 L 557.960938 103.921875 C 559.527344 103.921875 560.871094 104.523438 561.914062 105.691406 L 562.707031 106.585938 C 566.238281 110.546875 570.570312 113.757812 575.417969 115.933594 C 580.261719 118.109375 585.488281 119.199219 590.796875 119.199219 C 596.105469 119.199219 601.332031 118.109375 606.175781 115.933594 C 611.019531 113.757812 615.355469 110.554688 618.886719 106.585938 L 619.675781 105.699219 C 620.71875 104.523438 622.066406 103.921875 623.632812 103.921875 L 814.398438 103.921875 C 836.882812 103.921875 858.25 112.875 874.136719 128.757812 C 890.019531 144.640625 898.972656 166.011719 898.972656 188.496094 L 898.972656 282.054688 C 898.972656 284.96875 896.59375 287.351562 893.675781 287.351562 L 891.027344 287.351562 C 877.804688 287.351562 865.253906 292.550781 855.90625 301.894531 C 846.558594 311.246094 841.363281 323.796875 841.363281 337.015625 C 841.363281 350.238281 846.558594 362.789062 855.90625 372.136719 C 865.253906 381.480469 877.804688 386.679688 891.027344 386.679688 L 893.675781 386.679688 C 896.59375 386.679688 898.972656 389.0625 898.972656 391.980469 L 898.972656 485.535156 C 898.972656 508.019531 890.019531 529.390625 874.136719 545.273438 C 858.25 561.160156 836.882812 570.109375 814.398438 570.109375 L 623.632812 570.109375 C 622.066406 570.109375 620.71875 569.507812 619.675781 568.332031 L 618.886719 567.445312 C 615.355469 563.476562 611.019531 560.273438 606.175781 558.097656 C 601.332031 555.921875 596.105469 554.832031 590.796875 554.832031 C 585.488281 554.832031 580.261719 555.921875 575.417969 558.097656 C 570.570312 560.273438 566.238281 563.484375 562.707031 567.445312 L 561.914062 568.339844 C 560.871094 569.507812 559.527344 570.109375 557.960938 570.109375 L 85.601562 570.109375 C 63.121094 570.109375 41.75 561.160156 25.863281 545.273438 C 9.980469 529.390625 1.027344 508.019531 1.027344 485.535156 L 1.027344 391.980469 C 1.027344 389.0625 3.40625 386.679688 6.324219 386.679688 L 8.972656 386.679688 C 22.195312 386.679688 34.746094 381.484375 44.09375 372.136719 C 53.441406 362.789062 58.636719 350.238281 58.636719 337.015625 C 58.636719 323.796875 53.441406 311.246094 44.09375 301.894531 C 34.746094 292.546875 22.195312 287.351562 8.972656 287.351562 L 6.324219 287.351562 C 3.40625 287.351562 1.027344 284.972656 1.027344 282.054688 L 1.027344 188.496094 C 1.027344 166.015625 9.980469 144.640625 25.863281 128.757812 C 41.75 112.875 63.121094 103.921875 85.601562 103.921875 Z M 553.378906 119.8125 L 85.601562 119.8125 C 67.332031 119.8125 50 127.089844 37.097656 139.992188 C 24.195312 152.894531 16.921875 170.230469 16.921875 188.496094 L 16.921875 271.933594 C 31.425781 273.695312 44.917969 280.246094 55.328125 290.660156 C 67.660156 302.988281 74.527344 319.574219 74.527344 337.015625 C 74.527344 354.457031 67.660156 371.042969 55.328125 383.371094 C 44.917969 393.785156 31.425781 400.335938 16.921875 402.097656 L 16.921875 485.535156 C 16.921875 503.804688 24.195312 521.136719 37.097656 534.039062 C 50 546.941406 67.332031 554.21875 85.601562 554.21875 L 553.378906 554.21875 C 557.890625 549.800781 563.160156 546.203125 568.925781 543.617188 C 575.8125 540.523438 583.25 538.9375 590.796875 538.9375 C 598.347656 538.9375 605.78125 540.523438 612.667969 543.617188 C 618.433594 546.203125 623.703125 549.800781 628.210938 554.21875 L 814.398438 554.21875 C 832.667969 554.21875 849.996094 546.941406 862.902344 534.039062 C 875.804688 521.136719 883.078125 503.804688 883.078125 485.535156 L 883.078125 402.097656 C 868.570312 400.335938 855.082031 393.785156 844.671875 383.371094 C 832.339844 371.042969 825.46875 354.457031 825.46875 337.015625 C 825.46875 319.574219 832.339844 302.988281 844.671875 290.660156 C 855.082031 280.246094 868.570312 273.695312 883.078125 271.933594 L 883.078125 188.496094 C 883.078125 170.230469 875.804688 152.894531 862.902344 139.992188 C 849.996094 127.089844 832.667969 119.8125 814.398438 119.8125 L 628.210938 119.8125 C 623.703125 124.230469 618.433594 127.828125 612.667969 130.414062 C 605.78125 133.507812 598.347656 135.09375 590.796875 135.09375 C 583.25 135.09375 575.8125 133.507812 568.925781 130.414062 C 563.160156 127.828125 557.890625 124.230469 553.378906 119.8125 Z M 553.378906 119.8125 " fill-opacity="1" fill-rule="evenodd"/></g><path fill="#0d2740" d="M 85.601562 109.21875 L 557.960938 109.21875 L 558.75 110.105469 C 562.765625 114.613281 567.695312 118.269531 573.25 120.761719 C 578.589844 123.160156 584.53125 124.5 590.796875 124.5 C 597.0625 124.5 603.003906 123.160156 608.347656 120.761719 C 613.894531 118.269531 618.832031 114.613281 622.84375 110.105469 L 623.632812 109.21875 L 814.398438 109.21875 C 836.203125 109.21875 856.023438 118.136719 870.390625 132.503906 C 884.757812 146.871094 893.675781 166.691406 893.675781 188.496094 L 893.675781 282.054688 L 891.027344 282.054688 C 875.847656 282.054688 862.105469 288.207031 852.160156 298.148438 C 842.21875 308.097656 836.066406 321.835938 836.066406 337.015625 C 836.066406 352.195312 842.21875 365.9375 852.160156 375.882812 C 862.105469 385.824219 875.847656 391.980469 891.027344 391.980469 L 893.675781 391.980469 L 893.675781 485.535156 C 893.675781 507.339844 884.757812 527.160156 870.390625 541.527344 C 856.023438 555.894531 836.203125 564.8125 814.398438 564.8125 L 623.632812 564.8125 L 622.84375 563.925781 C 618.832031 559.417969 613.894531 555.761719 608.347656 553.269531 C 603.003906 550.871094 597.0625 549.535156 590.796875 549.535156 C 584.53125 549.535156 578.589844 550.871094 573.25 553.269531 C 567.695312 555.761719 562.765625 559.417969 558.75 563.925781 L 557.960938 564.8125 L 85.601562 564.8125 C 63.796875 564.8125 43.976562 555.894531 29.609375 541.527344 C 15.242188 527.160156 6.324219 507.339844 6.324219 485.535156 L 6.324219 391.980469 L 8.972656 391.980469 C 24.152344 391.980469 37.894531 385.824219 47.839844 375.882812 C 57.78125 365.9375 63.933594 352.195312 63.933594 337.015625 C 63.933594 321.835938 57.78125 308.097656 47.839844 298.148438 C 37.894531 288.207031 24.152344 282.054688 8.972656 282.054688 L 6.324219 282.054688 L 6.324219 188.496094 C 6.324219 166.691406 15.242188 146.871094 29.609375 132.503906 C 43.976562 118.136719 63.796875 109.21875 85.601562 109.21875 Z M 555.609375 114.515625 L 85.601562 114.515625 C 65.257812 114.515625 46.761719 122.839844 33.351562 136.246094 C 19.945312 149.65625 11.621094 168.152344 11.621094 188.496094 L 11.621094 276.8125 C 27.203125 277.488281 41.261719 284.082031 51.582031 294.40625 C 62.488281 305.3125 69.234375 320.378906 69.234375 337.015625 C 69.234375 353.65625 62.488281 368.71875 51.582031 379.625 C 41.261719 389.949219 27.203125 396.542969 11.621094 397.21875 L 11.621094 485.535156 C 11.621094 505.878906 19.945312 524.375 33.351562 537.785156 C 46.761719 551.191406 65.257812 559.515625 85.601562 559.515625 L 555.609375 559.515625 C 559.949219 554.878906 565.203125 551.09375 571.09375 548.445312 C 577.121094 545.742188 583.792969 544.234375 590.796875 544.234375 C 597.800781 544.234375 604.472656 545.742188 610.5 548.445312 C 616.390625 551.09375 621.648438 554.878906 625.984375 559.515625 L 814.398438 559.515625 C 834.742188 559.515625 853.238281 551.191406 866.648438 537.785156 C 880.054688 524.375 888.378906 505.878906 888.378906 485.535156 L 888.378906 397.21875 C 872.792969 396.542969 858.738281 389.949219 848.417969 379.625 C 837.507812 368.71875 830.765625 353.65625 830.765625 337.015625 C 830.765625 320.378906 837.507812 305.3125 848.417969 294.40625 C 858.738281 284.082031 872.792969 277.488281 888.378906 276.8125 L 888.378906 188.496094 C 888.378906 168.152344 880.054688 149.65625 866.648438 136.246094 C 853.238281 122.839844 834.742188 114.515625 814.398438 114.515625 L 625.984375 114.515625 C 621.648438 119.152344 616.390625 122.9375 610.5 125.585938 C 604.472656 128.289062 597.800781 129.796875 590.796875 129.796875 C 583.792969 129.796875 577.121094 128.289062 571.09375 125.585938 C 565.203125 122.9375 559.949219 119.152344 555.609375 114.515625 Z M 555.609375 114.515625 " fill-opacity="1" fill-rule="nonzero"/><path fill="#0d2740" d="M 629.429688 183.53125 L 740.515625 183.53125 C 743.433594 183.53125 745.8125 185.910156 745.8125 188.828125 L 745.8125 194.128906 C 745.8125 197.042969 743.433594 199.421875 740.515625 199.421875 L 629.429688 199.421875 C 626.507812 199.421875 624.132812 197.042969 624.132812 194.128906 L 624.132812 188.828125 C 624.132812 185.910156 626.507812 183.53125 629.429688 183.53125 Z M 629.429688 474.609375 L 766.011719 474.609375 C 768.929688 474.609375 771.308594 476.988281 771.308594 479.90625 L 771.308594 485.203125 C 771.308594 488.121094 768.929688 490.5 766.011719 490.5 L 629.429688 490.5 C 626.507812 490.5 624.132812 488.121094 624.132812 485.203125 L 624.132812 479.90625 C 624.132812 476.988281 626.507812 474.609375 629.429688 474.609375 Z M 629.429688 438.222656 L 740.515625 438.222656 C 743.433594 438.222656 745.8125 440.601562 745.8125 443.519531 L 745.8125 448.820312 C 745.8125 451.738281 743.433594 454.117188 740.515625 454.117188 L 629.429688 454.117188 C 626.507812 454.117188 624.132812 451.738281 624.132812 448.820312 L 624.132812 443.519531 C 624.132812 440.601562 626.507812 438.222656 629.429688 438.222656 Z M 629.429688 401.839844 L 750.011719 401.839844 C 752.929688 401.839844 755.308594 404.21875 755.308594 407.136719 L 755.308594 412.433594 C 755.308594 415.351562 752.929688 417.730469 750.011719 417.730469 L 629.429688 417.730469 C 626.507812 417.730469 624.132812 415.351562 624.132812 412.433594 L 624.132812 407.136719 C 624.132812 404.21875 626.507812 401.839844 629.429688 401.839844 Z M 629.429688 365.453125 L 740.515625 365.453125 C 743.433594 365.453125 745.8125 367.832031 745.8125 370.75 L 745.8125 376.050781 C 745.8125 378.96875 743.433594 381.347656 740.515625 381.347656 L 629.429688 381.347656 C 626.507812 381.347656 624.132812 378.96875 624.132812 376.050781 L 624.132812 370.75 C 624.132812 367.832031 626.507812 365.453125 629.429688 365.453125 Z M 629.429688 329.070312 L 749.457031 329.070312 C 752.371094 329.070312 754.75 331.449219 754.75 334.367188 L 754.75 339.664062 C 754.75 342.582031 752.371094 344.960938 749.457031 344.960938 L 629.429688 344.960938 C 626.507812 344.960938 624.132812 342.582031 624.132812 339.664062 L 624.132812 334.367188 C 624.132812 331.449219 626.507812 329.070312 629.429688 329.070312 Z M 629.429688 292.683594 L 753.808594 292.683594 C 756.726562 292.683594 759.105469 295.0625 759.105469 297.980469 L 759.105469 303.28125 C 759.105469 306.199219 756.726562 308.578125 753.808594 308.578125 L 629.429688 308.578125 C 626.507812 308.578125 624.132812 306.199219 624.132812 303.28125 L 624.132812 297.980469 C 624.132812 295.0625 626.507812 292.683594 629.429688 292.683594 Z M 629.429688 256.300781 L 734.820312 256.300781 C 737.738281 256.300781 740.117188 258.679688 740.117188 261.597656 L 740.117188 266.894531 C 740.117188 269.8125 737.738281 272.191406 734.820312 272.191406 L 629.429688 272.191406 C 626.507812 272.191406 624.132812 269.8125 624.132812 266.894531 L 624.132812 261.597656 C 624.132812 258.679688 626.507812 256.300781 629.429688 256.300781 Z M 629.429688 219.914062 L 754.285156 219.914062 C 757.203125 219.914062 759.578125 222.292969 759.578125 225.210938 L 759.578125 230.511719 C 759.578125 233.429688 757.203125 235.808594 754.285156 235.808594 L 629.429688 235.808594 C 626.507812 235.808594 624.132812 233.429688 624.132812 230.511719 L 624.132812 225.210938 C 624.132812 222.292969 626.507812 219.914062 629.429688 219.914062 Z M 629.429688 219.914062 " fill-opacity="1" fill-rule="evenodd"/><path fill="#0d2740" d="M 629.429688 188.828125 L 740.515625 188.828125 L 740.515625 194.128906 L 629.429688 194.128906 Z M 629.429688 479.90625 L 766.011719 479.90625 L 766.011719 485.203125 L 629.429688 485.203125 Z M 629.429688 443.519531 L 740.515625 443.519531 L 740.515625 448.820312 L 629.429688 448.820312 Z M 629.429688 407.136719 L 750.011719 407.136719 L 750.011719 412.433594 L 629.429688 412.433594 Z M 629.429688 370.75 L 740.515625 370.75 L 740.515625 376.050781 L 629.429688 376.050781 Z M 629.429688 334.367188 L 749.457031 334.367188 L 749.457031 339.664062 L 629.429688 339.664062 Z M 629.429688 297.980469 L 753.808594 297.980469 L 753.808594 303.28125 L 629.429688 303.28125 Z M 629.429688 261.597656 L 734.820312 261.597656 L 734.820312 266.894531 L 629.429688 266.894531 Z M 629.429688 225.210938 L 754.285156 225.210938 L 754.285156 230.511719 L 629.429688 230.511719 Z M 629.429688 225.210938 " fill-opacity="1" fill-rule="nonzero"/><path fill="#0d2740" d="M 598.746094 150.585938 L 598.746094 523.203125 C 598.746094 525.601562 596.367188 527.558594 593.445312 527.558594 L 588.144531 527.558594 C 585.230469 527.558594 582.851562 525.601562 582.851562 523.203125 L 582.851562 150.585938 C 582.851562 148.1875 585.230469 146.230469 588.144531 146.230469 L 593.445312 146.230469 C 596.367188 146.230469 598.746094 148.1875 598.746094 150.585938 Z M 598.746094 150.585938 " fill-opacity="1" fill-rule="evenodd"/><path fill="#0d2740" d="M 588.144531 154.289062 L 593.445312 154.289062 L 593.445312 530.386719 L 588.144531 530.386719 Z M 588.144531 154.289062 " fill-opacity="1" fill-rule="nonzero"/><path fill="#0d2740" d="M 110.085938 528.648438 L 357.03125 528.648438 L 357.03125 533.949219 L 110.085938 533.949219 Z M 110.085938 528.648438 " fill-opacity="1" fill-rule="nonzero"/><path fill="#0d2740" d="M 464.640625 135.464844 L 540.515625 135.464844 L 540.515625 140.761719 L 464.640625 140.761719 Z M 464.640625 135.464844 " fill-opacity="1" fill-rule="nonzero"/><path fill="#0d2740" d="M 305.320312 247.960938 L 329.824219 284.726562 C 329.972656 284.949219 330.164062 285.1875 330.382812 285.351562 C 330.597656 285.507812 330.890625 285.609375 331.140625 285.679688 L 373.757812 297.5625 C 377.28125 298.546875 380.5 300.324219 383.152344 302.859375 C 385.808594 305.394531 387.738281 308.542969 388.875 312.03125 C 390 315.496094 390.292969 319.199219 389.648438 322.785156 C 389 326.398438 387.441406 329.746094 385.164062 332.617188 L 357.683594 367.222656 C 357.527344 367.425781 357.351562 367.679688 357.273438 367.929688 C 357.183594 368.1875 357.171875 368.496094 357.183594 368.765625 L 359.027344 412.871094 C 359.179688 416.527344 358.476562 420.144531 356.875 423.441406 C 355.277344 426.742188 352.878906 429.539062 349.910156 431.6875 C 346.941406 433.839844 343.53125 435.253906 339.894531 435.746094 C 336.273438 436.242188 332.613281 435.789062 329.191406 434.519531 L 287.640625 419.125 C 287.398438 419.03125 287.144531 418.972656 286.882812 418.972656 C 286.597656 418.972656 286.320312 419.039062 286.054688 419.136719 L 244.578125 434.53125 C 241.15625 435.804688 237.492188 436.242188 233.867188 435.746094 C 230.226562 435.25 226.816406 433.839844 223.847656 431.6875 C 220.882812 429.535156 218.492188 426.734375 216.890625 423.4375 C 215.292969 420.140625 214.582031 416.527344 214.734375 412.871094 L 216.578125 368.765625 C 216.589844 368.492188 216.578125 368.183594 216.496094 367.921875 C 216.414062 367.679688 216.234375 367.421875 216.078125 367.222656 L 188.601562 332.617188 C 186.320312 329.746094 184.765625 326.402344 184.113281 322.789062 C 183.472656 319.199219 183.761719 315.496094 184.890625 312.03125 C 186.023438 308.546875 187.949219 305.402344 190.597656 302.871094 C 193.253906 300.332031 196.472656 298.550781 200.007812 297.5625 L 242.621094 285.679688 C 242.886719 285.609375 243.167969 285.5 243.390625 285.339844 C 243.605469 285.1875 243.796875 284.933594 243.9375 284.71875 L 268.4375 247.964844 C 270.46875 244.914062 273.175781 242.40625 276.410156 240.675781 C 279.640625 238.945312 283.222656 238.082031 286.882812 238.082031 C 290.542969 238.082031 294.121094 238.945312 297.351562 240.675781 C 300.585938 242.402344 303.289062 244.914062 305.320312 247.960938 Z M 313.347656 295.695312 L 288.84375 258.925781 C 288.640625 258.625 288.363281 258.300781 288.035156 258.125 C 287.691406 257.945312 287.265625 257.886719 286.882812 257.886719 C 286.5 257.886719 286.070312 257.945312 285.730469 258.125 C 285.398438 258.300781 285.121094 258.617188 284.914062 258.925781 L 260.421875 295.691406 C 258.957031 297.890625 257.148438 299.820312 255.003906 301.375 C 252.863281 302.921875 250.472656 304.035156 247.925781 304.75 L 205.308594 316.632812 C 204.945312 316.734375 204.5625 316.898438 204.285156 317.164062 C 204.011719 317.425781 203.828125 317.796875 203.710938 318.152344 C 203.597656 318.511719 203.527344 318.921875 203.589844 319.300781 C 203.65625 319.660156 203.878906 320.023438 204.101562 320.304688 L 231.578125 354.910156 C 233.21875 356.984375 234.5 359.289062 235.320312 361.808594 C 236.140625 364.320312 236.464844 366.933594 236.355469 369.574219 L 234.511719 413.683594 C 234.496094 414.058594 234.539062 414.46875 234.703125 414.8125 C 234.867188 415.15625 235.179688 415.445312 235.476562 415.664062 C 235.78125 415.886719 236.152344 416.085938 236.527344 416.132812 C 236.921875 416.191406 237.320312 416.109375 237.6875 415.976562 L 279.167969 400.582031 C 281.648438 399.660156 284.234375 399.164062 286.882812 399.164062 C 289.527344 399.164062 292.117188 399.671875 294.589844 400.589844 L 336.070312 415.960938 C 336.433594 416.097656 336.847656 416.1875 337.234375 416.132812 C 337.613281 416.082031 337.980469 415.882812 338.289062 415.664062 C 338.582031 415.449219 338.902344 415.152344 339.066406 414.816406 C 339.230469 414.476562 339.269531 414.058594 339.253906 413.683594 L 337.410156 369.570312 C 337.296875 366.933594 337.628906 364.316406 338.449219 361.804688 C 339.269531 359.289062 340.542969 356.980469 342.1875 354.910156 L 369.664062 320.304688 C 369.886719 320.019531 370.105469 319.660156 370.171875 319.296875 C 370.238281 318.917969 370.160156 318.507812 370.046875 318.148438 C 369.929688 317.789062 369.75 317.425781 369.476562 317.160156 C 369.199219 316.898438 368.820312 316.734375 368.453125 316.632812 L 325.835938 304.75 C 323.292969 304.035156 320.894531 302.925781 318.757812 301.375 C 316.617188 299.820312 314.8125 297.890625 313.347656 295.695312 Z M 313.347656 295.695312 " fill-opacity="1" fill-rule="evenodd"/><path fill="#0d2740" d="M 299.203125 252.035156 L 323.707031 288.804688 C 324.375 289.808594 325.164062 290.644531 326.066406 291.296875 C 326.960938 291.949219 328 292.4375 329.167969 292.761719 L 371.78125 304.644531 C 374.230469 305.324219 376.359375 306.53125 378.074219 308.171875 C 379.800781 309.820312 381.101562 311.894531 381.882812 314.304688 C 382.664062 316.703125 382.832031 319.148438 382.414062 321.488281 C 381.992188 323.832031 380.980469 326.066406 379.40625 328.046875 L 351.933594 362.652344 C 351.171875 363.605469 350.617188 364.609375 350.28125 365.65625 C 349.9375 366.710938 349.792969 367.851562 349.839844 369.070312 L 351.683594 413.179688 C 351.792969 415.703125 351.296875 418.097656 350.265625 420.234375 C 349.21875 422.378906 347.644531 424.253906 345.597656 425.738281 C 343.546875 427.226562 341.269531 428.144531 338.90625 428.464844 C 336.558594 428.78125 334.128906 428.511719 331.742188 427.628906 L 290.265625 412.257812 C 289.140625 411.828125 288.011719 411.625 286.882812 411.625 C 285.753906 411.625 284.625 411.828125 283.503906 412.246094 L 242.023438 427.640625 C 239.636719 428.511719 237.207031 428.785156 234.859375 428.464844 C 232.492188 428.144531 230.214844 427.226562 228.167969 425.738281 C 226.117188 424.25 224.542969 422.375 223.503906 420.230469 C 222.464844 418.09375 221.976562 415.703125 222.078125 413.179688 L 223.921875 369.070312 C 223.972656 367.851562 223.828125 366.714844 223.488281 365.65625 C 223.144531 364.605469 222.59375 363.605469 221.832031 362.652344 L 194.355469 328.046875 C 192.785156 326.066406 191.769531 323.832031 191.347656 321.488281 C 190.929688 319.152344 191.097656 316.703125 191.878906 314.304688 C 192.664062 311.890625 193.964844 309.820312 195.675781 308.179688 C 197.40625 306.53125 199.53125 305.324219 201.980469 304.644531 L 244.597656 292.761719 C 245.761719 292.4375 246.800781 291.945312 247.699219 291.292969 C 248.585938 290.652344 249.378906 289.8125 250.058594 288.796875 L 274.554688 252.039062 C 275.96875 249.925781 277.78125 248.273438 279.878906 247.15625 C 281.988281 246.027344 284.363281 245.433594 286.882812 245.433594 C 289.40625 245.433594 291.777344 246.03125 293.886719 247.15625 C 295.984375 248.273438 297.792969 249.925781 299.203125 252.035156 Z M 319.464844 291.621094 L 294.960938 254.855469 C 294.03125 253.453125 292.847656 252.363281 291.496094 251.640625 C 290.148438 250.921875 288.585938 250.539062 286.882812 250.539062 C 285.179688 250.539062 283.617188 250.921875 282.269531 251.640625 C 280.917969 252.363281 279.734375 253.453125 278.800781 254.851562 L 254.304688 291.617188 C 253.296875 293.140625 252.09375 294.40625 250.691406 295.421875 C 249.304688 296.425781 247.726562 297.171875 245.949219 297.671875 L 203.335938 309.554688 C 201.71875 310.003906 200.320312 310.789062 199.210938 311.851562 C 198.097656 312.914062 197.246094 314.28125 196.726562 315.878906 C 196.203125 317.480469 196.085938 319.082031 196.355469 320.59375 C 196.625 322.097656 197.300781 323.558594 198.347656 324.875 L 225.820312 359.480469 C 226.957031 360.914062 227.796875 362.445312 228.332031 364.082031 C 228.863281 365.714844 229.085938 367.445312 229.011719 369.265625 L 227.167969 413.378906 C 227.101562 415.054688 227.417969 416.632812 228.085938 418.019531 C 228.753906 419.394531 229.792969 420.617188 231.160156 421.609375 C 232.523438 422.601562 234.015625 423.210938 235.539062 423.417969 C 237.074219 423.625 238.675781 423.445312 240.246094 422.867188 L 281.726562 407.472656 C 283.464844 406.835938 285.179688 406.515625 286.882812 406.515625 C 288.585938 406.515625 290.300781 406.835938 292.035156 407.484375 L 333.519531 422.851562 C 335.089844 423.445312 336.691406 423.625 338.226562 423.417969 C 339.75 423.210938 341.238281 422.605469 342.605469 421.609375 C 343.96875 420.621094 345.011719 419.394531 345.679688 418.023438 C 346.347656 416.636719 346.664062 415.058594 346.59375 413.378906 L 344.75 369.265625 C 344.675781 367.441406 344.902344 365.710938 345.433594 364.082031 C 345.96875 362.445312 346.804688 360.910156 347.941406 359.480469 L 375.417969 324.875 C 376.46875 323.554688 377.136719 322.09375 377.40625 320.589844 C 377.675781 319.082031 377.558594 317.480469 377.035156 315.878906 C 376.519531 314.28125 375.671875 312.917969 374.554688 311.851562 C 373.445312 310.789062 372.046875 310.003906 370.425781 309.554688 L 327.8125 297.671875 C 326.042969 297.171875 324.460938 296.429688 323.070312 295.421875 C 321.6875 294.421875 320.488281 293.152344 319.464844 291.621094 Z M 319.464844 291.621094 " fill-opacity="1" fill-rule="nonzero"/></svg>