<svg xmlns="http://www.w3.org/2000/svg" xmlns:xlink="http://www.w3.org/1999/xlink" width="1200" zoomAndPan="magnify" viewBox="0 0 900 675.000002" height="900" preserveAspectRatio="xMidYMid meet" version="1.0"><defs><clipPath id="9180492178"><path d="M 47.007812 58 L 658 58 L 658 164 L 47.007812 164 Z M 47.007812 58 " clip-rule="nonzero"/></clipPath><clipPath id="b73051282b"><path d="M 47.007812 192 L 658 192 L 658 554 L 47.007812 554 Z M 47.007812 192 " clip-rule="nonzero"/></clipPath><clipPath id="69ab91b5d0"><path d="M 448 269 L 852.816406 269 L 852.816406 674 L 448 674 Z M 448 269 " clip-rule="nonzero"/></clipPath></defs><path fill="#0c1e27" d="M 198.234375 0 L 157.761719 0 L 157.761719 88.675781 L 198.234375 88.675781 L 198.234375 0 " fill-opacity="1" fill-rule="nonzero"/><path fill="#0c1e27" d="M 372.65625 0 L 332.183594 0 L 332.183594 88.675781 L 372.65625 88.675781 L 372.65625 0 " fill-opacity="1" fill-rule="nonzero"/><g clip-path="url(#9180492178)"><path fill="#0c1e27" d="M 635.816406 58.988281 L 561.332031 58.988281 L 561.332031 102.921875 L 492.359375 102.921875 L 492.359375 58.988281 L 386.914062 58.988281 L 386.914062 102.921875 L 317.9375 102.921875 L 317.9375 58.988281 L 212.480469 58.988281 L 212.480469 102.921875 L 143.503906 102.921875 L 143.503906 58.988281 L 69.035156 58.988281 C 56.890625 58.988281 47.039062 68.828125 47.039062 80.972656 L 47.039062 163.761719 L 657.8125 163.761719 L 657.8125 80.972656 C 657.8125 68.828125 647.960938 58.988281 635.816406 58.988281 " fill-opacity="1" fill-rule="nonzero"/></g><path fill="#0c1e27" d="M 547.089844 0 L 506.617188 0 L 506.617188 88.675781 L 547.089844 88.675781 L 547.089844 0 " fill-opacity="1" fill-rule="nonzero"/><g clip-path="url(#b73051282b)"><path fill="#0c1e27" d="M 324.859375 308.652344 L 260.855469 308.652344 L 260.855469 244.644531 L 324.859375 244.644531 Z M 324.859375 404.984375 L 260.855469 404.984375 L 260.855469 340.976562 L 324.859375 340.976562 Z M 324.859375 501.304688 L 260.855469 501.304688 L 260.855469 437.296875 L 324.859375 437.296875 Z M 205.71875 404.984375 L 141.714844 404.984375 L 141.714844 340.976562 L 205.71875 340.976562 Z M 205.71875 501.304688 L 141.714844 501.304688 L 141.714844 437.296875 L 205.71875 437.296875 Z M 379.992188 244.644531 L 443.996094 244.644531 L 443.996094 308.652344 L 379.992188 308.652344 Z M 420.910156 501.304688 L 379.992188 501.304688 L 379.992188 437.296875 L 421.65625 437.296875 C 423.3125 426.269531 425.558594 415.4375 428.710938 404.984375 L 379.992188 404.984375 L 379.992188 340.976562 L 443.996094 340.976562 L 443.996094 367.207031 C 457.703125 340.242188 476.460938 316.34375 499.121094 296.714844 L 499.121094 244.644531 L 563.125 244.644531 L 563.125 257.257812 C 590.117188 246.230469 619.585938 240.03125 650.488281 240.03125 C 652.953125 240.03125 655.359375 240.328125 657.8125 240.402344 L 657.8125 192.246094 L 47.039062 192.246094 L 47.039062 531.703125 C 47.039062 543.851562 56.890625 553.6875 69.035156 553.6875 L 434.074219 553.6875 C 427.742188 537.039062 423.25 519.523438 420.910156 501.304688 " fill-opacity="1" fill-rule="nonzero"/></g><g clip-path="url(#69ab91b5d0)"><path fill="#0c1e27" d="M 657.566406 650.722656 L 657.566406 624.207031 L 643.421875 624.207031 L 643.421875 650.722656 C 549.519531 647.101562 475.097656 572.667969 471.480469 478.789062 L 497.992188 478.789062 L 497.992188 464.644531 L 471.480469 464.644531 C 475.097656 370.742188 549.519531 296.320312 643.421875 292.703125 L 643.421875 319.214844 L 657.566406 319.214844 L 657.566406 292.703125 C 751.457031 296.320312 825.878906 370.742188 829.5 464.644531 L 802.984375 464.644531 L 802.984375 478.789062 L 829.5 478.789062 C 825.878906 572.667969 751.457031 647.101562 657.566406 650.722656 Z M 650.488281 269.332031 C 538.894531 269.332031 448.109375 360.117188 448.109375 471.710938 C 448.109375 583.304688 538.894531 674.09375 650.488281 674.09375 C 762.082031 674.09375 852.871094 583.304688 852.871094 471.710938 C 852.871094 360.117188 762.082031 269.332031 650.488281 269.332031 " fill-opacity="1" fill-rule="nonzero"/></g><path fill="#0c1e27" d="M 643.398438 359.808594 L 643.421875 464.644531 L 565.984375 464.644531 L 565.984375 478.789062 L 657.566406 478.789062 L 657.554688 359.808594 L 643.398438 359.808594 " fill-opacity="1" fill-rule="nonzero"/></svg>