<svg xmlns="http://www.w3.org/2000/svg" xmlns:xlink="http://www.w3.org/1999/xlink" width="1200" zoomAndPan="magnify" viewBox="0 0 900 675.000002" height="900" preserveAspectRatio="xMidYMid meet" version="1.0"><defs><filter x="0%" y="0%" width="100%" height="100%" id="818dbee5ab"><feColorMatrix values="0 0 0 0 1 0 0 0 0 1 0 0 0 0 1 0 0 0 1 0" color-interpolation-filters="sRGB"/></filter><mask id="b78df3229c"><g filter="url(#818dbee5ab)"><rect x="-90" width="1080" fill="#000000" y="-67.5" height="810.000002" fill-opacity="0.8"/></g></mask><clipPath id="88db8bb1a6"><path d="M 0.996094 0 L 672 0 L 672 673.882812 L 0.996094 673.882812 Z M 0.996094 0 " clip-rule="nonzero"/></clipPath><clipPath id="a1b5c016b6"><path d="M 442 329 L 787.019531 329 L 787.019531 673.882812 L 442 673.882812 Z M 442 329 " clip-rule="nonzero"/></clipPath><clipPath id="8916237ffb"><rect x="0" width="788" y="0" height="674"/></clipPath></defs><g mask="url(#b78df3229c)"><g transform="matrix(1, 0, 0, 1, 56, -0.000000000000005375)"><g clip-path="url(#8916237ffb)"><g clip-path="url(#88db8bb1a6)"><path fill="#0d2740" d="M 454.972656 625.242188 C 444.304688 629.621094 433.523438 633.214844 422.519531 636.355469 C 431.167969 628.160156 439.476562 618.503906 447.335938 607.722656 C 451.492188 601.996094 450.253906 593.914062 444.527344 589.644531 C 438.800781 585.492188 430.71875 586.726562 426.449219 592.453125 C 410.058594 615.023438 384.230469 641.296875 350.65625 646.914062 L 350.65625 439.855469 C 373.339844 440.753906 395.796875 444.234375 417.691406 450.074219 C 424.542969 451.871094 431.617188 447.828125 433.523438 440.976562 C 435.320312 434.128906 431.277344 427.054688 424.429688 425.144531 C 400.398438 418.746094 375.695312 415.039062 350.769531 414.03125 L 350.769531 267.160156 C 375.921875 266.148438 400.847656 262.441406 425.101562 255.929688 C 445.988281 250.316406 466.199219 242.566406 485.511719 232.910156 C 490.792969 261.433594 493.933594 291.863281 494.609375 323.527344 C 494.722656 330.601562 500.558594 336.101562 507.523438 336.101562 C 507.632812 336.101562 507.746094 336.101562 507.859375 336.101562 C 514.933594 335.988281 520.660156 330.039062 520.433594 322.964844 C 519.648438 287.257812 515.832031 252.5625 509.429688 219.886719 C 539.074219 202.03125 566.023438 179.574219 588.929688 153.410156 C 619.359375 194.84375 639.007812 243.242188 646.082031 294.105469 C 647.09375 301.179688 653.605469 306.121094 660.679688 305.109375 C 667.753906 304.101562 672.695312 297.589844 671.683594 290.515625 C 663.261719 229.65625 638.335938 172.277344 599.484375 124.554688 C 534.917969 45.503906 439.699219 0.140625 337.855469 0.140625 C 236.011719 0.140625 140.792969 45.503906 76.453125 124.554688 C 27.832031 184.402344 0.996094 259.859375 0.996094 337 C 0.996094 415.9375 28.84375 492.628906 79.371094 553.039062 C 137.648438 622.546875 220.40625 665.214844 309.785156 672.625 C 318.992188 673.410156 328.3125 673.75 337.746094 673.75 C 381.648438 673.75 424.316406 665.441406 464.628906 649.046875 C 471.253906 646.351562 474.398438 638.828125 471.703125 632.203125 C 469.121094 625.691406 461.597656 622.546875 454.972656 625.242188 Z M 247.015625 634.5625 C 245.78125 634.222656 244.546875 633.773438 243.421875 633.4375 C 241.964844 632.988281 240.617188 632.539062 239.15625 632.089844 C 237.921875 631.640625 236.796875 631.304688 235.5625 630.855469 C 234.105469 630.40625 232.757812 629.84375 231.296875 629.394531 C 230.0625 628.945312 228.9375 628.496094 227.703125 628.046875 C 226.242188 627.488281 224.894531 626.925781 223.546875 626.476562 C 222.425781 626.027344 221.191406 625.578125 220.066406 625.128906 C 218.71875 624.566406 217.261719 624.003906 215.914062 623.332031 C 214.789062 622.882812 213.667969 622.320312 212.433594 621.871094 C 211.085938 621.3125 209.625 620.636719 208.277344 619.964844 C 207.15625 619.402344 206.03125 618.953125 204.910156 618.390625 C 203.5625 617.71875 202.214844 617.042969 200.753906 616.371094 C 199.632812 615.808594 198.507812 615.246094 197.386719 614.6875 C 196.039062 614.011719 194.691406 613.226562 193.34375 612.550781 C 192.21875 611.992188 191.210938 611.429688 190.085938 610.867188 C 188.738281 610.082031 187.390625 609.410156 186.042969 608.621094 C 185.035156 608.0625 183.910156 607.5 182.902344 606.824219 C 181.554688 606.039062 180.207031 605.253906 178.859375 604.46875 C 177.847656 603.90625 176.835938 603.234375 175.828125 602.671875 C 174.480469 601.773438 173.019531 600.988281 171.671875 600.089844 C 170.660156 599.527344 169.761719 598.855469 168.753906 598.292969 C 167.292969 597.394531 165.945312 596.382812 164.484375 595.484375 C 163.585938 594.921875 162.6875 594.25 161.789062 593.6875 C 160.332031 592.679688 158.757812 591.554688 157.300781 590.542969 C 156.511719 589.984375 155.726562 589.421875 154.941406 588.859375 C 153.144531 587.625 151.460938 586.277344 149.664062 584.929688 C 149.214844 584.59375 148.765625 584.257812 148.203125 583.917969 C 145.957031 582.234375 143.824219 580.4375 141.691406 578.753906 C 141.355469 578.417969 141.019531 578.191406 140.679688 577.855469 C 138.882812 576.394531 137.085938 574.9375 135.292969 573.363281 C 134.503906 572.691406 133.832031 572.128906 133.15625 571.457031 C 131.808594 570.21875 130.460938 569.097656 129.117188 567.863281 C 128.328125 567.078125 127.429688 566.289062 126.644531 565.617188 C 125.410156 564.492188 124.175781 563.371094 122.941406 562.136719 C 122.042969 561.351562 121.253906 560.453125 120.355469 559.664062 C 119.234375 558.542969 118 557.417969 116.875 556.296875 C 115.976562 555.398438 115.191406 554.5 114.292969 553.601562 C 113.171875 552.480469 112.046875 551.355469 111.039062 550.234375 C 110.140625 549.335938 109.351562 548.324219 108.453125 547.425781 C 107.667969 546.527344 106.882812 545.628906 106.097656 544.84375 C 125.972656 522.160156 148.652344 502.734375 173.582031 486.902344 C 181.890625 518.007812 192.78125 546.753906 206.144531 572.242188 C 219.957031 598.515625 235.675781 620.074219 252.855469 636.46875 C 252.292969 636.359375 251.734375 636.132812 251.171875 636.019531 C 249.9375 635.347656 248.476562 634.898438 247.015625 634.5625 Z M 180.992188 337 C 180.992188 300.957031 184.136719 265.8125 190.085938 232.796875 C 209.511719 242.457031 229.722656 250.203125 250.609375 255.816406 C 274.75 262.328125 299.679688 266.148438 324.832031 267.046875 L 324.832031 413.917969 C 299.902344 414.929688 275.199219 418.632812 251.171875 425.035156 C 230.285156 430.648438 210.296875 438.171875 191.210938 447.492188 C 184.472656 412.683594 180.992188 375.402344 180.992188 337 Z M 108.34375 127.136719 C 109.464844 125.902344 110.699219 124.554688 111.933594 123.320312 C 112.722656 122.53125 113.507812 121.632812 114.179688 120.847656 C 115.417969 119.5 116.765625 118.265625 118.109375 116.917969 C 118.785156 116.246094 119.570312 115.457031 120.246094 114.785156 C 121.703125 113.324219 123.164062 111.976562 124.734375 110.519531 C 125.296875 109.957031 125.859375 109.394531 126.421875 108.835938 C 130.574219 104.902344 134.84375 101.199219 139.222656 97.605469 C 139.671875 97.15625 140.230469 96.820312 140.792969 96.371094 C 142.476562 95.023438 144.160156 93.675781 145.847656 92.328125 C 146.632812 91.765625 147.417969 91.09375 148.203125 90.53125 C 149.664062 89.410156 151.125 88.285156 152.582031 87.164062 C 153.480469 86.488281 154.378906 85.816406 155.277344 85.253906 C 156.625 84.242188 157.972656 83.234375 159.433594 82.222656 C 160.445312 81.546875 161.339844 80.875 162.351562 80.199219 C 163.699219 79.300781 165.046875 78.402344 166.394531 77.394531 C 167.40625 76.71875 168.414062 76.046875 169.425781 75.371094 C 170.773438 74.472656 172.121094 73.6875 173.46875 72.789062 C 174.480469 72.117188 175.601562 71.441406 176.613281 70.882812 C 177.960938 70.09375 179.308594 69.308594 180.65625 68.523438 C 181.777344 67.847656 182.789062 67.289062 183.910156 66.613281 C 185.257812 65.828125 186.605469 65.042969 187.953125 64.367188 C 189.078125 63.808594 190.199219 63.132812 191.324219 62.570312 C 192.667969 61.898438 194.015625 61.113281 195.363281 60.4375 C 196.488281 59.878906 197.609375 59.316406 198.84375 58.753906 C 200.191406 58.082031 201.539062 57.40625 202.886719 56.734375 C 204.011719 56.171875 205.246094 55.609375 206.367188 55.046875 C 207.714844 54.375 209.0625 53.8125 210.523438 53.140625 C 211.757812 52.578125 212.882812 52.128906 214.117188 51.566406 C 215.464844 51.007812 216.921875 50.332031 218.269531 49.769531 C 219.507812 49.320312 220.742188 48.761719 221.863281 48.3125 C 223.210938 47.75 224.671875 47.1875 226.019531 46.628906 C 227.253906 46.179688 228.488281 45.730469 229.722656 45.28125 C 231.070312 44.71875 232.53125 44.269531 233.992188 43.707031 C 235.226562 43.257812 236.460938 42.808594 237.695312 42.472656 C 239.15625 42.023438 240.503906 41.574219 241.964844 41.011719 C 243.199219 40.5625 244.433594 40.226562 245.667969 39.777344 C 247.128906 39.328125 248.589844 38.878906 249.9375 38.429688 C 251.058594 38.09375 252.070312 37.757812 253.191406 37.53125 C 236.011719 53.925781 220.179688 75.484375 206.480469 101.761719 C 192.332031 128.820312 180.878906 159.585938 172.457031 192.9375 C 146.632812 176.429688 123.277344 156.105469 103.402344 132.640625 C 104.300781 131.628906 105.199219 130.617188 106.097656 129.496094 C 106.769531 128.820312 107.554688 127.921875 108.34375 127.136719 Z M 229.164062 114 C 255.664062 63.359375 289.238281 33.039062 324.832031 27.089844 L 324.832031 241.21875 C 301.925781 240.320312 279.242188 236.839844 257.347656 230.890625 C 235.898438 225.050781 215.128906 216.855469 195.476562 206.636719 C 203.675781 172.5 214.902344 141.171875 229.164062 114 Z M 257.910156 449.960938 C 279.691406 444.121094 302.148438 440.753906 324.832031 439.742188 L 324.832031 646.914062 C 289.238281 640.960938 255.664062 610.644531 229.164062 560.003906 C 215.800781 534.402344 204.910156 505.207031 197.050781 473.429688 C 216.25 463.546875 236.6875 455.6875 257.910156 449.960938 Z M 418.253906 230.890625 C 396.246094 236.839844 373.675781 240.320312 350.65625 241.21875 L 350.65625 27.089844 C 407.25 36.632812 456.320312 107.9375 479.898438 206.75 C 460.363281 216.964844 439.589844 225.164062 418.253906 230.890625 Z M 503.367188 193.160156 C 494.382812 157.792969 482.144531 125.339844 466.875 97.269531 C 453.625 73.015625 438.691406 53.140625 422.519531 37.644531 C 423.644531 37.980469 424.765625 38.316406 425.777344 38.65625 C 427.238281 39.105469 428.695312 39.554688 430.042969 40.003906 C 431.277344 40.339844 432.515625 40.789062 433.75 41.238281 C 435.210938 41.6875 436.554688 42.136719 438.015625 42.695312 C 439.25 43.144531 440.488281 43.59375 441.722656 43.933594 C 443.179688 44.382812 444.527344 44.941406 445.988281 45.503906 C 447.222656 45.953125 448.460938 46.402344 449.695312 46.851562 C 451.042969 47.414062 452.5 47.972656 453.847656 48.535156 C 455.082031 48.984375 456.207031 49.546875 457.441406 49.996094 C 458.789062 50.558594 460.25 51.117188 461.597656 51.792969 C 462.832031 52.355469 463.953125 52.804688 465.191406 53.363281 C 466.539062 54.039062 467.996094 54.597656 469.34375 55.273438 C 470.46875 55.835938 471.703125 56.394531 472.824219 56.957031 C 474.171875 57.632812 475.519531 58.304688 476.867188 58.980469 C 477.992188 59.539062 479.113281 60.101562 480.234375 60.664062 C 481.582031 61.335938 482.929688 62.121094 484.277344 62.796875 C 485.402344 63.359375 486.523438 64.03125 487.648438 64.59375 C 488.996094 65.378906 490.34375 66.054688 491.6875 66.839844 C 492.8125 67.511719 493.824219 68.074219 494.945312 68.746094 C 496.292969 69.535156 497.640625 70.320312 498.988281 71.21875 C 500 71.890625 501.121094 72.453125 502.132812 73.125 C 503.480469 73.914062 504.828125 74.8125 506.175781 75.710938 C 507.183594 76.382812 508.195312 77.058594 509.207031 77.730469 C 510.554688 78.628906 511.902344 79.527344 513.25 80.425781 C 514.257812 81.097656 515.15625 81.773438 516.167969 82.445312 C 517.515625 83.457031 518.863281 84.46875 520.324219 85.367188 C 521.21875 86.039062 522.117188 86.714844 523.015625 87.386719 C 524.476562 88.511719 525.9375 89.519531 527.285156 90.644531 C 528.070312 91.203125 528.855469 91.878906 529.640625 92.441406 C 531.328125 93.789062 532.898438 95.023438 534.582031 96.371094 C 535.144531 96.820312 535.707031 97.269531 536.265625 97.71875 C 538.402344 99.515625 540.644531 101.421875 542.78125 103.21875 C 542.890625 103.332031 543.003906 103.445312 543.230469 103.554688 C 545.25 105.351562 547.160156 107.039062 549.066406 108.835938 C 549.742188 109.507812 550.414062 110.070312 551.089844 110.742188 C 552.4375 112.089844 553.894531 113.324219 555.242188 114.671875 C 556.03125 115.457031 556.816406 116.246094 557.601562 117.03125 C 558.835938 118.265625 560.070312 119.5 561.195312 120.738281 C 562.09375 121.632812 562.878906 122.53125 563.664062 123.429688 C 564.789062 124.667969 565.910156 125.789062 567.035156 127.023438 C 567.933594 127.921875 568.71875 128.933594 569.617188 129.945312 C 570.515625 130.953125 571.300781 131.851562 572.199219 132.863281 C 552.550781 156.332031 529.082031 176.65625 503.367188 193.160156 Z M 86.785156 153.300781 C 109.691406 179.460938 136.636719 201.917969 166.28125 219.773438 C 158.984375 256.828125 155.054688 296.351562 155.054688 337 C 155.054688 379.894531 159.320312 421.550781 167.515625 460.292969 C 138.660156 477.472656 112.496094 499.03125 89.703125 524.519531 C 49.054688 470.734375 26.820312 404.710938 26.820312 337 C 26.820312 270.976562 48.042969 206.410156 86.785156 153.300781 Z M 86.785156 153.300781 " fill-opacity="1" fill-rule="nonzero"/></g><g clip-path="url(#a1b5c016b6)"><path fill="#0d2740" d="M 614.753906 329.253906 C 519.761719 329.253906 442.507812 406.507812 442.507812 501.5 C 442.507812 596.496094 519.761719 673.859375 614.753906 673.859375 C 709.75 673.859375 787.003906 596.496094 787.003906 501.5 C 787.003906 406.507812 709.75 329.253906 614.753906 329.253906 Z M 614.753906 648.035156 C 534.019531 648.035156 468.332031 582.347656 468.332031 501.613281 C 468.332031 420.878906 534.019531 355.191406 614.753906 355.191406 C 695.488281 355.191406 761.175781 420.765625 761.175781 501.5 C 761.175781 582.234375 695.488281 648.035156 614.753906 648.035156 Z M 614.753906 648.035156 " fill-opacity="1" fill-rule="nonzero"/></g><path fill="#0d2740" d="M 674.605469 447.152344 L 600.046875 527.886719 L 555.132812 475.789062 C 550.414062 470.398438 542.332031 469.835938 536.941406 474.441406 C 531.550781 479.15625 530.988281 487.242188 535.59375 492.628906 L 590.050781 555.621094 C 592.410156 558.429688 595.890625 560.003906 599.597656 560.113281 C 599.710938 560.113281 599.710938 560.113281 599.820312 560.113281 C 603.414062 560.113281 606.894531 558.65625 609.253906 555.960938 L 693.582031 464.671875 C 698.410156 459.394531 698.074219 451.308594 692.90625 446.480469 C 687.628906 441.539062 679.433594 441.875 674.605469 447.152344 Z M 674.605469 447.152344 " fill-opacity="1" fill-rule="nonzero"/></g></g></g></svg>