<svg xmlns="http://www.w3.org/2000/svg" xmlns:xlink="http://www.w3.org/1999/xlink" width="1200" zoomAndPan="magnify" viewBox="0 0 900 675.000002" height="900" preserveAspectRatio="xMidYMid meet" version="1.0"><defs><clipPath id="d9704c70a5"><path d="M 130.71875 0 L 769.519531 0 L 769.519531 674 L 130.71875 674 Z M 130.71875 0 " clip-rule="nonzero"/></clipPath></defs><g clip-path="url(#d9704c70a5)"><path fill="#0c1e27" d="M 320.199219 310.402344 C 322.191406 310.324219 324.085938 310.75 325.8125 311.601562 C 327.542969 312.429688 329.109375 313.6875 330.417969 315.253906 C 331.734375 316.828125 332.808594 318.726562 333.535156 320.839844 C 334.28125 322.964844 334.6875 325.296875 334.6875 327.757812 C 334.6875 329.855469 334.394531 331.867188 333.855469 333.734375 C 333.328125 335.605469 332.546875 337.335938 331.570312 338.863281 C 330.601562 340.402344 329.429688 341.730469 328.132812 342.8125 C 326.816406 343.886719 325.371094 344.71875 323.828125 345.238281 L 323.828125 382.046875 C 325.371094 382.5625 326.816406 383.394531 328.132812 384.46875 C 329.429688 385.542969 330.601562 386.878906 331.570312 388.398438 C 332.546875 389.925781 333.328125 391.65625 333.855469 393.511719 C 334.394531 395.371094 334.6875 397.375 334.6875 399.449219 C 334.6875 401.929688 334.28125 404.277344 333.535156 406.398438 C 332.808594 408.511719 331.734375 410.398438 330.417969 411.976562 C 329.109375 413.535156 327.542969 414.78125 325.8125 415.621094 C 324.085938 416.453125 322.191406 416.875 320.199219 416.800781 C 318.222656 416.722656 316.335938 416.160156 314.640625 415.207031 C 312.933594 414.253906 311.410156 412.910156 310.136719 411.273438 C 308.851562 409.636719 307.824219 407.714844 307.113281 405.59375 C 306.410156 403.472656 306.015625 401.148438 306.015625 398.722656 C 306.015625 396.679688 306.289062 394.742188 306.808594 392.9375 C 307.328125 391.136719 308.074219 389.472656 309.015625 388 C 309.960938 386.542969 311.089844 385.265625 312.371094 384.234375 C 313.652344 383.207031 315.070312 382.425781 316.59375 381.949219 L 316.59375 345.332031 C 315.070312 344.855469 313.652344 344.078125 312.371094 343.046875 C 311.089844 342.015625 309.960938 340.734375 309.015625 339.261719 C 308.074219 337.789062 307.328125 336.125 306.808594 334.308594 C 306.289062 332.5 306.015625 330.539062 306.015625 328.488281 C 306.015625 326.082031 306.410156 323.757812 307.113281 321.648438 C 307.824219 319.523438 308.851562 317.59375 310.136719 315.960938 C 311.410156 314.316406 312.933594 312.96875 314.640625 312.011719 C 316.335938 311.042969 318.222656 310.484375 320.199219 310.402344 Z M 579.75 310.402344 C 581.722656 310.484375 583.609375 311.042969 585.304688 312.011719 C 587.011719 312.96875 588.542969 314.316406 589.808594 315.960938 C 591.09375 317.59375 592.121094 319.523438 592.835938 321.648438 C 593.535156 323.757812 593.933594 326.082031 593.933594 328.488281 C 593.933594 330.539062 593.65625 332.5 593.136719 334.308594 C 592.621094 336.125 591.875 337.789062 590.933594 339.261719 C 589.988281 340.734375 588.855469 342.015625 587.578125 343.046875 C 586.296875 344.078125 584.878906 344.855469 583.351562 345.332031 L 583.351562 381.949219 C 584.878906 382.425781 586.296875 383.207031 587.578125 384.234375 C 588.855469 385.265625 589.988281 386.53125 590.933594 388 C 591.875 389.472656 592.621094 391.136719 593.136719 392.9375 C 593.65625 394.742188 593.933594 396.679688 593.933594 398.722656 C 593.933594 401.148438 593.535156 403.472656 592.835938 405.59375 C 592.121094 407.714844 591.09375 409.636719 589.808594 411.273438 C 588.542969 412.910156 587.011719 414.253906 585.304688 415.207031 C 583.609375 416.160156 581.722656 416.722656 579.75 416.800781 C 577.753906 416.875 575.863281 416.453125 574.132812 415.621094 C 572.40625 414.78125 570.84375 413.535156 569.527344 411.976562 C 568.210938 410.398438 567.148438 408.511719 566.410156 406.398438 C 565.671875 404.277344 565.273438 401.929688 565.273438 399.449219 C 565.273438 397.375 565.5625 395.371094 566.101562 393.511719 C 566.636719 391.65625 567.410156 389.925781 568.390625 388.398438 C 569.355469 386.878906 570.527344 385.542969 571.84375 384.46875 C 573.167969 383.394531 574.621094 382.5625 576.179688 382.046875 L 576.179688 345.238281 C 574.621094 344.71875 573.167969 343.886719 571.84375 342.8125 C 570.527344 341.730469 569.355469 340.402344 568.390625 338.863281 C 567.410156 337.335938 566.636719 335.605469 566.101562 333.734375 C 565.5625 331.867188 565.273438 329.855469 565.273438 327.757812 C 565.273438 325.296875 565.671875 322.964844 566.410156 320.839844 C 567.148438 318.726562 568.210938 316.828125 569.527344 315.253906 C 570.84375 313.6875 572.40625 312.429688 574.132812 311.601562 C 575.863281 310.75 577.753906 310.324219 579.75 310.402344 Z M 733.765625 549.84375 L 716.03125 549.84375 L 716.03125 177.367188 L 733.765625 177.367188 Z M 183.925781 177.367188 L 183.925781 549.84375 L 166.1875 549.84375 L 166.1875 177.367188 Z M 130.714844 0 L 130.714844 674 L 166.1875 674 L 166.1875 585.316406 L 183.925781 585.316406 L 183.925781 674 L 352.425781 638.527344 L 352.425781 88.683594 L 183.925781 53.210938 L 183.925781 141.894531 L 166.1875 141.894531 L 166.1875 35.472656 L 733.765625 35.472656 L 733.765625 141.894531 L 716.03125 141.894531 L 716.03125 53.210938 L 547.527344 88.683594 L 547.527344 638.527344 L 716.03125 674 L 716.03125 585.316406 L 733.765625 585.316406 L 733.765625 674 L 769.238281 674 L 769.238281 0 L 130.714844 0 " fill-opacity="1" fill-rule="nonzero"/></g></svg>