<svg xmlns="http://www.w3.org/2000/svg" xmlns:xlink="http://www.w3.org/1999/xlink" width="1200" zoomAndPan="magnify" viewBox="0 0 900 675.000002" height="900" preserveAspectRatio="xMidYMid meet" version="1.0"><defs><filter x="0%" y="0%" width="100%" height="100%" id="7a3bba75c8"><feColorMatrix values="0 0 0 0 1 0 0 0 0 1 0 0 0 0 1 0 0 0 1 0" color-interpolation-filters="sRGB"/></filter><clipPath id="38ba83b6d1"><path d="M 6 180 L 899.332031 180 L 899.332031 495 L 6 495 Z M 6 180 " clip-rule="nonzero"/></clipPath><clipPath id="b976a0b7f5"><path d="M 323 0.214844 L 893.09375 0.214844 L 893.09375 314 L 323 314 Z M 323 0.214844 " clip-rule="nonzero"/></clipPath><mask id="b32864bd06"><g filter="url(#7a3bba75c8)"><rect x="-204" width="1296" fill="#000000" y="-328.5" height="972.000003" fill-opacity="0.8"/></g></mask><clipPath id="f6121892ff"><path d="M 1 0.332031 L 570 0.332031 L 570 313.40625 L 1 313.40625 Z M 1 0.332031 " clip-rule="nonzero"/></clipPath><clipPath id="6f2fe95d5f"><rect x="0" width="571" y="0" height="314"/></clipPath><clipPath id="f6a55f6bf9"><path d="M 0.65625 0.214844 L 322 0.214844 L 322 314.148438 L 0.65625 314.148438 Z M 0.65625 0.214844 " clip-rule="nonzero"/></clipPath><mask id="03b088c49f"><g filter="url(#7a3bba75c8)"><rect x="-204" width="1296" fill="#000000" y="-328.5" height="972.000003" fill-opacity="0.8"/></g></mask><clipPath id="d9f8c9ae80"><path d="M 135 0.453125 L 187 0.453125 L 187 58 L 135 58 Z M 135 0.453125 " clip-rule="nonzero"/></clipPath><clipPath id="865f3ec809"><path d="M 112 263 L 209 263 L 209 313.40625 L 112 313.40625 Z M 112 263 " clip-rule="nonzero"/></clipPath><clipPath id="f5fc474270"><path d="M 234 0.453125 L 321 0.453125 L 321 113 L 234 113 Z M 234 0.453125 " clip-rule="nonzero"/></clipPath><clipPath id="7abc55b5b9"><rect x="0" width="322" y="0" height="315"/></clipPath><clipPath id="a014ebf799"><rect x="0" width="894" y="0" height="315"/></clipPath></defs><g clip-path="url(#38ba83b6d1)"><g transform="matrix(1, 0, 0, 1, 6, 180)"><g clip-path="url(#a014ebf799)"><g clip-path="url(#b976a0b7f5)"><g mask="url(#b32864bd06)"><g transform="matrix(1, 0, 0, 1, 323, -0.000000000000028422)"><g clip-path="url(#6f2fe95d5f)"><g clip-path="url(#f6121892ff)"><path fill="#0d2740" d="M 278.566406 146.425781 L 278.566406 7.3125 C 278.566406 3.492188 281.699219 0.359375 285.515625 0.359375 C 289.335938 0.359375 292.46875 3.492188 292.46875 7.3125 L 292.46875 146.425781 C 292.46875 150.246094 289.335938 153.378906 285.515625 153.378906 C 281.601562 153.378906 278.566406 150.246094 278.566406 146.425781 Z M 197.40625 67.128906 L 230.203125 157.390625 C 231.476562 161.015625 235.492188 162.875 239.113281 161.503906 C 242.734375 160.230469 244.59375 156.21875 243.226562 152.59375 L 210.429688 62.332031 C 209.15625 58.707031 205.140625 56.847656 201.519531 58.21875 C 197.898438 59.589844 196.035156 63.503906 197.40625 67.128906 Z M 188.597656 184.214844 C 191.042969 187.152344 195.449219 187.542969 198.386719 185.097656 C 201.324219 182.648438 201.714844 178.246094 199.269531 175.308594 L 109.789062 68.695312 C 107.339844 65.757812 102.933594 65.367188 99.996094 67.8125 C 97.058594 70.261719 96.667969 74.667969 99.117188 77.601562 Z M 75.425781 175.601562 L 158.640625 223.667969 C 161.96875 225.628906 166.175781 224.453125 168.136719 221.125 C 170.09375 217.796875 168.917969 213.585938 165.589844 211.628906 L 82.472656 163.558594 C 79.144531 161.601562 74.933594 162.777344 72.976562 166.105469 C 71.019531 169.433594 72.097656 173.644531 75.425781 175.601562 Z M 143.953125 270.957031 C 147.773438 271.640625 151.296875 269.09375 151.980469 265.375 C 152.667969 261.558594 150.121094 258.03125 146.402344 257.347656 L 9.34375 233.066406 C 5.523438 232.382812 2 234.929688 1.316406 238.648438 C 0.628906 242.464844 3.175781 245.992188 6.894531 246.675781 Z M 569.71875 239.136719 C 569.035156 235.320312 565.511719 232.871094 561.691406 233.460938 L 424.632812 257.445312 C 420.816406 258.128906 418.367188 261.65625 418.953125 265.472656 C 419.640625 269.292969 423.261719 271.738281 426.984375 271.152344 L 564.042969 247.164062 C 567.859375 246.480469 570.308594 242.859375 569.71875 239.136719 Z M 405.445312 211.824219 C 402.117188 213.78125 400.941406 217.992188 402.898438 221.320312 C 404.855469 224.648438 409.066406 225.824219 412.394531 223.867188 L 495.609375 175.992188 C 498.9375 174.035156 500.113281 169.824219 498.15625 166.496094 C 496.199219 163.167969 491.988281 161.992188 488.660156 163.949219 Z M 371.863281 175.40625 C 369.417969 178.34375 369.808594 182.746094 372.746094 185.195312 C 375.683594 187.644531 380.089844 187.25 382.535156 184.3125 L 472.113281 77.898438 C 474.5625 74.960938 474.171875 70.554688 471.234375 68.105469 C 468.296875 65.660156 463.890625 66.050781 461.441406 68.988281 Z M 332.019531 161.601562 C 335.640625 162.875 339.558594 161.113281 340.929688 157.488281 L 373.921875 67.324219 C 375.195312 63.703125 373.429688 59.785156 369.808594 58.414062 C 366.1875 57.140625 362.269531 58.90625 360.898438 62.527344 L 327.90625 152.691406 C 326.539062 156.316406 328.398438 160.230469 332.019531 161.601562 Z M 505.988281 306.6875 C 505.988281 310.507812 502.855469 313.640625 499.035156 313.640625 L 71.898438 313.640625 C 68.082031 313.640625 64.949219 310.507812 64.949219 306.6875 C 64.949219 302.871094 68.082031 299.738281 71.898438 299.738281 L 171.367188 299.738281 C 171.074219 296.214844 170.875 292.589844 170.875 288.96875 C 170.875 225.824219 222.273438 174.425781 285.417969 174.425781 C 348.566406 174.425781 399.960938 225.824219 399.960938 288.96875 C 399.960938 292.589844 399.765625 296.214844 399.472656 299.738281 L 498.9375 299.738281 C 502.855469 299.738281 505.988281 302.773438 505.988281 306.6875 Z M 386.160156 288.871094 C 386.160156 233.265625 341.125 188.132812 285.417969 188.132812 C 229.8125 188.132812 184.679688 233.167969 184.679688 288.871094 C 184.679688 292.492188 184.875 296.117188 185.269531 299.640625 L 385.472656 299.640625 C 385.960938 296.117188 386.160156 292.589844 386.160156 288.871094 Z M 386.160156 288.871094 " fill-opacity="1" fill-rule="nonzero"/></g></g></g></g></g><g clip-path="url(#f6a55f6bf9)"><g mask="url(#03b088c49f)"><g transform="matrix(1, 0, 0, 1, -0.000000000000002665, -0.000000000000028422)"><g clip-path="url(#7abc55b5b9)"><path fill="#0d2740" d="M 42.8125 239.0625 L 278.738281 239.0625 L 244.230469 194.867188 C 242.765625 193 241.957031 190.660156 241.957031 188.304688 L 241.957031 136.199219 C 241.957031 92.269531 206.25 55.867188 162.363281 55.03125 C 140.90625 54.667969 120.425781 62.875 104.753906 78.242188 C 88.757812 93.929688 79.59375 115.675781 79.59375 137.925781 L 79.59375 188.304688 C 79.59375 190.675781 78.785156 193.015625 77.335938 194.882812 Z M 283.042969 251.824219 L 38.503906 251.824219 C 34.394531 251.824219 30.730469 249.539062 28.921875 245.832031 C 27.121094 242.140625 27.582031 237.847656 30.105469 234.601562 L 66.828125 187.582031 L 66.828125 137.925781 C 66.828125 112.277344 77.390625 87.199219 95.808594 69.128906 C 113.949219 51.335938 137.621094 41.800781 162.613281 42.261719 C 213.398438 43.242188 254.71875 85.375 254.71875 136.199219 L 254.71875 187.582031 L 291.445312 234.601562 C 293.980469 237.835938 294.425781 242.140625 292.628906 245.832031 C 290.832031 249.539062 287.15625 251.824219 283.042969 251.824219 " fill-opacity="1" fill-rule="nonzero"/><g clip-path="url(#d9f8c9ae80)"><path fill="#0d2740" d="M 141.382812 57.273438 C 137.871094 57.273438 135.015625 54.417969 135.015625 50.890625 L 135.015625 26.527344 C 135.015625 12.3125 146.5625 0.753906 160.773438 0.753906 C 174.984375 0.753906 186.550781 12.3125 186.550781 26.527344 L 186.550781 50.792969 C 186.550781 54.304688 183.695312 57.175781 180.167969 57.175781 C 176.644531 57.175781 173.789062 54.304688 173.789062 50.792969 L 173.789062 26.527344 C 173.789062 19.355469 167.949219 13.515625 160.773438 13.515625 C 153.601562 13.515625 147.777344 19.355469 147.777344 26.527344 L 147.777344 50.890625 C 147.777344 54.417969 144.90625 57.273438 141.382812 57.273438 " fill-opacity="1" fill-rule="nonzero"/></g><g clip-path="url(#865f3ec809)"><path fill="#0d2740" d="M 126.988281 276.203125 C 131.546875 290.679688 145.003906 300.90625 160.773438 300.90625 C 176.546875 300.90625 190.019531 290.679688 194.574219 276.203125 Z M 160.773438 313.667969 C 136.003906 313.667969 115.398438 295.097656 112.835938 270.476562 C 112.652344 268.695312 113.238281 266.898438 114.449219 265.558594 C 115.648438 264.207031 117.375 263.441406 119.1875 263.441406 L 202.375 263.441406 C 204.1875 263.441406 205.914062 264.207031 207.128906 265.558594 C 208.324219 266.898438 208.925781 268.695312 208.730469 270.476562 C 206.179688 295.097656 185.5625 313.667969 160.773438 313.667969 " fill-opacity="1" fill-rule="nonzero"/></g><path fill="#0d2740" d="M 274.015625 126.375 C 273.683594 126.375 273.347656 126.347656 273.011719 126.292969 C 269.53125 125.75 267.148438 122.488281 267.707031 118.992188 C 272.914062 85.820312 250.152344 54.585938 216.964844 49.359375 C 213.480469 48.816406 211.097656 45.554688 211.65625 42.070312 C 212.199219 38.589844 215.472656 36.210938 218.957031 36.761719 C 259.082031 43.0625 286.609375 80.847656 280.3125 120.984375 C 279.8125 124.121094 277.09375 126.375 274.015625 126.375 " fill-opacity="1" fill-rule="nonzero"/><g clip-path="url(#f5fc474270)"><path fill="#0d2740" d="M 313.179688 112.207031 C 312.847656 112.207031 312.523438 112.179688 312.175781 112.125 C 308.707031 111.582031 306.324219 108.320312 306.867188 104.835938 C 310.183594 83.746094 305.085938 62.636719 292.519531 45.390625 C 279.953125 28.144531 261.421875 16.824219 240.328125 13.511719 C 236.84375 12.96875 234.464844 9.703125 235.019531 6.21875 C 235.5625 2.734375 238.835938 0.351562 242.308594 0.90625 C 266.757812 4.742188 288.253906 17.875 302.828125 37.875 C 317.402344 57.886719 323.324219 82.363281 319.476562 106.816406 C 318.988281 109.964844 316.273438 112.207031 313.179688 112.207031 " fill-opacity="1" fill-rule="nonzero"/></g><path fill="#0d2740" d="M 47.546875 126.375 C 44.453125 126.375 41.738281 124.132812 41.25 120.984375 C 38.199219 101.535156 42.894531 82.074219 54.484375 66.160156 C 66.078125 50.25 83.160156 39.8125 102.609375 36.761719 C 106.089844 36.203125 109.363281 38.589844 109.910156 42.070312 C 110.453125 45.554688 108.070312 48.816406 104.585938 49.359375 C 71.398438 54.585938 48.648438 85.820312 53.859375 118.992188 C 54.402344 122.488281 52.019531 125.75 48.550781 126.292969 C 48.203125 126.347656 47.867188 126.375 47.546875 126.375 " fill-opacity="1" fill-rule="nonzero"/><path fill="#0d2740" d="M 8.957031 111.414062 C 5.863281 111.414062 3.144531 109.171875 2.65625 106.035156 C -5.144531 56.296875 28.949219 9.5 78.671875 1.695312 C 82.167969 1.152344 85.414062 3.523438 85.972656 7.007812 C 86.515625 10.488281 84.132812 13.753906 80.652344 14.300781 C 37.878906 21.015625 8.550781 61.273438 15.265625 104.042969 C 15.808594 107.527344 13.425781 110.785156 9.957031 111.34375 C 9.625 111.386719 9.289062 111.414062 8.957031 111.414062 " fill-opacity="1" fill-rule="nonzero"/></g></g></g></g></g></g></g></svg>