<svg xmlns="http://www.w3.org/2000/svg" xmlns:xlink="http://www.w3.org/1999/xlink" width="1200" zoomAndPan="magnify" viewBox="0 0 900 675.000002" height="900" preserveAspectRatio="xMidYMid meet" version="1.0"><defs><filter x="0%" y="0%" width="100%" height="100%" id="cef5168812"><feColorMatrix values="0 0 0 0 1 0 0 0 0 1 0 0 0 0 1 0 0 0 1 0" color-interpolation-filters="sRGB"/></filter><clipPath id="e3846da574"><path d="M 0.664062 129 L 899 129 L 899 545 L 0.664062 545 Z M 0.664062 129 " clip-rule="nonzero"/></clipPath><clipPath id="fbccd9c0dd"><path d="M 0.664062 3 L 411 3 L 411 413 L 0.664062 413 Z M 0.664062 3 " clip-rule="nonzero"/></clipPath><mask id="f1c1133744"><g filter="url(#cef5168812)"><rect x="-198" width="1296" fill="#000000" y="-277.5" height="972.000003" fill-opacity="0.8"/></g></mask><clipPath id="c0c0cc0e0a"><path d="M 0.664062 0.296875 L 409.449219 0.296875 L 409.449219 409.082031 L 0.664062 409.082031 Z M 0.664062 0.296875 " clip-rule="nonzero"/></clipPath><clipPath id="b875d6ef1d"><path d="M 0.664062 0.296875 L 409.449219 0.296875 L 409.449219 409.082031 L 0.664062 409.082031 Z M 0.664062 0.296875 " clip-rule="nonzero"/></clipPath><clipPath id="f675a49f6d"><rect x="0" width="411" y="0" height="410"/></clipPath><clipPath id="285d0fd577"><path d="M 469 0.410156 L 898.617188 0.410156 L 898.617188 415.472656 L 469 415.472656 Z M 469 0.410156 " clip-rule="nonzero"/></clipPath><mask id="76093f570c"><g filter="url(#cef5168812)"><rect x="-198" width="1296" fill="#000000" y="-277.5" height="972.000003" fill-opacity="0.8"/></g></mask><clipPath id="141b91e199"><path d="M 0.652344 273 L 429.617188 273 L 429.617188 412.082031 L 0.652344 412.082031 Z M 0.652344 273 " clip-rule="nonzero"/></clipPath><clipPath id="c8c4c6a237"><path d="M 0.652344 3.296875 L 429.617188 3.296875 L 429.617188 143 L 0.652344 143 Z M 0.652344 3.296875 " clip-rule="nonzero"/></clipPath><clipPath id="f3bdde72db"><rect x="0" width="430" y="0" height="416"/></clipPath><clipPath id="b00b2e50c7"><rect x="0" width="899" y="0" height="416"/></clipPath></defs><g clip-path="url(#e3846da574)"><g transform="matrix(1, 0, 0, 1, 0.000000000000000111, 129)"><g clip-path="url(#b00b2e50c7)"><g clip-path="url(#fbccd9c0dd)"><g mask="url(#f1c1133744)"><g transform="matrix(1, 0, 0, 1, 0.000000000000000111, 3)"><g clip-path="url(#f675a49f6d)"><g clip-path="url(#c0c0cc0e0a)"><path fill="#ffffff" d="M 205.363281 0.296875 C 92.492188 0.296875 0.664062 92.121094 0.664062 204.992188 C 0.664062 317.863281 92.492188 409.6875 205.363281 409.6875 C 318.230469 409.6875 410.058594 317.863281 410.058594 204.992188 C 410.058594 92.121094 318.230469 0.296875 205.363281 0.296875 " fill-opacity="1" fill-rule="nonzero"/></g><path fill="#0d2740" d="M 256.203125 287.96875 L 249.746094 306.960938 L 262.644531 295.578125 Z M 153.027344 270.65625 L 160.257812 249.695312 L 122.523438 270.921875 Z M 134.492188 234.324219 L 131.203125 246.417969 L 157.570312 242.011719 Z M 188.46875 249.617188 L 177.007812 265.320312 L 167.265625 253.488281 L 164.695312 253.660156 L 164.871094 283.808594 L 164.871094 308.648438 C 164.871094 325 170.53125 334.722656 184.117188 334.722656 C 186.292969 334.722656 224.140625 334.722656 226.316406 334.722656 C 239.902344 334.722656 245.566406 325 245.566406 308.628906 L 245.566406 284.160156 L 226.140625 290.863281 Z M 248.21875 73.246094 L 247.3125 79.359375 C 247.003906 81.546875 245.621094 82.835938 243.691406 83.039062 C 242.722656 90.4375 236.78125 129.988281 235.894531 142.503906 C 230.074219 224.167969 249.804688 213.351562 241.863281 267.394531 C 241.480469 270.003906 240.890625 274.015625 240.175781 278.859375 L 230.109375 281.414062 L 193.417969 229.628906 L 174.328125 235.144531 L 168.824219 226.003906 L 168.691406 226.160156 C 178.148438 196.332031 189.675781 200.199219 203.691406 137.777344 C 206.433594 125.511719 213.097656 86.054688 214.316406 78.703125 C 212.601562 77.929688 211.699219 76.324219 212.023438 74.1875 L 212.933594 68.066406 C 213.253906 65.832031 214.683594 64.546875 216.675781 64.382812 L 217.214844 60.6875 L 246.265625 64.953125 L 245.71875 68.671875 C 247.566406 69.410156 248.546875 71.03125 248.21875 73.246094 " fill-opacity="1" fill-rule="nonzero"/><g clip-path="url(#b875d6ef1d)"><path fill="#0d2740" d="M 24.988281 204.992188 C 24.988281 159.464844 41.949219 117.832031 69.875 86.058594 L 324.296875 340.480469 C 292.519531 368.40625 250.890625 385.367188 205.363281 385.367188 C 105.902344 385.367188 24.988281 304.453125 24.988281 204.992188 Z M 385.734375 204.992188 C 385.734375 250.191406 369.023438 291.558594 341.453125 323.242188 L 87.109375 68.898438 C 118.796875 41.332031 160.164062 24.617188 205.363281 24.617188 C 304.820312 24.617188 385.734375 105.535156 385.734375 204.992188 Z M 205.363281 0.296875 C 92.492188 0.296875 0.664062 92.121094 0.664062 204.992188 C 0.664062 317.863281 92.492188 409.6875 205.363281 409.6875 C 318.230469 409.6875 410.058594 317.863281 410.058594 204.992188 C 410.058594 92.121094 318.230469 0.296875 205.363281 0.296875 " fill-opacity="1" fill-rule="nonzero"/></g></g></g></g></g><g clip-path="url(#285d0fd577)"><g mask="url(#76093f570c)"><g transform="matrix(1, 0, 0, 1, 469, -0.000000000000028422)"><g clip-path="url(#f3bdde72db)"><path fill="#0d2740" d="M 345.332031 182.863281 C 349.152344 182.863281 352.246094 179.769531 352.246094 175.949219 C 352.246094 172.125 349.152344 169.03125 345.332031 169.03125 L 311.105469 169.03125 C 307.285156 169.03125 304.191406 172.125 304.191406 175.949219 L 304.191406 240.011719 C 304.191406 243.832031 307.285156 246.925781 311.105469 246.925781 L 345.332031 246.925781 C 349.152344 246.925781 352.246094 243.832031 352.246094 240.011719 C 352.246094 236.1875 349.152344 233.09375 345.332031 233.09375 L 318.023438 233.09375 L 318.023438 214.894531 L 345.332031 214.894531 C 349.152344 214.894531 352.246094 211.800781 352.246094 207.980469 C 352.246094 204.15625 349.152344 201.0625 345.332031 201.0625 L 318.023438 201.0625 L 318.023438 182.863281 Z M 345.332031 182.863281 " fill-opacity="1" fill-rule="nonzero"/><path fill="#0d2740" d="M 13.730469 169.03125 C 9.910156 169.03125 6.816406 172.125 6.816406 175.949219 L 6.816406 240.011719 C 6.816406 243.832031 9.910156 246.925781 13.730469 246.925781 L 46.503906 246.925781 C 50.328125 246.925781 53.421875 243.832031 53.421875 240.011719 C 53.421875 236.1875 50.328125 233.09375 46.503906 233.09375 L 20.644531 233.09375 L 20.644531 175.949219 C 20.644531 172.125 17.550781 169.03125 13.730469 169.03125 Z M 13.730469 169.03125 " fill-opacity="1" fill-rule="nonzero"/><path fill="#0d2740" d="M 71.945312 175.949219 L 71.945312 240.011719 C 71.945312 243.832031 75.035156 246.925781 78.859375 246.925781 C 82.679688 246.925781 85.773438 243.832031 85.773438 240.011719 L 85.773438 175.949219 C 85.773438 172.125 82.679688 169.03125 78.859375 169.03125 C 75.035156 169.03125 71.945312 172.125 71.945312 175.949219 Z M 71.945312 175.949219 " fill-opacity="1" fill-rule="nonzero"/><path fill="#0d2740" d="M 170.421875 246.925781 C 174.242188 246.925781 177.335938 243.832031 177.335938 240.011719 L 177.335938 175.949219 C 177.335938 172.671875 175.035156 169.84375 171.824219 169.175781 C 168.597656 168.546875 165.375 170.195312 164.074219 173.199219 L 142.660156 222.605469 L 121.269531 173.199219 C 119.972656 170.199219 116.800781 168.539062 113.519531 169.175781 C 110.308594 169.84375 108.007812 172.671875 108.007812 175.949219 L 108.007812 240.011719 C 108.007812 243.832031 111.101562 246.925781 114.921875 246.925781 C 118.746094 246.925781 121.835938 243.832031 121.835938 240.011719 L 121.835938 209.324219 L 136.308594 242.757812 C 138.679688 248.203125 146.636719 248.199219 149.007812 242.757812 L 163.507812 209.296875 L 163.507812 240.011719 C 163.507812 243.832031 166.597656 246.925781 170.421875 246.925781 Z M 170.421875 246.925781 " fill-opacity="1" fill-rule="nonzero"/><path fill="#0d2740" d="M 199.644531 175.949219 L 199.644531 240.011719 C 199.644531 243.832031 202.734375 246.925781 206.558594 246.925781 C 210.378906 246.925781 213.472656 243.832031 213.472656 240.011719 L 213.472656 175.949219 C 213.472656 172.125 210.378906 169.03125 206.558594 169.03125 C 202.734375 169.03125 199.644531 172.125 199.644531 175.949219 Z M 199.644531 175.949219 " fill-opacity="1" fill-rule="nonzero"/><path fill="#0d2740" d="M 259.121094 246.925781 C 262.941406 246.925781 266.035156 243.832031 266.035156 240.011719 L 266.035156 182.863281 L 280.722656 182.863281 C 284.546875 182.863281 287.640625 179.769531 287.640625 175.949219 C 287.640625 172.125 284.546875 169.03125 280.722656 169.03125 L 237.507812 169.03125 C 233.6875 169.03125 230.59375 172.125 230.59375 175.949219 C 230.59375 179.769531 233.6875 182.863281 237.507812 182.863281 L 252.203125 182.863281 L 252.203125 240.011719 C 252.203125 243.832031 255.296875 246.925781 259.121094 246.925781 Z M 259.121094 246.925781 " fill-opacity="1" fill-rule="nonzero"/><path fill="#0d2740" d="M 386.648438 169.03125 L 375.316406 169.03125 C 371.496094 169.03125 368.402344 172.125 368.402344 175.949219 L 368.402344 240.011719 C 368.402344 243.832031 371.496094 246.925781 375.316406 246.925781 L 386.648438 246.925781 C 406.929688 246.925781 423.429688 229.457031 423.429688 207.980469 C 423.429688 186.503906 406.929688 169.03125 386.648438 169.03125 Z M 386.648438 233.09375 L 382.234375 233.09375 L 382.234375 182.863281 L 386.648438 182.863281 C 399.304688 182.863281 409.597656 194.128906 409.597656 207.980469 C 409.597656 221.832031 399.304688 233.09375 386.648438 233.09375 Z M 386.648438 233.09375 " fill-opacity="1" fill-rule="nonzero"/><g clip-path="url(#141b91e199)"><path fill="#0d2740" d="M 422.597656 273.601562 L 7.671875 273.601562 C 3.851562 273.601562 0.757812 276.695312 0.757812 280.515625 C 0.757812 284.339844 3.851562 287.433594 7.671875 287.433594 L 26.050781 287.433594 C 58.191406 363.679688 131.820312 412.746094 215.121094 412.746094 C 298.410156 412.746094 372.050781 363.679688 404.214844 287.433594 L 422.597656 287.433594 C 426.417969 287.433594 429.511719 284.339844 429.511719 280.515625 C 429.511719 276.695312 426.417969 273.601562 422.597656 273.601562 Z M 343.253906 287.433594 C 315.800781 331.503906 267.726562 358.457031 215.121094 358.457031 C 162.542969 358.457031 114.472656 331.507812 87.003906 287.433594 Z M 215.121094 398.917969 C 139.398438 398.917969 72.257812 355.457031 41.140625 287.433594 L 71.023438 287.433594 C 100.109375 339.851562 154.882812 372.289062 215.121094 372.289062 C 275.382812 372.289062 330.160156 339.847656 359.226562 287.433594 L 389.125 287.433594 C 357.980469 355.457031 290.828125 398.917969 215.121094 398.917969 Z M 215.121094 398.917969 " fill-opacity="1" fill-rule="nonzero"/></g><g clip-path="url(#c8c4c6a237)"><path fill="#0d2740" d="M 7.671875 142.363281 L 422.597656 142.363281 C 426.417969 142.363281 429.511719 139.269531 429.511719 135.449219 C 429.511719 131.628906 426.417969 128.535156 422.597656 128.535156 L 404.21875 128.535156 C 372.046875 52.300781 298.40625 3.238281 215.121094 3.238281 C 131.828125 3.238281 58.199219 52.300781 26.050781 128.535156 L 7.671875 128.535156 C 3.851562 128.535156 0.757812 131.628906 0.757812 135.449219 C 0.757812 139.269531 3.851562 142.363281 7.671875 142.363281 Z M 87.003906 128.535156 C 114.472656 84.453125 162.542969 57.503906 215.121094 57.503906 C 267.726562 57.503906 315.796875 84.457031 343.253906 128.535156 Z M 215.121094 17.070312 C 290.820312 17.070312 357.976562 60.519531 389.121094 128.535156 L 359.222656 128.535156 C 330.15625 76.109375 275.382812 43.671875 215.121094 43.671875 C 154.882812 43.671875 100.109375 76.113281 71.023438 128.535156 L 41.140625 128.535156 C 72.269531 60.523438 139.40625 17.070312 215.121094 17.070312 Z M 215.121094 17.070312 " fill-opacity="1" fill-rule="nonzero"/></g></g></g></g></g></g></g></g></svg>