<svg xmlns="http://www.w3.org/2000/svg" xmlns:xlink="http://www.w3.org/1999/xlink" width="1200" zoomAndPan="magnify" viewBox="0 0 900 675.000002" height="900" preserveAspectRatio="xMidYMid meet" version="1.0"><defs><filter x="0%" y="0%" width="100%" height="100%" id="aba80536b0"><feColorMatrix values="0 0 0 0 1 0 0 0 0 1 0 0 0 0 1 0 0 0 1 0" color-interpolation-filters="sRGB"/></filter><clipPath id="b79c6e34d5"><path d="M 0.664062 219 L 899.332031 219 L 899.332031 455 L 0.664062 455 Z M 0.664062 219 " clip-rule="nonzero"/></clipPath><mask id="d11c2705b0"><g filter="url(#aba80536b0)"><rect x="-90" width="1080" fill="#000000" y="-67.5" height="810.000002" fill-opacity="0.8"/></g></mask><clipPath id="8c8808600c"><path d="M 0.664062 0.273438 L 899.332031 0.273438 L 899.332031 235.605469 L 0.664062 235.605469 Z M 0.664062 0.273438 " clip-rule="nonzero"/></clipPath><clipPath id="4ade457c5e"><path d="M 0.664062 3.722656 L 359.640625 3.722656 L 359.640625 231.621094 L 0.664062 231.621094 Z M 0.664062 3.722656 " clip-rule="nonzero"/></clipPath><clipPath id="32d1db9d8e"><path d="M 427 35 L 647.867188 35 L 647.867188 231.621094 L 427 231.621094 Z M 427 35 " clip-rule="nonzero"/></clipPath><clipPath id="07373aa5d8"><path d="M 698.207031 3.722656 L 899.292969 3.722656 L 899.292969 231.621094 L 698.207031 231.621094 Z M 698.207031 3.722656 " clip-rule="nonzero"/></clipPath><clipPath id="cf8a7250b3"><rect x="0" width="900" y="0" height="236"/></clipPath><clipPath id="6faceed4b8"><rect x="0" width="900" y="0" height="236"/></clipPath></defs><g clip-path="url(#b79c6e34d5)"><g mask="url(#d11c2705b0)"><g transform="matrix(1, 0, 0, 1, 0.000000000000000111, 219)"><g clip-path="url(#6faceed4b8)"><g clip-path="url(#8c8808600c)"><g transform="matrix(1, 0, 0, 1, 0.000000000000000111, -0.000000000000056843)"><g clip-path="url(#cf8a7250b3)"><g clip-path="url(#4ade457c5e)"><path fill="#0d2740" d="M 30.082031 10.253906 C 17.480469 10.253906 7.226562 20.507812 7.226562 33.109375 L 7.226562 202.890625 C 7.226562 215.492188 17.480469 225.746094 30.082031 225.746094 L 330.460938 225.746094 C 343.0625 225.746094 353.316406 215.492188 353.316406 202.890625 L 353.316406 33.109375 C 353.316406 20.507812 343.0625 10.253906 330.460938 10.253906 Z M 330.460938 232.273438 L 30.082031 232.273438 C 13.882812 232.273438 0.695312 219.085938 0.695312 202.890625 L 0.695312 33.109375 C 0.695312 16.910156 13.882812 3.722656 30.082031 3.722656 L 330.460938 3.722656 C 346.65625 3.722656 359.84375 16.910156 359.84375 33.109375 L 359.84375 202.890625 C 359.84375 219.085938 346.65625 232.273438 330.460938 232.273438 " fill-opacity="1" fill-rule="nonzero"/></g><path fill="#0d2740" d="M 323.929688 42.90625 L 36.609375 42.90625 C 34.800781 42.90625 33.34375 41.449219 33.34375 39.640625 C 33.34375 37.828125 34.800781 36.375 36.609375 36.375 L 323.929688 36.375 C 325.742188 36.375 327.195312 37.828125 327.195312 39.640625 C 327.195312 41.449219 325.742188 42.90625 323.929688 42.90625 " fill-opacity="1" fill-rule="nonzero"/><path fill="#0d2740" d="M 88.851562 95.144531 C 79.847656 95.144531 72.527344 102.464844 72.527344 111.46875 C 72.527344 120.472656 79.847656 127.792969 88.851562 127.792969 C 97.855469 127.792969 105.175781 120.472656 105.175781 111.46875 C 105.175781 102.464844 97.855469 95.144531 88.851562 95.144531 Z M 88.851562 134.324219 C 76.25 134.324219 65.996094 124.070312 65.996094 111.46875 C 65.996094 98.867188 76.25 88.613281 88.851562 88.613281 C 101.453125 88.613281 111.707031 98.867188 111.707031 111.46875 C 111.707031 124.070312 101.453125 134.324219 88.851562 134.324219 " fill-opacity="1" fill-rule="nonzero"/><path fill="#0d2740" d="M 128.03125 173.503906 C 126.21875 173.503906 124.765625 172.050781 124.765625 170.238281 C 124.765625 150.445312 108.644531 134.324219 88.851562 134.324219 C 69.054688 134.324219 52.9375 150.445312 52.9375 170.238281 C 52.9375 172.050781 51.480469 173.503906 49.671875 173.503906 C 47.859375 173.503906 46.40625 172.050781 46.40625 170.238281 C 46.40625 146.824219 65.433594 127.792969 88.851562 127.792969 C 112.265625 127.792969 131.296875 146.824219 131.296875 170.238281 C 131.296875 172.050781 129.839844 173.503906 128.03125 173.503906 " fill-opacity="1" fill-rule="nonzero"/><path fill="#0d2740" d="M 39.875 166.972656 L 137.824219 166.972656 L 137.824219 69.023438 L 39.875 69.023438 Z M 141.089844 173.503906 L 36.609375 173.503906 C 34.800781 173.503906 33.34375 172.050781 33.34375 170.238281 L 33.34375 65.757812 C 33.34375 63.949219 34.800781 62.496094 36.609375 62.496094 L 141.089844 62.496094 C 142.902344 62.496094 144.355469 63.949219 144.355469 65.757812 L 144.355469 170.238281 C 144.355469 172.050781 142.902344 173.503906 141.089844 173.503906 " fill-opacity="1" fill-rule="nonzero"/><path fill="#0d2740" d="M 128.03125 206.15625 C 127.570312 206.15625 127.085938 206.050781 126.628906 205.847656 C 109.332031 197.660156 99.5625 205.109375 99.15625 205.441406 C 97.804688 206.484375 95.8125 206.332031 94.667969 205.058594 C 93.007812 203.171875 87.726562 198.578125 83.007812 199.546875 C 80.332031 200.132812 79.003906 201.15625 77.472656 202.355469 C 75.179688 204.140625 72.601562 206.15625 66.761719 206.15625 C 59.464844 206.15625 52.757812 199.140625 49.289062 194.828125 L 38.90625 205.183594 C 37.632812 206.460938 35.589844 206.460938 34.289062 205.183594 C 33.015625 203.910156 33.015625 201.867188 34.289062 200.59375 L 47.375 187.535156 C 48.0625 186.820312 49.03125 186.460938 50.003906 186.589844 C 50.972656 186.691406 51.863281 187.203125 52.398438 188.019531 C 54.390625 191.027344 61.300781 199.625 66.761719 199.625 C 70.355469 199.625 71.582031 198.65625 73.445312 197.203125 C 75.253906 195.796875 77.472656 194.0625 81.632812 193.171875 C 88.417969 191.71875 94.511719 196.054688 97.574219 198.757812 C 102.269531 196.230469 113.414062 192.378906 129.433594 199.929688 C 131.066406 200.695312 131.753906 202.660156 130.988281 204.292969 C 130.429688 205.464844 129.253906 206.15625 128.03125 206.15625 " fill-opacity="1" fill-rule="nonzero"/><path fill="#0d2740" d="M 323.929688 75.554688 L 173.742188 75.554688 C 171.929688 75.554688 170.476562 74.101562 170.476562 72.289062 C 170.476562 70.476562 171.929688 69.023438 173.742188 69.023438 L 323.929688 69.023438 C 325.742188 69.023438 327.195312 70.476562 327.195312 72.289062 C 327.195312 74.101562 325.742188 75.554688 323.929688 75.554688 " fill-opacity="1" fill-rule="nonzero"/><path fill="#0d2740" d="M 265.160156 140.855469 L 173.742188 140.855469 C 171.929688 140.855469 170.476562 139.402344 170.476562 137.589844 C 170.476562 135.777344 171.929688 134.324219 173.742188 134.324219 L 265.160156 134.324219 C 266.972656 134.324219 268.425781 135.777344 268.425781 137.589844 C 268.425781 139.402344 266.972656 140.855469 265.160156 140.855469 " fill-opacity="1" fill-rule="nonzero"/><path fill="#0d2740" d="M 265.160156 166.972656 L 173.742188 166.972656 C 171.929688 166.972656 170.476562 165.519531 170.476562 163.710938 C 170.476562 161.898438 171.929688 160.445312 173.742188 160.445312 L 265.160156 160.445312 C 266.972656 160.445312 268.425781 161.898438 268.425781 163.710938 C 268.425781 165.519531 266.972656 166.972656 265.160156 166.972656 " fill-opacity="1" fill-rule="nonzero"/><path fill="#0d2740" d="M 265.160156 193.09375 L 173.742188 193.09375 C 171.929688 193.09375 170.476562 191.640625 170.476562 189.828125 C 170.476562 188.019531 171.929688 186.5625 173.742188 186.5625 L 265.160156 186.5625 C 266.972656 186.5625 268.425781 188.019531 268.425781 189.828125 C 268.425781 191.640625 266.972656 193.09375 265.160156 193.09375 " fill-opacity="1" fill-rule="nonzero"/><path fill="#0d2740" d="M 185.5 104.941406 C 185.5 107.820312 183.152344 110.167969 180.269531 110.167969 C 177.386719 110.167969 175.042969 107.820312 175.042969 104.941406 C 175.042969 102.058594 177.386719 99.710938 180.269531 99.710938 C 183.152344 99.710938 185.5 102.058594 185.5 104.941406 " fill-opacity="1" fill-rule="nonzero"/><path fill="#0d2740" d="M 205.089844 104.941406 C 205.089844 107.820312 202.742188 110.167969 199.859375 110.167969 C 196.976562 110.167969 194.632812 107.820312 194.632812 104.941406 C 194.632812 102.058594 196.976562 99.710938 199.859375 99.710938 C 202.742188 99.710938 205.089844 102.058594 205.089844 104.941406 " fill-opacity="1" fill-rule="nonzero"/><path fill="#0d2740" d="M 224.679688 104.941406 C 224.679688 107.820312 222.332031 110.167969 219.449219 110.167969 C 216.566406 110.167969 214.222656 107.820312 214.222656 104.941406 C 214.222656 102.058594 216.566406 99.710938 219.449219 99.710938 C 222.332031 99.710938 224.679688 102.058594 224.679688 104.941406 " fill-opacity="1" fill-rule="nonzero"/><path fill="#0d2740" d="M 244.269531 104.941406 C 244.269531 107.820312 241.921875 110.167969 239.039062 110.167969 C 236.15625 110.167969 233.8125 107.820312 233.8125 104.941406 C 233.8125 102.058594 236.15625 99.710938 239.039062 99.710938 C 241.921875 99.710938 244.269531 102.058594 244.269531 104.941406 " fill-opacity="1" fill-rule="nonzero"/><path fill="#0d2740" d="M 263.859375 104.941406 C 263.859375 107.820312 261.511719 110.167969 258.628906 110.167969 C 255.75 110.167969 253.402344 107.820312 253.402344 104.941406 C 253.402344 102.058594 255.75 99.710938 258.628906 99.710938 C 261.511719 99.710938 263.859375 102.058594 263.859375 104.941406 " fill-opacity="1" fill-rule="nonzero"/><path fill="#0d2740" d="M 283.449219 104.941406 C 283.449219 107.820312 281.101562 110.167969 278.21875 110.167969 C 275.339844 110.167969 272.992188 107.820312 272.992188 104.941406 C 272.992188 102.058594 275.339844 99.710938 278.21875 99.710938 C 281.101562 99.710938 283.449219 102.058594 283.449219 104.941406 " fill-opacity="1" fill-rule="nonzero"/><path fill="#0d2740" d="M 303.039062 104.941406 C 303.039062 107.820312 300.691406 110.167969 297.808594 110.167969 C 294.929688 110.167969 292.582031 107.820312 292.582031 104.941406 C 292.582031 102.058594 294.929688 99.710938 297.808594 99.710938 C 300.691406 99.710938 303.039062 102.058594 303.039062 104.941406 " fill-opacity="1" fill-rule="nonzero"/><path fill="#0d2740" d="M 322.628906 104.941406 C 322.628906 107.820312 320.28125 110.167969 317.402344 110.167969 C 314.519531 110.167969 312.171875 107.820312 312.171875 104.941406 C 312.171875 102.058594 314.519531 99.710938 317.402344 99.710938 C 320.28125 99.710938 322.628906 102.058594 322.628906 104.941406 " fill-opacity="1" fill-rule="nonzero"/><g clip-path="url(#32d1db9d8e)"><path fill="#0d2740" d="M 467.941406 195.835938 C 465.503906 197.441406 464.828125 200.71875 466.429688 203.15625 L 484.035156 229.898438 C 484.808594 231.070312 486.011719 231.886719 487.386719 232.171875 C 487.738281 232.242188 488.09375 232.277344 488.449219 232.277344 C 489.476562 232.277344 490.488281 231.980469 491.355469 231.40625 L 645.851562 129.695312 C 647.023438 128.925781 647.839844 127.722656 648.125 126.347656 C 648.40625 124.976562 648.132812 123.546875 647.363281 122.375 L 629.753906 95.632812 C 628.984375 94.460938 627.777344 93.644531 626.40625 93.363281 C 625.035156 93.085938 623.605469 93.351562 622.433594 94.125 C 620.21875 95.582031 617.648438 96.355469 615.011719 96.355469 C 610.433594 96.355469 606.203125 94.078125 603.691406 90.261719 C 599.589844 84.027344 601.320312 75.621094 607.550781 71.519531 C 608.722656 70.746094 609.539062 69.542969 609.824219 68.171875 C 610.105469 66.796875 609.832031 65.367188 609.0625 64.199219 L 591.453125 37.457031 C 589.847656 35.019531 586.574219 34.339844 584.132812 35.949219 L 429.640625 137.660156 C 427.203125 139.265625 426.523438 142.542969 428.128906 144.980469 L 445.734375 171.722656 C 446.507812 172.894531 447.710938 173.710938 449.085938 173.992188 C 450.457031 174.273438 451.882812 174.003906 453.054688 173.230469 C 455.273438 171.773438 457.84375 171 460.480469 171 C 465.058594 171 469.289062 173.277344 471.800781 177.09375 C 475.902344 183.324219 474.171875 191.734375 467.941406 195.835938 Z M 460.480469 160.429688 C 457.558594 160.429688 454.683594 160.960938 451.980469 161.984375 L 439.867188 143.582031 L 547.539062 72.695312 L 548.992188 74.902344 C 549.753906 76.058594 551.019531 76.683594 552.308594 76.683594 C 553.054688 76.683594 553.8125 76.472656 554.484375 76.03125 C 556.3125 74.828125 556.816406 72.371094 555.613281 70.542969 L 554.160156 68.335938 L 585.53125 47.683594 L 597.648438 66.082031 C 589.992188 74.015625 588.554688 86.488281 594.859375 96.074219 C 599.335938 102.871094 606.867188 106.925781 615.011719 106.925781 C 617.933594 106.925781 620.808594 106.398438 623.511719 105.375 L 635.625 123.773438 L 604.253906 144.425781 L 602.804688 142.21875 C 601.601562 140.390625 599.144531 139.890625 597.3125 141.089844 C 595.484375 142.292969 594.976562 144.75 596.179688 146.578125 L 597.632812 148.785156 L 489.957031 219.671875 L 477.84375 201.273438 C 485.5 193.339844 486.9375 180.867188 480.628906 171.28125 C 476.15625 164.484375 468.625 160.429688 460.480469 160.429688 Z M 460.480469 160.429688 " fill-opacity="1" fill-rule="nonzero"/></g><path fill="#0d2740" d="M 586.746094 132.242188 C 587.503906 133.398438 588.769531 134.027344 590.058594 134.027344 C 590.808594 134.027344 591.566406 133.8125 592.234375 133.371094 C 594.0625 132.167969 594.570312 129.710938 593.367188 127.882812 L 583.925781 113.546875 C 582.722656 111.71875 580.261719 111.21875 578.433594 112.414062 C 576.609375 113.621094 576.101562 116.078125 577.304688 117.90625 Z M 586.746094 132.242188 " fill-opacity="1" fill-rule="nonzero"/><path fill="#0d2740" d="M 567.867188 103.570312 C 568.628906 104.726562 569.894531 105.355469 571.179688 105.355469 C 571.929688 105.355469 572.6875 105.144531 573.359375 104.699219 C 575.1875 103.496094 575.691406 101.039062 574.488281 99.210938 L 565.054688 84.875 C 563.851562 83.046875 561.394531 82.546875 559.5625 83.746094 C 557.734375 84.949219 557.226562 87.40625 558.429688 89.234375 Z M 567.867188 103.570312 " fill-opacity="1" fill-rule="nonzero"/><path fill="#0d2740" d="M 542.378906 28.804688 C 543.867188 26.300781 543.046875 23.054688 540.539062 21.5625 L 513.03125 5.183594 C 510.53125 3.699219 507.3125 4.503906 505.808594 6.984375 C 505.402344 7.65625 464.742188 74.71875 441.125 114.382812 C 439.632812 116.890625 440.457031 120.132812 442.964844 121.625 C 443.8125 122.132812 444.746094 122.371094 445.664062 122.371094 C 447.464844 122.371094 449.222656 121.449219 450.210938 119.789062 C 461.234375 101.273438 475.972656 76.789062 488.59375 55.875 L 490.164062 56.808594 C 490.804688 57.1875 491.5 57.367188 492.191406 57.367188 C 493.539062 57.367188 494.855469 56.675781 495.601562 55.429688 C 496.71875 53.550781 496.101562 51.117188 494.222656 49.996094 L 492.691406 49.085938 C 501.246094 34.921875 508.421875 23.070312 512.128906 16.949219 L 531.085938 28.238281 C 529.730469 32.351562 529.558594 36.757812 530.542969 41.070312 C 530.546875 41.113281 530.558594 41.15625 530.566406 41.199219 C 530.609375 41.390625 530.621094 41.582031 530.671875 41.773438 C 530.6875 41.835938 530.71875 41.890625 530.738281 41.953125 C 530.757812 42.015625 530.757812 42.078125 530.78125 42.140625 C 533.214844 49.347656 538.054688 54.421875 544.414062 56.425781 C 544.941406 56.59375 545.476562 56.671875 546.003906 56.671875 C 548.25 56.671875 550.332031 55.230469 551.042969 52.976562 C 551.921875 50.191406 550.375 47.222656 547.59375 46.347656 C 544.59375 45.402344 542.222656 42.785156 540.882812 38.980469 C 540.019531 35.5 540.539062 31.890625 542.378906 28.804688 Z M 542.378906 28.804688 " fill-opacity="1" fill-rule="nonzero"/><path fill="#0d2740" d="M 426.152344 150.121094 C 423.640625 148.625 420.398438 149.449219 418.90625 151.957031 C 415.320312 157.984375 411.183594 165.867188 411.011719 166.199219 C 409.707031 168.683594 410.578125 171.757812 412.988281 173.191406 L 440.5 189.574219 C 441.324219 190.066406 442.257812 190.316406 443.203125 190.316406 C 443.636719 190.316406 444.074219 190.265625 444.503906 190.15625 C 445.863281 189.808594 447.03125 188.9375 447.746094 187.734375 C 448.335938 186.742188 449.042969 185.835938 449.851562 185.035156 C 451.925781 182.980469 451.941406 179.636719 449.890625 177.5625 C 447.835938 175.488281 444.496094 175.472656 442.414062 177.523438 C 442.230469 177.707031 442.046875 177.894531 441.867188 178.085938 L 422.730469 166.695312 C 424.222656 163.945312 426.203125 160.367188 427.992188 157.367188 C 429.480469 154.859375 428.660156 151.613281 426.152344 150.121094 Z M 426.152344 150.121094 " fill-opacity="1" fill-rule="nonzero"/><path fill="#0d2740" d="M 505.082031 56.464844 L 500.9375 63.222656 C 500.9375 63.222656 510 68.773438 511.699219 69.789062 C 512.335938 70.164062 513.035156 70.34375 513.722656 70.34375 C 515.074219 70.34375 516.394531 69.652344 517.132812 68.410156 C 518.253906 66.527344 517.636719 64.09375 515.753906 62.976562 C 514.066406 61.96875 505.082031 56.464844 505.082031 56.464844 Z M 505.082031 56.464844 " fill-opacity="1" fill-rule="nonzero"/><g clip-path="url(#07373aa5d8)"><path fill="#0d2740" d="M 896.6875 80.09375 L 867.730469 80.09375 L 867.730469 27.449219 C 867.730469 14.382812 857.101562 3.757812 844.039062 3.757812 L 753.488281 3.757812 C 740.425781 3.757812 729.796875 14.382812 729.796875 27.449219 L 729.796875 80.09375 L 700.839844 80.09375 C 699.386719 80.09375 698.207031 81.273438 698.207031 82.726562 L 698.207031 151.167969 C 698.207031 156.320312 700.335938 160.980469 703.757812 164.328125 L 701.105469 164.328125 C 699.648438 164.328125 698.472656 165.507812 698.472656 166.960938 L 698.472656 182.753906 C 698.472656 184.207031 699.648438 185.386719 701.105469 185.386719 L 729.796875 185.386719 L 729.796875 229.609375 C 729.796875 231.0625 730.976562 232.242188 732.429688 232.242188 L 748.222656 232.242188 C 749.675781 232.242188 750.855469 231.0625 750.855469 229.609375 L 750.855469 185.386719 L 846.671875 185.386719 L 846.671875 229.609375 C 846.671875 231.0625 847.851562 232.242188 849.304688 232.242188 L 865.097656 232.242188 C 866.550781 232.242188 867.730469 231.0625 867.730469 229.609375 L 867.730469 185.386719 L 896.421875 185.386719 C 897.875 185.386719 899.054688 184.207031 899.054688 182.753906 L 899.054688 166.960938 C 899.054688 165.507812 897.875 164.328125 896.421875 164.328125 L 893.769531 164.328125 C 897.191406 160.980469 899.316406 156.320312 899.316406 151.167969 L 899.316406 82.726562 C 899.316406 81.273438 898.140625 80.09375 896.6875 80.09375 Z M 735.0625 27.449219 C 735.0625 17.289062 743.328125 9.019531 753.488281 9.019531 L 844.039062 9.019531 C 854.199219 9.019531 862.464844 17.289062 862.464844 27.449219 L 862.464844 134.25 C 858.71875 130.09375 853.296875 127.476562 847.273438 127.476562 L 750.253906 127.476562 C 744.230469 127.476562 738.808594 130.09375 735.0625 134.25 Z M 735.0625 147.933594 C 735.0625 139.554688 741.875 132.742188 750.253906 132.742188 L 847.273438 132.742188 C 855.648438 132.742188 862.464844 139.554688 862.464844 147.933594 L 862.464844 164.328125 L 735.058594 164.328125 L 735.058594 147.933594 Z M 703.472656 151.167969 L 703.472656 85.359375 L 729.796875 85.359375 L 729.796875 164.328125 L 716.632812 164.328125 C 709.378906 164.328125 703.472656 158.425781 703.472656 151.167969 Z M 745.589844 226.976562 L 735.0625 226.976562 L 735.0625 185.386719 L 745.589844 185.386719 Z M 862.464844 226.976562 L 851.9375 226.976562 L 851.9375 185.386719 L 862.464844 185.386719 Z M 893.789062 169.59375 L 893.789062 180.121094 L 703.734375 180.121094 L 703.734375 169.59375 Z M 894.054688 151.167969 C 894.054688 158.425781 888.148438 164.328125 880.890625 164.328125 L 867.730469 164.328125 L 867.730469 85.359375 L 894.054688 85.359375 Z M 894.054688 151.167969 " fill-opacity="1" fill-rule="nonzero"/></g><path fill="#0d2740" d="M 759.804688 49.03125 L 765.070312 49.03125 L 765.070312 54.296875 C 765.070312 55.75 766.25 56.929688 767.703125 56.929688 C 769.15625 56.929688 770.335938 55.75 770.335938 54.296875 L 770.335938 49.03125 L 775.597656 49.03125 C 777.050781 49.03125 778.230469 47.855469 778.230469 46.398438 C 778.230469 44.945312 777.050781 43.769531 775.597656 43.769531 L 770.335938 43.769531 L 770.335938 38.503906 C 770.335938 37.050781 769.15625 35.871094 767.703125 35.871094 C 766.25 35.871094 765.070312 37.050781 765.070312 38.503906 L 765.070312 43.769531 L 759.804688 43.769531 C 758.351562 43.769531 757.171875 44.945312 757.171875 46.398438 C 757.171875 47.855469 758.351562 49.03125 759.804688 49.03125 Z M 759.804688 49.03125 " fill-opacity="1" fill-rule="nonzero"/><path fill="#0d2740" d="M 822.453125 49.03125 L 827.71875 49.03125 L 827.71875 54.296875 C 827.71875 55.75 828.898438 56.929688 830.351562 56.929688 C 831.804688 56.929688 832.984375 55.75 832.984375 54.296875 L 832.984375 49.03125 L 838.25 49.03125 C 839.703125 49.03125 840.878906 47.855469 840.878906 46.398438 C 840.878906 44.945312 839.703125 43.769531 838.25 43.769531 L 832.984375 43.769531 L 832.984375 38.503906 C 832.984375 37.050781 831.804688 35.871094 830.351562 35.871094 C 828.898438 35.871094 827.71875 37.050781 827.71875 38.503906 L 827.71875 43.769531 L 822.453125 43.769531 C 821 43.769531 819.820312 44.945312 819.820312 46.398438 C 819.820312 47.855469 821 49.03125 822.453125 49.03125 Z M 822.453125 49.03125 " fill-opacity="1" fill-rule="nonzero"/><path fill="#0d2740" d="M 759.804688 85.886719 L 765.070312 85.886719 L 765.070312 91.148438 C 765.070312 92.605469 766.25 93.78125 767.703125 93.78125 C 769.15625 93.78125 770.335938 92.605469 770.335938 91.148438 L 770.335938 85.886719 L 775.597656 85.886719 C 777.050781 85.886719 778.230469 84.707031 778.230469 83.253906 C 778.230469 81.796875 777.050781 80.621094 775.597656 80.621094 L 770.335938 80.621094 L 770.335938 75.355469 C 770.335938 73.902344 769.15625 72.722656 767.703125 72.722656 C 766.25 72.722656 765.070312 73.902344 765.070312 75.355469 L 765.070312 80.621094 L 759.804688 80.621094 C 758.351562 80.621094 757.171875 81.796875 757.171875 83.253906 C 757.171875 84.707031 758.351562 85.886719 759.804688 85.886719 Z M 759.804688 85.886719 " fill-opacity="1" fill-rule="nonzero"/><path fill="#0d2740" d="M 822.453125 85.886719 L 827.71875 85.886719 L 827.71875 91.148438 C 827.71875 92.605469 828.898438 93.78125 830.351562 93.78125 C 831.804688 93.78125 832.984375 92.605469 832.984375 91.148438 L 832.984375 85.886719 L 838.25 85.886719 C 839.703125 85.886719 840.878906 84.707031 840.878906 83.253906 C 840.878906 81.796875 839.703125 80.621094 838.25 80.621094 L 832.984375 80.621094 L 832.984375 75.355469 C 832.984375 73.902344 831.804688 72.722656 830.351562 72.722656 C 828.898438 72.722656 827.71875 73.902344 827.71875 75.355469 L 827.71875 80.621094 L 822.453125 80.621094 C 821 80.621094 819.820312 81.796875 819.820312 83.253906 C 819.820312 84.707031 821 85.886719 822.453125 85.886719 Z M 822.453125 85.886719 " fill-opacity="1" fill-rule="nonzero"/></g></g></g></g></g></g></g></svg>