<svg xmlns="http://www.w3.org/2000/svg" xmlns:xlink="http://www.w3.org/1999/xlink" width="1200" zoomAndPan="magnify" viewBox="0 0 900 675.000002" height="900" preserveAspectRatio="xMidYMid meet" version="1.0"><defs><filter x="0%" y="0%" width="100%" height="100%" id="3c66f29baa"><feColorMatrix values="0 0 0 0 1 0 0 0 0 1 0 0 0 0 1 0 0 0 1 0" color-interpolation-filters="sRGB"/></filter><clipPath id="fc54a880c9"><path d="M 0.664062 87 L 899.332031 87 L 899.332031 587 L 0.664062 587 Z M 0.664062 87 " clip-rule="nonzero"/></clipPath><mask id="c940f70c99"><g filter="url(#3c66f29baa)"><rect x="-90" width="1080" fill="#000000" y="-67.5" height="810.000002" fill-opacity="0.8"/></g></mask><clipPath id="2f55a490ee"><path d="M 0.664062 0.710938 L 899.332031 0.710938 L 899.332031 499.410156 L 0.664062 499.410156 Z M 0.664062 0.710938 " clip-rule="nonzero"/></clipPath><clipPath id="ec484b09ea"><path d="M 2 1 L 337 1 L 337 499.023438 L 2 499.023438 Z M 2 1 " clip-rule="nonzero"/></clipPath><clipPath id="86c62925ac"><path d="M 401.253906 0.960938 L 899.316406 0.960938 L 899.316406 499.023438 L 401.253906 499.023438 Z M 401.253906 0.960938 " clip-rule="nonzero"/></clipPath><clipPath id="7ceb8769cc"><rect x="0" width="900" y="0" height="500"/></clipPath><clipPath id="499a2515ce"><rect x="0" width="900" y="0" height="500"/></clipPath></defs><g clip-path="url(#fc54a880c9)"><g mask="url(#c940f70c99)"><g transform="matrix(1, 0, 0, 1, 0.000000000000000111, 87)"><g clip-path="url(#499a2515ce)"><g clip-path="url(#2f55a490ee)"><g transform="matrix(1, 0, 0, 1, 0.000000000000000111, -0.000000000000014211)"><g clip-path="url(#7ceb8769cc)"><g clip-path="url(#ec484b09ea)"><path fill="#000000" d="M 139.105469 1.296875 C 120.835938 1.296875 105.890625 16.308594 105.890625 34.605469 L 105.890625 342.179688 C 105.890625 360.433594 120.835938 375.410156 139.105469 375.410156 L 196.019531 375.410156 L 196.019531 392.484375 C 196.019531 402.363281 204.207031 410.523438 214.03125 410.59375 C 212.816406 452.042969 179.320312 484.894531 137.484375 484.894531 L 111.59375 484.894531 C 68.976562 484.894531 34.984375 450.835938 34.984375 408.261719 L 34.984375 190.996094 C 44.917969 190.996094 53.109375 182.765625 53.109375 172.847656 L 53.109375 150.289062 C 53.109375 144.613281 50.351562 139.507812 46.1875 136.167969 C 46.257812 135.773438 46.296875 135.382812 46.296875 134.980469 L 46.296875 118.667969 C 46.296875 113.058594 41.625 108.355469 36.070312 108.355469 L 19.585938 108.355469 C 14.007812 108.355469 9.355469 113.058594 9.355469 118.667969 L 9.355469 134.980469 C 9.382812 135.417969 9.382812 135.773438 9.464844 136.167969 C 5.296875 139.507812 2.574219 144.613281 2.574219 150.289062 L 2.574219 172.847656 C 2.574219 182.765625 10.761719 190.996094 20.667969 190.996094 L 20.667969 408.261719 C 20.667969 458.550781 61.339844 499.296875 111.601562 499.296875 L 137.5625 499.296875 C 187.042969 499.296875 227.105469 459.777344 228.363281 410.597656 L 228.507812 410.597656 C 238.417969 410.597656 246.644531 402.371094 246.644531 392.492188 L 246.644531 375.457031 L 303.554688 375.457031 C 321.863281 375.457031 336.796875 360.46875 336.796875 342.1875 L 336.796875 34.605469 C 336.796875 16.308594 321.863281 1.296875 303.554688 1.296875 Z M 139.105469 15.660156 L 303.550781 15.660156 C 314.128906 15.660156 322.394531 24.027344 322.394531 34.632812 L 322.394531 342.179688 C 322.394531 352.742188 314.128906 361.125 303.550781 361.125 L 139.105469 361.125 C 128.511719 361.125 120.191406 352.742188 120.191406 342.179688 L 120.191406 34.605469 C 120.191406 24.035156 128.511719 15.660156 139.105469 15.660156 Z M 23.707031 122.695312 L 31.933594 122.695312 L 31.933594 132.140625 L 23.707031 132.140625 Z M 20.660156 146.488281 L 34.984375 146.488281 C 37.207031 146.488281 38.757812 148.066406 38.757812 150.296875 L 38.757812 172.855469 C 38.757812 175.082031 37.207031 176.628906 34.984375 176.628906 L 28.980469 176.628906 C 28.546875 176.558594 28.160156 176.515625 27.726562 176.515625 C 27.363281 176.515625 27.011719 176.558594 26.691406 176.628906 L 20.660156 176.628906 C 18.429688 176.628906 16.890625 175.082031 16.890625 172.855469 L 16.890625 150.296875 C 16.890625 148.066406 18.429688 146.488281 20.660156 146.488281 Z M 210.371094 375.457031 L 232.277344 375.457031 L 232.277344 392.492188 C 232.277344 394.675781 230.699219 396.1875 228.464844 396.1875 L 214.183594 396.1875 C 211.960938 396.1875 210.371094 394.675781 210.371094 392.492188 Z M 210.371094 375.457031 " fill-opacity="1" fill-rule="nonzero"/></g><path fill="#000000" d="M 207.828125 76.601562 C 204.875 76.601562 202.1875 78.46875 201.105469 81.238281 L 175.398438 149.144531 C 173.632812 153.84375 177.082031 158.871094 182.121094 158.871094 L 206.894531 158.871094 L 204.484375 223.003906 C 204.308594 230.511719 214.328125 233.242188 217.945312 226.667969 L 266.746094 136.492188 C 269.398438 131.746094 265.882812 125.925781 260.5 125.925781 L 249.082031 125.925781 L 264.097656 86.375 C 265.890625 81.628906 262.402344 76.636719 257.375 76.636719 L 207.828125 76.636719 Z M 212.816406 90.976562 L 246.988281 90.976562 L 231.945312 130.527344 C 230.183594 135.238281 233.667969 140.308594 238.695312 140.265625 L 248.429688 140.265625 L 219.953125 192.867188 L 221.539062 151.929688 C 221.675781 147.839844 218.441406 144.5 214.347656 144.5 L 192.480469 144.5 Z M 212.816406 90.976562 " fill-opacity="1" fill-rule="nonzero"/><path fill="#000000" d="M 277.257812 302.941406 C 277.257812 309.746094 271.734375 315.230469 264.953125 315.230469 C 258.128906 315.230469 252.59375 309.746094 252.59375 302.941406 C 252.59375 296.121094 258.128906 290.5625 264.953125 290.5625 C 271.734375 290.5625 277.257812 296.128906 277.257812 302.941406 Z M 277.257812 302.941406 " fill-opacity="1" fill-rule="nonzero"/><path fill="#000000" d="M 233.636719 302.941406 C 233.636719 309.746094 228.113281 315.230469 221.332031 315.230469 C 214.507812 315.230469 208.96875 309.746094 208.96875 302.941406 C 208.96875 296.121094 214.507812 290.5625 221.332031 290.5625 C 228.113281 290.5625 233.636719 296.128906 233.636719 302.941406 Z M 233.636719 302.941406 " fill-opacity="1" fill-rule="nonzero"/><path fill="#000000" d="M 190.011719 302.941406 C 190.011719 309.746094 184.492188 315.230469 177.707031 315.230469 C 170.882812 315.230469 165.347656 309.746094 165.347656 302.941406 C 165.347656 296.121094 170.882812 290.5625 177.707031 290.5625 C 184.492188 290.5625 190.011719 296.128906 190.011719 302.941406 Z M 190.011719 302.941406 " fill-opacity="1" fill-rule="nonzero"/><path fill="#0d2740" d="M 705.25 193.496094 C 703.855469 195.277344 686.160156 215.96875 661.730469 244.46875 L 671.792969 254.535156 C 696.640625 225.558594 714.691406 204.453125 716.085938 202.789062 C 717.867188 200.59375 717.421875 197.859375 715.9375 195.632812 L 715.9375 184.144531 C 716.324219 184.085938 716.679688 184.027344 717.066406 183.996094 C 720.242188 183.789062 723.359375 184.085938 726.507812 182.71875 C 729.179688 181.5625 731.375 180.257812 732.148438 177.464844 C 733.039062 174.257812 733.660156 170.964844 734.136719 167.667969 C 734.375 166.066406 734.433594 164.460938 734.460938 162.800781 L 775.488281 162.859375 C 782.824219 162.652344 784.78125 157.160156 784.78125 153.746094 L 784.78125 101.257812 C 784.988281 93.003906 778.785156 91.222656 775.488281 91.222656 L 727.039062 92.769531 C 727.101562 92.53125 727.070312 91.789062 727.070312 91.789062 C 728.585938 91.640625 730.1875 91.402344 731.910156 91.253906 C 731.820312 90.214844 731.820312 90.035156 731.703125 89.175781 C 730.632812 81.8125 727.546875 78.875 720.804688 79.140625 C 712.613281 79.46875 704.449219 80.03125 696.253906 80.476562 C 694.683594 80.566406 693.96875 81.101562 693.96875 82.792969 C 693.96875 86.148438 693.703125 89.503906 693.613281 92.855469 C 693.613281 93.273438 693.523438 93.628906 693.40625 93.867188 L 653.890625 95.144531 C 650.566406 95.144531 647.894531 97.902344 647.894531 101.289062 L 647.894531 156.566406 C 647.894531 159.949219 650.597656 162.710938 653.890625 162.710938 L 696.699219 162.769531 C 696.699219 164.253906 696.699219 165.738281 696.699219 167.3125 C 698.925781 167.578125 701.003906 167.816406 703.203125 168.085938 C 702.996094 168.796875 702.875 169.273438 702.726562 169.746094 C 702.015625 172.300781 700.648438 173.933594 697.679688 173.785156 C 696.105469 173.695312 694.503906 173.992188 693.019531 174.109375 C 693.019531 176.664062 692.988281 179.039062 693.050781 181.445312 C 693.050781 181.859375 693.433594 182.542969 693.761719 182.632812 C 695.691406 183.164062 697.652344 183.757812 699.667969 183.9375 C 702.550781 184.175781 705.457031 184.054688 708.367188 184.175781 C 708.398438 184.175781 708.457031 184.175781 708.488281 184.175781 L 708.488281 191.625 C 707.238281 191.773438 706.140625 192.367188 705.25 193.496094 Z M 656.148438 155.378906 L 656.148438 102.714844 L 768.574219 98.941406 L 768.574219 155.347656 L 656.148438 155.347656 Z M 656.148438 155.378906 " fill-opacity="1" fill-rule="nonzero"/><path fill="#0d2740" d="M 541.761719 434.230469 C 543.070312 433.011719 543.902344 431.261719 544.050781 429.480469 C 544.40625 429.390625 544.761719 429.273438 545.089844 429.183594 C 547.582031 428.441406 549.660156 426.957031 550.9375 424.699219 C 551.945312 422.949219 552.035156 420.425781 551.351562 418.4375 C 552.035156 418.230469 552.6875 417.933594 553.28125 417.546875 C 554.585938 417.042969 555.773438 416.300781 556.605469 415.46875 C 557.023438 415.050781 557.40625 414.429688 557.703125 413.746094 C 558.0625 413.332031 558.386719 412.886719 558.59375 412.441406 C 559.605469 410.511719 559.1875 408.195312 558.507812 406.234375 C 558.269531 405.523438 557.792969 404.75 557.171875 404.128906 C 557.082031 403.917969 556.992188 403.742188 556.875 403.5625 C 559.039062 404.007812 562.988281 403.445312 564.890625 402.347656 C 567.175781 401.039062 567.886719 394.984375 567.796875 393.113281 C 567.621094 389.136719 565.632812 384.683594 563.019531 381.625 C 562.960938 381.566406 562.929688 381.476562 562.871094 381.417969 C 592.378906 347.039062 629.753906 303.515625 660.183594 268.011719 L 650.121094 257.949219 C 620.257812 292.769531 583.5625 335.492188 554.140625 369.75 C 553.488281 369.691406 552.835938 369.691406 552.152344 369.660156 C 550.90625 369.304688 549.660156 369.15625 548.355469 369.097656 C 545.742188 369.007812 543.128906 369.421875 540.605469 369.957031 C 535.441406 370.996094 530.394531 372.300781 525.671875 374.648438 C 524.335938 375.300781 523.03125 375.953125 521.664062 376.546875 C 513.828125 377.824219 506.613281 380.734375 500.558594 386.402344 C 496.253906 390.441406 491.976562 394.449219 487.671875 398.488281 C 501.359375 413.449219 517.09375 426.542969 534.402344 437.289062 C 534.996094 437.167969 535.558594 437.078125 536.242188 436.902344 C 538.320312 436.398438 540.25 435.65625 541.761719 434.230469 Z M 541.761719 434.230469 " fill-opacity="1" fill-rule="nonzero"/><g clip-path="url(#86c62925ac)"><path fill="#0d2740" d="M 879.722656 153.03125 C 867.164062 123.375 849.234375 96.746094 826.34375 73.886719 C 803.457031 51.027344 776.886719 33.066406 747.226562 20.539062 C 716.53125 7.535156 683.90625 0.976562 650.300781 0.976562 C 616.695312 0.976562 584.066406 7.535156 553.339844 20.539062 C 523.683594 33.097656 497.054688 51.027344 474.195312 73.917969 C 451.335938 96.777344 433.375 123.40625 420.816406 153.0625 C 407.84375 183.757812 401.253906 216.386719 401.253906 249.992188 C 401.253906 283.597656 407.84375 316.222656 420.816406 346.921875 C 433.375 376.578125 451.304688 403.207031 474.195312 426.066406 C 497.054688 448.925781 523.683594 466.886719 553.339844 479.445312 C 584.039062 492.417969 616.664062 499.007812 650.269531 499.007812 C 683.875 499.007812 716.5 492.417969 747.199219 479.445312 C 776.855469 466.886719 803.484375 448.953125 826.34375 426.066406 C 849.203125 403.207031 867.164062 376.578125 879.722656 346.921875 C 892.695312 316.222656 899.285156 283.597656 899.285156 249.992188 C 899.316406 216.355469 892.726562 183.757812 879.722656 153.03125 Z M 650.269531 470.269531 C 528.820312 470.269531 429.992188 371.441406 429.992188 249.992188 C 429.992188 191.328125 453.058594 137.921875 490.582031 98.410156 L 801.851562 409.679688 C 762.339844 447.203125 708.960938 470.269531 650.269531 470.269531 Z M 814.203125 396.941406 L 503.316406 86.058594 C 542.328125 51.058594 593.863281 29.710938 650.300781 29.710938 C 771.75 29.710938 870.578125 128.542969 870.578125 249.992188 C 870.546875 306.398438 849.234375 357.933594 814.203125 396.941406 Z M 814.203125 396.941406 " fill-opacity="1" fill-rule="nonzero"/></g></g></g></g></g></g></g></g></svg>