<svg xmlns="http://www.w3.org/2000/svg" xmlns:xlink="http://www.w3.org/1999/xlink" width="1200" zoomAndPan="magnify" viewBox="0 0 900 675.000002" height="900" preserveAspectRatio="xMidYMid meet" version="1.0"><defs><clipPath id="95826bdedf"><path d="M 0.664062 51 L 899.332031 51 L 899.332031 623 L 0.664062 623 Z M 0.664062 51 " clip-rule="nonzero"/></clipPath><clipPath id="f679a24f6b"><path d="M 0.664062 0.34375 L 572 0.34375 L 572 571.835938 L 0.664062 571.835938 Z M 0.664062 0.34375 " clip-rule="nonzero"/></clipPath><clipPath id="68d7cb9bd2"><rect x="0" width="900" y="0" height="572"/></clipPath></defs><g clip-path="url(#95826bdedf)"><g transform="matrix(1, 0, 0, 1, 0.000000000000000111, 51)"><g clip-path="url(#68d7cb9bd2)"><g clip-path="url(#f679a24f6b)"><path fill="#0c1e27" d="M 286.3125 571.636719 C 444.371094 571.636719 571.957031 444.046875 571.957031 285.988281 C 571.957031 127.929688 444.371094 0.34375 286.3125 0.34375 C 128.253906 0.34375 0.664062 127.929688 0.664062 285.988281 C 0.664062 444.046875 128.253906 571.636719 286.3125 571.636719 Z M 286.3125 19.386719 C 433.894531 19.386719 552.914062 138.40625 552.914062 285.988281 C 552.914062 433.574219 433.894531 552.589844 286.3125 552.589844 C 138.726562 552.589844 19.707031 433.574219 19.707031 285.988281 C 19.707031 138.40625 138.726562 19.386719 286.3125 19.386719 Z M 286.3125 19.386719 " fill-opacity="1" fill-rule="nonzero"/></g><path fill="#0c1e27" d="M 200.617188 428.8125 L 229.183594 428.8125 C 245.371094 428.8125 257.746094 416.433594 257.746094 400.246094 L 257.746094 171.730469 C 257.746094 155.542969 245.371094 143.164062 229.183594 143.164062 L 200.617188 143.164062 C 184.429688 143.164062 172.054688 155.542969 172.054688 171.730469 L 172.054688 400.246094 C 172.054688 416.433594 184.429688 428.8125 200.617188 428.8125 Z M 191.097656 171.730469 C 191.097656 166.015625 194.90625 162.207031 200.617188 162.207031 L 229.183594 162.207031 C 234.894531 162.207031 238.703125 166.015625 238.703125 171.730469 L 238.703125 400.246094 C 238.703125 405.960938 234.894531 409.769531 229.183594 409.769531 L 200.617188 409.769531 C 194.90625 409.769531 191.097656 405.960938 191.097656 400.246094 Z M 191.097656 171.730469 " fill-opacity="1" fill-rule="nonzero"/><path fill="#0c1e27" d="M 343.441406 428.8125 L 372.003906 428.8125 C 388.191406 428.8125 400.570312 416.433594 400.570312 400.246094 L 400.570312 171.730469 C 400.570312 155.542969 388.191406 143.164062 372.003906 143.164062 L 343.441406 143.164062 C 327.253906 143.164062 314.875 155.542969 314.875 171.730469 L 314.875 400.246094 C 314.875 416.433594 327.253906 428.8125 343.441406 428.8125 Z M 333.917969 171.730469 C 333.917969 166.015625 337.726562 162.207031 343.441406 162.207031 L 372.003906 162.207031 C 377.71875 162.207031 381.527344 166.015625 381.527344 171.730469 L 381.527344 400.246094 C 381.527344 405.960938 377.71875 409.769531 372.003906 409.769531 L 343.441406 409.769531 C 337.726562 409.769531 333.917969 405.960938 333.917969 400.246094 Z M 333.917969 171.730469 " fill-opacity="1" fill-rule="nonzero"/><path fill="#0c1e27" d="M 689.722656 108.300781 C 698.261719 104.488281 707.0625 101.261719 716.039062 98.652344 C 723.976562 96.347656 732.15625 94.199219 740.445312 93.832031 C 747.796875 93.507812 754.992188 95.113281 761.507812 98.523438 C 773.609375 104.855469 782.484375 115.925781 790.714844 126.503906 C 791.292969 127.25 790.933594 128.304688 790.128906 128.691406 C 789.230469 129.121094 788.148438 128.761719 787.558594 128 C 783.058594 122.21875 778.46875 116.476562 773.207031 111.359375 C 768.667969 106.945312 763.632812 102.988281 757.859375 100.316406 C 751.351562 97.308594 744.269531 96.53125 737.183594 97.355469 C 729.292969 98.269531 721.488281 100.445312 713.917969 102.789062 C 706.351562 105.125 698.941406 107.949219 691.710938 111.175781 C 689.828125 112.015625 687.542969 109.277344 689.722656 108.300781 Z M 872.6875 462.289062 C 868.289062 459.578125 863.136719 458.269531 858.109375 457.324219 C 852.269531 456.222656 846.355469 455.507812 840.417969 455.199219 C 828.730469 454.597656 816.941406 455.53125 805.480469 457.914062 C 794.03125 460.292969 782.847656 464.132812 772.375 469.335938 C 767.070312 471.96875 761.949219 474.964844 757.039062 478.277344 C 752.492188 481.347656 747.570312 484.667969 744.632812 489.4375 C 743.246094 491.695312 742.472656 494.207031 742.539062 496.871094 C 742.589844 498.910156 746.320312 499.183594 746.265625 496.988281 C 746.132812 491.644531 750.429688 487.585938 754.335938 484.5625 C 758.648438 481.226562 763.273438 478.265625 768.015625 475.578125 C 777.6875 470.097656 788.054688 465.84375 798.789062 462.941406 C 809.519531 460.042969 820.601562 458.445312 831.714844 458.277344 C 837.277344 458.195312 842.847656 458.460938 848.375 459.078125 C 853.597656 459.664062 858.902344 460.460938 863.941406 461.980469 C 868.332031 463.304688 872.859375 465.410156 875.527344 469.304688 C 878.574219 473.757812 878.148438 479.371094 876.316406 484.210938 C 872.53125 494.214844 863.164062 501.539062 854.0625 506.496094 C 843.863281 512.054688 832.628906 515.765625 821.527344 519.0625 C 809.15625 522.738281 796.539062 525.59375 783.789062 527.59375 C 773.945312 529.140625 763.914062 529.929688 753.972656 528.863281 C 744.84375 527.882812 735.566406 525.132812 728.359375 519.238281 C 726.574219 517.777344 724.929688 516.160156 723.464844 514.382812 C 722.847656 513.640625 721.808594 513.253906 720.890625 513.695312 C 720.109375 514.070312 719.703125 515.148438 720.304688 515.882812 C 734 532.429688 757.332031 533.972656 777.199219 531.796875 C 789.980469 530.402344 802.695312 527.683594 815.101562 524.355469 C 827.246094 521.101562 839.496094 517.3125 850.902344 511.96875 C 861.039062 507.21875 871.023438 500.597656 877.089844 490.945312 C 880.039062 486.253906 882.121094 480.46875 881.359375 474.859375 C 880.625 469.421875 877.28125 465.125 872.6875 462.289062 Z M 898.96875 477.523438 C 899.128906 487.550781 897.480469 497.34375 893.515625 506.558594 C 885.976562 524.082031 871.644531 537.847656 855.214844 547.09375 C 837.625 556.992188 817.574219 563.609375 797.769531 567.25 C 777.351562 571.003906 755.734375 571.578125 735.644531 565.664062 C 726.707031 563.03125 717.929688 558.898438 711.265625 552.242188 C 704.351562 545.339844 700.511719 536.230469 698.066406 526.910156 C 695.359375 516.582031 693.476562 506.007812 691.273438 495.566406 C 688.941406 484.484375 686.601562 473.40625 684.269531 462.324219 C 679.667969 440.5 675.066406 418.671875 670.464844 396.847656 C 668.125 385.757812 665.886719 374.65625 663.714844 363.53125 C 662.613281 357.894531 661.089844 352.164062 660.632812 346.441406 C 660.566406 345.59375 660.511719 344.742188 660.457031 343.894531 C 658.511719 342.832031 658.175781 340.019531 659.433594 338.269531 C 655.5 328.835938 654.238281 318.65625 655.582031 308.515625 C 655.070312 308.195312 654.582031 307.835938 654.132812 307.445312 C 653.242188 307.375 652.21875 306.769531 652.1875 305.765625 C 652.1875 305.632812 652.238281 305.519531 652.265625 305.398438 C 649.695312 301.894531 648.691406 297.0625 648.910156 292.699219 C 649.09375 289 650.136719 285.464844 650.789062 281.835938 C 651.183594 279.632812 651.570312 276.9375 650.871094 274.671875 C 650.699219 274.558594 650.515625 274.472656 650.34375 274.347656 C 649.242188 273.566406 648.765625 272.488281 648.710938 271.410156 C 646.933594 269.6875 644.707031 268.355469 643.164062 266.398438 C 640.773438 263.359375 640.140625 259.453125 641.457031 255.808594 C 642.050781 254.171875 642.882812 252.691406 643.777344 251.207031 C 644.398438 250.183594 645.398438 248.929688 645.53125 247.820312 C 645.605469 247.171875 644.777344 246.066406 644.09375 245.191406 C 642.859375 243.609375 641.691406 242.136719 640.839844 240.3125 C 637.921875 234.058594 637.804688 226.609375 640.867188 220.441406 C 636.019531 213.21875 632.761719 204.921875 631.261719 196.363281 C 628.167969 178.710938 631.253906 160.613281 639.367188 144.679688 C 643.46875 136.625 648.832031 129.300781 653.8125 121.785156 C 658.046875 115.390625 662.261719 108.480469 664.597656 101.085938 C 664.871094 98.578125 664.933594 96.046875 664.773438 93.484375 C 664.589844 90.539062 664.433594 86.667969 661.125 85.988281 C 657.617188 85.269531 653.835938 85.53125 650.867188 82.910156 C 647.664062 80.085938 646.957031 75.410156 648.980469 71.691406 C 650.566406 68.769531 653.375 66.964844 655.582031 64.582031 C 657.710938 62.277344 656.941406 59.195312 655.964844 56.496094 C 654.632812 52.8125 652.285156 49.535156 650.792969 45.902344 C 649.242188 42.132812 648.613281 38.054688 649.421875 34.03125 C 652.492188 18.789062 672.53125 13.128906 685.097656 9.011719 C 693.765625 6.171875 702.78125 4.082031 711.769531 2.523438 C 720.136719 1.074219 729.28125 0.316406 736.863281 4.949219 C 747.871094 11.683594 750.578125 24.855469 751.136719 37.027344 C 759.363281 38.300781 765.824219 45.617188 764.621094 54.757812 C 764.296875 57.261719 763.40625 59.746094 761.9375 61.8125 C 760.71875 63.527344 758.46875 65.179688 757.816406 67.207031 C 756.570312 71.078125 760.777344 75.890625 763.050781 78.589844 C 763.582031 79.21875 763.976562 79.933594 764.234375 80.671875 C 765.859375 81.515625 767.460938 82.417969 769.015625 83.46875 C 773.371094 86.410156 777.84375 89.171875 782.203125 92.113281 C 790.539062 97.753906 797.882812 104.089844 804.125 112 C 814.570312 125.238281 821.117188 141.214844 825.761719 157.292969 C 828.105469 165.417969 830.078125 173.664062 832.039062 181.886719 C 834.085938 190.441406 835.394531 199.597656 839.796875 207.324219 C 842.007812 211.199219 844.5625 215.007812 845.761719 219.359375 C 847.089844 224.179688 846.191406 228.734375 845.097656 233.492188 C 844.199219 237.402344 844.34375 240.335938 846.308594 243.84375 C 848.09375 247.023438 850.300781 249.949219 851.816406 253.28125 C 853.460938 256.890625 854.257812 260.890625 853.035156 264.769531 C 852.480469 266.539062 850.792969 268.742188 851.011719 270.648438 C 851.210938 272.382812 852.75 274.074219 853.671875 275.484375 C 857.992188 282.105469 860.101562 289.472656 860.125 297.132812 C 860.257812 297.4375 860.375 297.765625 860.457031 298.128906 C 861.671875 303.460938 862.886719 308.792969 864.101562 314.125 C 874.085938 357.925781 883.421875 401.890625 893.859375 445.582031 C 896.363281 456.042969 898.789062 466.714844 898.96875 477.523438 Z M 662.042969 42.207031 C 665.058594 42.179688 668.097656 41.527344 671.074219 41.074219 C 674.433594 40.5625 677.789062 40.03125 681.132812 39.433594 C 687.492188 38.292969 693.796875 36.871094 700.011719 35.089844 C 712.320312 31.570312 724.226562 26.703125 735.519531 20.679688 C 735.820312 20.519531 736.128906 20.488281 736.433594 20.503906 C 735.550781 18.902344 734.4375 17.410156 733.0625 16.171875 C 730.910156 14.246094 727.539062 13.058594 724.300781 12.855469 C 716.675781 12.382812 708.746094 14.5625 701.398438 16.335938 C 693.242188 18.300781 685.136719 20.636719 677.199219 23.347656 C 671.609375 25.257812 665.683594 27.488281 661.605469 31.957031 C 658.617188 35.226562 658.769531 38.648438 660.019531 42.085938 C 660.695312 42.179688 661.382812 42.214844 662.042969 42.207031 Z M 666.128906 71.648438 C 670.488281 70.75 674.851562 69.851562 679.210938 68.957031 C 688.152344 67.117188 697.09375 65.289062 706.03125 63.4375 C 721.863281 60.15625 737.910156 56.527344 751.917969 48.109375 C 750.550781 47.378906 748.902344 47.1875 747.425781 47.597656 C 744.054688 48.53125 740.660156 46.066406 740.566406 42.558594 C 740.382812 36.023438 739.953125 29.550781 737.714844 23.390625 C 737.640625 23.445312 737.597656 23.511719 737.507812 23.558594 C 730.398438 27.351562 723.050781 30.683594 715.507812 33.511719 C 701.792969 38.652344 687.648438 41.863281 673.199219 44.085938 C 669.71875 44.621094 665.480469 45.644531 661.535156 45.503906 C 661.851562 46.113281 662.175781 46.726562 662.507812 47.335938 C 665.953125 53.722656 669.042969 61.734375 664.988281 68.628906 C 664.070312 70.191406 662.835938 71.445312 661.550781 72.65625 C 663.226562 72.402344 664.910156 71.894531 666.128906 71.648438 Z M 677.0625 198.230469 C 701.195312 195.851562 725.15625 191.730469 748.695312 185.914062 C 772.140625 180.125 795.148438 172.636719 817.511719 163.527344 C 816.683594 160.824219 815.824219 158.128906 814.910156 155.457031 C 809.820312 140.65625 803.253906 125.949219 792.546875 114.300781 C 786.71875 107.960938 779.941406 102.902344 772.792969 98.160156 C 768.941406 95.601562 764.796875 93.226562 761.242188 90.261719 C 760.058594 89.273438 759.007812 88.234375 758.015625 87.160156 C 757.230469 86.949219 756.503906 86.566406 755.949219 85.929688 C 754.542969 84.316406 753.179688 82.550781 751.96875 80.703125 C 751.339844 81.144531 750.574219 81.425781 749.746094 81.535156 C 729.339844 84.148438 709.207031 89.589844 690.265625 97.613281 C 688.40625 98.402344 686.226562 98.214844 685.113281 96.261719 C 684.203125 94.660156 684.578125 91.910156 686.464844 91.113281 C 706.414062 82.664062 727.222656 77.003906 748.6875 74.15625 C 747.019531 69.25 747.179688 64.09375 751.078125 59.347656 C 752.132812 58.066406 753.285156 56.878906 754.035156 55.589844 C 739.074219 64.117188 722.097656 67.804688 705.371094 71.25 C 695.644531 73.25 685.914062 75.25 676.183594 77.253906 C 673.46875 77.808594 670.746094 78.449219 668.007812 79.011719 C 670.382812 80.898438 671.96875 83.691406 672.746094 86.597656 C 674.808594 94.324219 673.699219 103.285156 671.488281 110.84375 C 671.15625 111.992188 670.5 112.773438 669.703125 113.273438 C 669.613281 113.511719 669.550781 113.761719 669.453125 113.996094 C 667.566406 118.597656 665.21875 122.976562 662.703125 127.257812 C 658.277344 134.792969 653.121094 141.917969 649.21875 149.757812 C 645.601562 157.011719 643.324219 164.832031 642.03125 172.820312 C 640.535156 182.03125 640.96875 191.503906 643.511719 200.359375 C 654.714844 200.015625 665.910156 199.328125 677.0625 198.230469 Z M 667.847656 336.601562 C 680.242188 336.152344 692.617188 335.273438 704.941406 333.882812 C 754.589844 328.289062 803.453125 314.886719 849.023438 294.417969 C 849.421875 294.238281 849.84375 294.121094 850.261719 294.046875 C 849.964844 291.75 849.464844 289.476562 848.683594 287.25 C 847.039062 282.558594 843.371094 278.90625 841.863281 274.195312 C 841.65625 273.554688 841.507812 272.90625 841.402344 272.257812 C 841.28125 272.3125 841.167969 272.382812 841.042969 272.429688 C 810.242188 284.796875 778.007812 293.359375 745.128906 297.898438 C 743.125 298.179688 741.070312 297.449219 740.496094 295.269531 C 740.027344 293.492188 741.097656 290.917969 743.128906 290.640625 C 776.003906 286.097656 808.242188 277.535156 839.039062 265.171875 C 840.09375 264.746094 841.257812 265.070312 842.171875 265.738281 C 842.851562 264.078125 843.867188 262.394531 843.925781 260.710938 C 844.039062 257.640625 841.335938 254.210938 839.671875 251.542969 C 837.734375 248.429688 835.824219 245.101562 835.15625 241.449219 C 835.125 241.285156 835.117188 241.121094 835.09375 240.957031 C 819.316406 248.96875 801.976562 253.632812 784.300781 254.625 C 782.019531 254.757812 781.710938 251.523438 784.132812 251.386719 C 801.855469 250.390625 819.242188 245.460938 834.929688 237.167969 C 835.109375 233.9375 835.984375 230.796875 836.652344 227.546875 C 837.492188 223.453125 836.175781 220.074219 834.1875 216.539062 C 833.140625 214.679688 832.089844 212.851562 831.097656 210.988281 C 830.621094 211.519531 829.996094 211.941406 829.285156 212.242188 C 810.179688 220.203125 790.277344 226.082031 769.910156 229.78125 C 765.164062 230.644531 763.148438 223.382812 767.910156 222.519531 C 788.273438 218.820312 808.175781 212.941406 827.28125 204.976562 C 827.601562 204.84375 827.933594 204.800781 828.265625 204.796875 C 828.214844 204.660156 828.152344 204.535156 828.105469 204.398438 C 825.605469 197.398438 824.238281 189.941406 822.609375 182.652344 C 822.332031 183.042969 821.957031 183.402344 821.457031 183.703125 C 810.746094 190.179688 798.832031 194.621094 786.472656 196.644531 C 784.460938 196.972656 782.425781 196.148438 781.84375 194.015625 C 781.34375 192.203125 782.460938 189.710938 784.46875 189.382812 C 796.234375 187.457031 807.449219 183.375 817.65625 177.203125 C 818.992188 176.390625 820.285156 176.523438 821.296875 177.148438 C 820.433594 173.683594 819.511719 170.230469 818.507812 166.800781 C 806.148438 171.804688 793.597656 176.328125 780.882812 180.347656 C 757.609375 187.703125 733.800781 193.363281 709.710938 197.285156 C 688.152344 200.792969 666.371094 202.890625 644.539062 203.589844 C 645.523438 206.371094 646.722656 209.074219 648.148438 211.675781 C 648.394531 211.703125 648.644531 211.757812 648.886719 211.855469 C 654.949219 214.289062 661.359375 213.753906 667.710938 213.035156 C 674.757812 212.238281 681.789062 211.320312 688.804688 210.296875 C 703.042969 208.21875 717.210938 205.707031 731.296875 202.785156 C 736.035156 201.804688 738.042969 209.0625 733.300781 210.046875 C 718.550781 213.105469 703.710938 215.714844 688.796875 217.847656 C 681.339844 218.914062 673.867188 219.917969 666.375 220.714844 C 661.792969 221.203125 657.109375 221.421875 652.574219 220.667969 C 652.519531 221.476562 652.304688 222.253906 651.882812 222.824219 C 649.839844 225.589844 648.820312 228.65625 649.136719 232.117188 C 649.464844 235.679688 651.558594 237.953125 653.453125 240.800781 C 654.757812 242.765625 655.496094 244.964844 655.550781 247.214844 C 673.367188 246.980469 691.09375 244.34375 708.226562 239.402344 C 710.308594 238.800781 711.691406 241.886719 709.347656 242.5625 C 691.730469 247.644531 673.457031 250.28125 655.132812 250.453125 C 655.066406 250.695312 655.011719 250.941406 654.925781 251.179688 C 653.902344 254.089844 651.6875 256.304688 650.582031 259.128906 C 650.34375 259.734375 650.285156 259.910156 650.554688 260.476562 C 651.054688 261.523438 652.304688 262.335938 653.160156 263.042969 C 655.519531 264.996094 657.566406 267.007812 658.910156 269.75 C 662.585938 270.429688 666.632812 269.816406 670.253906 269.511719 C 676.816406 268.964844 683.367188 268.324219 689.910156 267.585938 C 703.328125 266.074219 716.695312 264.140625 730.003906 261.832031 C 734.75 261.007812 736.769531 268.265625 732.003906 269.09375 C 717.707031 271.574219 703.328125 273.625 688.902344 275.230469 C 681.6875 276.03125 674.460938 276.722656 667.226562 277.289062 C 665.015625 277.460938 662.742188 277.582031 660.503906 277.472656 C 660.398438 281.972656 658.929688 286.503906 658.015625 290.914062 C 657.328125 294.25 657.042969 300.859375 661.320312 301.792969 C 662.851562 302.128906 663.847656 303.289062 664.25 304.65625 C 665.59375 304.683594 666.933594 304.734375 668.277344 304.730469 C 684.90625 304.703125 701.492188 302.40625 717.523438 298 C 719.613281 297.425781 720.996094 300.511719 718.644531 301.160156 C 713.964844 302.445312 709.238281 303.558594 704.476562 304.484375 C 691.234375 307.050781 677.71875 308.175781 664.234375 307.894531 C 662.589844 317.554688 663.914062 327.625 667.847656 336.601562 Z M 673.507812 356.636719 C 686.394531 355.886719 699.25 354.628906 712.03125 352.832031 C 736.410156 349.402344 760.523438 344.109375 784.097656 337.027344 C 807.679688 329.9375 830.707031 321.011719 852.921875 310.394531 C 853.011719 310.351562 853.105469 310.355469 853.195312 310.328125 C 852.871094 308.929688 852.542969 307.53125 852.214844 306.128906 C 851.007812 305.371094 850.195312 304.117188 850.375 302.4375 C 850.390625 302.28125 850.382812 302.132812 850.398438 301.976562 C 837.882812 307.523438 825.15625 312.605469 812.226562 317.105469 C 766.589844 332.992188 718.609375 342.050781 670.335938 344.050781 C 671.6875 348.152344 672.59375 352.402344 673.507812 356.636719 Z M 887.402344 458.3125 C 885.4375 447.863281 882.972656 437.5 880.546875 427.152344 C 871.671875 389.339844 862.773438 351.53125 853.984375 313.703125 C 841.605469 319.585938 828.984375 324.953125 816.152344 329.761719 C 792.960938 338.449219 769.101562 345.378906 744.859375 350.453125 C 721.582031 355.320312 697.953125 358.4375 674.214844 359.847656 C 674.21875 359.867188 674.222656 359.882812 674.226562 359.898438 C 675.40625 365.082031 676.578125 370.261719 677.757812 375.441406 C 680.195312 386.144531 682.332031 396.921875 684.601562 407.664062 C 689.070312 428.8125 693.539062 449.964844 698.007812 471.117188 C 700.242188 481.691406 702.476562 492.265625 704.710938 502.839844 C 706.699219 512.265625 708.25 521.984375 711.582031 531.054688 C 714.433594 538.808594 719.351562 545.09375 726.519531 549.265625 C 734.023438 553.632812 742.625 555.71875 751.136719 557.03125 C 770.535156 560.023438 790.546875 557.472656 809.351562 552.3125 C 827.488281 547.335938 845.671875 540.355469 860.761719 528.898438 C 874.25 518.660156 884.574219 504.773438 888.367188 488.070312 C 890.570312 478.371094 889.222656 467.972656 887.402344 458.3125 Z M 665.597656 142.742188 C 655.617188 153.007812 650.546875 167.582031 652.226562 181.832031 C 652.464844 183.855469 656.210938 184.117188 655.957031 181.949219 C 654.378906 168.609375 658.933594 154.796875 668.320312 145.144531 C 669.921875 143.5 667.015625 141.28125 665.597656 142.742188 Z M 694.332031 388.296875 C 693.894531 383.042969 693.730469 377.773438 693.820312 372.503906 C 693.859375 370.464844 690.132812 370.191406 690.09375 372.386719 C 689.769531 391.242188 692.84375 410.148438 699.125 427.933594 C 700.902344 432.976562 702.949219 437.921875 705.230469 442.757812 C 705.648438 443.640625 706.582031 444.179688 707.570312 443.976562 C 708.386719 443.8125 709.207031 442.917969 708.792969 442.039062 C 700.820312 425.15625 695.882812 406.90625 694.332031 388.296875 Z M 694.332031 388.296875 " fill-opacity="1" fill-rule="nonzero"/></g></g></g></svg>