<svg xmlns="http://www.w3.org/2000/svg" xmlns:xlink="http://www.w3.org/1999/xlink" width="1200" zoomAndPan="magnify" viewBox="0 0 900 675.000002" height="900" preserveAspectRatio="xMidYMid meet" version="1.0"><defs><clipPath id="299330c4a2"><path d="M 244 0 L 656.554688 0 L 656.554688 478 L 244 478 Z M 244 0 " clip-rule="nonzero"/></clipPath></defs><g clip-path="url(#299330c4a2)"><path fill="#000000" d="M 629.222656 78.183594 C 611.441406 52.839844 586.925781 33.429688 555.671875 20.085938 C 524.554688 6.738281 488.589844 0 447.90625 0 C 410.863281 0 377.050781 6.605469 346.46875 19.816406 C 315.890625 32.890625 291.238281 52.976562 272.648438 79.53125 C 257.832031 100.695312 248.671875 126.308594 244.898438 156.367188 C 243.285156 169.445312 253.65625 181.035156 266.859375 181.035156 L 348.761719 181.035156 C 359.269531 181.035156 368.160156 173.621094 370.449219 163.378906 C 372.46875 154.210938 375.835938 145.988281 380.550781 138.980469 C 388.09375 127.65625 397.792969 119.027344 409.648438 113.230469 C 421.503906 107.4375 434.03125 104.46875 447.367188 104.46875 C 461.109375 104.46875 473.5 107.300781 484.949219 113.097656 C 496.265625 118.757812 505.292969 126.980469 512.027344 137.632812 C 518.761719 148.28125 522.128906 160.546875 522.128906 174.703125 C 522.128906 188.046875 519.167969 200.042969 513.238281 210.691406 C 507.3125 221.34375 499.363281 231.183594 489.398438 239.945312 C 479.292969 248.839844 468.113281 257.199219 455.449219 265.421875 C 438.476562 276.070312 423.929688 287.933594 411.9375 301.007812 C 399.816406 314.085938 390.789062 331.203125 384.457031 352.503906 C 378.261719 373.800781 375.027344 402.242188 374.894531 437.964844 L 374.894531 455.761719 C 374.894531 467.890625 384.726562 477.867188 396.988281 477.867188 L 469.054688 477.867188 C 481.179688 477.867188 491.148438 468.027344 491.148438 455.761719 L 491.148438 437.964844 C 491.417969 417.882812 493.976562 401.03125 498.960938 387.417969 C 503.945312 373.800781 511.625 361.667969 521.863281 351.289062 C 532.234375 340.910156 545.433594 330.933594 561.601562 321.230469 C 580.863281 309.769531 597.433594 296.964844 611.578125 282.675781 C 625.585938 268.523438 636.632812 252.078125 644.582031 233.609375 C 652.394531 215.140625 656.433594 193.84375 656.433594 169.984375 C 656.03125 134.125 647.003906 103.527344 629.222656 78.183594 Z M 629.222656 78.183594 " fill-opacity="1" fill-rule="nonzero"/></g><path fill="#000000" d="M 435.242188 527.472656 C 414.769531 527.472656 397.390625 534.617188 382.976562 548.90625 C 368.5625 563.195312 361.421875 580.449219 361.691406 600.402344 C 361.421875 620.621094 368.5625 638.011719 382.976562 652.433594 C 397.390625 666.855469 414.769531 674 435.242188 674 C 448.308594 674 460.433594 670.632812 471.34375 664.027344 C 482.390625 657.285156 491.28125 648.523438 498.152344 637.335938 C 505.023438 626.148438 508.523438 613.878906 508.660156 600.402344 C 508.390625 580.316406 500.980469 563.195312 486.296875 548.90625 C 471.75 534.617188 454.640625 527.472656 435.242188 527.472656 Z M 435.242188 527.472656 " fill-opacity="1" fill-rule="nonzero"/></svg>