<svg xmlns="http://www.w3.org/2000/svg" xmlns:xlink="http://www.w3.org/1999/xlink" width="1200" zoomAndPan="magnify" viewBox="0 0 900 675.000002" height="900" preserveAspectRatio="xMidYMid meet" version="1.0"><defs><clipPath id="6c6658e2c2"><path d="M 137.433594 0 L 621 0 L 621 615 L 137.433594 615 Z M 137.433594 0 " clip-rule="nonzero"/></clipPath><clipPath id="e98af4f10f"><path d="M 456 312 L 762.753906 312 L 762.753906 674 L 456 674 Z M 456 312 " clip-rule="nonzero"/></clipPath></defs><g clip-path="url(#6c6658e2c2)"><path fill="#100f0d" d="M 423.796875 587.433594 L 177.878906 587.433594 C 170.539062 587.433594 164.582031 581.480469 164.582031 574.167969 L 164.582031 41.058594 C 164.582031 33.722656 170.539062 27.765625 177.878906 27.765625 L 580.285156 27.765625 C 587.621094 27.765625 593.582031 33.722656 593.582031 41.058594 L 593.582031 257.433594 C 593.582031 264.949219 599.660156 271.023438 607.175781 271.023438 C 614.675781 271.023438 620.769531 264.949219 620.769531 257.433594 L 620.769531 41.058594 C 620.769531 18.738281 602.613281 0.585938 580.285156 0.585938 L 177.878906 0.585938 C 155.550781 0.585938 137.394531 18.738281 137.394531 41.058594 L 137.394531 574.167969 C 137.394531 596.464844 155.550781 614.617188 177.878906 614.617188 L 423.796875 614.617188 C 431.3125 614.617188 437.394531 608.523438 437.394531 601.011719 C 437.394531 593.511719 431.3125 587.433594 423.796875 587.433594 " fill-opacity="1" fill-rule="nonzero"/></g><path fill="#100f0d" d="M 364.453125 147.5625 L 460.535156 147.5625 C 468.035156 147.5625 474.128906 141.46875 474.128906 133.96875 C 474.128906 126.457031 468.035156 120.378906 460.535156 120.378906 L 364.453125 120.378906 C 356.9375 120.378906 350.855469 126.457031 350.855469 133.96875 C 350.855469 141.46875 356.9375 147.5625 364.453125 147.5625 " fill-opacity="1" fill-rule="nonzero"/><path fill="#100f0d" d="M 541.84375 194.476562 C 541.84375 186.980469 535.75 180.886719 528.25 180.886719 L 360.632812 180.886719 C 353.117188 180.886719 347.039062 186.980469 347.039062 194.476562 C 347.039062 201.988281 353.117188 208.082031 360.632812 208.082031 L 528.25 208.082031 C 535.75 208.082031 541.84375 201.988281 541.84375 194.476562 " fill-opacity="1" fill-rule="nonzero"/><path fill="#100f0d" d="M 360.632812 273.042969 C 353.117188 273.042969 347.039062 279.132812 347.039062 286.632812 C 347.039062 294.144531 353.117188 300.222656 360.632812 300.222656 L 456.714844 300.222656 C 464.230469 300.222656 470.324219 294.144531 470.324219 286.632812 C 470.324219 279.132812 464.230469 273.042969 456.714844 273.042969 L 360.632812 273.042969 " fill-opacity="1" fill-rule="nonzero"/><path fill="#100f0d" d="M 439.75 335.714844 L 360.621094 335.714844 C 353.105469 335.714844 347.011719 341.792969 347.011719 349.304688 C 347.011719 356.804688 353.105469 362.894531 360.621094 362.894531 L 439.75 362.894531 C 447.265625 362.894531 453.34375 356.804688 453.34375 349.304688 C 453.34375 341.792969 447.265625 335.714844 439.75 335.714844 " fill-opacity="1" fill-rule="nonzero"/><path fill="#100f0d" d="M 422.144531 427.871094 L 360.621094 427.871094 C 353.105469 427.871094 347.011719 433.949219 347.011719 441.460938 C 347.011719 448.960938 353.105469 455.050781 360.621094 455.050781 L 422.144531 455.050781 C 429.660156 455.050781 435.753906 448.960938 435.753906 441.460938 C 435.753906 433.949219 429.660156 427.871094 422.144531 427.871094 " fill-opacity="1" fill-rule="nonzero"/><path fill="#100f0d" d="M 360.621094 490.476562 C 353.105469 490.476562 347.011719 496.566406 347.011719 504.078125 C 347.011719 511.578125 353.105469 517.667969 360.621094 517.667969 L 422.214844 517.667969 C 429.714844 517.667969 435.808594 511.578125 435.808594 504.078125 C 435.808594 496.566406 429.714844 490.476562 422.214844 490.476562 L 360.621094 490.476562 " fill-opacity="1" fill-rule="nonzero"/><path fill="#100f0d" d="M 286.484375 440.484375 L 244.347656 481.648438 L 225.351562 462.628906 C 220.058594 457.324219 211.445312 457.3125 206.125 462.617188 C 200.816406 467.921875 200.804688 476.519531 206.109375 481.824219 L 225.109375 500.855469 C 230.375 506.136719 237.390625 509.03125 244.835938 509.03125 C 252.296875 509.03125 259.3125 506.136719 264.578125 500.855469 L 305.714844 459.691406 C 311.019531 454.386719 311.019531 445.777344 305.714844 440.472656 C 300.40625 435.179688 291.792969 435.164062 286.484375 440.484375 " fill-opacity="1" fill-rule="nonzero"/><path fill="#100f0d" d="M 305.714844 285.683594 C 300.40625 280.378906 291.792969 280.363281 286.484375 285.683594 L 244.347656 326.863281 L 225.367188 307.804688 C 220.070312 302.484375 211.460938 302.46875 206.136719 307.761719 C 200.816406 313.070312 200.804688 321.664062 206.097656 326.984375 L 225.109375 346.070312 C 230.375 351.335938 237.375 354.230469 244.835938 354.230469 C 252.308594 354.230469 259.3125 351.335938 264.578125 346.054688 L 305.714844 304.894531 C 311.019531 299.585938 311.019531 290.976562 305.714844 285.683594 " fill-opacity="1" fill-rule="nonzero"/><path fill="#100f0d" d="M 308.761719 131.941406 C 303.453125 126.648438 294.839844 126.621094 289.53125 131.953125 L 247.394531 173.132812 L 228.410156 154.070312 C 223.117188 148.738281 214.507812 148.738281 209.183594 154.019531 C 203.863281 159.324219 203.851562 167.933594 209.144531 173.238281 L 228.15625 192.324219 C 233.421875 197.589844 240.421875 200.488281 247.882812 200.488281 C 255.355469 200.488281 262.355469 197.589844 267.625 192.3125 L 308.761719 151.160156 C 314.066406 145.855469 314.066406 137.246094 308.761719 131.941406 " fill-opacity="1" fill-rule="nonzero"/><g clip-path="url(#e98af4f10f)"><path fill="#100f0d" d="M 735.605469 510.644531 C 735.605469 532.355469 729.796875 553.988281 718.800781 573.179688 C 707.820312 592.308594 692.140625 608.226562 673.453125 619.203125 C 665.304688 623.984375 646.359375 632.820312 620.078125 644.097656 C 613.320312 647.007812 605.605469 646.941406 598.886719 643.90625 C 570.953125 631.347656 549.628906 621.425781 545.835938 619.203125 C 526.976562 608.117188 511.242188 592.1875 500.328125 573.167969 C 489.457031 554.136719 483.699219 532.519531 483.699219 510.644531 L 483.699219 416.1875 C 483.699219 403.746094 487.601562 391.835938 494.980469 381.765625 C 502.34375 371.695312 512.527344 364.398438 524.390625 360.636719 L 571.660156 345.71875 C 583.953125 341.820312 596.734375 339.84375 609.640625 339.84375 C 622.554688 339.84375 635.339844 341.820312 647.660156 345.71875 L 694.902344 360.636719 C 706.789062 364.398438 716.960938 371.707031 724.324219 381.765625 C 731.703125 391.851562 735.605469 403.761719 735.605469 416.1875 Z M 746.273438 365.710938 C 746.273438 365.710938 746.273438 365.699219 746.261719 365.699219 C 735.457031 350.957031 720.535156 340.25 703.109375 334.726562 L 655.851562 319.796875 C 625.957031 310.320312 593.378906 310.308594 563.453125 319.796875 L 516.199219 334.726562 C 498.769531 340.234375 483.847656 350.941406 473.03125 365.699219 C 462.226562 380.492188 456.511719 397.941406 456.511719 416.1875 L 456.511719 510.644531 C 456.511719 537.242188 463.5 563.53125 476.742188 586.675781 C 489.996094 609.808594 509.128906 629.152344 532.082031 642.648438 C 538.726562 646.535156 569.804688 660.640625 587.71875 668.707031 C 594.691406 671.832031 602.191406 673.417969 609.691406 673.417969 C 616.898438 673.417969 624.101562 671.96875 630.828125 669.070312 C 650.125 660.789062 675.566406 649.484375 687.238281 642.636719 C 709.984375 629.273438 729.050781 609.933594 742.386719 586.703125 C 755.738281 563.394531 762.792969 537.09375 762.792969 510.644531 L 762.792969 416.1875 C 762.792969 397.953125 757.078125 380.492188 746.273438 365.710938 " fill-opacity="1" fill-rule="nonzero"/></g><path fill="#100f0d" d="M 669.933594 439.945312 L 588.679688 521.296875 C 587.824219 522.121094 587.09375 522.542969 586.59375 522.675781 C 584.441406 523.285156 582.464844 522.828125 581.015625 521.363281 L 549.371094 489.730469 C 544.0625 484.410156 535.453125 484.410156 530.144531 489.730469 C 524.835938 495.035156 524.835938 503.644531 530.144531 508.953125 L 561.761719 540.546875 C 567.988281 546.824219 576.179688 550.15625 584.710938 550.15625 C 587.746094 550.15625 590.832031 549.738281 593.890625 548.871094 C 598.914062 547.488281 603.707031 544.648438 607.839844 540.574219 L 689.175781 459.152344 C 694.484375 453.832031 694.46875 445.238281 689.160156 439.929688 C 683.839844 434.609375 675.226562 434.625 669.933594 439.945312 " fill-opacity="1" fill-rule="nonzero"/></svg>