<svg xmlns="http://www.w3.org/2000/svg" xmlns:xlink="http://www.w3.org/1999/xlink" width="1200" zoomAndPan="magnify" viewBox="0 0 900 675.000002" height="900" preserveAspectRatio="xMidYMid meet" version="1.0"><defs><filter x="0%" y="0%" width="100%" height="100%" id="d537564a6c"><feColorMatrix values="0 0 0 0 1 0 0 0 0 1 0 0 0 0 1 0 0 0 1 0" color-interpolation-filters="sRGB"/></filter><clipPath id="eb54f7736e"><path d="M 0.664062 141 L 899.332031 141 L 899.332031 526 L 0.664062 526 Z M 0.664062 141 " clip-rule="nonzero"/></clipPath><mask id="d2d53ade20"><g filter="url(#d537564a6c)"><rect x="-90" width="1080" fill="#000000" y="-67.5" height="810.000002" fill-opacity="0.8"/></g></mask><clipPath id="4828fc19de"><path d="M 0.664062 0.871094 L 899.332031 0.871094 L 899.332031 384.0625 L 0.664062 384.0625 Z M 0.664062 0.871094 " clip-rule="nonzero"/></clipPath><clipPath id="5fa70b2b70"><path d="M 0.664062 7.964844 L 376.691406 7.964844 L 376.691406 383.992188 L 0.664062 383.992188 Z M 0.664062 7.964844 " clip-rule="nonzero"/></clipPath><clipPath id="c77d2d0b6d"><path d="M 453.621094 7.964844 L 899.066406 7.964844 L 899.066406 383.992188 L 453.621094 383.992188 Z M 453.621094 7.964844 " clip-rule="nonzero"/></clipPath><clipPath id="3ff9858bbf"><rect x="0" width="900" y="0" height="385"/></clipPath><clipPath id="e900f3e4a9"><rect x="0" width="900" y="0" height="385"/></clipPath></defs><g clip-path="url(#eb54f7736e)"><g mask="url(#d2d53ade20)"><g transform="matrix(1, 0, 0, 1, 0.000000000000000111, 141)"><g clip-path="url(#e900f3e4a9)"><g clip-path="url(#4828fc19de)"><g transform="matrix(1, 0, 0, 1, 0.000000000000000111, -0.000000000000028422)"><g clip-path="url(#3ff9858bbf)"><g clip-path="url(#5fa70b2b70)"><path fill="#0d2740" d="M 331.347656 46.871094 L 311.894531 46.871094 L 311.894531 33.902344 C 311.894531 19.597656 300.261719 7.964844 285.960938 7.964844 C 271.660156 7.964844 260.023438 19.597656 260.023438 33.902344 L 260.023438 46.871094 L 214.636719 46.871094 L 214.636719 33.902344 C 214.636719 19.597656 203 7.964844 188.699219 7.964844 C 174.398438 7.964844 162.765625 19.597656 162.765625 33.902344 L 162.765625 46.871094 L 117.378906 46.871094 L 117.378906 33.902344 C 117.378906 19.597656 105.742188 7.964844 91.441406 7.964844 C 77.140625 7.964844 65.503906 19.597656 65.503906 33.902344 L 65.503906 46.871094 L 46.054688 46.871094 C 21.027344 46.871094 0.664062 67.234375 0.664062 92.257812 L 0.664062 338.648438 C 0.664062 363.671875 21.027344 384.035156 46.054688 384.035156 L 331.347656 384.035156 C 356.375 384.035156 376.734375 363.671875 376.734375 338.648438 L 376.734375 92.257812 C 376.734375 67.234375 356.375 46.871094 331.347656 46.871094 Z M 272.992188 33.902344 C 272.992188 26.753906 278.808594 20.933594 285.960938 20.933594 C 293.113281 20.933594 298.929688 26.753906 298.929688 33.902344 L 298.929688 66.320312 C 298.929688 73.46875 293.113281 79.289062 285.960938 79.289062 C 278.808594 79.289062 272.992188 73.46875 272.992188 66.320312 Z M 175.734375 33.902344 C 175.734375 26.753906 181.546875 20.933594 188.699219 20.933594 C 195.851562 20.933594 201.667969 26.753906 201.667969 33.902344 L 201.667969 66.320312 C 201.667969 73.46875 195.851562 79.289062 188.699219 79.289062 C 181.546875 79.289062 175.734375 73.46875 175.734375 66.320312 Z M 78.472656 33.902344 C 78.472656 26.753906 84.289062 20.933594 91.441406 20.933594 C 98.59375 20.933594 104.410156 26.753906 104.410156 33.902344 L 104.410156 66.320312 C 104.410156 73.46875 98.59375 79.289062 91.441406 79.289062 C 84.289062 79.289062 78.472656 73.46875 78.472656 66.320312 Z M 363.769531 338.648438 C 363.769531 356.523438 349.222656 371.066406 331.347656 371.066406 L 46.054688 371.066406 C 28.179688 371.066406 13.632812 356.523438 13.632812 338.648438 L 13.632812 331.449219 C 21.878906 339.875 33.355469 345.128906 46.050781 345.132812 C 54.335938 345.132812 54.488281 332.164062 46.054688 332.164062 C 28.179688 332.164062 13.632812 317.621094 13.632812 299.746094 L 13.632812 124.675781 C 13.632812 124.675781 330.089844 124.675781 331.34375 124.675781 C 339.472656 124.675781 339.78125 111.710938 331.347656 111.710938 L 13.632812 111.710938 L 13.632812 92.257812 C 13.632812 74.382812 28.179688 59.835938 46.054688 59.835938 L 65.503906 59.835938 L 65.503906 66.320312 C 65.503906 80.625 77.140625 92.257812 91.441406 92.257812 C 105.742188 92.257812 117.378906 80.625 117.378906 66.320312 L 117.378906 59.835938 L 162.765625 59.835938 L 162.765625 66.320312 C 162.765625 80.625 174.398438 92.257812 188.699219 92.257812 C 203 92.257812 214.636719 80.625 214.636719 66.320312 L 214.636719 59.835938 L 260.023438 59.835938 L 260.023438 66.320312 C 260.023438 80.625 271.660156 92.257812 285.960938 92.257812 C 300.261719 92.257812 311.894531 80.625 311.894531 66.320312 L 311.894531 59.835938 L 331.347656 59.835938 C 349.222656 59.835938 363.769531 74.382812 363.769531 92.257812 L 363.769531 111.710938 C 363.769531 111.710938 357.339844 111.710938 357.285156 111.710938 C 349.019531 111.710938 348.789062 124.675781 357.285156 124.675781 L 363.769531 124.675781 L 363.769531 267.324219 L 311.894531 267.324219 C 304.742188 267.324219 298.929688 273.144531 298.929688 280.292969 L 298.929688 332.164062 C 298.929688 332.164062 73.144531 332.164062 71.992188 332.164062 C 63.742188 332.164062 63.613281 345.132812 71.988281 345.132812 L 305.410156 345.132812 C 329.53125 345.132812 350.851562 333.066406 363.769531 314.6875 Z M 363.386719 280.292969 C 360.382812 307.296875 338.898438 328.78125 311.894531 331.78125 L 311.894531 280.292969 Z M 363.386719 280.292969 " fill-opacity="1" fill-rule="nonzero"/></g><path fill="#0d2740" d="M 272.992188 312.710938 C 281.242188 312.710938 281.433594 299.746094 272.992188 299.746094 L 260.023438 299.746094 L 260.023438 202.484375 C 260.023438 198.902344 257.121094 196 253.539062 196 L 227.605469 196 C 224.023438 196 221.121094 198.902344 221.121094 202.484375 C 221.121094 202.484375 221.121094 260.535156 221.121094 260.839844 C 221.121094 269.125 234.089844 269.285156 234.089844 260.839844 L 234.089844 208.96875 L 247.054688 208.96875 L 247.054688 299.746094 L 234.089844 299.746094 C 234.089844 299.746094 234.089844 286.839844 234.089844 286.777344 C 234.089844 278.421875 221.121094 278.347656 221.121094 286.777344 L 221.121094 299.746094 L 208.152344 299.746094 L 208.152344 215.453125 C 208.152344 211.867188 205.25 208.96875 201.667969 208.96875 L 175.734375 208.96875 C 172.152344 208.96875 169.25 211.867188 169.25 215.453125 L 169.25 299.746094 L 156.28125 299.746094 L 156.28125 241.386719 C 156.28125 237.804688 153.378906 234.90625 149.796875 234.90625 L 123.859375 234.90625 C 120.28125 234.90625 117.378906 237.804688 117.378906 241.386719 L 117.378906 299.746094 L 104.410156 299.746094 L 104.410156 228.421875 C 104.410156 224.835938 101.507812 221.9375 97.925781 221.9375 L 71.988281 221.9375 C 68.410156 221.9375 65.503906 224.835938 65.503906 228.421875 L 65.503906 299.746094 L 46.054688 299.746094 C 46.054688 299.746094 46.054688 151.292969 46.054688 150.617188 C 46.054688 142.347656 33.085938 142.183594 33.085938 150.613281 L 33.085938 306.226562 C 33.085938 309.8125 35.988281 312.710938 39.570312 312.710938 C 39.570312 312.710938 272.21875 312.710938 272.992188 312.710938 Z M 182.214844 221.9375 L 195.183594 221.9375 L 195.183594 299.746094 L 182.214844 299.746094 Z M 130.34375 247.871094 L 143.3125 247.871094 L 143.3125 299.746094 L 130.34375 299.746094 Z M 78.472656 234.90625 L 91.441406 234.90625 L 91.441406 299.746094 L 78.472656 299.746094 Z M 78.472656 234.90625 " fill-opacity="1" fill-rule="nonzero"/><path fill="#0d2740" d="M 71.988281 208.96875 L 109.363281 208.96875 C 109.363281 208.96875 133.929688 221.253906 133.929688 221.253906 C 136.421875 222.5 139.4375 222.011719 141.414062 220.035156 C 141.414062 220.035156 165.449219 196 165.449219 196 L 188.699219 196 C 190.417969 196 192.070312 195.316406 193.285156 194.101562 L 217.320312 170.066406 L 237.886719 170.066406 C 237.886719 170.066406 236 171.953125 235.988281 171.964844 C 230.070312 177.882812 239.230469 187.058594 245.15625 181.132812 C 245.15625 181.132812 258.042969 168.25 258.117188 168.171875 C 260.621094 165.671875 260.605469 161.46875 258.117188 158.992188 C 258.117188 158.992188 245.230469 146.105469 245.15625 146.027344 C 239.265625 140.136719 230.019531 149.230469 235.988281 155.199219 L 237.886719 157.097656 L 214.636719 157.097656 C 212.917969 157.097656 211.269531 157.78125 210.050781 158.996094 L 186.015625 183.03125 L 162.765625 183.03125 C 161.046875 183.03125 159.394531 183.714844 158.179688 184.933594 L 135.550781 207.5625 L 113.792969 196.683594 C 112.894531 196.234375 111.898438 196 110.894531 196 C 110.894531 196 72.222656 196 71.992188 196 C 63.707031 196 63.554688 208.96875 71.988281 208.96875 Z M 71.988281 208.96875 " fill-opacity="1" fill-rule="nonzero"/><path fill="#0d2740" d="M 285.960938 183.03125 L 337.832031 183.03125 C 341.414062 183.03125 344.316406 180.132812 344.316406 176.550781 L 344.316406 150.613281 C 344.316406 147.027344 341.414062 144.128906 337.832031 144.128906 L 285.960938 144.128906 C 282.378906 144.128906 279.476562 147.027344 279.476562 150.613281 L 279.476562 176.550781 C 279.476562 180.132812 282.378906 183.03125 285.960938 183.03125 Z M 292.445312 157.097656 L 331.347656 157.097656 L 331.347656 170.066406 L 292.445312 170.066406 Z M 292.445312 157.097656 " fill-opacity="1" fill-rule="nonzero"/><path fill="#0d2740" d="M 285.960938 208.96875 C 285.960938 208.96875 337.632812 208.96875 337.832031 208.96875 C 345.976562 208.96875 346.269531 196 337.832031 196 C 337.832031 196 286.164062 196 285.960938 196 C 277.589844 196 277.574219 208.96875 285.960938 208.96875 Z M 285.960938 208.96875 " fill-opacity="1" fill-rule="nonzero"/><path fill="#0d2740" d="M 285.960938 234.90625 C 285.960938 234.90625 337.6875 234.90625 337.832031 234.90625 C 345.929688 234.90625 346.425781 221.9375 337.832031 221.9375 C 337.832031 221.9375 286.09375 221.9375 285.960938 221.9375 C 277.914062 221.9375 277.628906 234.90625 285.960938 234.90625 Z M 285.960938 234.90625 " fill-opacity="1" fill-rule="nonzero"/><g clip-path="url(#c77d2d0b6d)"><path fill="#0d2740" d="M 892.351562 147.253906 C 892.808594 147.253906 893.261719 147.207031 893.710938 147.121094 C 894.15625 147.03125 894.59375 146.898438 895.015625 146.722656 C 895.4375 146.546875 895.839844 146.332031 896.21875 146.078125 C 896.601562 145.824219 896.953125 145.535156 897.273438 145.214844 C 897.597656 144.890625 897.886719 144.539062 898.140625 144.15625 C 898.394531 143.777344 898.609375 143.375 898.785156 142.953125 C 898.960938 142.53125 899.09375 142.097656 899.179688 141.648438 C 899.269531 141.199219 899.316406 140.746094 899.316406 140.289062 L 899.316406 105.46875 C 899.316406 105.011719 899.269531 104.558594 899.179688 104.109375 C 899.09375 103.664062 898.960938 103.226562 898.785156 102.804688 C 898.609375 102.382812 898.394531 101.980469 898.140625 101.601562 C 897.886719 101.21875 897.597656 100.867188 897.273438 100.546875 C 896.953125 100.222656 896.601562 99.933594 896.21875 99.679688 C 895.839844 99.425781 895.4375 99.210938 895.015625 99.035156 C 894.59375 98.859375 894.15625 98.726562 893.710938 98.640625 C 893.261719 98.550781 892.808594 98.503906 892.351562 98.503906 L 871.460938 98.503906 L 871.460938 70.46875 C 872.425781 69.742188 873.355469 68.96875 874.242188 68.148438 C 875.128906 67.324219 875.96875 66.460938 876.765625 65.550781 C 877.5625 64.640625 878.308594 63.691406 879.007812 62.703125 C 879.703125 61.714844 880.347656 60.695312 880.941406 59.640625 C 881.53125 58.585938 882.066406 57.503906 882.542969 56.390625 C 883.023438 55.28125 883.441406 54.148438 883.804688 52.996094 C 884.164062 51.839844 884.464844 50.671875 884.703125 49.484375 C 884.941406 48.300781 885.117188 47.105469 885.230469 45.902344 C 885.34375 44.699219 885.398438 43.492188 885.386719 42.28125 C 885.375 41.074219 885.300781 39.867188 885.164062 38.667969 C 885.027344 37.464844 884.828125 36.273438 884.566406 35.09375 C 884.304688 33.914062 883.984375 32.75 883.601562 31.601562 C 883.21875 30.453125 882.777344 29.332031 882.277344 28.230469 C 881.777344 27.128906 881.222656 26.054688 880.613281 25.011719 C 880 23.96875 879.335938 22.960938 878.621094 21.984375 C 877.902344 21.011719 877.140625 20.078125 876.324219 19.183594 C 875.511719 18.289062 874.652344 17.4375 873.75 16.632812 C 872.847656 15.828125 871.90625 15.074219 870.925781 14.367188 C 869.945312 13.660156 868.929688 13.003906 867.882812 12.402344 C 866.832031 11.800781 865.753906 11.257812 864.648438 10.765625 C 863.542969 10.277344 862.414062 9.847656 861.265625 9.476562 C 860.113281 9.105469 858.945312 8.792969 857.765625 8.542969 C 856.582031 8.292969 855.386719 8.105469 854.183594 7.980469 C 852.984375 7.855469 851.777344 7.792969 850.566406 7.792969 C 849.359375 7.792969 848.152344 7.855469 846.949219 7.980469 C 845.746094 8.105469 844.554688 8.292969 843.371094 8.542969 C 842.1875 8.792969 841.019531 9.105469 839.871094 9.476562 C 838.71875 9.847656 837.589844 10.277344 836.484375 10.765625 C 835.378906 11.257812 834.300781 11.800781 833.253906 12.402344 C 832.203125 13.003906 831.1875 13.660156 830.207031 14.367188 C 829.226562 15.074219 828.285156 15.828125 827.382812 16.632812 C 826.480469 17.4375 825.625 18.289062 824.808594 19.183594 C 823.996094 20.078125 823.230469 21.011719 822.515625 21.984375 C 821.796875 22.960938 821.132812 23.96875 820.523438 25.011719 C 819.910156 26.054688 819.355469 27.128906 818.855469 28.230469 C 818.359375 29.332031 817.917969 30.453125 817.535156 31.601562 C 817.152344 32.75 816.832031 33.914062 816.570312 35.09375 C 816.308594 36.273438 816.109375 37.464844 815.972656 38.667969 C 815.835938 39.867188 815.761719 41.074219 815.75 42.28125 C 815.738281 43.492188 815.789062 44.699219 815.902344 45.902344 C 816.015625 47.105469 816.195312 48.300781 816.433594 49.484375 C 816.671875 50.671875 816.972656 51.839844 817.332031 52.996094 C 817.691406 54.148438 818.113281 55.28125 818.589844 56.390625 C 819.070312 57.503906 819.601562 58.585938 820.195312 59.640625 C 820.785156 60.695312 821.429688 61.714844 822.128906 62.703125 C 822.824219 63.691406 823.574219 64.640625 824.371094 65.550781 C 825.167969 66.460938 826.007812 67.324219 826.894531 68.148438 C 827.78125 68.96875 828.707031 69.742188 829.675781 70.46875 L 829.675781 98.503906 L 808.785156 98.503906 C 808.328125 98.503906 807.875 98.550781 807.425781 98.640625 C 806.976562 98.726562 806.542969 98.859375 806.117188 99.035156 C 805.695312 99.210938 805.292969 99.425781 804.914062 99.679688 C 804.535156 99.933594 804.183594 100.222656 803.859375 100.546875 C 803.535156 100.867188 803.246094 101.21875 802.992188 101.601562 C 802.738281 101.980469 802.523438 102.382812 802.351562 102.804688 C 802.175781 103.226562 802.042969 103.664062 801.953125 104.109375 C 801.863281 104.558594 801.820312 105.011719 801.820312 105.46875 L 801.820312 108.253906 C 791.726562 111.589844 781.515625 114.519531 771.1875 117.042969 C 760.859375 119.5625 750.445312 121.667969 739.949219 123.359375 C 729.457031 125.046875 718.910156 126.316406 708.3125 127.164062 C 697.714844 128.011719 687.101562 128.4375 676.46875 128.4375 C 665.835938 128.4375 655.222656 128.011719 644.625 127.164062 C 634.027344 126.316406 623.480469 125.046875 612.984375 123.359375 C 602.488281 121.667969 592.078125 119.5625 581.75 117.042969 C 571.421875 114.519531 561.210938 111.589844 551.117188 108.253906 L 551.117188 105.46875 C 551.117188 105.011719 551.074219 104.558594 550.984375 104.109375 C 550.894531 103.664062 550.761719 103.226562 550.585938 102.804688 C 550.414062 102.382812 550.199219 101.980469 549.945312 101.601562 C 549.691406 101.21875 549.402344 100.867188 549.078125 100.546875 C 548.753906 100.222656 548.402344 99.933594 548.023438 99.679688 C 547.640625 99.425781 547.242188 99.210938 546.816406 99.035156 C 546.394531 98.859375 545.960938 98.726562 545.511719 98.640625 C 545.0625 98.550781 544.609375 98.503906 544.152344 98.503906 L 523.261719 98.503906 L 523.261719 70.46875 C 524.230469 69.742188 525.15625 68.96875 526.042969 68.148438 C 526.929688 67.324219 527.769531 66.460938 528.566406 65.550781 C 529.363281 64.640625 530.109375 63.691406 530.808594 62.703125 C 531.507812 61.714844 532.152344 60.695312 532.742188 59.640625 C 533.332031 58.585938 533.867188 57.503906 534.347656 56.390625 C 534.824219 55.28125 535.246094 54.148438 535.605469 52.996094 C 535.964844 51.839844 536.265625 50.671875 536.503906 49.484375 C 536.742188 48.300781 536.917969 47.105469 537.035156 45.902344 C 537.148438 44.699219 537.199219 43.492188 537.1875 42.28125 C 537.175781 41.074219 537.101562 39.867188 536.964844 38.667969 C 536.828125 37.464844 536.628906 36.273438 536.367188 35.09375 C 536.105469 33.914062 535.785156 32.75 535.402344 31.601562 C 535.019531 30.453125 534.578125 29.332031 534.078125 28.230469 C 533.582031 27.128906 533.023438 26.054688 532.414062 25.011719 C 531.800781 23.96875 531.136719 22.960938 530.421875 21.984375 C 529.707031 21.011719 528.941406 20.078125 528.128906 19.183594 C 527.3125 18.289062 526.457031 17.4375 525.554688 16.632812 C 524.652344 15.828125 523.710938 15.074219 522.730469 14.367188 C 521.746094 13.660156 520.734375 13.003906 519.683594 12.402344 C 518.636719 11.800781 517.558594 11.257812 516.453125 10.765625 C 515.34375 10.277344 514.21875 9.847656 513.066406 9.476562 C 511.914062 9.105469 510.75 8.792969 509.566406 8.542969 C 508.382812 8.292969 507.191406 8.105469 505.988281 7.980469 C 504.785156 7.855469 503.578125 7.792969 502.371094 7.792969 C 501.160156 7.792969 499.953125 7.855469 498.75 7.980469 C 497.550781 8.105469 496.355469 8.292969 495.171875 8.542969 C 493.988281 8.792969 492.824219 9.105469 491.671875 9.476562 C 490.523438 9.847656 489.394531 10.277344 488.289062 10.765625 C 487.183594 11.257812 486.105469 11.800781 485.054688 12.402344 C 484.007812 13.003906 482.992188 13.660156 482.011719 14.367188 C 481.027344 15.074219 480.085938 15.828125 479.183594 16.632812 C 478.28125 17.4375 477.425781 18.289062 476.613281 19.183594 C 475.796875 20.078125 475.03125 21.011719 474.316406 21.984375 C 473.601562 22.960938 472.9375 23.96875 472.324219 25.011719 C 471.714844 26.054688 471.160156 27.128906 470.660156 28.230469 C 470.160156 29.332031 469.71875 30.453125 469.335938 31.601562 C 468.953125 32.75 468.632812 33.914062 468.371094 35.09375 C 468.109375 36.273438 467.910156 37.464844 467.773438 38.667969 C 467.636719 39.867188 467.5625 41.074219 467.550781 42.28125 C 467.539062 43.492188 467.589844 44.699219 467.707031 45.902344 C 467.820312 47.105469 467.996094 48.300781 468.234375 49.484375 C 468.472656 50.671875 468.773438 51.839844 469.132812 52.996094 C 469.492188 54.148438 469.914062 55.28125 470.390625 56.390625 C 470.871094 57.503906 471.40625 58.585938 471.996094 59.640625 C 472.589844 60.695312 473.234375 61.714844 473.929688 62.703125 C 474.628906 63.691406 475.375 64.640625 476.171875 65.550781 C 476.96875 66.460938 477.808594 67.324219 478.695312 68.148438 C 479.582031 68.96875 480.511719 69.742188 481.476562 70.46875 L 481.476562 98.503906 L 460.585938 98.503906 C 460.128906 98.503906 459.675781 98.550781 459.226562 98.640625 C 458.777344 98.726562 458.34375 98.859375 457.921875 99.035156 C 457.5 99.210938 457.097656 99.425781 456.71875 99.679688 C 456.335938 99.933594 455.984375 100.222656 455.660156 100.546875 C 455.339844 100.867188 455.050781 101.21875 454.796875 101.601562 C 454.542969 101.980469 454.328125 102.382812 454.152344 102.804688 C 453.976562 103.226562 453.84375 103.664062 453.753906 104.109375 C 453.667969 104.558594 453.621094 105.011719 453.621094 105.46875 L 453.621094 140.289062 C 453.621094 140.746094 453.667969 141.199219 453.753906 141.648438 C 453.84375 142.097656 453.976562 142.53125 454.152344 142.953125 C 454.328125 143.375 454.542969 143.777344 454.796875 144.15625 C 455.050781 144.539062 455.339844 144.890625 455.660156 145.214844 C 455.984375 145.535156 456.335938 145.824219 456.71875 146.078125 C 457.097656 146.332031 457.5 146.546875 457.921875 146.722656 C 458.34375 146.898438 458.777344 147.03125 459.226562 147.121094 C 459.675781 147.207031 460.128906 147.253906 460.585938 147.253906 L 474.515625 147.253906 L 474.515625 335.28125 L 460.585938 335.28125 C 460.128906 335.28125 459.675781 335.324219 459.226562 335.414062 C 458.777344 335.503906 458.34375 335.636719 457.921875 335.808594 C 457.5 335.984375 457.097656 336.199219 456.71875 336.453125 C 456.335938 336.707031 455.984375 336.996094 455.660156 337.320312 C 455.339844 337.644531 455.050781 337.996094 454.796875 338.375 C 454.542969 338.753906 454.328125 339.15625 454.152344 339.578125 C 453.976562 340 453.84375 340.4375 453.753906 340.886719 C 453.667969 341.332031 453.621094 341.785156 453.621094 342.242188 L 453.621094 377.0625 C 453.621094 377.519531 453.667969 377.972656 453.753906 378.421875 C 453.84375 378.871094 453.976562 379.304688 454.152344 379.730469 C 454.328125 380.152344 454.542969 380.550781 454.796875 380.933594 C 455.050781 381.3125 455.339844 381.664062 455.660156 381.988281 C 455.984375 382.3125 456.335938 382.601562 456.71875 382.855469 C 457.097656 383.109375 457.5 383.324219 457.921875 383.496094 C 458.34375 383.671875 458.777344 383.804688 459.226562 383.894531 C 459.675781 383.984375 460.128906 384.027344 460.585938 384.027344 L 892.351562 384.027344 C 892.808594 384.027344 893.261719 383.984375 893.710938 383.894531 C 894.15625 383.804688 894.59375 383.671875 895.015625 383.496094 C 895.4375 383.324219 895.839844 383.109375 896.21875 382.855469 C 896.601562 382.601562 896.953125 382.3125 897.273438 381.988281 C 897.597656 381.664062 897.886719 381.3125 898.140625 380.933594 C 898.394531 380.550781 898.609375 380.152344 898.785156 379.730469 C 898.960938 379.304688 899.09375 378.871094 899.179688 378.421875 C 899.269531 377.972656 899.316406 377.519531 899.316406 377.0625 L 899.316406 342.242188 C 899.316406 341.785156 899.269531 341.332031 899.179688 340.886719 C 899.09375 340.4375 898.960938 340 898.785156 339.578125 C 898.609375 339.15625 898.394531 338.753906 898.140625 338.375 C 897.886719 337.996094 897.597656 337.644531 897.273438 337.320312 C 896.953125 336.996094 896.601562 336.707031 896.21875 336.453125 C 895.839844 336.199219 895.4375 335.984375 895.015625 335.808594 C 894.59375 335.636719 894.15625 335.503906 893.710938 335.414062 C 893.261719 335.324219 892.808594 335.28125 892.351562 335.28125 L 878.421875 335.28125 L 878.421875 147.253906 Z M 850.566406 21.902344 C 851.25 21.902344 851.933594 21.933594 852.613281 22.003906 C 853.296875 22.070312 853.972656 22.167969 854.644531 22.304688 C 855.3125 22.4375 855.976562 22.601562 856.632812 22.800781 C 857.285156 23 857.929688 23.230469 858.5625 23.492188 C 859.195312 23.753906 859.8125 24.046875 860.414062 24.367188 C 861.019531 24.691406 861.605469 25.042969 862.175781 25.421875 C 862.742188 25.804688 863.292969 26.210938 863.820312 26.644531 C 864.351562 27.078125 864.855469 27.535156 865.339844 28.019531 C 865.824219 28.503906 866.28125 29.011719 866.71875 29.539062 C 867.152344 30.070312 867.558594 30.617188 867.9375 31.1875 C 868.320312 31.753906 868.667969 32.34375 868.992188 32.945312 C 869.316406 33.546875 869.605469 34.167969 869.867188 34.796875 C 870.128906 35.429688 870.359375 36.074219 870.558594 36.730469 C 870.757812 37.382812 870.925781 38.046875 871.058594 38.71875 C 871.191406 39.390625 871.292969 40.066406 871.359375 40.746094 C 871.425781 41.425781 871.460938 42.109375 871.460938 42.792969 C 871.460938 43.476562 871.425781 44.160156 871.359375 44.839844 C 871.292969 45.523438 871.191406 46.199219 871.058594 46.871094 C 870.925781 47.539062 870.757812 48.203125 870.558594 48.859375 C 870.359375 49.511719 870.128906 50.15625 869.867188 50.789062 C 869.605469 51.421875 869.316406 52.039062 868.992188 52.640625 C 868.667969 53.246094 868.320312 53.832031 867.9375 54.402344 C 867.558594 54.96875 867.152344 55.519531 866.71875 56.046875 C 866.28125 56.578125 865.824219 57.082031 865.339844 57.566406 C 864.855469 58.050781 864.351562 58.507812 863.820312 58.941406 C 863.292969 59.378906 862.742188 59.785156 862.175781 60.164062 C 861.605469 60.542969 861.019531 60.894531 860.414062 61.21875 C 859.8125 61.542969 859.195312 61.832031 858.5625 62.09375 C 857.929688 62.355469 857.285156 62.585938 856.632812 62.785156 C 855.976562 62.984375 855.3125 63.152344 854.644531 63.285156 C 853.972656 63.417969 853.296875 63.519531 852.613281 63.585938 C 851.933594 63.652344 851.25 63.6875 850.566406 63.6875 C 849.882812 63.6875 849.199219 63.652344 848.519531 63.585938 C 847.839844 63.519531 847.164062 63.417969 846.492188 63.285156 C 845.820312 63.152344 845.15625 62.984375 844.503906 62.785156 C 843.847656 62.585938 843.203125 62.355469 842.574219 62.09375 C 841.941406 61.832031 841.324219 61.542969 840.71875 61.21875 C 840.117188 60.894531 839.53125 60.542969 838.960938 60.164062 C 838.390625 59.785156 837.84375 59.378906 837.3125 58.941406 C 836.785156 58.507812 836.277344 58.050781 835.792969 57.566406 C 835.3125 57.082031 834.851562 56.578125 834.417969 56.046875 C 833.984375 55.519531 833.578125 54.96875 833.195312 54.402344 C 832.816406 53.832031 832.464844 53.246094 832.140625 52.640625 C 831.820312 52.039062 831.527344 51.421875 831.265625 50.789062 C 831.003906 50.15625 830.773438 49.511719 830.574219 48.859375 C 830.375 48.203125 830.210938 47.539062 830.078125 46.871094 C 829.945312 46.199219 829.84375 45.523438 829.777344 44.839844 C 829.710938 44.160156 829.675781 43.476562 829.675781 42.792969 C 829.675781 42.109375 829.710938 41.425781 829.777344 40.746094 C 829.84375 40.066406 829.945312 39.390625 830.078125 38.71875 C 830.210938 38.046875 830.375 37.382812 830.574219 36.730469 C 830.773438 36.074219 831.003906 35.429688 831.265625 34.796875 C 831.527344 34.167969 831.820312 33.546875 832.140625 32.945312 C 832.464844 32.34375 832.816406 31.753906 833.195312 31.1875 C 833.578125 30.617188 833.984375 30.070312 834.417969 29.539062 C 834.851562 29.011719 835.3125 28.503906 835.792969 28.019531 C 836.277344 27.535156 836.785156 27.078125 837.3125 26.644531 C 837.84375 26.210938 838.390625 25.804688 838.960938 25.421875 C 839.53125 25.042969 840.117188 24.691406 840.71875 24.367188 C 841.324219 24.046875 841.941406 23.753906 842.574219 23.492188 C 843.203125 23.230469 843.847656 23 844.503906 22.800781 C 845.15625 22.601562 845.820312 22.4375 846.492188 22.304688 C 847.164062 22.167969 847.839844 22.070312 848.519531 22.003906 C 849.199219 21.933594 849.882812 21.902344 850.566406 21.902344 Z M 843.601562 76.917969 C 848.246094 77.863281 852.890625 77.863281 857.53125 76.917969 L 857.53125 98.503906 L 843.601562 98.503906 Z M 815.746094 112.433594 L 885.386719 112.433594 L 885.386719 133.324219 L 815.746094 133.324219 Z M 808.785156 335.28125 C 808.328125 335.28125 807.875 335.324219 807.425781 335.414062 C 806.976562 335.503906 806.542969 335.636719 806.117188 335.808594 C 805.695312 335.984375 805.292969 336.199219 804.914062 336.453125 C 804.535156 336.707031 804.183594 336.996094 803.859375 337.320312 C 803.535156 337.644531 803.246094 337.996094 802.992188 338.375 C 802.738281 338.753906 802.523438 339.15625 802.351562 339.578125 C 802.175781 340 802.042969 340.4375 801.953125 340.886719 C 801.863281 341.332031 801.820312 341.785156 801.820312 342.242188 L 801.820312 370.101562 L 551.117188 370.101562 L 551.117188 342.242188 C 551.117188 341.785156 551.074219 341.332031 550.984375 340.886719 C 550.894531 340.4375 550.761719 340 550.585938 339.578125 C 550.414062 339.15625 550.199219 338.753906 549.945312 338.375 C 549.691406 337.996094 549.402344 337.644531 549.078125 337.320312 C 548.753906 336.996094 548.402344 336.707031 548.023438 336.453125 C 547.640625 336.199219 547.242188 335.984375 546.816406 335.808594 C 546.394531 335.636719 545.960938 335.503906 545.511719 335.414062 C 545.0625 335.324219 544.609375 335.28125 544.152344 335.28125 L 536.492188 335.28125 L 603.519531 237.785156 L 749.410156 237.785156 L 816.445312 335.28125 Z M 822.710938 319.820312 L 758.808594 226.878906 C 758.160156 225.933594 757.328125 225.195312 756.316406 224.660156 C 755.300781 224.125 754.21875 223.855469 753.070312 223.855469 L 599.863281 223.855469 C 598.71875 223.855469 597.636719 224.125 596.621094 224.660156 C 595.609375 225.195312 594.777344 225.933594 594.125 226.878906 L 530.226562 319.820312 L 530.226562 178.25 C 553.570312 187.191406 577.527344 193.945312 602.105469 198.507812 C 626.683594 203.074219 651.472656 205.371094 676.46875 205.410156 C 701.464844 205.371094 726.253906 203.074219 750.832031 198.507812 C 775.40625 193.945312 799.367188 187.191406 822.710938 178.25 Z M 676.46875 142.460938 C 697.738281 142.457031 718.882812 140.816406 739.902344 137.539062 C 760.917969 134.261719 781.558594 129.386719 801.820312 122.914062 L 801.820312 140.289062 C 801.820312 140.746094 801.863281 141.199219 801.953125 141.648438 C 802.042969 142.097656 802.175781 142.53125 802.351562 142.953125 C 802.523438 143.375 802.738281 143.777344 802.992188 144.15625 C 803.246094 144.539062 803.535156 144.890625 803.859375 145.214844 C 804.183594 145.535156 804.535156 145.824219 804.914062 146.078125 C 805.292969 146.332031 805.695312 146.546875 806.117188 146.722656 C 806.542969 146.898438 806.976562 147.03125 807.425781 147.121094 C 807.875 147.207031 808.328125 147.253906 808.785156 147.253906 L 822.710938 147.253906 L 822.710938 163.347656 C 816.910156 165.65625 811.058594 167.828125 805.15625 169.863281 C 799.253906 171.894531 793.308594 173.789062 787.316406 175.539062 C 781.324219 177.289062 775.292969 178.898438 769.222656 180.363281 C 763.15625 181.828125 757.054688 183.148438 750.921875 184.328125 C 744.792969 185.503906 738.636719 186.535156 732.457031 187.417969 C 726.277344 188.300781 720.078125 189.039062 713.863281 189.632812 C 707.648438 190.222656 701.421875 190.664062 695.1875 190.960938 C 688.949219 191.257812 682.710938 191.40625 676.46875 191.40625 C 670.226562 191.40625 663.984375 191.257812 657.75 190.960938 C 651.511719 190.664062 645.289062 190.222656 639.074219 189.632812 C 632.859375 189.039062 626.660156 188.300781 620.480469 187.417969 C 614.300781 186.535156 608.144531 185.503906 602.011719 184.328125 C 595.882812 183.148438 589.78125 181.828125 583.714844 180.363281 C 577.644531 178.898438 571.613281 177.289062 565.621094 175.539062 C 559.628906 173.789062 553.683594 171.894531 547.777344 169.863281 C 541.875 167.828125 536.023438 165.65625 530.226562 163.347656 L 530.226562 147.253906 L 544.152344 147.253906 C 544.609375 147.253906 545.0625 147.207031 545.511719 147.121094 C 545.960938 147.03125 546.394531 146.898438 546.816406 146.722656 C 547.242188 146.546875 547.640625 146.332031 548.023438 146.078125 C 548.402344 145.824219 548.753906 145.535156 549.078125 145.214844 C 549.402344 144.890625 549.691406 144.539062 549.945312 144.15625 C 550.199219 143.777344 550.414062 143.375 550.585938 142.953125 C 550.761719 142.53125 550.894531 142.097656 550.984375 141.648438 C 551.074219 141.199219 551.117188 140.746094 551.117188 140.289062 L 551.117188 122.878906 C 571.378906 129.355469 592.019531 134.238281 613.035156 137.519531 C 634.050781 140.804688 655.195312 142.453125 676.46875 142.460938 Z M 502.371094 21.902344 C 503.054688 21.902344 503.738281 21.933594 504.417969 22.003906 C 505.097656 22.070312 505.773438 22.167969 506.445312 22.304688 C 507.117188 22.4375 507.78125 22.601562 508.433594 22.800781 C 509.089844 23 509.730469 23.230469 510.363281 23.492188 C 510.996094 23.753906 511.613281 24.046875 512.21875 24.367188 C 512.820312 24.691406 513.40625 25.042969 513.976562 25.421875 C 514.546875 25.804688 515.09375 26.210938 515.625 26.644531 C 516.152344 27.078125 516.660156 27.535156 517.140625 28.019531 C 517.625 28.503906 518.085938 29.011719 518.519531 29.539062 C 518.953125 30.070312 519.359375 30.617188 519.742188 31.1875 C 520.121094 31.753906 520.472656 32.34375 520.792969 32.945312 C 521.117188 33.546875 521.410156 34.167969 521.671875 34.796875 C 521.933594 35.429688 522.164062 36.074219 522.363281 36.730469 C 522.558594 37.382812 522.726562 38.046875 522.859375 38.71875 C 522.992188 39.390625 523.09375 40.066406 523.160156 40.746094 C 523.226562 41.425781 523.261719 42.109375 523.261719 42.792969 C 523.261719 43.476562 523.226562 44.160156 523.160156 44.839844 C 523.09375 45.523438 522.992188 46.199219 522.859375 46.871094 C 522.726562 47.539062 522.558594 48.203125 522.363281 48.859375 C 522.164062 49.511719 521.933594 50.15625 521.671875 50.789062 C 521.410156 51.421875 521.117188 52.039062 520.792969 52.640625 C 520.472656 53.246094 520.121094 53.832031 519.742188 54.402344 C 519.359375 54.96875 518.953125 55.519531 518.519531 56.046875 C 518.085938 56.578125 517.625 57.082031 517.140625 57.566406 C 516.660156 58.050781 516.152344 58.507812 515.625 58.941406 C 515.09375 59.378906 514.546875 59.785156 513.976562 60.164062 C 513.40625 60.542969 512.820312 60.894531 512.21875 61.21875 C 511.613281 61.542969 510.996094 61.832031 510.363281 62.09375 C 509.730469 62.355469 509.089844 62.585938 508.433594 62.785156 C 507.78125 62.984375 507.117188 63.152344 506.445312 63.285156 C 505.773438 63.417969 505.097656 63.519531 504.417969 63.585938 C 503.738281 63.652344 503.054688 63.6875 502.371094 63.6875 C 501.683594 63.6875 501.003906 63.652344 500.320312 63.585938 C 499.640625 63.519531 498.964844 63.417969 498.292969 63.285156 C 497.621094 63.152344 496.960938 62.984375 496.304688 62.785156 C 495.648438 62.585938 495.007812 62.355469 494.375 62.09375 C 493.742188 61.832031 493.125 61.542969 492.519531 61.21875 C 491.917969 60.894531 491.332031 60.542969 490.761719 60.164062 C 490.195312 59.785156 489.644531 59.378906 489.117188 58.941406 C 488.585938 58.507812 488.082031 58.050781 487.597656 57.566406 C 487.113281 57.082031 486.652344 56.578125 486.21875 56.046875 C 485.785156 55.519531 485.378906 54.96875 485 54.402344 C 484.617188 53.832031 484.265625 53.246094 483.945312 52.640625 C 483.621094 52.039062 483.328125 51.421875 483.066406 50.789062 C 482.804688 50.15625 482.574219 49.511719 482.378906 48.859375 C 482.179688 48.203125 482.011719 47.539062 481.878906 46.871094 C 481.746094 46.199219 481.644531 45.523438 481.578125 44.839844 C 481.511719 44.160156 481.476562 43.476562 481.476562 42.792969 C 481.476562 42.109375 481.511719 41.425781 481.578125 40.746094 C 481.644531 40.066406 481.746094 39.390625 481.878906 38.71875 C 482.011719 38.046875 482.179688 37.382812 482.378906 36.730469 C 482.574219 36.074219 482.804688 35.429688 483.066406 34.796875 C 483.328125 34.167969 483.621094 33.546875 483.945312 32.945312 C 484.265625 32.34375 484.617188 31.753906 485 31.1875 C 485.378906 30.617188 485.785156 30.070312 486.21875 29.539062 C 486.652344 29.011719 487.113281 28.503906 487.597656 28.019531 C 488.082031 27.535156 488.585938 27.078125 489.117188 26.644531 C 489.644531 26.210938 490.195312 25.804688 490.761719 25.421875 C 491.332031 25.042969 491.917969 24.691406 492.519531 24.367188 C 493.125 24.046875 493.742188 23.753906 494.375 23.492188 C 495.007812 23.230469 495.648438 23 496.304688 22.800781 C 496.960938 22.601562 497.621094 22.4375 498.292969 22.304688 C 498.964844 22.167969 499.640625 22.070312 500.320312 22.003906 C 501.003906 21.933594 501.683594 21.902344 502.371094 21.902344 Z M 495.40625 76.917969 C 500.046875 77.863281 504.691406 77.863281 509.332031 76.917969 L 509.332031 98.503906 L 495.40625 98.503906 Z M 467.550781 112.433594 L 537.1875 112.433594 L 537.1875 133.324219 L 467.550781 133.324219 Z M 488.441406 147.253906 L 516.296875 147.253906 L 516.296875 335.28125 L 488.441406 335.28125 Z M 467.550781 349.207031 L 537.1875 349.207031 L 537.1875 370.101562 L 467.550781 370.101562 Z M 885.386719 370.101562 L 815.746094 370.101562 L 815.746094 349.207031 L 885.386719 349.207031 Z M 864.496094 335.28125 L 836.640625 335.28125 L 836.640625 147.253906 L 864.496094 147.253906 Z M 864.496094 335.28125 " fill-opacity="1" fill-rule="nonzero"/></g></g></g></g></g></g></g></g></svg>