<svg xmlns="http://www.w3.org/2000/svg" xmlns:xlink="http://www.w3.org/1999/xlink" width="1200" zoomAndPan="magnify" viewBox="0 0 900 675.000002" height="900" preserveAspectRatio="xMidYMid meet" version="1.0"><path fill="#000000" d="M 637.492188 276.785156 L 637.492188 187.511719 C 637.492188 83.984375 553.265625 -0.242188 449.734375 -0.242188 C 346.203125 -0.242188 261.976562 83.984375 261.976562 187.511719 L 261.976562 276.789062 C 226.886719 287.140625 201.175781 319.609375 201.175781 358.007812 L 201.175781 589.007812 C 201.175781 635.714844 239.179688 673.722656 285.890625 673.722656 L 613.582031 673.722656 C 660.289062 673.722656 698.296875 635.714844 698.296875 589.007812 L 698.296875 358.007812 C 698.296875 319.601562 672.585938 287.136719 637.492188 276.785156 Z M 449.734375 42.113281 C 529.910156 42.113281 595.136719 107.335938 595.136719 187.511719 L 595.136719 273.296875 L 304.335938 273.296875 L 304.335938 187.511719 C 304.335938 107.335938 369.558594 42.113281 449.734375 42.113281 Z M 655.9375 589.003906 C 655.9375 612.355469 636.9375 631.359375 613.582031 631.359375 L 285.890625 631.359375 C 262.535156 631.359375 243.53125 612.355469 243.53125 589.003906 L 243.53125 358.003906 C 243.53125 338.757812 256.445312 322.5 274.054688 317.363281 L 625.410156 317.363281 C 643.019531 322.5 655.933594 338.757812 655.933594 358.003906 L 655.933594 589.003906 Z M 655.9375 589.003906 " fill-opacity="1" fill-rule="nonzero"/><path fill="#000000" d="M 493.882812 451.828125 C 493.882812 427.449219 474.117188 407.683594 449.734375 407.683594 C 425.355469 407.683594 405.589844 427.449219 405.589844 451.828125 C 405.589844 468.535156 414.871094 483.066406 428.558594 490.566406 L 428.558594 531.777344 C 428.558594 543.472656 438.039062 552.957031 449.734375 552.957031 C 461.429688 552.957031 470.914062 543.472656 470.914062 531.777344 L 470.914062 490.566406 C 484.601562 483.066406 493.882812 468.535156 493.882812 451.828125 Z M 493.882812 451.828125 " fill-opacity="1" fill-rule="nonzero"/></svg>