<svg xmlns="http://www.w3.org/2000/svg" xmlns:xlink="http://www.w3.org/1999/xlink" width="1200" zoomAndPan="magnify" viewBox="0 0 900 675.000002" height="900" preserveAspectRatio="xMidYMid meet" version="1.0"><path fill="#0d2740" d="M 425.15625 620.621094 L 497.59375 620.621094 L 497.59375 375.941406 L 425.15625 375.941406 Z M 562.910156 620.621094 L 635.347656 620.621094 L 635.347656 335.007812 L 562.910156 335.007812 Z M 149.628906 620.621094 L 222.066406 620.621094 L 222.066406 468.179688 L 149.628906 468.179688 Z M 287.382812 620.621094 L 359.820312 620.621094 L 359.820312 419.824219 L 287.382812 419.824219 Z M 287.382812 620.621094 " fill-opacity="1" fill-rule="evenodd"/><path fill="#0d2740" d="M 123.167969 337.941406 C 112.1875 344.386719 98.074219 340.695312 91.628906 329.714844 C 85.183594 318.734375 88.875 304.621094 99.855469 298.175781 L 222.066406 223.082031 L 308.136719 289.308594 L 505.339844 207.570312 L 486.546875 174.945312 L 615.105469 174.945312 L 550.808594 286.308594 L 528.933594 248.40625 L 291.488281 348.738281 L 211.351562 289.289062 Z M 123.167969 337.941406 " fill-opacity="1" fill-rule="nonzero"/><path fill="#0d2740" d="M 347.902344 175.503906 C 377.394531 65.546875 490.4375 0.261719 600.433594 29.753906 C 710.390625 59.199219 775.675781 172.242188 746.183594 282.25 C 734.363281 326.5 708.941406 363.511719 675.671875 390.070312 L 746.710938 513.152344 C 728.957031 523.390625 711.199219 533.660156 693.394531 543.898438 L 622.359375 420.816406 C 582.726562 436.425781 537.96875 439.890625 493.703125 428.050781 C 383.742188 398.558594 318.457031 285.515625 347.902344 175.503906 Z M 347.902344 175.503906 " fill-opacity="1" fill-rule="evenodd"/><path fill="#0d2740" d="M 757.460938 670.492188 L 824.324219 631.898438 C 830.03125 628.636719 832.042969 621.25 828.726562 615.546875 L 739.835938 461.566406 C 736.523438 455.863281 729.1875 453.902344 723.480469 457.183594 L 656.566406 495.824219 C 650.863281 499.089844 648.898438 506.476562 652.179688 512.179688 L 741.074219 666.15625 C 744.371094 671.84375 751.753906 673.804688 757.460938 670.492188 Z M 757.460938 670.492188 " fill-opacity="1" fill-rule="evenodd"/><path fill="#ffffff" d="M 396.929688 188.644531 C 419.121094 105.738281 504.367188 56.527344 587.308594 78.734375 C 670.214844 100.972656 719.425781 186.171875 697.21875 269.113281 C 675.03125 352.050781 589.78125 401.261719 506.84375 379.023438 C 423.933594 356.832031 374.675781 271.585938 396.929688 188.644531 Z M 396.929688 188.644531 " fill-opacity="1" fill-rule="evenodd"/><path fill="#0d2740" d="M 411.09375 304.160156 C 403.375 290.230469 397.820312 275.144531 394.640625 259.386719 L 486.136719 221.714844 L 467.308594 189.140625 L 595.914062 189.140625 L 531.621094 300.5 L 509.742188 262.601562 Z M 411.09375 304.160156 " fill-opacity="1" fill-rule="evenodd"/><path fill="#0d2740" d="M 654.785156 607.402344 C 662.074219 607.402344 667.957031 613.335938 667.957031 620.621094 C 667.957031 627.910156 662.074219 633.796875 654.785156 633.796875 L 130.191406 633.796875 C 122.953125 633.796875 117.019531 627.910156 117.019531 620.621094 C 117.019531 613.335938 122.953125 607.402344 130.191406 607.402344 Z M 654.785156 607.402344 " fill-opacity="1" fill-rule="nonzero"/></svg>