<svg xmlns="http://www.w3.org/2000/svg" xmlns:xlink="http://www.w3.org/1999/xlink" width="1200" zoomAndPan="magnify" viewBox="0 0 900 675.000002" height="900" preserveAspectRatio="xMidYMid meet" version="1.0"><defs><filter x="0%" y="0%" width="100%" height="100%" id="688c28fccc"><feColorMatrix values="0 0 0 0 1 0 0 0 0 1 0 0 0 0 1 0 0 0 1 0" color-interpolation-filters="sRGB"/></filter><clipPath id="337dbfbbe3"><path d="M 0.664062 119 L 899.332031 119 L 899.332031 557 L 0.664062 557 Z M 0.664062 119 " clip-rule="nonzero"/></clipPath><mask id="449401aee9"><g filter="url(#688c28fccc)"><rect x="-90" width="1080" fill="#000000" y="-67.5" height="810.000002" fill-opacity="0.8"/></g></mask><clipPath id="303ab0edc3"><path d="M 0.664062 0.105469 L 899.332031 0.105469 L 899.332031 437.695312 L 0.664062 437.695312 Z M 0.664062 0.105469 " clip-rule="nonzero"/></clipPath><clipPath id="f6d3d92001"><path d="M 0.664062 0.222656 L 402.773438 0.222656 L 402.773438 428.761719 L 0.664062 428.761719 Z M 0.664062 0.222656 " clip-rule="nonzero"/></clipPath><clipPath id="26e0f00471"><path d="M 481.808594 55 L 899.019531 55 L 899.019531 436 L 481.808594 436 Z M 481.808594 55 " clip-rule="nonzero"/></clipPath><clipPath id="dbb5d07b44"><path d="M 482 140 L 899.019531 140 L 899.019531 151 L 482 151 Z M 482 140 " clip-rule="nonzero"/></clipPath><clipPath id="07946d9f8e"><rect x="0" width="900" y="0" height="438"/></clipPath><clipPath id="458b04ade4"><rect x="0" width="900" y="0" height="438"/></clipPath></defs><g clip-path="url(#337dbfbbe3)"><g mask="url(#449401aee9)"><g transform="matrix(1, 0, 0, 1, 0.000000000000000111, 119)"><g clip-path="url(#458b04ade4)"><g clip-path="url(#303ab0edc3)"><g transform="matrix(1, 0, 0, 1, 0.000000000000000111, -0.000000000000028422)"><g clip-path="url(#07946d9f8e)"><g clip-path="url(#f6d3d92001)"><path fill="#0d2740" d="M 142.210938 404.640625 C 138.140625 401.328125 135.179688 397.53125 133.21875 393.519531 C 131.257812 389.507812 130.296875 385.277344 130.292969 381.042969 C 130.292969 380.480469 130.316406 379.917969 130.351562 379.355469 L 273.304688 247.109375 C 278.167969 242.617188 281.894531 237.410156 284.390625 231.828125 C 286.886719 226.246094 288.152344 220.289062 288.152344 214.335938 C 288.152344 208.375 286.886719 202.421875 284.390625 196.835938 C 281.894531 191.253906 278.167969 186.046875 273.304688 181.550781 L 130.351562 49.3125 C 130.316406 48.75 130.292969 48.1875 130.292969 47.625 C 130.296875 43.394531 131.257812 39.160156 133.21875 35.148438 C 135.179688 31.136719 138.140625 27.339844 142.210938 24.027344 C 149.667969 17.945312 159.40625 14.8125 169.214844 14.816406 C 174.542969 14.8125 179.859375 15.738281 184.773438 17.546875 C 189.6875 19.355469 194.195312 22.035156 197.988281 25.546875 L 378.214844 192.261719 C 381.6875 195.480469 384.214844 199.058594 385.886719 202.796875 C 387.558594 206.535156 388.375 210.433594 388.378906 214.335938 C 388.375 218.234375 387.5625 222.132812 385.886719 225.871094 C 384.214844 229.605469 381.691406 233.183594 378.214844 236.398438 L 197.988281 403.121094 C 194.195312 406.632812 189.691406 409.3125 184.777344 411.121094 C 179.863281 412.925781 174.542969 413.851562 169.214844 413.851562 C 159.40625 413.855469 149.664062 410.722656 142.210938 404.644531 Z M 83.171875 403.121094 C 79.378906 406.632812 74.875 409.3125 69.957031 411.121094 C 65.042969 412.925781 59.726562 413.851562 54.398438 413.851562 C 49.503906 413.851562 44.601562 413.074219 40.011719 411.527344 C 35.414062 409.984375 31.128906 407.683594 27.394531 404.644531 L 27.394531 404.640625 C 23.324219 401.328125 20.363281 397.53125 18.402344 393.519531 C 16.441406 389.507812 15.480469 385.277344 15.476562 381.042969 C 15.480469 377.15625 16.292969 373.261719 17.960938 369.527344 C 19.628906 365.792969 22.152344 362.214844 25.640625 358.980469 L 176.222656 219.6875 C 177.714844 218.3125 178.5625 216.367188 178.5625 214.335938 C 178.5625 212.300781 177.714844 210.355469 176.222656 208.980469 L 25.640625 69.683594 C 22.152344 66.453125 19.628906 62.875 17.957031 59.140625 C 16.292969 55.402344 15.480469 51.511719 15.476562 47.621094 C 15.480469 43.390625 16.441406 39.160156 18.402344 35.148438 C 20.363281 31.136719 23.324219 27.339844 27.394531 24.027344 C 34.851562 17.945312 44.589844 14.8125 54.398438 14.816406 C 59.726562 14.8125 65.042969 15.738281 69.957031 17.546875 C 74.871094 19.355469 79.378906 22.035156 83.171875 25.546875 L 263.394531 192.261719 C 266.875 195.480469 269.398438 199.058594 271.070312 202.796875 C 272.738281 206.535156 273.558594 210.433594 273.5625 214.335938 C 273.558594 218.234375 272.738281 222.132812 271.070312 225.871094 C 269.398438 229.605469 266.875 233.183594 263.394531 236.398438 Z M 189.808594 424.816406 C 196.398438 422.394531 202.59375 418.742188 207.898438 413.832031 L 388.125 247.109375 C 392.984375 242.617188 396.710938 237.410156 399.207031 231.828125 C 401.707031 226.246094 402.972656 220.289062 402.972656 214.335938 C 402.972656 208.375 401.707031 202.421875 399.207031 196.835938 C 396.710938 191.253906 392.984375 186.046875 388.125 181.550781 L 207.898438 14.835938 C 202.589844 9.925781 196.398438 6.273438 189.808594 3.851562 C 183.214844 1.429688 176.21875 0.222656 169.214844 0.222656 C 156.355469 0.230469 143.378906 4.28125 133.003906 12.707031 C 127.367188 17.289062 123.023438 22.769531 120.109375 28.738281 C 118.800781 31.417969 117.796875 34.191406 117.066406 37.019531 L 93.082031 14.835938 C 87.777344 9.925781 81.582031 6.273438 74.992188 3.851562 C 68.398438 1.429688 61.402344 0.222656 54.398438 0.222656 C 41.539062 0.230469 28.5625 4.28125 18.1875 12.707031 C 12.550781 17.289062 8.207031 22.769531 5.292969 28.738281 C 2.371094 34.707031 0.882812 41.160156 0.886719 47.621094 C 0.882812 53.5625 2.140625 59.507812 4.636719 65.09375 C 7.128906 70.671875 10.855469 75.886719 15.730469 80.390625 L 54.40625 116.175781 L 160.523438 214.335938 L 54.40625 312.496094 L 15.730469 348.273438 C 10.855469 352.78125 7.128906 357.992188 4.636719 363.574219 C 2.140625 369.15625 0.882812 375.105469 0.886719 381.042969 C 0.882812 387.503906 2.371094 393.957031 5.289062 399.929688 C 8.207031 405.898438 12.550781 411.378906 18.1875 415.960938 C 28.5625 424.390625 41.542969 428.4375 54.398438 428.441406 C 61.402344 428.441406 68.398438 427.238281 74.992188 424.816406 C 81.582031 422.394531 87.777344 418.742188 93.082031 413.832031 L 117.066406 391.644531 C 117.792969 394.472656 118.800781 397.25 120.109375 399.925781 C 123.023438 405.898438 127.367188 411.378906 133.003906 415.960938 C 143.378906 424.390625 156.359375 428.4375 169.214844 428.441406 C 176.21875 428.441406 183.214844 427.238281 189.808594 424.816406 " fill-opacity="1" fill-rule="nonzero"/></g><path fill="#0d2740" d="M 133.003906 415.960938 C 133.003906 415.960938 133.003906 415.960938 133.003906 415.957031 C 133.003906 415.957031 133.003906 415.957031 133 415.957031 L 133.003906 415.960938 " fill-opacity="1" fill-rule="nonzero"/><path fill="#0d2740" d="M 18.1875 415.960938 C 18.1875 415.960938 18.1875 415.960938 18.1875 415.957031 C 18.183594 415.957031 18.183594 415.957031 18.183594 415.957031 L 18.1875 415.960938 " fill-opacity="1" fill-rule="nonzero"/><g clip-path="url(#26e0f00471)"><path fill="#0d2740" d="M 859.886719 435.761719 L 521.207031 435.761719 C 519.917969 435.761719 518.636719 435.695312 517.355469 435.566406 C 516.074219 435.441406 514.804688 435.25 513.539062 434.996094 C 512.277344 434.746094 511.03125 434.433594 509.800781 434.058594 C 508.570312 433.683594 507.359375 433.25 506.171875 432.753906 C 504.980469 432.261719 503.820312 431.710938 502.6875 431.105469 C 501.550781 430.496094 500.449219 429.835938 499.378906 429.121094 C 498.308594 428.40625 497.277344 427.640625 496.28125 426.824219 C 495.289062 426.007812 494.335938 425.144531 493.425781 424.234375 C 492.515625 423.324219 491.652344 422.371094 490.835938 421.375 C 490.019531 420.378906 489.253906 419.347656 488.535156 418.277344 C 487.820312 417.207031 487.160156 416.105469 486.550781 414.972656 C 485.945312 413.835938 485.394531 412.675781 484.902344 411.488281 C 484.410156 410.296875 483.972656 409.085938 483.601562 407.855469 C 483.226562 406.625 482.910156 405.378906 482.660156 404.117188 C 482.40625 402.855469 482.21875 401.582031 482.089844 400.300781 C 481.960938 399.023438 481.898438 397.738281 481.894531 396.449219 L 481.894531 94.996094 C 481.898438 93.710938 481.960938 92.425781 482.089844 91.144531 C 482.21875 89.867188 482.40625 88.59375 482.660156 87.332031 C 482.910156 86.070312 483.226562 84.824219 483.601562 83.59375 C 483.976562 82.359375 484.410156 81.152344 484.902344 79.960938 C 485.394531 78.773438 485.945312 77.613281 486.554688 76.476562 C 487.160156 75.34375 487.820312 74.238281 488.535156 73.171875 C 489.253906 72.101562 490.019531 71.066406 490.835938 70.074219 C 491.652344 69.078125 492.515625 68.125 493.425781 67.214844 C 494.335938 66.304688 495.289062 65.441406 496.28125 64.625 C 497.277344 63.808594 498.308594 63.042969 499.378906 62.328125 C 500.449219 61.613281 501.550781 60.953125 502.6875 60.34375 C 503.820312 59.738281 504.980469 59.1875 506.171875 58.691406 C 507.359375 58.199219 508.570312 57.765625 509.800781 57.390625 C 511.03125 57.015625 512.277344 56.703125 513.539062 56.449219 C 514.804688 56.199219 516.074219 56.007812 517.355469 55.882812 C 518.636719 55.753906 519.917969 55.6875 521.207031 55.6875 L 859.886719 55.6875 C 861.171875 55.6875 862.457031 55.753906 863.738281 55.882812 C 865.015625 56.007812 866.289062 56.199219 867.550781 56.449219 C 868.8125 56.703125 870.058594 57.015625 871.289062 57.390625 C 872.523438 57.765625 873.730469 58.199219 874.921875 58.691406 C 876.109375 59.1875 877.269531 59.738281 878.40625 60.34375 C 879.539062 60.953125 880.644531 61.613281 881.710938 62.328125 C 882.78125 63.042969 883.816406 63.808594 884.808594 64.625 C 885.804688 65.441406 886.757812 66.304688 887.667969 67.214844 C 888.578125 68.125 889.441406 69.078125 890.257812 70.074219 C 891.074219 71.066406 891.839844 72.101562 892.554688 73.171875 C 893.269531 74.238281 893.929688 75.34375 894.539062 76.476562 C 895.144531 77.613281 895.695312 78.773438 896.191406 79.960938 C 896.683594 81.152344 897.117188 82.359375 897.492188 83.59375 C 897.867188 84.824219 898.179688 86.070312 898.433594 87.332031 C 898.683594 88.59375 898.875 89.867188 899 91.144531 C 899.128906 92.425781 899.195312 93.710938 899.195312 94.996094 L 899.195312 396.449219 C 899.207031 400.144531 898.703125 403.761719 897.675781 407.3125 C 896.652344 410.859375 895.148438 414.191406 893.164062 417.304688 C 891.632812 419.828125 889.796875 422.105469 887.65625 424.136719 C 884.171875 427.738281 880.117188 430.507812 875.492188 432.441406 C 870.527344 434.660156 865.324219 435.769531 859.886719 435.761719 Z M 521.207031 66.113281 C 520.261719 66.117188 519.316406 66.164062 518.375 66.257812 C 517.433594 66.351562 516.5 66.488281 515.574219 66.675781 C 514.648438 66.859375 513.730469 67.089844 512.824219 67.367188 C 511.921875 67.640625 511.03125 67.960938 510.160156 68.320312 C 509.285156 68.683594 508.429688 69.089844 507.597656 69.535156 C 506.765625 69.980469 505.953125 70.46875 505.167969 70.992188 C 504.382812 71.519531 503.625 72.082031 502.890625 72.679688 C 502.160156 73.28125 501.460938 73.914062 500.792969 74.585938 C 500.125 75.253906 499.488281 75.953125 498.890625 76.683594 C 498.289062 77.414062 497.726562 78.171875 497.203125 78.960938 C 496.675781 79.746094 496.191406 80.554688 495.742188 81.390625 C 495.296875 82.222656 494.894531 83.078125 494.53125 83.949219 C 494.167969 84.824219 493.847656 85.710938 493.574219 86.617188 C 493.300781 87.523438 493.070312 88.4375 492.882812 89.367188 C 492.699219 90.292969 492.558594 91.226562 492.464844 92.167969 C 492.371094 93.109375 492.324219 94.050781 492.324219 94.996094 L 492.324219 396.449219 C 492.324219 397.398438 492.371094 398.339844 492.464844 399.28125 C 492.558594 400.222656 492.699219 401.15625 492.882812 402.082031 C 493.070312 403.011719 493.300781 403.925781 493.574219 404.832031 C 493.847656 405.734375 494.167969 406.625 494.53125 407.5 C 494.894531 408.371094 495.296875 409.226562 495.742188 410.058594 C 496.191406 410.894531 496.675781 411.703125 497.203125 412.488281 C 497.726562 413.277344 498.289062 414.035156 498.890625 414.765625 C 499.488281 415.496094 500.125 416.195312 500.792969 416.863281 C 501.460938 417.535156 502.160156 418.167969 502.890625 418.765625 C 503.625 419.367188 504.382812 419.929688 505.167969 420.457031 C 505.953125 420.980469 506.765625 421.46875 507.597656 421.914062 C 508.429688 422.359375 509.285156 422.765625 510.160156 423.125 C 511.03125 423.488281 511.921875 423.808594 512.824219 424.082031 C 513.730469 424.359375 514.648438 424.589844 515.574219 424.773438 C 516.5 424.960938 517.433594 425.097656 518.375 425.191406 C 519.316406 425.285156 520.261719 425.332031 521.207031 425.335938 L 859.886719 425.335938 C 863.902344 425.34375 867.746094 424.523438 871.40625 422.867188 C 874.808594 421.429688 877.78125 419.375 880.324219 416.695312 C 881.886719 415.226562 883.222656 413.578125 884.335938 411.746094 C 885.796875 409.460938 886.902344 407.019531 887.65625 404.417969 C 888.410156 401.816406 888.78125 399.160156 888.769531 396.449219 L 888.769531 94.996094 C 888.765625 94.050781 888.71875 93.109375 888.625 92.167969 C 888.53125 91.226562 888.394531 90.292969 888.207031 89.367188 C 888.023438 88.4375 887.792969 87.523438 887.515625 86.617188 C 887.242188 85.710938 886.921875 84.824219 886.5625 83.949219 C 886.199219 83.078125 885.792969 82.222656 885.347656 81.390625 C 884.902344 80.554688 884.414062 79.746094 883.890625 78.960938 C 883.363281 78.171875 882.800781 77.414062 882.203125 76.683594 C 881.601562 75.953125 880.96875 75.253906 880.296875 74.585938 C 879.628906 73.914062 878.929688 73.28125 878.199219 72.679688 C 877.46875 72.082031 876.710938 71.519531 875.921875 70.992188 C 875.136719 70.46875 874.328125 69.980469 873.492188 69.535156 C 872.660156 69.089844 871.804688 68.683594 870.933594 68.320312 C 870.058594 67.960938 869.171875 67.640625 868.265625 67.367188 C 867.359375 67.089844 866.445312 66.859375 865.515625 66.675781 C 864.589844 66.488281 863.65625 66.351562 862.714844 66.257812 C 861.773438 66.164062 860.832031 66.117188 859.886719 66.113281 Z M 521.207031 66.113281 " fill-opacity="1" fill-rule="nonzero"/></g><g clip-path="url(#dbb5d07b44)"><path fill="#0d2740" d="M 894.015625 150.75 L 487.230469 150.75 C 486.886719 150.75 486.550781 150.714844 486.214844 150.648438 C 485.878906 150.582031 485.550781 150.484375 485.234375 150.351562 C 484.917969 150.222656 484.617188 150.0625 484.335938 149.871094 C 484.050781 149.679688 483.785156 149.464844 483.542969 149.222656 C 483.300781 148.980469 483.085938 148.714844 482.894531 148.433594 C 482.707031 148.148438 482.546875 147.847656 482.414062 147.53125 C 482.28125 147.214844 482.183594 146.886719 482.117188 146.550781 C 482.050781 146.21875 482.015625 145.878906 482.015625 145.535156 C 482.015625 145.191406 482.050781 144.855469 482.117188 144.519531 C 482.183594 144.183594 482.28125 143.855469 482.414062 143.539062 C 482.546875 143.222656 482.707031 142.921875 482.894531 142.640625 C 483.085938 142.355469 483.300781 142.089844 483.542969 141.847656 C 483.785156 141.605469 484.050781 141.390625 484.335938 141.199219 C 484.617188 141.011719 484.917969 140.851562 485.234375 140.71875 C 485.550781 140.585938 485.878906 140.488281 486.214844 140.421875 C 486.550781 140.355469 486.886719 140.320312 487.230469 140.320312 L 894.015625 140.320312 C 894.359375 140.320312 894.699219 140.355469 895.035156 140.421875 C 895.371094 140.488281 895.695312 140.585938 896.011719 140.71875 C 896.328125 140.851562 896.628906 141.011719 896.914062 141.199219 C 897.199219 141.390625 897.460938 141.605469 897.703125 141.847656 C 897.945312 142.089844 898.160156 142.355469 898.351562 142.640625 C 898.542969 142.921875 898.703125 143.222656 898.832031 143.539062 C 898.964844 143.855469 899.0625 144.183594 899.128906 144.519531 C 899.195312 144.855469 899.230469 145.191406 899.230469 145.535156 C 899.230469 145.878906 899.195312 146.21875 899.128906 146.550781 C 899.0625 146.886719 898.964844 147.214844 898.832031 147.53125 C 898.703125 147.847656 898.542969 148.148438 898.351562 148.433594 C 898.160156 148.714844 897.945312 148.980469 897.703125 149.222656 C 897.460938 149.464844 897.199219 149.679688 896.914062 149.871094 C 896.628906 150.0625 896.328125 150.222656 896.011719 150.351562 C 895.695312 150.484375 895.371094 150.582031 895.035156 150.648438 C 894.699219 150.714844 894.359375 150.75 894.015625 150.75 Z M 894.015625 150.75 " fill-opacity="1" fill-rule="nonzero"/></g><path fill="#0d2740" d="M 564.964844 113.488281 C 563.859375 113.484375 562.859375 113.160156 561.960938 112.515625 C 560.945312 111.777344 559.957031 111.011719 558.988281 110.21875 C 558.019531 109.421875 557.074219 108.597656 556.15625 107.746094 C 555.234375 106.898438 554.339844 106.019531 553.472656 105.117188 C 552.605469 104.210938 551.765625 103.285156 550.949219 102.332031 C 550.136719 101.378906 549.351562 100.402344 548.597656 99.402344 C 547.839844 98.402344 547.113281 97.382812 546.417969 96.339844 C 545.722656 95.296875 545.058594 94.234375 544.425781 93.15625 C 543.792969 92.074219 543.191406 90.972656 542.621094 89.859375 C 542.054688 88.742188 541.519531 87.609375 541.015625 86.460938 C 540.515625 85.3125 540.046875 84.152344 539.613281 82.976562 C 539.179688 81.800781 538.78125 80.613281 538.417969 79.414062 C 538.054688 78.214844 537.726562 77.003906 537.433594 75.785156 C 537.140625 74.566406 536.886719 73.339844 536.664062 72.109375 C 536.445312 70.875 536.261719 69.636719 536.113281 68.390625 C 535.964844 67.144531 535.855469 65.898438 535.78125 64.648438 C 535.707031 63.398438 535.671875 62.144531 535.671875 60.890625 C 535.671875 59.640625 535.707031 58.386719 535.78125 57.136719 C 535.855469 55.886719 535.964844 54.636719 536.113281 53.394531 C 536.261719 52.148438 536.445312 50.910156 536.664062 49.675781 C 536.886719 48.441406 537.140625 47.214844 537.433594 45.996094 C 537.726562 44.78125 538.054688 43.570312 538.417969 42.371094 C 538.78125 41.171875 539.179688 39.984375 539.613281 38.808594 C 540.046875 37.632812 540.515625 36.472656 541.015625 35.324219 C 541.519531 34.175781 542.054688 33.042969 542.621094 31.925781 C 543.191406 30.808594 543.792969 29.710938 544.425781 28.628906 C 545.058594 27.546875 545.722656 26.484375 546.417969 25.445312 C 547.113281 24.402344 547.839844 23.382812 548.597656 22.382812 C 549.351562 21.382812 550.136719 20.40625 550.949219 19.453125 C 551.765625 18.5 552.605469 17.570312 553.472656 16.667969 C 554.339844 15.765625 555.234375 14.886719 556.15625 14.035156 C 557.074219 13.183594 558.019531 12.363281 558.988281 11.566406 C 559.957031 10.769531 560.945312 10.003906 561.960938 9.269531 C 562.238281 9.074219 562.53125 8.910156 562.839844 8.773438 C 563.148438 8.640625 563.46875 8.535156 563.796875 8.460938 C 564.125 8.386719 564.460938 8.34375 564.796875 8.335938 C 565.136719 8.328125 565.46875 8.351562 565.804688 8.40625 C 566.136719 8.464844 566.460938 8.550781 566.777344 8.671875 C 567.09375 8.789062 567.394531 8.9375 567.679688 9.117188 C 567.96875 9.292969 568.234375 9.496094 568.484375 9.726562 C 568.730469 9.957031 568.953125 10.207031 569.152344 10.480469 C 569.351562 10.753906 569.519531 11.042969 569.664062 11.347656 C 569.804688 11.65625 569.917969 11.972656 570 12.300781 C 570.078125 12.628906 570.128906 12.960938 570.144531 13.296875 C 570.160156 13.632812 570.144531 13.96875 570.09375 14.304688 C 570.046875 14.636719 569.964844 14.964844 569.851562 15.28125 C 569.742188 15.601562 569.597656 15.90625 569.425781 16.195312 C 569.257812 16.488281 569.058594 16.757812 568.832031 17.011719 C 568.609375 17.265625 568.363281 17.492188 568.09375 17.695312 C 567.246094 18.3125 566.417969 18.953125 565.605469 19.621094 C 564.796875 20.285156 564.007812 20.972656 563.238281 21.6875 C 562.46875 22.398438 561.71875 23.132812 560.992188 23.886719 C 560.265625 24.644531 559.5625 25.421875 558.882812 26.21875 C 558.199219 27.015625 557.542969 27.832031 556.910156 28.667969 C 556.277344 29.503906 555.671875 30.359375 555.089844 31.230469 C 554.507812 32.101562 553.949219 32.992188 553.421875 33.894531 C 552.890625 34.800781 552.386719 35.71875 551.910156 36.65625 C 551.4375 37.589844 550.988281 38.535156 550.566406 39.496094 C 550.148438 40.457031 549.757812 41.429688 549.394531 42.414062 C 549.03125 43.398438 548.695312 44.390625 548.394531 45.394531 C 548.089844 46.398438 547.8125 47.410156 547.570312 48.429688 C 547.324219 49.449219 547.109375 50.472656 546.925781 51.507812 C 546.742188 52.539062 546.585938 53.574219 546.464844 54.617188 C 546.339844 55.660156 546.25 56.703125 546.1875 57.75 C 546.125 58.796875 546.09375 59.84375 546.09375 60.890625 C 546.09375 61.941406 546.125 62.988281 546.1875 64.035156 C 546.25 65.082031 546.339844 66.125 546.464844 67.167969 C 546.585938 68.207031 546.742188 69.246094 546.925781 70.277344 C 547.109375 71.308594 547.324219 72.335938 547.570312 73.355469 C 547.8125 74.375 548.089844 75.386719 548.394531 76.390625 C 548.695312 77.394531 549.03125 78.386719 549.394531 79.371094 C 549.757812 80.355469 550.148438 81.324219 550.566406 82.285156 C 550.988281 83.246094 551.4375 84.195312 551.910156 85.128906 C 552.386719 86.0625 552.890625 86.984375 553.421875 87.886719 C 553.949219 88.792969 554.507812 89.679688 555.089844 90.554688 C 555.671875 91.425781 556.277344 92.277344 556.910156 93.113281 C 557.542969 93.953125 558.199219 94.769531 558.882812 95.566406 C 559.5625 96.363281 560.265625 97.140625 560.992188 97.894531 C 561.71875 98.652344 562.46875 99.386719 563.238281 100.097656 C 564.007812 100.808594 564.796875 101.5 565.605469 102.164062 C 566.417969 102.828125 567.246094 103.46875 568.09375 104.085938 C 568.539062 104.410156 568.921875 104.796875 569.242188 105.242188 C 569.5625 105.6875 569.808594 106.171875 569.976562 106.695312 C 570.144531 107.21875 570.226562 107.753906 570.226562 108.304688 C 570.226562 108.851562 570.140625 109.390625 569.96875 109.910156 C 569.796875 110.433594 569.550781 110.917969 569.230469 111.359375 C 568.90625 111.804688 568.519531 112.1875 568.078125 112.511719 C 567.632812 112.835938 567.148438 113.082031 566.625 113.25 C 566.105469 113.421875 565.566406 113.503906 565.019531 113.507812 Z M 564.964844 113.488281 " fill-opacity="1" fill-rule="nonzero"/><path fill="#0d2740" d="M 633.820312 113.488281 C 632.691406 113.496094 631.671875 113.167969 630.761719 112.5 C 629.75 111.761719 628.757812 110.996094 627.789062 110.203125 C 626.820312 109.40625 625.875 108.582031 624.953125 107.734375 C 624.03125 106.882812 623.136719 106.003906 622.269531 105.101562 C 621.398438 104.199219 620.558594 103.269531 619.742188 102.316406 C 618.929688 101.363281 618.144531 100.390625 617.386719 99.390625 C 616.632812 98.390625 615.90625 97.371094 615.207031 96.328125 C 614.511719 95.285156 613.847656 94.222656 613.210938 93.144531 C 612.578125 92.0625 611.976562 90.960938 611.40625 89.847656 C 610.839844 88.730469 610.300781 87.597656 609.800781 86.449219 C 609.296875 85.300781 608.828125 84.136719 608.394531 82.960938 C 607.960938 81.785156 607.5625 80.597656 607.199219 79.398438 C 606.835938 78.199219 606.507812 76.992188 606.214844 75.773438 C 605.921875 74.554688 605.664062 73.328125 605.445312 72.09375 C 605.222656 70.859375 605.039062 69.621094 604.890625 68.375 C 604.746094 67.128906 604.632812 65.882812 604.5625 64.632812 C 604.488281 63.378906 604.449219 62.128906 604.449219 60.875 C 604.449219 59.621094 604.488281 58.367188 604.5625 57.117188 C 604.632812 55.867188 604.746094 54.617188 604.890625 53.375 C 605.039062 52.128906 605.222656 50.890625 605.445312 49.65625 C 605.664062 48.421875 605.921875 47.195312 606.214844 45.976562 C 606.507812 44.757812 606.835938 43.550781 607.199219 42.351562 C 607.5625 41.148438 607.960938 39.960938 608.394531 38.785156 C 608.828125 37.609375 609.296875 36.449219 609.800781 35.300781 C 610.300781 34.152344 610.839844 33.019531 611.40625 31.902344 C 611.976562 30.785156 612.578125 29.6875 613.210938 28.605469 C 613.847656 27.523438 614.511719 26.464844 615.207031 25.421875 C 615.90625 24.378906 616.632812 23.359375 617.386719 22.359375 C 618.144531 21.359375 618.929688 20.382812 619.742188 19.429688 C 620.558594 18.476562 621.398438 17.550781 622.269531 16.648438 C 623.136719 15.742188 624.03125 14.867188 624.953125 14.015625 C 625.875 13.164062 626.820312 12.34375 627.789062 11.546875 C 628.757812 10.753906 629.75 9.988281 630.761719 9.25 C 631.039062 9.070312 631.332031 8.914062 631.640625 8.789062 C 631.945312 8.664062 632.261719 8.570312 632.585938 8.503906 C 632.914062 8.4375 633.242188 8.40625 633.570312 8.402344 C 633.902344 8.398438 634.230469 8.429688 634.558594 8.488281 C 634.882812 8.546875 635.203125 8.640625 635.511719 8.757812 C 635.820312 8.878906 636.113281 9.027344 636.394531 9.207031 C 636.675781 9.382812 636.9375 9.585938 637.179688 9.8125 C 637.421875 10.039062 637.636719 10.285156 637.832031 10.554688 C 638.027344 10.820312 638.195312 11.105469 638.335938 11.40625 C 638.476562 11.707031 638.585938 12.015625 638.667969 12.339844 C 638.75 12.660156 638.800781 12.988281 638.820312 13.316406 C 638.835938 13.648438 638.824219 13.976562 638.78125 14.308594 C 638.738281 14.636719 638.664062 14.957031 638.558594 15.273438 C 638.453125 15.585938 638.316406 15.886719 638.15625 16.175781 C 637.992188 16.464844 637.804688 16.734375 637.589844 16.988281 C 637.375 17.242188 637.136719 17.472656 636.878906 17.679688 C 636.03125 18.296875 635.203125 18.9375 634.390625 19.601562 C 633.582031 20.269531 632.792969 20.957031 632.023438 21.667969 C 631.253906 22.378906 630.503906 23.113281 629.777344 23.871094 C 629.050781 24.625 628.347656 25.402344 627.667969 26.199219 C 626.984375 27 626.328125 27.816406 625.695312 28.652344 C 625.0625 29.488281 624.457031 30.339844 623.875 31.214844 C 623.292969 32.085938 622.734375 32.972656 622.207031 33.878906 C 621.675781 34.785156 621.171875 35.703125 620.695312 36.636719 C 620.222656 37.570312 619.773438 38.519531 619.351562 39.480469 C 618.933594 40.441406 618.542969 41.414062 618.179688 42.394531 C 617.816406 43.378906 617.480469 44.375 617.179688 45.378906 C 616.875 46.378906 616.597656 47.390625 616.355469 48.410156 C 616.109375 49.429688 615.894531 50.457031 615.710938 51.488281 C 615.527344 52.523438 615.375 53.558594 615.25 54.601562 C 615.125 55.640625 615.035156 56.683594 614.972656 57.730469 C 614.910156 58.777344 614.878906 59.824219 614.878906 60.875 C 614.878906 61.921875 614.910156 62.96875 614.972656 64.015625 C 615.035156 65.0625 615.125 66.109375 615.25 67.148438 C 615.375 68.191406 615.527344 69.226562 615.710938 70.257812 C 615.894531 71.292969 616.109375 72.316406 616.355469 73.335938 C 616.597656 74.355469 616.875 75.367188 617.179688 76.371094 C 617.480469 77.375 617.816406 78.367188 618.179688 79.351562 C 618.542969 80.335938 618.933594 81.308594 619.351562 82.269531 C 619.773438 83.230469 620.222656 84.175781 620.695312 85.113281 C 621.171875 86.046875 621.675781 86.964844 622.207031 87.871094 C 622.734375 88.773438 623.292969 89.664062 623.875 90.535156 C 624.457031 91.40625 625.0625 92.261719 625.695312 93.097656 C 626.328125 93.933594 626.984375 94.75 627.667969 95.546875 C 628.347656 96.34375 629.050781 97.121094 629.777344 97.878906 C 630.503906 98.632812 631.253906 99.367188 632.023438 100.082031 C 632.792969 100.792969 633.582031 101.480469 634.390625 102.148438 C 635.203125 102.8125 636.03125 103.453125 636.878906 104.070312 C 637.324219 104.394531 637.703125 104.777344 638.027344 105.222656 C 638.347656 105.667969 638.589844 106.152344 638.761719 106.671875 C 638.929688 107.195312 639.011719 107.730469 639.011719 108.28125 C 639.011719 108.828125 638.925781 109.363281 638.757812 109.886719 C 638.589844 110.40625 638.34375 110.890625 638.019531 111.335938 C 637.699219 111.777344 637.316406 112.164062 636.871094 112.488281 C 636.429688 112.808594 635.949219 113.058594 635.425781 113.226562 C 634.90625 113.398438 634.371094 113.488281 633.820312 113.488281 Z M 633.820312 113.488281 " fill-opacity="1" fill-rule="nonzero"/><path fill="#0d2740" d="M 702.726562 113.488281 C 701.601562 113.488281 700.582031 113.160156 699.667969 112.5 C 698.65625 111.761719 697.664062 110.996094 696.695312 110.203125 C 695.726562 109.40625 694.78125 108.582031 693.859375 107.734375 C 692.941406 106.882812 692.042969 106.003906 691.175781 105.101562 C 690.308594 104.199219 689.464844 103.269531 688.652344 102.316406 C 687.835938 101.363281 687.050781 100.390625 686.292969 99.390625 C 685.539062 98.390625 684.8125 97.371094 684.113281 96.328125 C 683.417969 95.285156 682.753906 94.222656 682.121094 93.144531 C 681.484375 92.0625 680.882812 90.960938 680.316406 89.847656 C 679.746094 88.730469 679.210938 87.597656 678.707031 86.449219 C 678.203125 85.300781 677.738281 84.136719 677.300781 82.960938 C 676.867188 81.785156 676.46875 80.597656 676.105469 79.398438 C 675.742188 78.199219 675.414062 76.992188 675.121094 75.773438 C 674.828125 74.554688 674.570312 73.328125 674.351562 72.09375 C 674.128906 70.859375 673.945312 69.621094 673.800781 68.375 C 673.652344 67.128906 673.542969 65.882812 673.46875 64.632812 C 673.394531 63.378906 673.355469 62.128906 673.355469 60.875 C 673.355469 59.621094 673.394531 58.367188 673.46875 57.117188 C 673.542969 55.867188 673.652344 54.617188 673.800781 53.375 C 673.945312 52.128906 674.128906 50.890625 674.351562 49.65625 C 674.570312 48.421875 674.828125 47.195312 675.121094 45.976562 C 675.414062 44.757812 675.742188 43.550781 676.105469 42.351562 C 676.46875 41.148438 676.867188 39.960938 677.300781 38.785156 C 677.738281 37.609375 678.203125 36.449219 678.707031 35.300781 C 679.210938 34.152344 679.746094 33.019531 680.316406 31.902344 C 680.882812 30.785156 681.484375 29.6875 682.121094 28.605469 C 682.753906 27.523438 683.417969 26.464844 684.113281 25.421875 C 684.8125 24.378906 685.539062 23.359375 686.292969 22.359375 C 687.050781 21.359375 687.835938 20.382812 688.652344 19.429688 C 689.464844 18.476562 690.308594 17.550781 691.175781 16.648438 C 692.042969 15.742188 692.941406 14.867188 693.859375 14.015625 C 694.78125 13.164062 695.726562 12.34375 696.695312 11.546875 C 697.664062 10.753906 698.65625 9.988281 699.667969 9.25 C 699.945312 9.03125 700.238281 8.839844 700.554688 8.675781 C 700.867188 8.515625 701.195312 8.386719 701.535156 8.292969 C 701.875 8.199219 702.222656 8.136719 702.574219 8.113281 C 702.925781 8.089844 703.277344 8.101562 703.628906 8.148438 C 703.976562 8.195312 704.320312 8.273438 704.652344 8.390625 C 704.984375 8.507812 705.304688 8.65625 705.605469 8.835938 C 705.910156 9.019531 706.191406 9.226562 706.453125 9.464844 C 706.714844 9.703125 706.949219 9.964844 707.15625 10.253906 C 707.363281 10.539062 707.539062 10.839844 707.683594 11.164062 C 707.832031 11.484375 707.941406 11.816406 708.019531 12.164062 C 708.097656 12.507812 708.140625 12.855469 708.148438 13.207031 C 708.15625 13.5625 708.128906 13.910156 708.0625 14.257812 C 708 14.605469 707.902344 14.945312 707.769531 15.269531 C 707.636719 15.597656 707.472656 15.910156 707.277344 16.203125 C 707.082031 16.496094 706.855469 16.769531 706.605469 17.015625 C 706.355469 17.265625 706.082031 17.488281 705.785156 17.679688 C 704.9375 18.296875 704.109375 18.9375 703.300781 19.601562 C 702.488281 20.269531 701.699219 20.957031 700.929688 21.667969 C 700.160156 22.378906 699.410156 23.113281 698.683594 23.871094 C 697.957031 24.625 697.253906 25.402344 696.574219 26.199219 C 695.894531 27 695.238281 27.816406 694.605469 28.652344 C 693.972656 29.488281 693.363281 30.339844 692.78125 31.214844 C 692.199219 32.085938 691.644531 32.972656 691.113281 33.878906 C 690.582031 34.785156 690.078125 35.703125 689.605469 36.636719 C 689.128906 37.570312 688.679688 38.519531 688.261719 39.480469 C 687.839844 40.441406 687.449219 41.414062 687.085938 42.394531 C 686.722656 43.378906 686.390625 44.375 686.085938 45.378906 C 685.78125 46.378906 685.507812 47.390625 685.261719 48.410156 C 685.015625 49.429688 684.800781 50.457031 684.617188 51.488281 C 684.433594 52.523438 684.28125 53.558594 684.15625 54.601562 C 684.035156 55.640625 683.941406 56.683594 683.878906 57.730469 C 683.816406 58.777344 683.789062 59.824219 683.789062 60.875 C 683.789062 61.921875 683.816406 62.96875 683.878906 64.015625 C 683.941406 65.0625 684.035156 66.109375 684.15625 67.148438 C 684.28125 68.191406 684.433594 69.226562 684.617188 70.257812 C 684.800781 71.292969 685.015625 72.316406 685.261719 73.335938 C 685.507812 74.355469 685.78125 75.367188 686.085938 76.371094 C 686.390625 77.375 686.722656 78.367188 687.085938 79.351562 C 687.449219 80.335938 687.839844 81.308594 688.261719 82.269531 C 688.679688 83.230469 689.128906 84.175781 689.605469 85.113281 C 690.078125 86.046875 690.582031 86.964844 691.113281 87.871094 C 691.644531 88.773438 692.199219 89.664062 692.78125 90.535156 C 693.363281 91.40625 693.972656 92.261719 694.605469 93.097656 C 695.238281 93.933594 695.894531 94.75 696.574219 95.546875 C 697.253906 96.34375 697.957031 97.121094 698.683594 97.878906 C 699.410156 98.632812 700.160156 99.367188 700.929688 100.082031 C 701.699219 100.792969 702.488281 101.480469 703.300781 102.148438 C 704.109375 102.8125 704.9375 103.453125 705.785156 104.070312 C 706.230469 104.394531 706.613281 104.777344 706.933594 105.222656 C 707.253906 105.667969 707.5 106.152344 707.667969 106.671875 C 707.835938 107.195312 707.917969 107.730469 707.917969 108.28125 C 707.917969 108.828125 707.832031 109.363281 707.664062 109.886719 C 707.496094 110.40625 707.25 110.890625 706.925781 111.335938 C 706.605469 111.777344 706.222656 112.164062 705.78125 112.488281 C 705.335938 112.808594 704.855469 113.058594 704.332031 113.226562 C 703.8125 113.398438 703.277344 113.488281 702.726562 113.488281 Z M 702.726562 113.488281 " fill-opacity="1" fill-rule="nonzero"/><path fill="#0d2740" d="M 771.496094 113.488281 C 770.371094 113.488281 769.351562 113.160156 768.4375 112.5 C 767.421875 111.761719 766.433594 110.996094 765.460938 110.203125 C 764.492188 109.40625 763.546875 108.582031 762.628906 107.734375 C 761.707031 106.882812 760.8125 106.003906 759.945312 105.101562 C 759.074219 104.199219 758.234375 103.269531 757.417969 102.316406 C 756.605469 101.363281 755.820312 100.390625 755.0625 99.390625 C 754.304688 98.390625 753.578125 97.371094 752.882812 96.328125 C 752.1875 95.285156 751.519531 94.222656 750.886719 93.144531 C 750.253906 92.0625 749.652344 90.960938 749.082031 89.847656 C 748.511719 88.730469 747.976562 87.597656 747.476562 86.449219 C 746.972656 85.300781 746.503906 84.136719 746.070312 82.960938 C 745.636719 81.785156 745.238281 80.597656 744.875 79.398438 C 744.507812 78.199219 744.179688 76.992188 743.890625 75.773438 C 743.597656 74.554688 743.339844 73.328125 743.117188 72.09375 C 742.898438 70.859375 742.714844 69.621094 742.566406 68.375 C 742.421875 67.128906 742.308594 65.882812 742.234375 64.632812 C 742.160156 63.378906 742.125 62.128906 742.125 60.875 C 742.125 59.621094 742.160156 58.367188 742.234375 57.117188 C 742.308594 55.867188 742.421875 54.617188 742.566406 53.375 C 742.714844 52.128906 742.898438 50.890625 743.117188 49.65625 C 743.339844 48.421875 743.597656 47.195312 743.890625 45.976562 C 744.179688 44.757812 744.507812 43.550781 744.875 42.351562 C 745.238281 41.148438 745.636719 39.960938 746.070312 38.785156 C 746.503906 37.609375 746.972656 36.449219 747.476562 35.300781 C 747.976562 34.152344 748.511719 33.019531 749.082031 31.902344 C 749.652344 30.785156 750.253906 29.6875 750.886719 28.605469 C 751.519531 27.523438 752.1875 26.464844 752.882812 25.421875 C 753.578125 24.378906 754.304688 23.359375 755.0625 22.359375 C 755.820312 21.359375 756.605469 20.382812 757.417969 19.429688 C 758.234375 18.476562 759.074219 17.550781 759.945312 16.648438 C 760.8125 15.742188 761.707031 14.867188 762.628906 14.015625 C 763.546875 13.164062 764.492188 12.34375 765.460938 11.546875 C 766.433594 10.753906 767.421875 9.988281 768.4375 9.25 C 768.714844 9.058594 769.007812 8.894531 769.316406 8.757812 C 769.625 8.621094 769.945312 8.515625 770.273438 8.445312 C 770.605469 8.371094 770.9375 8.328125 771.273438 8.320312 C 771.613281 8.308594 771.949219 8.332031 772.28125 8.390625 C 772.613281 8.445312 772.9375 8.535156 773.253906 8.652344 C 773.570312 8.773438 773.871094 8.921875 774.160156 9.097656 C 774.445312 9.277344 774.710938 9.480469 774.960938 9.710938 C 775.207031 9.9375 775.429688 10.191406 775.628906 10.464844 C 775.828125 10.734375 776 11.027344 776.140625 11.332031 C 776.285156 11.636719 776.394531 11.953125 776.476562 12.28125 C 776.558594 12.609375 776.605469 12.941406 776.621094 13.28125 C 776.636719 13.617188 776.621094 13.953125 776.574219 14.285156 C 776.523438 14.621094 776.441406 14.945312 776.332031 15.265625 C 776.21875 15.582031 776.078125 15.886719 775.90625 16.179688 C 775.734375 16.46875 775.535156 16.742188 775.3125 16.996094 C 775.085938 17.246094 774.839844 17.476562 774.574219 17.679688 C 773.722656 18.296875 772.894531 18.9375 772.082031 19.601562 C 771.269531 20.265625 770.480469 20.953125 769.710938 21.664062 C 768.9375 22.378906 768.191406 23.109375 767.464844 23.867188 C 766.734375 24.621094 766.03125 25.398438 765.351562 26.195312 C 764.667969 26.992188 764.011719 27.808594 763.378906 28.644531 C 762.746094 29.480469 762.136719 30.335938 761.554688 31.207031 C 760.96875 32.078125 760.414062 32.96875 759.882812 33.871094 C 759.351562 34.777344 758.847656 35.695312 758.371094 36.632812 C 757.894531 37.566406 757.445312 38.511719 757.027344 39.472656 C 756.605469 40.433594 756.214844 41.40625 755.851562 42.390625 C 755.488281 43.375 755.152344 44.371094 754.847656 45.371094 C 754.542969 46.375 754.269531 47.386719 754.023438 48.410156 C 753.78125 49.429688 753.566406 50.453125 753.378906 51.488281 C 753.195312 52.519531 753.042969 53.554688 752.917969 54.597656 C 752.796875 55.640625 752.703125 56.683594 752.640625 57.730469 C 752.578125 58.777344 752.546875 59.824219 752.546875 60.875 C 752.546875 61.921875 752.578125 62.972656 752.640625 64.019531 C 752.703125 65.066406 752.796875 66.109375 752.917969 67.152344 C 753.042969 68.191406 753.195312 69.230469 753.378906 70.261719 C 753.566406 71.292969 753.78125 72.320312 754.023438 73.339844 C 754.269531 74.359375 754.542969 75.371094 754.847656 76.375 C 755.152344 77.378906 755.488281 78.375 755.851562 79.359375 C 756.214844 80.339844 756.605469 81.3125 757.027344 82.273438 C 757.445312 83.234375 757.894531 84.183594 758.371094 85.117188 C 758.847656 86.050781 759.351562 86.972656 759.882812 87.875 C 760.414062 88.78125 760.96875 89.667969 761.554688 90.539062 C 762.136719 91.414062 762.746094 92.265625 763.378906 93.101562 C 764.011719 93.9375 764.667969 94.753906 765.351562 95.554688 C 766.03125 96.351562 766.734375 97.125 767.464844 97.882812 C 768.191406 98.636719 768.9375 99.371094 769.710938 100.082031 C 770.480469 100.792969 771.269531 101.484375 772.082031 102.148438 C 772.894531 102.8125 773.722656 103.453125 774.574219 104.070312 C 775.015625 104.394531 775.398438 104.78125 775.71875 105.226562 C 776.039062 105.671875 776.285156 106.15625 776.453125 106.679688 C 776.621094 107.199219 776.707031 107.738281 776.703125 108.285156 C 776.703125 108.835938 776.617188 109.371094 776.445312 109.894531 C 776.277344 110.417969 776.03125 110.898438 775.707031 111.34375 C 775.382812 111.789062 775 112.171875 774.554688 112.492188 C 774.109375 112.816406 773.625 113.0625 773.105469 113.234375 C 772.582031 113.402344 772.046875 113.488281 771.496094 113.488281 Z M 771.496094 113.488281 " fill-opacity="1" fill-rule="nonzero"/><path fill="#0d2740" d="M 840.351562 113.488281 C 839.21875 113.492188 838.191406 113.164062 837.273438 112.5 C 836.261719 111.761719 835.269531 110.996094 834.300781 110.199219 C 833.335938 109.40625 832.390625 108.582031 831.46875 107.730469 C 830.550781 106.878906 829.65625 106 828.789062 105.097656 C 827.921875 104.195312 827.078125 103.265625 826.265625 102.3125 C 825.453125 101.359375 824.667969 100.382812 823.910156 99.382812 C 823.15625 98.386719 822.429688 97.363281 821.734375 96.320312 C 821.039062 95.28125 820.375 94.21875 819.742188 93.136719 C 819.105469 92.054688 818.507812 90.957031 817.9375 89.839844 C 817.367188 88.722656 816.832031 87.589844 816.332031 86.441406 C 815.828125 85.296875 815.363281 84.132812 814.929688 82.957031 C 814.496094 81.78125 814.097656 80.59375 813.734375 79.394531 C 813.367188 78.195312 813.042969 76.988281 812.75 75.769531 C 812.457031 74.550781 812.199219 73.324219 811.980469 72.089844 C 811.757812 70.855469 811.574219 69.617188 811.429688 68.375 C 811.28125 67.128906 811.171875 65.882812 811.097656 64.628906 C 811.023438 63.378906 810.988281 62.128906 810.988281 60.875 C 810.988281 59.621094 811.023438 58.371094 811.097656 57.117188 C 811.171875 55.867188 811.28125 54.621094 811.429688 53.375 C 811.574219 52.132812 811.757812 50.890625 811.980469 49.660156 C 812.199219 48.425781 812.457031 47.199219 812.75 45.980469 C 813.042969 44.761719 813.367188 43.554688 813.734375 42.355469 C 814.097656 41.15625 814.496094 39.96875 814.929688 38.792969 C 815.363281 37.617188 815.828125 36.453125 816.332031 35.304688 C 816.832031 34.15625 817.367188 33.023438 817.9375 31.910156 C 818.507812 30.792969 819.105469 29.691406 819.742188 28.613281 C 820.375 27.53125 821.039062 26.46875 821.734375 25.425781 C 822.429688 24.382812 823.15625 23.363281 823.910156 22.363281 C 824.667969 21.367188 825.453125 20.390625 826.265625 19.4375 C 827.078125 18.484375 827.921875 17.554688 828.789062 16.652344 C 829.65625 15.746094 830.550781 14.871094 831.46875 14.019531 C 832.390625 13.167969 833.335938 12.34375 834.300781 11.550781 C 835.269531 10.753906 836.261719 9.988281 837.273438 9.25 C 837.550781 9.046875 837.847656 8.871094 838.15625 8.726562 C 838.46875 8.578125 838.789062 8.464844 839.125 8.382812 C 839.457031 8.296875 839.796875 8.25 840.140625 8.234375 C 840.484375 8.214844 840.828125 8.234375 841.167969 8.285156 C 841.507812 8.335938 841.839844 8.421875 842.160156 8.539062 C 842.484375 8.652344 842.792969 8.800781 843.089844 8.976562 C 843.382812 9.15625 843.660156 9.359375 843.914062 9.59375 C 844.167969 9.824219 844.394531 10.078125 844.601562 10.355469 C 844.804688 10.632812 844.980469 10.925781 845.125 11.234375 C 845.273438 11.546875 845.386719 11.871094 845.46875 12.203125 C 845.554688 12.539062 845.601562 12.875 845.617188 13.21875 C 845.632812 13.5625 845.617188 13.90625 845.566406 14.246094 C 845.515625 14.585938 845.429688 14.917969 845.3125 15.242188 C 845.199219 15.566406 845.050781 15.875 844.871094 16.167969 C 844.695312 16.460938 844.492188 16.738281 844.257812 16.992188 C 844.027344 17.246094 843.773438 17.476562 843.496094 17.679688 C 842.648438 18.296875 841.820312 18.9375 841.007812 19.601562 C 840.199219 20.269531 839.410156 20.957031 838.640625 21.667969 C 837.871094 22.378906 837.121094 23.113281 836.394531 23.871094 C 835.667969 24.625 834.964844 25.402344 834.285156 26.199219 C 833.601562 27 832.945312 27.816406 832.3125 28.652344 C 831.679688 29.488281 831.074219 30.339844 830.492188 31.214844 C 829.910156 32.085938 829.351562 32.972656 828.824219 33.878906 C 828.292969 34.785156 827.789062 35.703125 827.3125 36.636719 C 826.835938 37.570312 826.390625 38.519531 825.96875 39.480469 C 825.550781 40.441406 825.160156 41.414062 824.796875 42.394531 C 824.433594 43.378906 824.097656 44.375 823.792969 45.378906 C 823.492188 46.378906 823.214844 47.390625 822.972656 48.410156 C 822.726562 49.429688 822.511719 50.457031 822.328125 51.488281 C 822.144531 52.523438 821.988281 53.558594 821.867188 54.601562 C 821.742188 55.640625 821.652344 56.683594 821.589844 57.730469 C 821.527344 58.777344 821.496094 59.824219 821.496094 60.875 C 821.496094 61.921875 821.527344 62.96875 821.589844 64.015625 C 821.652344 65.0625 821.742188 66.109375 821.867188 67.148438 C 821.988281 68.191406 822.144531 69.226562 822.328125 70.257812 C 822.511719 71.292969 822.726562 72.316406 822.972656 73.335938 C 823.214844 74.355469 823.492188 75.367188 823.792969 76.371094 C 824.097656 77.375 824.433594 78.367188 824.796875 79.351562 C 825.160156 80.335938 825.550781 81.308594 825.96875 82.269531 C 826.390625 83.230469 826.835938 84.175781 827.3125 85.113281 C 827.789062 86.046875 828.292969 86.964844 828.824219 87.871094 C 829.351562 88.773438 829.910156 89.664062 830.492188 90.535156 C 831.074219 91.40625 831.679688 92.261719 832.3125 93.097656 C 832.945312 93.933594 833.601562 94.75 834.285156 95.546875 C 834.964844 96.34375 835.667969 97.121094 836.394531 97.878906 C 837.121094 98.632812 837.871094 99.367188 838.640625 100.082031 C 839.410156 100.792969 840.199219 101.480469 841.007812 102.148438 C 841.820312 102.8125 842.648438 103.453125 843.496094 104.070312 C 843.9375 104.394531 844.320312 104.777344 844.640625 105.222656 C 844.964844 105.667969 845.207031 106.152344 845.378906 106.671875 C 845.546875 107.195312 845.628906 107.730469 845.628906 108.28125 C 845.628906 108.828125 845.542969 109.363281 845.375 109.886719 C 845.203125 110.40625 844.960938 110.890625 844.636719 111.335938 C 844.316406 111.777344 843.933594 112.164062 843.488281 112.488281 C 843.046875 112.808594 842.5625 113.058594 842.042969 113.226562 C 841.523438 113.398438 840.988281 113.488281 840.4375 113.488281 Z M 840.351562 113.488281 " fill-opacity="1" fill-rule="nonzero"/><path fill="#0d2740" d="M 663.886719 395.789062 C 663.167969 395.792969 662.480469 395.65625 661.820312 395.375 C 661.285156 395.144531 660.800781 394.835938 660.367188 394.441406 C 659.9375 394.050781 659.582031 393.601562 659.300781 393.089844 C 659.019531 392.582031 658.832031 392.039062 658.734375 391.464844 C 658.632812 390.890625 658.632812 390.316406 658.726562 389.742188 L 671.445312 311.382812 L 636.828125 317.8125 C 635.9375 317.964844 635.066406 317.894531 634.214844 317.605469 C 633.359375 317.316406 632.625 316.839844 632.015625 316.179688 C 631.402344 315.507812 630.996094 314.726562 630.789062 313.84375 C 630.585938 312.957031 630.613281 312.078125 630.867188 311.207031 L 660.410156 210.273438 C 660.554688 209.78125 660.765625 209.320312 661.042969 208.890625 C 661.324219 208.460938 661.660156 208.082031 662.050781 207.75 C 662.441406 207.417969 662.871094 207.152344 663.339844 206.949219 C 663.808594 206.742188 664.300781 206.613281 664.808594 206.550781 L 729.472656 198.785156 C 730.359375 198.664062 731.21875 198.773438 732.046875 199.101562 C 732.875 199.433594 733.570312 199.949219 734.132812 200.644531 C 734.695312 201.328125 735.058594 202.105469 735.226562 202.972656 C 735.390625 203.84375 735.339844 204.699219 735.070312 205.542969 L 711.417969 278.96875 L 745.148438 278.96875 C 745.636719 278.96875 746.117188 279.03125 746.585938 279.164062 C 747.054688 279.296875 747.496094 279.492188 747.914062 279.75 C 748.328125 280.003906 748.699219 280.3125 749.027344 280.675781 C 749.355469 281.035156 749.628906 281.433594 749.84375 281.871094 C 750.0625 282.308594 750.214844 282.765625 750.300781 283.246094 C 750.390625 283.726562 750.410156 284.210938 750.359375 284.695312 C 750.3125 285.179688 750.199219 285.648438 750.019531 286.105469 C 749.839844 286.558594 749.601562 286.976562 749.304688 287.363281 L 667.96875 393.773438 C 667.480469 394.40625 666.878906 394.898438 666.160156 395.253906 C 665.445312 395.605469 664.6875 395.785156 663.886719 395.789062 Z M 677.789062 299.652344 C 678.171875 299.644531 678.546875 299.683594 678.917969 299.757812 C 679.292969 299.835938 679.652344 299.953125 680 300.109375 C 680.34375 300.265625 680.671875 300.457031 680.976562 300.6875 C 681.28125 300.914062 681.558594 301.171875 681.804688 301.460938 C 682.054688 301.75 682.269531 302.058594 682.449219 302.394531 C 682.628906 302.730469 682.769531 303.082031 682.875 303.445312 C 682.976562 303.8125 683.039062 304.1875 683.0625 304.566406 C 683.082031 304.945312 683.0625 305.324219 683.003906 305.699219 L 672.386719 370.871094 L 734.617188 289.363281 L 704.257812 289.363281 C 703.847656 289.363281 703.441406 289.316406 703.039062 289.21875 C 702.640625 289.125 702.257812 288.984375 701.890625 288.796875 C 701.523438 288.613281 701.183594 288.386719 700.871094 288.121094 C 700.558594 287.851562 700.28125 287.554688 700.039062 287.222656 C 699.796875 286.890625 699.59375 286.535156 699.4375 286.152344 C 699.277344 285.773438 699.167969 285.382812 699.101562 284.976562 C 699.035156 284.570312 699.019531 284.160156 699.050781 283.753906 C 699.082031 283.34375 699.160156 282.941406 699.289062 282.550781 L 722.679688 210.0625 L 669.5 216.457031 L 643.328125 305.960938 L 676.902344 299.738281 C 677.21875 299.695312 677.539062 299.675781 677.859375 299.6875 Z M 677.789062 299.652344 " fill-opacity="1" fill-rule="nonzero"/></g></g></g></g></g></g></g></svg>