<svg xmlns="http://www.w3.org/2000/svg" width="1600" height="900" viewBox="0 0 1200 675"><path d="M926.129 0H273.87q-1.072 0-2.121.207a11 11 0 0 0-3.918 1.625 11 11 0 0 0-1.648 1.352 10.7 10.7 0 0 0-1.352 1.648 11 11 0 0 0-1.625 3.918 11 11 0 0 0-.207 2.121v391.356q0 1.071.207 2.12a11 11 0 0 0 1.625 3.919q.594.89 1.352 1.648a11 11 0 0 0 1.648 1.352 11 11 0 0 0 3.918 1.625q1.05.206 2.121.207h652.26q1.072 0 2.121-.207a11 11 0 0 0 3.918-1.625 11 11 0 0 0 1.648-1.352q.758-.757 1.352-1.648t1.004-1.88q.41-.99.621-2.038.206-1.05.207-2.121V10.87q0-1.073-.207-2.121a11 11 0 0 0-1.625-3.918 10.7 10.7 0 0 0-1.352-1.648 11 11 0 0 0-1.648-1.352A11 11 0 0 0 928.25.207 11 11 0 0 0 926.129 0M839.16 86.969a75.5 75.5 0 0 1-11.683-.918 75.6 75.6 0 0 1-22.254-7.153 75.4 75.4 0 0 1-10.035-6.062 97.4 97.4 0 0 0 11.785-18.285 54 54 0 0 0 5.71 3.695 58 58 0 0 0 3.02 1.574q1.535.737 3.11 1.38 1.58.639 3.19 1.179 1.617.543 3.263.98 1.641.44 3.312.774c1.113.222 2.23.414 3.356.566a54.6 54.6 0 0 0 10.187.418 55 55 0 0 0 3.395-.285 54 54 0 0 0 3.363-.5 57 57 0 0 0 3.332-.707 55 55 0 0 0 6.488-2.035 57 57 0 0 0 3.14-1.32 55 55 0 0 0 3.048-1.512 57 57 0 0 0 2.949-1.703 53 53 0 0 0 2.832-1.883 53 53 0 0 0 5.293-4.277 56 56 0 0 0 4.71-4.906 54 54 0 0 0 2.118-2.669q1.014-1.364 1.945-2.793a55 55 0 0 0 1.766-2.906 51 51 0 0 0 1.578-3.016q.745-1.53 1.39-3.105.643-1.576 1.192-3.187.544-1.619.988-3.258.44-1.645.782-3.313h21.96a76 76 0 0 1-1.269 6.66 74 74 0 0 1-1.855 6.524 76 76 0 0 1-2.426 6.332 75 75 0 0 1-2.985 6.09 74 74 0 0 1-3.511 5.8 75 75 0 0 1-4.016 5.465 76 76 0 0 1-14.723 13.961 76 76 0 0 1-5.668 3.723 78 78 0 0 1-5.98 3.2 75 75 0 0 1-6.238 2.651 75 75 0 0 1-6.453 2.09 75 75 0 0 1-6.61 1.508 76.4 76.4 0 0 1-13.496 1.223m21.742 195.676q0-1.066.211-2.122.207-1.048.617-2.039.412-.989 1.004-1.879.597-.888 1.352-1.648a11 11 0 0 1 1.648-1.352q.893-.592 1.88-1.003.99-.411 2.038-.618 1.054-.21 2.121-.21h43.485v21.742h-43.485q-1.066 0-2.12-.207a11 11 0 0 1-3.919-1.625 11 11 0 0 1-1.648-1.352 10.84 10.84 0 0 1-2.973-5.566q-.21-1.05-.21-2.121m-15.664 18.828A106 106 0 0 0 830 323.125a106 106 0 0 0-9.418 24.746h-46.644v-32.613q0-1.067-.211-2.121a11 11 0 0 0-.618-2.04 11 11 0 0 0-1.004-1.878 10.9 10.9 0 0 0-3-3 11 11 0 0 0-1.878-1.004q-.99-.411-2.04-.617a11 11 0 0 0-2.12-.211H436.933q-1.066 0-2.122.21-1.048.206-2.039.618c-.656.273-1.285.61-1.878 1.004a10.93 10.93 0 0 0-4.004 4.879 11 11 0 0 0-.829 4.16v32.613h-46.644A106 106 0 0 0 370 323.125a106 106 0 0 0-15.238-21.652 31.5 31.5 0 0 0 2.246-3.586 32 32 0 0 0 3.68-12.082q.204-2.11.132-4.23a32 32 0 0 0-.425-4.216 32.4 32.4 0 0 0-2.493-8.074 166 166 0 0 0 14.988-12.238 164 164 0 0 0 6.926-6.758 164 164 0 0 0 12.606-14.676 164 164 0 0 0 10.797-16.058q2.461-4.167 4.672-8.473a164 164 0 0 0 4.164-8.738 165 165 0 0 0 3.648-8.965 164 164 0 0 0 3.11-9.164q1.422-4.628 2.57-9.332 1.143-4.701 2.012-9.465a161 161 0 0 0 1.457-9.57q.585-4.803.89-9.637.304-4.83.32-9.672V92.164a97 97 0 0 0 12.516 7.129 97.2 97.2 0 0 0 27.477 8.363 97 97 0 0 0 14.363 1.055 97.8 97.8 0 0 0 20.504-2.262 98 98 0 0 0 19.578-6.5 123 123 0 0 0 4.129 3.547 122 122 0 0 0 8.719 6.508c1.504 1.016 3.027 2 4.578 2.945q2.32 1.426 4.703 2.739 2.387 1.312 4.824 2.515 2.443 1.206 4.938 2.293 2.491 1.092 5.035 2.067c1.691.652 3.402 1.261 5.125 1.832q2.578.86 5.203 1.597 2.617.739 5.27 1.356 2.648.621 5.328 1.113c1.78.332 3.574.621 5.37.871q2.698.369 5.407.621a120 120 0 0 0 10.871.496 120 120 0 0 0 10.871-.496c1.805-.168 3.61-.375 5.406-.621 1.797-.25 3.59-.539 5.371-.871q2.68-.493 5.329-1.113c1.77-.41 3.523-.864 5.27-1.356q2.618-.737 5.202-1.597 2.587-.855 5.125-1.832a115 115 0 0 0 5.035-2.067 115 115 0 0 0 4.938-2.293q2.438-1.201 4.824-2.516 2.384-1.313 4.703-2.738a117 117 0 0 0 9.012-6.101 123 123 0 0 0 4.285-3.352 123 123 0 0 0 4.129-3.547 98 98 0 0 0 19.578 6.5 97.8 97.8 0 0 0 20.504 2.262 97 97 0 0 0 14.363-1.055 97.2 97.2 0 0 0 27.477-8.363 97 97 0 0 0 12.516-7.129v44.375q.016 4.842.32 9.672.305 4.834.89 9.637a166 166 0 0 0 3.469 19.035 164 164 0 0 0 2.57 9.332q1.42 4.629 3.11 9.164a165 165 0 0 0 3.648 8.965 164 164 0 0 0 13.996 25.398 165 165 0 0 0 11.723 15.395 164 164 0 0 0 6.52 7.152 164 164 0 0 0 14.242 13.098 161 161 0 0 0 7.672 5.898 32.4 32.4 0 0 0-2.492 8.074 32 32 0 0 0-.426 4.215 32.3 32.3 0 0 0 .82 8.41 32 32 0 0 0 2.992 7.902 31.5 31.5 0 0 0 2.246 3.587m-462.843 68.14h435.21c0 1.184-.187 2.348-.187 3.535v18.207H382.582v-18.207c0-1.187-.152-2.351-.187-3.535m369.8-21.742h-304.39V326.13h304.39Zm-467.453-76.098h43.485q1.066 0 2.12.211 1.05.206 2.04.618a11 11 0 0 1 1.879 1.003q.888.597 1.648 1.352.755.76 1.352 1.648.592.89 1.004 1.88a11 11 0 0 1 .828 4.16q0 1.071-.211 2.12-.209 1.05-.617 2.04a10.8 10.8 0 0 1-2.356 3.527 10.9 10.9 0 0 1-5.566 2.977 11 11 0 0 1-2.121.207h-43.485Zm.867-250.03h21.961a54 54 0 0 0 1.77 6.57q.542 1.61 1.187 3.187a54 54 0 0 0 4.73 9.035 53 53 0 0 0 4.06 5.461q1.1 1.302 2.277 2.527a54 54 0 0 0 5.008 4.606 53 53 0 0 0 5.546 3.941 54 54 0 0 0 9.133 4.54 54 54 0 0 0 6.492 2.038q1.652.406 3.329.711 1.674.301 3.367.5a58 58 0 0 0 3.39.29q1.698.089 3.403.074a55 55 0 0 0 10.14-1.055 57 57 0 0 0 3.317-.77 55 55 0 0 0 6.453-2.16c1.05-.425 2.09-.886 3.11-1.379a54 54 0 0 0 5.937-3.328 53 53 0 0 0 2.797-1.937A97.5 97.5 0 0 0 404.8 72.89a76 76 0 0 1-10.035 6.046 75.4 75.4 0 0 1-10.848 4.422 75 75 0 0 1-11.398 2.7q-5.809.909-11.68.91a76.4 76.4 0 0 1-13.496-1.223 75 75 0 0 1-6.61-1.508 75 75 0 0 1-6.453-2.09 75 75 0 0 1-6.238-2.652 78 78 0 0 1-5.98-3.2 76 76 0 0 1-5.668-3.722 75.7 75.7 0 0 1-10.239-8.875 76 76 0 0 1-4.484-5.086 75 75 0 0 1-4.016-5.465 74 74 0 0 1-3.511-5.8 75 75 0 0 1-2.985-6.09 76 76 0 0 1-2.426-6.332 74 74 0 0 1-1.855-6.524 76 76 0 0 1-1.27-6.66M600 86.968a75 75 0 0 0 6.773-.313 76 76 0 0 0 6.72-.91 75 75 0 0 0 6.612-1.508 75 75 0 0 0 6.454-2.09q3.177-1.185 6.238-2.652a78 78 0 0 0 5.976-3.2 76.6 76.6 0 0 0 10.989-7.929 76.1 76.1 0 0 0 25.465-46.625h21.972a105 105 0 0 1-.61 4.41 98 98 0 0 1-.812 4.38 92 92 0 0 1-1.007 4.335 95 95 0 0 1-1.204 4.285 99 99 0 0 1-2.984 8.387 102 102 0 0 1-1.777 4.082 100 100 0 0 1-4.102 7.902 97 97 0 0 1-4.8 7.497 98 98 0 0 1-5.462 7.027 104 104 0 0 1-2.964 3.32 100 100 0 0 1-3.114 3.184 104 104 0 0 1-3.254 3.035 95 95 0 0 1-3.39 2.887 95 95 0 0 1-3.52 2.73 98 98 0 0 1-7.387 4.965 100 100 0 0 1-7.808 4.27 99 99 0 0 1-4.043 1.867 99 99 0 0 1-4.125 1.68 99 99 0 0 1-8.453 2.79q-2.144.596-4.313 1.1a97 97 0 0 1-8.754 1.61 99 99 0 0 1-4.425.507q-2.215.2-4.442.305-2.222.098-4.449.098t-4.45-.098q-2.226-.105-4.44-.305a99 99 0 0 1-4.426-.508 97 97 0 0 1-8.754-1.61 103 103 0 0 1-4.313-1.1 99 99 0 0 1-12.578-4.47 99 99 0 0 1-7.996-3.913 100 100 0 0 1-3.856-2.223 98 98 0 0 1-7.39-4.965 98.4 98.4 0 0 1-16.238-15.156 98.2 98.2 0 0 1-12.402-18.43 95 95 0 0 1-1.962-3.996 102 102 0 0 1-1.777-4.082 99 99 0 0 1-4.188-12.672 92 92 0 0 1-1.007-4.336 98 98 0 0 1-.813-4.379 105 105 0 0 1-.61-4.41h21.973a78 78 0 0 0 1.266 6.66 77 77 0 0 0 1.856 6.524 75 75 0 0 0 2.43 6.332 75 75 0 0 0 2.98 6.09 75 75 0 0 0 3.511 5.8 76.4 76.4 0 0 0 8.5 10.551 76 76 0 0 0 10.239 8.875 77 77 0 0 0 5.672 3.723 78 78 0 0 0 5.976 3.2 76 76 0 0 0 6.238 2.651 75 75 0 0 0 6.454 2.09 75 75 0 0 0 6.613 1.508 76 76 0 0 0 6.719.91q3.38.309 6.773.313m-53.27-65.227h106.54a54.2 54.2 0 0 1-4.5 13.184 54.33 54.33 0 0 1-22.047 23.332 54.5 54.5 0 0 1-8.461 3.863q-2.196.784-4.45 1.375a54.5 54.5 0 0 1-18.46 1.586 54.5 54.5 0 0 1-13.613-2.96 54 54 0 0 1-8.462-3.864 54 54 0 0 1-11.148-8.344 55 55 0 0 1-3.2-3.383 54.3 54.3 0 0 1-5.468-7.523 54.3 54.3 0 0 1-5.61-12.75 56 56 0 0 1-1.12-4.516m270.036 0h52.996a32 32 0 0 1-3.754 7.535 32 32 0 0 1-2.578 3.332 32.1 32.1 0 0 1-10.016 7.618 32 32 0 0 1-3.906 1.593 32.1 32.1 0 0 1-12.48 1.582 32 32 0 0 1-8.247-1.683 32 32 0 0 1-7.531-3.762 32 32 0 0 1-3.332-2.586 32 32 0 0 1-2.965-2.996 97 97 0 0 0 1.824-10.633ZM719.582 86.97a75.7 75.7 0 0 1-24.309-4.133 119.4 119.4 0 0 0 11.817-19.09c1.765.422 3.55.754 5.347.996q2.703.364 5.422.457 2.725.09 5.442-.09a54.5 54.5 0 0 0 15.883-3.507 55 55 0 0 0 4.972-2.207 55 55 0 0 0 4.727-2.696 55 55 0 0 0 4.433-3.156 55 55 0 0 0 4.094-3.582 55 55 0 0 0 3.715-3.977 54.7 54.7 0 0 0 6.145-8.96 54.3 54.3 0 0 0 5.578-15.282h21.96a77 77 0 0 1-1.265 6.66 76 76 0 0 1-4.285 12.855 75.3 75.3 0 0 1-6.496 11.89 75 75 0 0 1-4.012 5.466 77 77 0 0 1-9.406 9.754 76.6 76.6 0 0 1-10.988 7.93 75.5 75.5 0 0 1-12.219 5.852 75 75 0 0 1-6.45 2.09 75 75 0 0 1-6.613 1.507 76 76 0 0 1-6.719.91 75 75 0 0 1-6.773.313m0-43.485a32 32 0 0 1-4.512-.48 118.4 118.4 0 0 0 3.957-21.262h31.168a32.7 32.7 0 0 1-4.718 8.778 33 33 0 0 1-3.305 3.746 33 33 0 0 1-3.844 3.195 32.5 32.5 0 0 1-4.281 2.57 32.45 32.45 0 0 1-14.465 3.453m-234.652-.48a32 32 0 0 1-4.512.48 32.45 32.45 0 0 1-14.465-3.453 33 33 0 0 1-4.285-2.57 33.4 33.4 0 0 1-3.84-3.195 32.6 32.6 0 0 1-6-7.953 33 33 0 0 1-2.023-4.57h31.168a118.4 118.4 0 0 0 3.957 21.26m-4.512 22.223a54.2 54.2 0 0 0 12.492-1.48 118.7 118.7 0 0 0 11.828 19.1 78 78 0 0 1-3.98 1.25 79 79 0 0 1-4.04 1.028 77 77 0 0 1-8.222 1.379q-2.073.23-4.156.348a74 74 0 0 1-4.168.117c-1.39 0-2.781-.035-4.168-.114a74 74 0 0 1-8.285-.91 73 73 0 0 1-4.094-.797q-2.04-.45-4.043-1.02a77 77 0 0 1-7.887-2.7 75 75 0 0 1-3.82-1.674 74 74 0 0 1-3.723-1.879 77 77 0 0 1-3.613-2.082 79 79 0 0 1-3.492-2.277 80 80 0 0 1-3.36-2.47 75 75 0 0 1-9.2-8.46 77 77 0 0 1-5.305-6.43 80 80 0 0 1-2.373-3.426 75 75 0 0 1-2.188-3.55 77 77 0 0 1-3.766-7.438 77 77 0 0 1-1.57-3.863 73 73 0 0 1-1.355-3.945 76 76 0 0 1-2.05-8.078 77 77 0 0 1-.689-4.114h21.961q.468 2.28 1.13 4.512a55 55 0 0 0 1.511 4.394 54.3 54.3 0 0 0 9.59 15.84 54.4 54.4 0 0 0 10.394 9.25 54 54 0 0 0 8.094 4.567 54 54 0 0 0 8.75 3.125 54.4 54.4 0 0 0 13.797 1.797m-95.383-32.852a32 32 0 0 1-2.965 2.996 32.3 32.3 0 0 1-6.973 4.715 32 32 0 0 1-3.89 1.633 32 32 0 0 1-8.246 1.683q-2.11.153-4.219.024a32 32 0 0 1-8.262-1.606 32 32 0 0 1-7.566-3.687 33 33 0 0 1-3.36-2.551 32 32 0 0 1-2.991-2.973 32 32 0 0 1-6.336-10.867h52.996a99 99 0 0 0 1.812 10.633m-45.937 73.813v30.003a196 196 0 0 1-1.328 22.559 196 196 0 0 1-19.274 64.68l19.457 9.718a217 217 0 0 0 9.89-23.082 218 218 0 0 0 12.997-73.875v-27.48q11.315.002 22.332-2.586a97 97 0 0 0 21.148-7.633v38.047q-.018 4.3-.3 8.59a142.7 142.7 0 0 1-3.997 25.437 144 144 0 0 1-2.347 8.266 145 145 0 0 1-2.84 8.113 145 145 0 0 1-3.324 7.926 144 144 0 0 1-8.05 15.176 143 143 0 0 1-9.817 14.098 141 141 0 0 1-5.532 6.578 137 137 0 0 1-5.914 6.234 141 141 0 0 1-12.902 11.344 142 142 0 0 1-6.938 5.07c-4.453-2.207-9.164-3.316-14.132-3.34h-43.485V72.227a97.9 97.9 0 0 0 38.816 29.012 97.7 97.7 0 0 0 15.54 4.948m-54.356 209.07h43.485q4.264-.06 8.37-1.227a85 85 0 0 1 10.281 12.715 85 85 0 0 1 4.173 7.047 84.6 84.6 0 0 1 6.207 15.133 84 84 0 0 1 1.972 7.945 84.5 84.5 0 0 1 1.61 16.277v18.207h-76.098Zm554.418 76.097v-18.207q.006-4.1.41-8.18.404-4.077 1.2-8.097a84 84 0 0 1 1.972-7.945 84.6 84.6 0 0 1 10.38-22.18 85 85 0 0 1 10.28-12.715 32 32 0 0 0 8.371 1.227h43.485v76.097Zm76.098-141.324h-43.485c-4.968.024-9.68 1.133-14.132 3.34a142 142 0 0 1-6.938-5.07 141 141 0 0 1-12.902-11.344 137 137 0 0 1-5.914-6.234 141 141 0 0 1-10.653-13.48 143 143 0 0 1-8.949-14.665 142 142 0 0 1-7.12-15.633 145 145 0 0 1-2.84-8.113 144 144 0 0 1-2.348-8.266 143.5 143.5 0 0 1-3.997-25.437q-.282-4.29-.3-8.59V98.492a97 97 0 0 0 21.148 7.633 97.3 97.3 0 0 0 22.332 2.586v27.48a218.2 218.2 0 0 0 5.8 49.8 218 218 0 0 0 7.157 24.071 217 217 0 0 0 9.875 23.086l19.457-9.718a196 196 0 0 1-8.89-20.77 197 197 0 0 1-6.438-21.656 196 196 0 0 1-5.219-44.812v-30.005a97.7 97.7 0 0 0 15.54-4.949 97.9 97.9 0 0 0 38.816-29.012Zm-21.742 271.779H850.03v-32.614a43 43 0 0 0-.836-8.484 43.3 43.3 0 0 0-6.492-15.676 43.4 43.4 0 0 0-11.996-11.996 43 43 0 0 0-3.66-2.195 44 44 0 0 0-7.875-3.262 43 43 0 0 0-4.14-1.035 43 43 0 0 0-4.22-.625q-2.127-.21-4.265-.211h-65.223q-2.14 0-4.261.21a43 43 0 0 0-4.223.626 43 43 0 0 0-8.156 2.473 45 45 0 0 0-3.86 1.824 43.4 43.4 0 0 0-7.086 4.738 43 43 0 0 0-6.027 6.027 43.4 43.4 0 0 0-9.035 19.102 44 44 0 0 0-.63 4.223 44 44 0 0 0-.206 4.261v32.614h-21.742v-32.614q0-2.136-.211-4.261a43.4 43.4 0 0 0-1.664-8.363q-.616-2.041-1.438-4.016a43 43 0 0 0-1.824-3.86 44 44 0 0 0-2.191-3.66 44 44 0 0 0-2.543-3.426 43 43 0 0 0-2.868-3.164 43 43 0 0 0-3.16-2.863 43 43 0 0 0-3.43-2.543 43.43 43.43 0 0 0-24.156-7.328h-65.226q-2.137 0-4.262.21a43.3 43.3 0 0 0-12.379 3.098 45 45 0 0 0-3.855 1.825 43 43 0 0 0-3.66 2.195 43 43 0 0 0-3.43 2.543 43 43 0 0 0-3.16 2.863 43 43 0 0 0-2.868 3.164 44 44 0 0 0-2.543 3.426 43.4 43.4 0 0 0-4.015 7.52 42 42 0 0 0-1.438 4.015 43.4 43.4 0 0 0-1.875 12.625v32.614H502.16v-32.614q0-2.136-.207-4.261a44 44 0 0 0-1.664-8.364q-.622-2.04-1.437-4.015a43.4 43.4 0 0 0-6.562-10.945 43 43 0 0 0-6.028-6.028 43.4 43.4 0 0 0-23.324-9.66 43 43 0 0 0-4.262-.211h-65.227q-2.134 0-4.262.21a43 43 0 0 0-4.218.626 43 43 0 0 0-4.14 1.035 44 44 0 0 0-4.02 1.438 45 45 0 0 0-3.856 1.824 43.5 43.5 0 0 0-17.852 17.852 43.5 43.5 0 0 0-4.926 16.238 43 43 0 0 0-.206 4.261v32.614h-43.485q-2.139 0-4.261.207a44 44 0 0 0-8.364 1.664q-2.043.622-4.015 1.437a43.4 43.4 0 0 0-10.945 6.563 43 43 0 0 0-6.028 6.027 43.4 43.4 0 0 0-9.035 19.102 44 44 0 0 0-.629 4.222 44 44 0 0 0-.207 4.262v97.836q0 1.073.207 2.121.21 1.054.621 2.04a10.8 10.8 0 0 0 2.356 3.526q.756.758 1.648 1.352a10.7 10.7 0 0 0 3.918 1.625q1.05.208 2.121.207h130.45c.714 0 1.421-.066 2.12-.207q1.055-.212 2.04-.617.991-.411 1.882-1.008.89-.594 1.645-1.352.761-.757 1.351-1.644a10.8 10.8 0 0 0 1.625-3.922c.141-.7.207-1.406.207-2.121v-65.223h21.743v65.223q0 1.073.21 2.121c.141.703.344 1.383.618 2.04q.411.99 1.004 1.882.596.887 1.351 1.644a10.9 10.9 0 0 0 5.567 2.977q1.055.208 2.12.207h130.454c.715 0 1.422-.066 2.12-.207q1.05-.212 2.04-.617.989-.411 1.879-1.008a10.7 10.7 0 0 0 1.648-1.352q.755-.757 1.352-1.644.595-.892 1.004-1.883a10.8 10.8 0 0 0 .828-4.16v-65.223h21.742v65.223q0 1.073.207 2.121.21 1.054.621 2.04a10.8 10.8 0 0 0 2.356 3.526q.756.758 1.648 1.352a10.7 10.7 0 0 0 3.918 1.625q1.05.208 2.121.207h130.453c.711 0 1.418-.066 2.121-.207q1.05-.212 2.04-.617a10.9 10.9 0 0 0 3.523-2.36c.508-.504.957-1.054 1.355-1.644q.593-.892 1.004-1.883a11 11 0 0 0 .617-2.039q.211-1.05.211-2.121v-65.223h21.743v65.223c0 .715.066 1.422.207 2.121a10.8 10.8 0 0 0 1.625 3.922q.59.887 1.351 1.644.755.758 1.645 1.352a10.8 10.8 0 0 0 3.922 1.625q1.049.208 2.12.207h130.45c.715 0 1.422-.066 2.121-.207q1.05-.212 2.04-.617.989-.411 1.878-1.008a10.9 10.9 0 0 0 3-2.996q.595-.892 1.004-1.883a10.8 10.8 0 0 0 .828-4.16v-97.836q0-2.14-.207-4.262a44 44 0 0 0-1.664-8.363 44 44 0 0 0-3.262-7.875 43.4 43.4 0 0 0-4.738-7.086 43 43 0 0 0-6.027-6.027A43.4 43.4 0 0 0 902 522.645a44 44 0 0 0-4.223-.63 44 44 0 0 0-4.261-.206M393.449 652.258H284.742v-86.965c0-.715.035-1.422.106-2.133q.1-1.06.312-2.11c.137-.698.313-1.39.516-2.07q.312-1.024.719-2.007a21.8 21.8 0 0 1 3.28-5.473q.68-.825 1.434-1.582a22 22 0 0 1 3.293-2.703 21.8 21.8 0 0 1 5.77-2.73q1.02-.312 2.07-.516 1.05-.211 2.11-.313 1.063-.105 2.132-.105h65.227q1.067 0 2.129.105 1.065.101 2.11.313 1.048.204 2.07.515a21.7 21.7 0 0 1 3.938 1.633q.941.503 1.831 1.098.887.59 1.715 1.27.821.678 1.578 1.433a22 22 0 0 1 2.703 3.293 21.8 21.8 0 0 1 3.25 7.84q.206 1.048.313 2.11c.07.71.101 1.417.101 2.132Zm43.485-86.965v10.871H415.19v-10.871c0-1.426-.066-2.848-.207-4.262a44 44 0 0 0-.625-4.222 44 44 0 0 0-1.039-4.141 43 43 0 0 0-1.437-4.016 43.4 43.4 0 0 0-4.02-7.52 43 43 0 0 0-2.539-3.425 44 44 0 0 0-2.867-3.164 44 44 0 0 0-3.16-2.863 43 43 0 0 0-3.43-2.543 43 43 0 0 0-3.66-2.196 44 44 0 0 0-3.855-1.824 44 44 0 0 0-4.02-1.437 44 44 0 0 0-8.36-1.664 44 44 0 0 0-4.261-.207v-32.614q-.002-1.066.101-2.132.106-1.061.313-2.11c.14-.7.313-1.387.52-2.07a21.5 21.5 0 0 1 1.632-3.938q.502-.943 1.098-1.828.59-.89 1.27-1.715a22 22 0 0 1 3.011-3.015q.828-.676 1.715-1.27a22 22 0 0 1 1.832-1.097 21 21 0 0 1 1.926-.91c.66-.274 1.328-.516 2.012-.72.68-.206 1.37-.382 2.07-.519a21 21 0 0 1 2.11-.312 22 22 0 0 1 2.128-.106h65.227a21.6 21.6 0 0 1 4.242.418c.7.137 1.39.313 2.07.52a21 21 0 0 1 2.008.718c.66.27 1.3.575 1.93.91q.942.506 1.832 1.098.885.594 1.71 1.27.827.679 1.583 1.433.755.757 1.433 1.582.68.825 1.27 1.715.595.886 1.098 1.828a22 22 0 0 1 1.632 3.938c.207.683.38 1.37.516 2.07q.211 1.049.313 2.11.105 1.065.105 2.132v32.614q-2.134 0-4.262.207-2.127.211-4.219.629a43 43 0 0 0-4.14 1.035 43.4 43.4 0 0 0-11.535 5.457 43 43 0 0 0-3.43 2.543 43 43 0 0 0-3.16 2.863 43.7 43.7 0 0 0-5.41 6.59 44 44 0 0 0-2.192 3.66 43 43 0 0 0-1.824 3.86 43 43 0 0 0-1.437 4.015 43 43 0 0 0-1.664 8.363 43 43 0 0 0-.211 4.262m130.453 86.965h-108.71v-86.965a21.6 21.6 0 0 1 .418-4.242 22 22 0 0 1 1.238-4.078q.41-.988.914-1.93c.332-.629.7-1.238 1.094-1.832q.595-.885 1.273-1.711.676-.825 1.434-1.582a21 21 0 0 1 3.293-2.703 21 21 0 0 1 1.832-1.098c.625-.336 1.27-.64 1.926-.914q.988-.407 2.011-.719 1.021-.31 2.067-.515 1.048-.211 2.113-.313a22 22 0 0 1 2.129-.105h65.227q1.065 0 2.132.105 1.06.101 2.11.313c.699.136 1.386.308 2.07.515a21.8 21.8 0 0 1 7.48 4q.827.68 1.583 1.434a22 22 0 0 1 2.703 3.293q.592.89 1.097 1.832t.91 1.93q.41.983.72 2.007a21.5 21.5 0 0 1 .832 4.18c.07.711.105 1.418.105 2.133Zm43.484-86.965v10.871h-21.74v-10.871q0-2.14-.211-4.262a43 43 0 0 0-.625-4.222 43 43 0 0 0-2.473-8.157 45 45 0 0 0-1.824-3.859 43.7 43.7 0 0 0-4.738-7.086 43 43 0 0 0-6.027-6.027 43.4 43.4 0 0 0-19.102-9.035 44 44 0 0 0-4.223-.63 44 44 0 0 0-4.261-.206v-32.614a21.7 21.7 0 0 1 .418-4.242 21.5 21.5 0 0 1 1.238-4.078 21.6 21.6 0 0 1 3.281-5.473q.675-.825 1.43-1.582.756-.755 1.582-1.433a21.84 21.84 0 0 1 9.55-4.516q1.049-.208 2.114-.312a22 22 0 0 1 2.129-.106h65.226q1.067 0 2.13.106a21.4 21.4 0 0 1 4.183.832c.68.203 1.347.445 2.008.718a21 21 0 0 1 3.757 2.008q.89.594 1.715 1.27.826.679 1.582 1.433.756.757 1.43 1.582.68.825 1.273 1.715a21.6 21.6 0 0 1 2.727 5.766c.207.683.379 1.37.52 2.07q.205 1.049.312 2.11.105 1.065.105 2.132v32.614q-2.136 0-4.261.207a44 44 0 0 0-8.364 1.664q-2.04.622-4.015 1.437a43.4 43.4 0 0 0-10.945 6.563 43 43 0 0 0-6.028 6.027 43.7 43.7 0 0 0-4.738 7.086 45 45 0 0 0-1.824 3.86 43 43 0 0 0-2.473 8.156 43 43 0 0 0-.625 4.222 43 43 0 0 0-.21 4.262m130.453 86.965h-108.71v-86.965a21.6 21.6 0 0 1 .417-4.242c.137-.7.313-1.39.52-2.07q.31-1.025.719-2.008.405-.988.91-1.93t1.097-1.832q.594-.885 1.27-1.711.679-.825 1.433-1.582.757-.755 1.582-1.434t1.715-1.27a21.8 21.8 0 0 1 5.766-2.73 21 21 0 0 1 2.07-.515q1.05-.211 2.11-.313 1.066-.105 2.132-.105h65.227q1.067 0 2.129.105 1.065.101 2.113.313 1.045.204 2.067.515a21.7 21.7 0 0 1 3.938 1.633q.941.503 1.831 1.098.89.59 1.715 1.27.826.678 1.578 1.433c.504.504.985 1.031 1.434 1.582q.678.826 1.273 1.71a22 22 0 0 1 2.008 3.763q.409.983.719 2.007.31 1.021.52 2.07.205 1.05.312 2.11c.07.711.105 1.418.105 2.133Zm43.485-86.965v10.871h-21.743v-10.871q0-2.14-.21-4.262a43 43 0 0 0-1.664-8.363 43 43 0 0 0-1.438-4.016 43 43 0 0 0-1.824-3.859 44 44 0 0 0-2.192-3.66 43.7 43.7 0 0 0-8.57-9.453 43 43 0 0 0-3.43-2.543 43.43 43.43 0 0 0-24.156-7.328v-32.614q0-1.066.106-2.132.1-1.061.312-2.11c.137-.7.309-1.387.516-2.07q.313-1.022.718-2.008a21.8 21.8 0 0 1 3.282-5.473q.679-.825 1.433-1.582a22 22 0 0 1 3.293-2.703 22 22 0 0 1 1.832-1.097c.63-.336 1.27-.641 1.93-.91a21 21 0 0 1 2.008-.72 21.5 21.5 0 0 1 4.18-.832 22 22 0 0 1 2.132-.105h65.223q1.072 0 2.133.106c.707.07 1.414.171 2.11.312.698.137 1.39.313 2.07.52q1.023.307 2.007.718.988.406 1.93.91.942.506 1.832 1.098a21.8 21.8 0 0 1 8.008 9.758q.406.986.718 2.008c.207.683.38 1.37.516 2.07q.21 1.049.317 2.11c.07.71.101 1.421.101 2.132v32.614q-2.134 0-4.262.207a44 44 0 0 0-8.359 1.664 44 44 0 0 0-4.02 1.437 44 44 0 0 0-3.855 1.824 43 43 0 0 0-3.66 2.196 43 43 0 0 0-3.43 2.543 44 44 0 0 0-3.16 2.863 44 44 0 0 0-2.867 3.164 43 43 0 0 0-2.54 3.426 43.4 43.4 0 0 0-5.456 11.535 44 44 0 0 0-1.04 4.14 44 44 0 0 0-.624 4.223 43 43 0 0 0-.207 4.262m130.449 86.965H806.547v-86.965c.004-.715.035-1.422.105-2.133q.106-1.06.313-2.11a22 22 0 0 1 1.238-4.077 21.8 21.8 0 0 1 3.281-5.473 22 22 0 0 1 3.012-3.016c.55-.453 1.125-.875 1.715-1.27a21 21 0 0 1 1.832-1.097c.625-.336 1.27-.64 1.926-.914q.988-.407 2.011-.719 1.021-.31 2.07-.515 1.045-.211 2.11-.313a22 22 0 0 1 2.13-.105h65.226c.714 0 1.422.035 2.132.105q1.06.101 2.11.313 1.05.204 2.07.515a21.8 21.8 0 0 1 7.48 4q.827.68 1.583 1.434a22 22 0 0 1 2.703 3.293q.592.89 1.097 1.832a22 22 0 0 1 1.633 3.937 22 22 0 0 1 .934 6.313Zm0 0" style="stroke:none;fill-rule:nonzero;fill:#0d2740;fill-opacity:1"/></svg>