<svg xmlns="http://www.w3.org/2000/svg" width="1600" height="900" viewBox="0 0 1200 675"><defs><clipPath id="a"><path d="M.887 121H444v429H.887Zm0 0"/></clipPath><clipPath id="d"><path d="M1 7.074h435.742V427.2H1Zm0 0"/></clipPath><clipPath id="c"><path d="M0 0h444v429H0z"/></clipPath><clipPath id="h"><path d="M.273 1h426.09v76H.273Zm0 0"/></clipPath><clipPath id="g"><path d="M0 0h427v78H0z"/></clipPath><clipPath id="i"><path d="M513 25h686.113v649H513Zm0 0"/></clipPath><clipPath id="l"><path d="M.316 2h685.797v646.824H.316Zm0 0"/></clipPath><clipPath id="k"><path d="M0 0h687v649H0z"/></clipPath><filter id="e" width="100%" height="100%" x="0%" y="0%" filterUnits="objectBoundingBox"><feColorMatrix in="SourceGraphic" values="0 0 0 0 1 0 0 0 0 1 0 0 0 0 1 0 0 0 1 0"/></filter></defs><g clip-path="url(#a)"><g mask="url(#b)" transform="translate(0 121)"><g clip-path="url(#c)"><g clip-path="url(#d)"><path d="M181.176 7.074c-43.543 0-76.574 9.758-99.094 30.778-21.02 20.27-32.281 50.296-35.285 89.336a48 48 0 0 0-4.586.488 48 48 0 0 0-4.516.918q-2.236.57-4.41 1.344a48.3 48.3 0 0 0-8.34 3.906 48 48 0 0 0-3.86 2.527 48.5 48.5 0 0 0-6.91 6.09 50 50 0 0 0-2.991 3.504 49 49 0 0 0-2.645 3.777 48.3 48.3 0 0 0-4.164 8.215 48 48 0 0 0-1.48 4.367 48 48 0 0 0-1.063 4.485 50 50 0 0 0-.633 4.566 49 49 0 0 0-.195 4.605v202.692a49 49 0 0 0 .937 9.52 48.7 48.7 0 0 0 4.825 13.484 49 49 0 0 0 2.46 4.105 48 48 0 0 0 2.856 3.848 48 48 0 0 0 3.215 3.547 48.5 48.5 0 0 0 11.5 8.531 48 48 0 0 0 4.328 2.047 47 47 0 0 0 4.512 1.613 48.6 48.6 0 0 0 9.379 1.867 49 49 0 0 0 9.566 0q2.387-.234 4.738-.703a49 49 0 0 0 9.153-2.777 49 49 0 0 0 8.438-4.508 48.5 48.5 0 0 0 7.395-6.07 48.5 48.5 0 0 0 6.065-7.395 48 48 0 0 0 2.465-4.105 50 50 0 0 0 2.047-4.328 50 50 0 0 0 1.613-4.508 50 50 0 0 0 1.164-4.649 49.6 49.6 0 0 0 .938-9.52v-11.257h240.226v11.258a49 49 0 0 0 .938 9.52c.308 1.57.699 3.117 1.164 4.648.46 1.527 1 3.031 1.61 4.508a49 49 0 0 0 4.51 8.433 48 48 0 0 0 2.852 3.848 49 49 0 0 0 3.215 3.547 48.6 48.6 0 0 0 7.395 6.07 50 50 0 0 0 4.11 2.461 48 48 0 0 0 4.327 2.047 49 49 0 0 0 13.89 3.48 48.9 48.9 0 0 0 18.95-1.867q2.292-.692 4.508-1.613a49 49 0 0 0 12.281-7.36 49 49 0 0 0 3.547-3.218 48.5 48.5 0 0 0 8.531-11.5 48 48 0 0 0 2.047-4.328 48.7 48.7 0 0 0 3.48-13.89q.235-2.385.235-4.786V175.98a48.7 48.7 0 0 0-.906-9.14 49 49 0 0 0-1.09-4.465 49 49 0 0 0-3.402-8.535 50 50 0 0 0-2.282-3.992 49.3 49.3 0 0 0-5.636-7.254 48 48 0 0 0-3.297-3.203 49.6 49.6 0 0 0-7.426-5.414 49 49 0 0 0-4.055-2.16q-2.079-.988-4.242-1.778a49 49 0 0 0-4.39-1.367 49 49 0 0 0-4.5-.957 50 50 0 0 0-4.567-.528c-3.004-39.039-13.512-69.066-35.281-89.335-21.774-20.27-55.555-30.778-99.094-30.778Zm0 15.012h75.07q11.673.152 23.27 1.504L263.75 89.652v118.61a194.5 194.5 0 0 0-45.04-5.254 200 200 0 0 0-45.042 5.254V89.652L157.902 23.59a226 226 0 0 1 23.274-1.504m-22.524 69.066v120.864a109.4 109.4 0 0 0-32.968 18.218 109 109 0 0 0-13.649 13.086 109.5 109.5 0 0 0-11.187 15.239c-.75 1.503-1.5 2.253-2.25 3.753V175.98a49 49 0 0 0-.188-4.02 47 47 0 0 0-.512-3.995 48 48 0 0 0-.84-3.938 49 49 0 0 0-1.156-3.855q-.66-1.905-1.472-3.75a48 48 0 0 0-1.774-3.613 49 49 0 0 0-4.402-6.735A48 48 0 0 0 85.652 143a48 48 0 0 0-2.84-2.852 49.4 49.4 0 0 0-9.793-7.031 52 52 0 0 0-3.609-1.781 49 49 0 0 0-7.598-2.648c2.25-37.536 12.762-63.06 30.778-80.325a92.6 92.6 0 0 1 11.094-8.636 92.5 92.5 0 0 1 25.441-11.77 92.4 92.4 0 0 1 13.762-2.867Zm135.88-66.062a95 95 0 0 1 13.73 2.957 95 95 0 0 1 13.144 4.945 95.2 95.2 0 0 1 23.422 15.371c18.016 16.516 27.777 42.79 30.781 80.325a49 49 0 0 0-7.601 2.648 52 52 0 0 0-3.61 1.781 49.4 49.4 0 0 0-6.723 4.422 48 48 0 0 0-3.066 2.61q-1.483 1.364-2.843 2.851a48 48 0 0 0-2.602 3.074 49 49 0 0 0-4.402 6.734 50 50 0 0 0-1.774 3.614 50 50 0 0 0-1.472 3.75 49 49 0 0 0-1.157 3.855 50 50 0 0 0-.84 3.938 49 49 0 0 0-.511 3.996 48 48 0 0 0-.184 4.02v86.332c-.754-1.5-1.504-2.25-2.254-3.754a112.6 112.6 0 0 0-11.293-15.133 112 112 0 0 0-13.664-13.035 112.6 112.6 0 0 0-32.848-18.375V91.152ZM83.581 378.672c0 1.11-.055 2.21-.164 3.312a33 33 0 0 1-.484 3.282 34 34 0 0 1-.805 3.214 35 35 0 0 1-1.117 3.122 35 35 0 0 1-1.418 2.996 33 33 0 0 1-1.707 2.843 33 33 0 0 1-1.973 2.664 35 35 0 0 1-2.227 2.457 34 34 0 0 1-5.121 4.2 33.7 33.7 0 0 1-12.175 5.043q-1.629.326-3.282.488a33.4 33.4 0 0 1-6.62 0 33 33 0 0 1-3.278-.488 33.7 33.7 0 0 1-14.844-7.02 34 34 0 0 1-4.68-4.68 33 33 0 0 1-1.976-2.664 33 33 0 0 1-1.703-2.843 33 33 0 0 1-1.418-2.996 34 34 0 0 1-2.41-9.617 35 35 0 0 1-.16-3.313V175.98q0-1.657.16-3.308.165-1.653.488-3.281a33.6 33.6 0 0 1 1.922-6.336 32 32 0 0 1 1.418-2.996q.782-1.466 1.703-2.844a33 33 0 0 1 1.977-2.664 33 33 0 0 1 2.226-2.457 35 35 0 0 1 2.453-2.227 34.5 34.5 0 0 1 5.508-3.68 34.3 34.3 0 0 1 6.117-2.53 34 34 0 0 1 3.219-.81 34 34 0 0 1 6.59-.648q1.66 0 3.308.164 1.653.164 3.282.485a34 34 0 0 1 3.214.808q1.591.48 3.122 1.117 1.535.634 3 1.415 1.46.783 2.84 1.707a34 34 0 0 1 5.12 4.199 35 35 0 0 1 2.227 2.457q1.054 1.282 1.973 2.664a33 33 0 0 1 1.707 2.844q.78 1.459 1.418 2.996a33.6 33.6 0 0 1 2.406 9.617q.165 1.651.164 3.308Zm304.035-236.473a35 35 0 0 1 3.317.149q1.657.158 3.285.476 1.635.317 3.222.797 1.594.478 3.13 1.11a35 35 0 0 1 3.003 1.414 33.8 33.8 0 0 1 7.977 5.906 32 32 0 0 1 2.226 2.46 34 34 0 0 1 3.68 5.516q.78 1.467 1.414 3.004a34 34 0 0 1 1.906 6.352q.318 1.628.473 3.285.158 1.654.152 3.312v202.692c0 1.11-.054 2.21-.164 3.312a34 34 0 0 1-2.41 9.617 33 33 0 0 1-1.418 2.997q-.782 1.465-1.703 2.843a34 34 0 0 1-1.973 2.664 35 35 0 0 1-2.226 2.457 35 35 0 0 1-2.457 2.227 34 34 0 0 1-5.508 3.676q-1.464.785-2.996 1.418a33.9 33.9 0 0 1-12.93 2.574q-1.657 0-3.308-.164a33 33 0 0 1-3.282-.488 33.6 33.6 0 0 1-6.336-1.922 32 32 0 0 1-2.996-1.418 33 33 0 0 1-2.843-1.703 33 33 0 0 1-2.664-1.977 34 34 0 0 1-2.458-2.223 35 35 0 0 1-2.226-2.457q-1.052-1.282-1.973-2.664a33 33 0 0 1-3.12-5.84 34 34 0 0 1-1.926-6.336 34.4 34.4 0 0 1-.65-6.593V175.98q-.004-1.658.15-3.312.159-1.658.476-3.285.315-1.635.797-3.223a33 33 0 0 1 1.11-3.129 34 34 0 0 1 1.413-3.004 33.8 33.8 0 0 1 5.906-7.976 33 33 0 0 1 2.461-2.23 33.8 33.8 0 0 1 8.52-5.09 33.8 33.8 0 0 1 9.637-2.383 35 35 0 0 1 3.312-.149m-168.906 75.07c61.555 0 90.082 24.774 105.098 48.797a116.6 116.6 0 0 1 9.086 19.973 116 116 0 0 1 5.175 21.316H99.348a116.3 116.3 0 0 1 5.18-21.32 116.4 116.4 0 0 1 9.081-19.969c15.016-24.023 43.543-48.796 105.102-48.796M98.598 322.372h240.226v30.027H98.598Zm0 0" style="stroke:none;fill-rule:nonzero;fill:#0d2740;fill-opacity:1"/></g></g><mask id="b"><g filter="url(#e)"><path d="M0 0h1200v675H0z" style="fill:#000;fill-opacity:.75;stroke:none"/></g></mask></g></g><g mask="url(#f)" transform="translate(9 595)"><g clip-path="url(#g)"><g clip-path="url(#h)"><path d="M107.371 13.531c6.586-6.855-3.351-16.754-10.23-10.23C64.816 22.133 20.332 26.668 18.492 36.68-7.898 34.246.63 53.156 9.81 51.215c15.444-.485 26.702 3.975 102.69 25.234 9.14 2.555 12.898-11.164 3.844-13.953-19.348-5.668-38.582-11.922-58.055-17.219 80.09-1.297 160.2.184 240.262 1.887 80.18 1.41 76.238-5.36 21.566 14.484-8.191 2.985-4.055 16.899 5.637 13.32 99.668-35.468 101.594-26.928 100.36-37.49-1.696-9.122-11.45-5.684-17.934-4.239-1.035-7-.055-4.722-73.086-16.933-19.64-3.43-27.711-6.875-29.91 1.246-2.762 9.93 9.437 9.668 27.035 12.93 58.5 9.831-47.145-3.2-262.024.136 10.692-3.719 29.317-10.039 37.18-17.086Zm0 0" style="stroke:none;fill-rule:nonzero;fill:#0d2740;fill-opacity:1"/></g></g><mask id="f"><g filter="url(#e)"><path d="M0 0h1200v675H0z" style="fill:#000;fill-opacity:.75;stroke:none"/></g></mask></g><g clip-path="url(#i)"><g mask="url(#j)" transform="translate(513 25)"><g clip-path="url(#k)"><g clip-path="url(#l)"><path d="M322.398 461.895v8.03h.004v79.567a.903.903 0 0 0 1.805 0v-87.597c.543-.31.91-.899.91-1.567V431.09a1.81 1.81 0 1 0-3.621 0v29.238c0 .668.363 1.258.902 1.567m-25.757-33.993a2.265 2.265 0 0 0-1.598-2.77 2.264 2.264 0 0 0-2.77 1.598l-1.996 7.442c-.132.492-.093.988.086 1.426l-18.21 67.945a1.81 1.81 0 0 0 .472 1.746l-34.73 129.598a.9.9 0 0 0 .64 1.105.9.9 0 0 0 1.106-.64l34.73-129.598a1.81 1.81 0 0 0 1.277-1.281l18.207-67.938c.375-.293.66-.703.793-1.195Zm-5.645-1.515a2.25 2.25 0 0 0-1.45-2.848 2.26 2.26 0 0 0-2.847 1.45l-5.426 16.699c-.156.484-.144.984.008 1.433l-22.597 69.543c-.207.637-.04 1.3.375 1.766L217.14 643.434a.904.904 0 0 0 .574 1.14.906.906 0 0 0 1.14-.578l41.918-129.004a1.8 1.8 0 0 0 1.344-1.207l22.602-69.547a2.26 2.26 0 0 0 .851-1.148l5.426-16.7Zm-5.527-1.89a2.25 2.25 0 0 0-1.297-2.907 2.253 2.253 0 0 0-2.91 1.297l-9.36 24.375a2.25 2.25 0 0 0-.062 1.422l-26.715 69.582a1.81 1.81 0 0 0 .281 1.78l-48.992 127.606a.9.9 0 0 0 .524 1.164.9.9 0 0 0 1.164-.523l48.992-127.605a1.8 1.8 0 0 0 1.402-1.133l26.715-69.578a2.28 2.28 0 0 0 .91-1.106l9.352-24.375Zm-5.496-1.985a2.255 2.255 0 0 0-1.137-2.98 2.26 2.26 0 0 0-2.984 1.14L262.566 450.5a2.22 2.22 0 0 0-.136 1.422l-31.301 70.289a1.8 1.8 0 0 0 .187 1.797l-54.84 123.152a.9.9 0 0 0 .462 1.188c.453.203.988 0 1.19-.453l54.845-123.16a1.8 1.8 0 0 0 1.46-1.06l31.297-70.292c.41-.227.758-.59.965-1.051l13.285-29.828Zm-5.192-2.649a2.26 2.26 0 0 0-.992-3.043 2.26 2.26 0 0 0-3.043.989l-17.797 34.918c-.23.453-.289.945-.21 1.414l-34.977 68.636a1.82 1.82 0 0 0 .093 1.805l-59.902 117.535a.916.916 0 0 0 .399 1.223.91.91 0 0 0 1.218-.399l59.895-117.535a1.81 1.81 0 0 0 1.52-.984l34.976-68.637a2.3 2.3 0 0 0 1.023-1.008l17.793-34.914Zm-5.265-2.539a2.253 2.253 0 0 0-.836-3.078 2.253 2.253 0 0 0-3.082.832l-22.172 38.399a2.23 2.23 0 0 0-.281 1.39l-38.739 67.09a1.8 1.8 0 0 0 0 1.797L141.31 633.027a.9.9 0 0 0 .332 1.235.9.9 0 0 0 1.234-.332l63.098-109.274c.62 0 1.226-.324 1.562-.902l38.735-67.082a2.3 2.3 0 0 0 1.074-.95l22.172-38.402Zm-5.024-2.972a2.263 2.263 0 0 0-.664-3.125 2.27 2.27 0 0 0-3.129.668L234.5 452.23c-.277.43-.395.915-.36 1.383l-41.374 63.703a1.81 1.81 0 0 0-.094 1.809l-65.57 100.95a.9.9 0 0 0 .265 1.25.907.907 0 0 0 1.25-.266l65.57-100.954a1.82 1.82 0 0 0 1.61-.82l41.375-63.703a2.25 2.25 0 0 0 1.117-.887l26.2-40.343Zm-4.879-3.2a2.257 2.257 0 0 0-.504-3.156 2.26 2.26 0 0 0-3.156.5l-30.101 41.422a2.24 2.24 0 0 0-.43 1.36l-42.93 59.085a1.8 1.8 0 0 0-.187 1.797l-66.953 92.137a.905.905 0 0 0 .199 1.262.91.91 0 0 0 1.265-.204l66.954-92.132a1.8 1.8 0 0 0 1.656-.743l42.93-59.078a2.26 2.26 0 0 0 1.164-.836l30.093-41.418Zm-4.66-3.511a2.26 2.26 0 0 0-.324-3.18 2.254 2.254 0 0 0-3.176.332l-32.578 40.223c-.32.394-.488.867-.504 1.343l-44.41 54.832a1.82 1.82 0 0 0-.285 1.79L106.62 585.77a.904.904 0 0 0 .129 1.27.904.904 0 0 0 1.27-.13l67.058-82.797a1.81 1.81 0 0 0 1.684-.648l44.414-54.844a2.24 2.24 0 0 0 1.199-.762l32.578-40.222Zm-4.633-3.551a2.264 2.264 0 0 0-.168-3.192 2.265 2.265 0 0 0-3.195.164l-33.93 37.68c-.34.38-.527.836-.574 1.313l-44.816 49.757c-.45.5-.567 1.176-.375 1.774l-66.403 73.734a.907.907 0 0 0 1.348 1.21l66.402-73.733a1.82 1.82 0 0 0 1.723-.559l44.816-49.761a2.3 2.3 0 0 0 1.247-.704l33.93-37.68Zm-4.297-3.95a2.263 2.263 0 1 0-3.203-3.199l-34.543 34.54a2.24 2.24 0 0 0-.64 1.277L162.89 477.5a1.82 1.82 0 0 0-.47 1.75l-64.394 64.387a.9.9 0 0 0 0 1.277.9.9 0 0 0 1.278 0l64.398-64.387a1.8 1.8 0 0 0 1.75-.464l44.75-44.739a2.25 2.25 0 0 0 1.277-.64l34.543-34.536Zm-3.988-4.257a2.262 2.262 0 1 0-3.027-3.363l-33.871 30.496c-.38.34-.617.777-.707 1.242l-44.282 39.863a1.8 1.8 0 0 0-.558 1.723l-65.242 58.734a.907.907 0 0 0 1.21 1.348l65.239-58.735a1.8 1.8 0 0 0 1.77-.375l44.285-39.863c.472-.039.93-.23 1.312-.57l33.871-30.496Zm-3.969-4.29a2.26 2.26 0 0 0 .325-3.179 2.25 2.25 0 0 0-3.176-.324l-32.031 25.937c-.399.32-.649.746-.766 1.2l-42.375 34.308a1.82 1.82 0 0 0-.645 1.684l-73.238 59.3a.9.9 0 0 0-.129 1.27.9.9 0 0 0 1.27.133l73.238-59.297c.582.223 1.266.14 1.785-.285l42.367-34.305a2.23 2.23 0 0 0 1.34-.504Zm-3.66-4.55a2.262 2.262 0 1 0-2.656-3.664l-28.512 20.71a2.27 2.27 0 0 0-.836 1.165l-41.859 30.406a1.81 1.81 0 0 0-.738 1.656L74.09 499.582a.904.904 0 1 0 1.059 1.465l85.726-62.274a1.78 1.78 0 0 0 1.797-.187l41.863-30.41c.469.012.95-.133 1.363-.43l28.512-20.71Zm-3.504-4.684a2.254 2.254 0 0 0 .66-3.125 2.25 2.25 0 0 0-3.117-.664l-23.78 15.442a2.24 2.24 0 0 0-.892 1.113l-45.882 29.793a1.82 1.82 0 0 0-.82 1.605l-99.012 64.293a.9.9 0 0 0-.266 1.25.9.9 0 0 0 1.246.266l99.016-64.285a1.8 1.8 0 0 0 1.8-.098l45.883-29.785c.477.035.961-.086 1.383-.363l23.781-15.438Zm-2.933-5.046a2.264 2.264 0 0 0 .824-3.09 2.264 2.264 0 0 0-3.09-.825l-20.832 12.028a2.25 2.25 0 0 0-.95 1.074l-52.042 30.04a1.8 1.8 0 0 0-.906 1.562L38.352 483.117a.906.906 0 0 0-.332 1.23.91.91 0 0 0 1.234.333l112.621-65.004a1.82 1.82 0 0 0 1.8 0l52.048-30.047c.476.058.968-.031 1.406-.285l20.836-12.031Zm-2.934-5.04a2.268 2.268 0 0 0-2.059-4.04l-19.632 10.001a2.3 2.3 0 0 0-1.008 1.024l-58.828 29.965c-.594.308-.95.894-.985 1.52L20.343 472.98a.915.915 0 0 0-.394 1.223.91.91 0 0 0 1.223.395l122.176-62.239a1.8 1.8 0 0 0 1.804.094l58.836-29.973c.461.086.957.02 1.41-.21l19.633-10Zm-2.683-5.191a2.257 2.257 0 0 0 1.14-2.98 2.254 2.254 0 0 0-2.98-1.145l-20.953 9.332c-.465.207-.825.55-1.051.961l-65.531 29.172c-.61.27-.993.84-1.063 1.46L8.496 458.82a.91.91 0 0 0-.457 1.196c.203.453.734.656 1.195.453l123.41-54.938a1.8 1.8 0 0 0 1.797.188l65.528-29.172c.457.11.957.07 1.422-.137l20.953-9.328Zm-2.27-5.383a2.246 2.246 0 0 0 1.297-2.91 2.244 2.244 0 0 0-2.906-1.297l-24.192 9.281a2.26 2.26 0 0 0-1.105.91l-72.117 27.676a1.79 1.79 0 0 0-1.137 1.403L2.324 441.895a.913.913 0 0 0-.523 1.164.916.916 0 0 0 1.168.527l117.594-45.137a1.79 1.79 0 0 0 1.785.281l72.12-27.68c.454.126.95.118 1.423-.066Zm-2.11-5.433a2.262 2.262 0 1 0-1.398-4.301l-29.078 9.45c-.48.155-.875.464-1.148.847l-73.125 23.758a1.8 1.8 0 0 0-1.211 1.343L1.07 423.406a.906.906 0 0 0 .559 1.723l110.941-36.043a1.8 1.8 0 0 0 1.77.375l73.12-23.758c.45.152.95.168 1.435.012Zm-1.82-5.547a2.265 2.265 0 0 0 1.598-2.77 2.26 2.26 0 0 0-2.77-1.601l-34.992 9.375a2.25 2.25 0 0 0-1.195.789l-70.906 18.996a1.81 1.81 0 0 0-1.282 1.277L6.515 403.598a.904.904 0 0 0 .465 1.746l100.094-26.817a1.82 1.82 0 0 0 1.75.47l70.906-18.993a2.28 2.28 0 0 0 1.43.082l34.992-9.375Zm-1.48-5.649a2.256 2.256 0 0 0 1.742-2.68 2.26 2.26 0 0 0-2.68-1.742l-38.386 8.16c-.5.102-.922.364-1.235.723l-67.015 14.242a1.8 1.8 0 0 0-1.344 1.211l-82.399 17.508a.904.904 0 0 0-.695 1.07.905.905 0 0 0 1.07.696l82.399-17.512a1.82 1.82 0 0 0 1.719.559l67.015-14.243c.43.2.926.266 1.422.157l38.387-8.16Zm-1.192-5.718a2.253 2.253 0 0 0 1.875-2.582 2.25 2.25 0 0 0-2.582-1.875l-39.394 6.238c-.504.078-.938.32-1.266.656l-62.703 9.926a1.81 1.81 0 0 0-1.402 1.137l-60.973 9.652a.896.896 0 0 0-.75 1.031.903.903 0 0 0 1.031.754l60.973-9.656c.395.48 1.027.75 1.691.644l62.704-9.93c.418.223.906.317 1.406.239l39.394-6.242Zm-.753-5.786a2.26 2.26 0 0 0 2.015-2.48 2.26 2.26 0 0 0-2.476-2.02l-38.805 4.079a2.25 2.25 0 0 0-1.309.593l-55.273 5.809a1.8 1.8 0 0 0-1.465 1.062l-52.625 5.528a.91.91 0 0 0-.812.992.9.9 0 0 0 .992.805l52.633-5.528a1.8 1.8 0 0 0 1.644.735l55.281-5.809c.407.242.891.36 1.391.309l38.8-4.075Zm-.559-5.804a2.263 2.263 0 0 0 2.137-2.371 2.26 2.26 0 0 0-2.371-2.141l-35.633 1.863a2.25 2.25 0 0 0-1.332.524l-42.211 2.21a1.81 1.81 0 0 0-1.52.989l-57.164 2.996a.905.905 0 0 0-.86.95.9.9 0 0 0 .946.855l57.172-2.996c.34.527.941.855 1.61.82l42.218-2.211c.39.262.867.406 1.371.379l35.637-1.863Zm-.207-5.82a2.265 2.265 0 0 0 2.266-2.266 2.26 2.26 0 0 0-2.266-2.266h-29.836c-.508 0-.977.168-1.355.453h-32.708c-.671 0-1.257.367-1.57.907H81.988c-.5 0-.906.406-.906.906 0 .496.406.902.906.902h64.504c.313.543.899.902 1.57.902h32.708c.378.282.847.457 1.355.457h29.836Zm-.121-5.844a2.26 2.26 0 0 0 2.37-2.141 2.255 2.255 0 0 0-2.14-2.367l-18.273-.957a2.26 2.26 0 0 0-1.371.379l-34.301-1.797a1.8 1.8 0 0 0-1.61.82l-68.136-3.57a.9.9 0 0 0-.945.86c-.028.5.355.925.851.948l68.13 3.567c.28.558.85.953 1.515.984l34.297 1.797c.359.3.824.492 1.332.524l18.273.957Zm.336-5.832a2.26 2.26 0 0 0 2.48-2.012 2.263 2.263 0 0 0-2.02-2.48l-8.073-.848a2.22 2.22 0 0 0-1.387.308l-36.637-3.851a1.79 1.79 0 0 0-1.64.734l-71.497-7.512a.9.9 0 0 0-.992.81.9.9 0 0 0 .805.987l71.488 7.512c.258.574.8 1 1.469 1.063l36.625 3.847c.344.32.8.54 1.308.594Zm.699-5.793a2.258 2.258 0 0 0 .703-4.46l-.996-.161a2.27 2.27 0 0 0-1.414.234l-38.707-6.133a1.8 1.8 0 0 0-1.684.649l-73.57-11.649a.896.896 0 0 0-1.031.75.903.903 0 0 0 .75 1.031l73.562 11.649a1.8 1.8 0 0 0 1.403 1.133l38.714 6.132c.333.34.766.579 1.266.657l1.004.156Zm30.04-61.961c.882.883 2.32.883 3.202 0a2.27 2.27 0 0 0 0-3.203l-7.926-7.93a2.3 2.3 0 0 0-1.285-.64l-64.07-64.06a1.81 1.81 0 0 0-1.754-.468L67.664 62.812a.9.9 0 0 0-1.277 0 .9.9 0 0 0 0 1.278l103.418 103.398a1.81 1.81 0 0 0 .468 1.754l64.07 64.059c.063.469.282.918.641 1.277l7.93 7.926Zm4.081-4.176c.836.926 2.266 1 3.195.168.926-.836 1-2.266.168-3.195L235 218.25a2.27 2.27 0 0 0-1.242-.707l-60.723-67.418a1.8 1.8 0 0 0-1.715-.559L83.25 51.773a.91.91 0 0 0-1.277-.07.91.91 0 0 0-.067 1.281l88.07 97.793a1.81 1.81 0 0 0 .376 1.77l60.718 67.422c.04.469.23.933.57 1.308L247 238.336Zm4.32-3.941a2.254 2.254 0 1 0 3.5-2.844l-20.828-25.719a2.24 2.24 0 0 0-1.199-.766l-55-67.91a1.82 1.82 0 0 0-1.687-.644L100.98 43.758a.901.901 0 1 0-1.398 1.137l75.117 92.746a1.8 1.8 0 0 0 .29 1.785l54.995 67.906c.02.473.184.941.504 1.344l20.832 25.715Zm4.672-3.489a2.26 2.26 0 0 0 3.157.504 2.26 2.26 0 0 0 .503-3.16l-25.132-34.582a2.23 2.23 0 0 0-1.164-.832l-47.653-65.574a1.82 1.82 0 0 0-1.652-.742l-62.504-86.016a.913.913 0 0 0-1.266-.203.91.91 0 0 0-.203 1.265l62.508 86.016a1.81 1.81 0 0 0 .188 1.797l47.648 65.578a2.23 2.23 0 0 0 .43 1.363l25.132 34.586Zm4.719-3.441a2.253 2.253 0 0 0 3.121.664 2.263 2.263 0 0 0 .664-3.125l-26.98-41.54a2.2 2.2 0 0 0-1.114-.886l-40.117-61.765a1.82 1.82 0 0 0-1.61-.817L144.68 43.027a.902.902 0 1 0-1.516.98l49.992 76.97a1.8 1.8 0 0 0 .094 1.8l40.117 61.766c-.031.469.082.957.36 1.383Zm4.871-3.207a2.26 2.26 0 0 0 3.91-2.262l-26.422-45.75a2.26 2.26 0 0 0-1.07-.95l-33.695-58.35a1.8 1.8 0 0 0-1.567-.907L168.95 50.605a.9.9 0 0 0-1.234-.332.91.91 0 0 0-.332 1.235l37.789 65.43a1.8 1.8 0 0 0 0 1.804l33.7 58.356c-.06.476.026.968.284 1.406Zm5.047-2.934a2.26 2.26 0 0 0 3.047.992 2.264 2.264 0 0 0 .992-3.043l-24.008-47.117a2.27 2.27 0 0 0-1.023-1.004l-28.13-55.195a1.82 1.82 0 0 0-1.515-.988l-28.086-55.11a.904.904 0 0 0-1.609.82l28.086 55.11a1.78 1.78 0 0 0-.094 1.805l28.13 55.195c-.087.465-.02.957.21 1.414l24.008 47.113Zm5.313-2.426a2.257 2.257 0 0 0 2.98 1.137c1.14-.508 1.648-1.84 1.14-2.98l-21.363-47.973a2.23 2.23 0 0 0-.96-1.05l-22.348-50.188c-.274-.614-.84-1-1.465-1.063l-21.867-49.113a.9.9 0 0 0-1.192-.453.9.9 0 0 0-.457 1.187l21.867 49.114a1.82 1.82 0 0 0-.187 1.796l22.351 50.184c-.105.461-.07.961.137 1.422l21.363 47.973Zm5.265-2.543a2.254 2.254 0 0 0 2.91 1.301 2.246 2.246 0 0 0 1.297-2.91l-18.004-46.902a2.3 2.3 0 0 0-.902-1.106l-16.465-42.879a1.8 1.8 0 0 0-1.402-1.136l-19.512-50.817a.91.91 0 0 0-1.164-.523.91.91 0 0 0-.52 1.168l19.512 50.82a1.8 1.8 0 0 0-.281 1.781l16.46 42.891c-.124.445-.116.945.067 1.418l18.008 46.902Zm5.41-2.203a2.26 2.26 0 1 0 4.3-1.395l-13.87-42.698a2.3 2.3 0 0 0-.852-1.149l-11.98-36.867a1.8 1.8 0 0 0-1.344-1.211l-19.094-58.75a.9.9 0 0 0-1.14-.578.905.905 0 0 0-.582 1.14l19.094 58.747a1.81 1.81 0 0 0-.375 1.773l11.98 36.867c-.152.45-.168.942-.008 1.43Zm5.606-1.668a2.261 2.261 0 1 0 4.367-1.168l-10.04-37.468a2.24 2.24 0 0 0-.788-1.196l-8.578-31.992a1.82 1.82 0 0 0-1.278-1.281l-18.285-68.234a.904.904 0 1 0-1.75.46l18.285 68.239a1.82 1.82 0 0 0-.468 1.746l8.578 31.996a2.24 2.24 0 0 0-.09 1.426l10.039 37.468Zm5.652-1.476a2.254 2.254 0 0 0 2.68 1.742 2.25 2.25 0 0 0 1.742-2.68l-6.39-30.074a2.24 2.24 0 0 0-.727-1.234l-7.125-33.512a1.8 1.8 0 0 0-1.211-1.344l-16.3-76.68a.904.904 0 1 0-1.767.38l16.301 76.68a1.8 1.8 0 0 0-.558 1.714l7.125 33.516a2.25 2.25 0 0 0-.164 1.422Zm5.723-1.215a2.26 2.26 0 0 0 2.582 1.879 2.263 2.263 0 0 0 1.875-2.586l-3.59-22.649a2.27 2.27 0 0 0-.656-1.269l-5.871-37.063a1.8 1.8 0 0 0-1.133-1.402L283.238 61.11a.896.896 0 0 0-1.031-.75.894.894 0 0 0-.75 1.032l13.555 85.593a1.8 1.8 0 0 0-.645 1.688l5.867 37.066a2.26 2.26 0 0 0-.23 1.407Zm5.785-.785a2.263 2.263 0 0 0 2.48 2.02 2.26 2.26 0 0 0 2.016-2.477l-1.75-16.68a2.3 2.3 0 0 0-.594-1.309l-4.34-41.269a1.81 1.81 0 0 0-1.062-1.465l-10.18-96.848a.905.905 0 0 0-.992-.812.906.906 0 0 0-.805.992l10.188 96.856c-.504.367-.805.98-.738 1.644l4.34 41.278c-.243.406-.36.89-.31 1.39l1.75 16.676Zm5.805-.649a2.26 2.26 0 0 0 2.37 2.137 2.26 2.26 0 0 0 2.141-2.371l-.656-12.531a2.2 2.2 0 0 0-.523-1.332l-2.383-45.457a1.82 1.82 0 0 0-.985-1.52L309.25 34.727a.902.902 0 1 0-1.8.086l5.898 112.566c-.524.34-.856.945-.82 1.61l2.386 45.464a2.3 2.3 0 0 0-.383 1.379l.656 12.531Zm5.832-.207a2.265 2.265 0 1 0 4.53 0v-10.257c0-.516-.167-.98-.452-1.364V147.43a1.81 1.81 0 0 0-.91-1.57V18.82a.903.903 0 0 0-1.805 0v127.04a1.81 1.81 0 0 0-.91 1.57v49.101a2.3 2.3 0 0 0-.453 1.364Zm5.847.02a2.257 2.257 0 0 0 4.508.226l.484-9.207a2.2 2.2 0 0 0-.378-1.37l2.863-54.637a1.81 1.81 0 0 0-.82-1.61L340.457 9.27a.9.9 0 0 0-.86-.946.9.9 0 0 0-.949.852l-6.933 132.304a1.79 1.79 0 0 0-.985 1.52l-2.863 54.633c-.3.363-.492.824-.523 1.332l-.485 9.207Zm5.832.34a2.256 2.256 0 0 0 2.02 2.476 2.253 2.253 0 0 0 2.476-2.015l1.024-9.754a2.23 2.23 0 0 0-.305-1.39l6.477-61.61a1.8 1.8 0 0 0-.739-1.645L357.332 4.422a.91.91 0 0 0-.805-.992.905.905 0 0 0-.992.812l-13.683 130.145c-.57.258-.997.8-1.059 1.468l-6.477 61.606a2.24 2.24 0 0 0-.593 1.305l-1.028 9.757Zm5.825.539a2.26 2.26 0 0 0 1.875 2.586 2.263 2.263 0 0 0 2.582-1.875l1.84-11.598c.078-.5-.016-.992-.239-1.406l11.34-71.59a1.81 1.81 0 0 0-.648-1.688L374.348 3.074a.9.9 0 0 0-.75-1.031.897.897 0 0 0-1.032.75l-19.07 120.41a1.78 1.78 0 0 0-1.137 1.402l-11.34 71.59c-.34.332-.578.766-.656 1.266l-1.836 11.594Zm5.777.883a2.26 2.26 0 0 0 1.742 2.68 2.257 2.257 0 0 0 2.68-1.743l3.367-15.84a2.27 2.27 0 0 0-.156-1.418l15.882-74.715a1.81 1.81 0 0 0-.558-1.718l23.73-111.625a.91.91 0 0 0-.695-1.075.905.905 0 0 0-1.07.7l-23.735 111.625c-.59.195-1.07.691-1.207 1.343l-15.882 74.715a2.27 2.27 0 0 0-.727 1.235l-3.367 15.84Zm5.707 1.289a2.267 2.267 0 0 0 1.598 2.77 2.27 2.27 0 0 0 2.773-1.602l6.176-23.043a2.3 2.3 0 0 0-.09-1.426l19.273-71.91a1.82 1.82 0 0 0-.468-1.746L407 10.777a.91.91 0 0 0-.64-1.109.906.906 0 0 0-1.106.645L377.516 113.8a1.8 1.8 0 0 0-1.278 1.277l-19.273 71.914c-.375.29-.656.7-.79 1.192L350 211.227Zm5.598 1.672a2.261 2.261 0 0 0 4.3 1.398l10.22-31.438a2.28 2.28 0 0 0-.009-1.433l21.297-65.535a1.81 1.81 0 0 0-.375-1.766l31.117-95.758a.905.905 0 0 0-.582-1.14.903.903 0 0 0-1.14.578l-31.118 95.758a1.79 1.79 0 0 0-1.343 1.207L366.672 180.3a2.3 2.3 0 0 0-.852 1.152Zm5.625 1.648a2.26 2.26 0 0 0 1.296 2.914 2.264 2.264 0 0 0 2.914-1.3l13.551-35.298c.184-.472.192-.968.063-1.422l23.62-61.515c.235-.621.106-1.3-.284-1.777l33.097-86.207a.9.9 0 0 0-.515-1.165.906.906 0 0 0-1.168.516l-33.094 86.207a1.82 1.82 0 0 0-1.402 1.137l-23.621 61.512a2.25 2.25 0 0 0-.903 1.105l-13.55 35.293Zm5.343 2.36a2.254 2.254 0 0 0 1.14 2.98c1.142.512 2.478 0 2.985-1.14l16.774-37.544c.207-.46.25-.957.14-1.414l25.414-56.883a1.82 1.82 0 0 0-.187-1.797l31.547-70.593a.904.904 0 1 0-1.656-.73l-31.543 70.593a1.8 1.8 0 0 0-1.465 1.063l-25.414 56.878c-.414.227-.762.59-.97 1.055l-16.772 37.543Zm5.38 2.285a2.26 2.26 0 0 0 .991 3.046 2.27 2.27 0 0 0 3.047-.992l19.364-38.004c.234-.453.296-.945.214-1.41l26.809-52.598a1.82 1.82 0 0 0-.098-1.808l26.88-52.738a.916.916 0 0 0-.395-1.223.913.913 0 0 0-1.223.398l-26.875 52.739a1.81 1.81 0 0 0-1.516.988l-26.808 52.598c-.422.207-.79.546-1.02 1.007l-19.367 38.004Zm5.265 2.593a2.254 2.254 0 0 0 .836 3.078 2.255 2.255 0 0 0 3.078-.832l21.61-37.422c.253-.44.34-.921.288-1.386l27.758-48.074a1.8 1.8 0 0 0 0-1.81l28.309-49.019a.91.91 0 0 0-.332-1.234.91.91 0 0 0-1.235.332l-28.3 49.02c-.622 0-1.23.32-1.567.902l-27.758 48.074a2.2 2.2 0 0 0-1.066.95l-21.61 37.425Zm4.953 3.086a2.257 2.257 0 0 0 .668 3.121 2.253 2.253 0 0 0 3.121-.66l23.383-36.004a2.2 2.2 0 0 0 .36-1.383l27.066-41.668c.363-.558.375-1.25.093-1.8l35.371-54.461a.903.903 0 1 0-1.515-.98l-35.371 54.456a1.79 1.79 0 0 0-1.61.82l-27.066 41.669c-.445.164-.84.464-1.113.89Zm5.133 2.86a2.266 2.266 0 0 0 .504 3.16c1.011.73 2.43.508 3.16-.504l24.437-33.63a2.25 2.25 0 0 0 .43-1.362l21.145-29.098a1.82 1.82 0 0 0 .187-1.797l49.738-68.445a.906.906 0 0 0-1.465-1.062l-49.734 68.445a1.79 1.79 0 0 0-1.652.734l-21.14 29.09a2.2 2.2 0 0 0-1.165.836l-24.437 33.629Zm4.449 3.824a2.26 2.26 0 0 0 .324 3.176 2.26 2.26 0 0 0 3.176-.325l23.965-29.59c.32-.394.488-.867.504-1.34l21.136-26.105c.426-.52.508-1.207.29-1.789l59.402-73.348a.9.9 0 1 0-1.395-1.137l-59.41 73.356a1.8 1.8 0 0 0-1.683.64l-21.145 26.11c-.46.117-.879.375-1.2.766Zm4.559 3.66a2.257 2.257 0 0 0 .168 3.191 2.26 2.26 0 0 0 3.191-.164l18.95-21.043c.339-.379.527-.84.57-1.308l29.054-32.262c.45-.5.567-1.176.375-1.773l62.684-69.602a.903.903 0 0 0-.07-1.277.903.903 0 0 0-1.278.062l-62.68 69.602a1.83 1.83 0 0 0-1.722.558L416.5 213.457a2.3 2.3 0 0 0-1.246.707l-18.945 21.043Zm4.257 3.992a2.266 2.266 0 1 0 3.207 3.203l16.102-16.101c.36-.36.574-.813.64-1.278l37.212-37.203a1.8 1.8 0 0 0 .468-1.75l57.465-57.457a.9.9 0 0 0 0-1.277.9.9 0 0 0-1.277 0l-57.465 57.453a1.83 1.83 0 0 0-1.754.469l-37.21 37.203c-.47.07-.919.281-1.278.64l-16.106 16.102Zm4.184 4.094a2.253 2.253 0 0 0-.168 3.191 2.26 2.26 0 0 0 3.195.168l15.989-14.398c.379-.34.617-.781.707-1.242l42.832-38.555c.496-.45.687-1.113.554-1.723l42.176-37.968a.907.907 0 0 0-1.21-1.348l-42.177 37.969a1.8 1.8 0 0 0-1.773.375l-42.832 38.558c-.473.04-.934.227-1.313.574l-15.992 14.395Zm3.645 4.566a2.257 2.257 0 0 0-.325 3.176 2.254 2.254 0 0 0 3.176.328l18.996-15.383a2.23 2.23 0 0 0 .766-1.199L474 199.98a1.8 1.8 0 0 0 .64-1.68l28.883-23.39a.896.896 0 0 0 .13-1.265.9.9 0 0 0-1.27-.13l-28.88 23.383a1.8 1.8 0 0 0-1.784.286L428.73 231.98a2.3 2.3 0 0 0-1.34.504l-18.995 15.383Zm3.793 4.442a2.257 2.257 0 0 0-.504 3.156 2.255 2.255 0 0 0 3.16.504l21.988-15.973c.418-.3.695-.71.836-1.164l38.879-28.238a1.8 1.8 0 0 0 .738-1.653l25.426-18.472a.91.91 0 0 0 .203-1.262.906.906 0 0 0-1.266-.203l-25.43 18.469a1.83 1.83 0 0 0-1.796.187l-38.883 28.246a2.24 2.24 0 0 0-1.363.43Zm3.66 4.61a2.263 2.263 0 0 0-.668 3.124 2.26 2.26 0 0 0 3.125.664l23.261-15.101c.43-.278.735-.672.891-1.118l30.004-19.48c.559-.367.851-.988.82-1.61l31.121-20.21a.9.9 0 0 0 .27-1.246.904.904 0 0 0-1.25-.266L472.3 221.879a1.81 1.81 0 0 0-1.809.094l-30.004 19.48a2.28 2.28 0 0 0-1.383.363l-23.265 15.102Zm2.957 5.019a2.265 2.265 0 0 0-.825 3.09 2.264 2.264 0 0 0 3.09.824l22.18-12.805c.441-.254.766-.637.95-1.07l20.581-11.88c.578-.331.903-.945.903-1.566l42.84-24.722a.904.904 0 0 0-.907-1.567l-42.836 24.73a1.8 1.8 0 0 0-1.8 0l-20.59 11.88a2.25 2.25 0 0 0-1.407.285l-22.18 12.804Zm2.793 5.125a2.26 2.26 0 0 0-.993 3.043 2.26 2.26 0 0 0 3.047.992l15.77-8.035c.453-.23.793-.59 1.004-1.02l21.21-10.805a1.82 1.82 0 0 0 .989-1.523l52.156-26.57a.9.9 0 0 0 .395-1.215.91.91 0 0 0-1.219-.395l-52.16 26.574a1.79 1.79 0 0 0-1.805-.097l-21.215 10.804a2.2 2.2 0 0 0-1.41.215l-15.77 8.036Zm2.714 5.175a2.263 2.263 0 0 0-1.14 2.98 2.26 2.26 0 0 0 2.984 1.141l6.52-2.902c.465-.207.824-.55 1.05-.96l27.88-12.415c.613-.273.996-.84 1.062-1.46l61.05-27.177a.904.904 0 0 0 .458-1.195.91.91 0 0 0-1.192-.46l-61.043 27.175a1.83 1.83 0 0 0-1.8-.188l-27.875 12.41a2.23 2.23 0 0 0-1.422.141l-6.52 2.903Zm2.66 5.239a2.25 2.25 0 0 0-1.296 2.906 2.25 2.25 0 0 0 2.914 1.297l1.125-.43c.473-.18.855-.508 1.105-.906l32.235-12.367a1.8 1.8 0 0 0 1.132-1.403l72.415-27.797a.9.9 0 0 0 .523-1.164.91.91 0 0 0-1.164-.523l-72.418 27.793a1.81 1.81 0 0 0-1.777-.281l-32.239 12.37a2.25 2.25 0 0 0-1.422.063l-1.132.438Zm7.083 28.297a2.26 2.26 0 1 0 .457 4.496l6.465-.68a2.25 2.25 0 0 0 1.308-.594l71.809-7.547a1.81 1.81 0 0 0 1.468-1.058l151.778-15.95a.904.904 0 1 0-.184-1.797l-151.781 15.95a1.8 1.8 0 0 0-1.645-.735l-71.82 7.543a2.27 2.27 0 0 0-1.39-.308l-6.461.68Zm.527 5.82a2.257 2.257 0 0 0 .23 4.508l16.032-.84a2.23 2.23 0 0 0 1.332-.524l84.832-4.441a1.81 1.81 0 0 0 1.515-.984l140.668-7.368a.905.905 0 0 0-.086-1.808l-140.671 7.37a1.8 1.8 0 0 0-1.61-.82l-84.836 4.442a2.28 2.28 0 0 0-1.37-.379l-16.032.84Zm.207 5.828a2.267 2.267 0 0 0-2.266 2.266 2.267 2.267 0 0 0 2.266 2.265h31.871c.512 0 .98-.168 1.36-.453h83.945c.672 0 1.262-.363 1.57-.91h130.883a.903.903 0 0 0 0-1.805H553.535a1.8 1.8 0 0 0-1.57-.906H468.02a2.25 2.25 0 0 0-1.36-.457Zm.066 5.852a2.256 2.256 0 0 0-2.37 2.14 2.26 2.26 0 0 0 2.14 2.371l45.14 2.364a2.26 2.26 0 0 0 1.372-.38l81.758 4.282c.668.035 1.27-.3 1.609-.824l120.648 6.324a.905.905 0 1 0 .09-1.805l-120.644-6.324a1.81 1.81 0 0 0-1.52-.988l-81.754-4.282a2.3 2.3 0 0 0-1.332-.527l-45.137-2.363Zm-.238 5.843a2.26 2.26 0 0 0-2.48 2.012 2.263 2.263 0 0 0 2.02 2.48l56.003 5.887c.504.051.988-.066 1.387-.308l75.781 7.96a1.81 1.81 0 0 0 1.649-.734l112.878 11.86a.906.906 0 0 0 .993-.805.914.914 0 0 0-.805-.992l-112.871-11.86c-.258-.574-.8-1-1.469-1.062l-75.773-7.961a2.3 2.3 0 0 0-1.309-.594Zm-.84 5.785a2.254 2.254 0 0 0-2.582 1.875 2.26 2.26 0 0 0 1.875 2.582l61.805 9.79a2.25 2.25 0 0 0 1.41-.235l71.652 11.348c.66.105 1.293-.16 1.688-.645l103.93 16.457a.897.897 0 0 0 1.03-.75.894.894 0 0 0-.75-1.03l-103.929-16.466a1.8 1.8 0 0 0-1.402-1.133l-71.656-11.347a2.27 2.27 0 0 0-1.27-.66l-61.805-9.786Zm-.918 5.766a2.26 2.26 0 0 0-.937 4.422l64.445 13.695c.5.106.992.035 1.418-.16l67.95 14.442a1.81 1.81 0 0 0 1.718-.56l91.652 19.481a.91.91 0 0 0 1.07-.699.9.9 0 0 0-.695-1.07l-91.652-19.477a1.8 1.8 0 0 0-1.344-1.207l-67.949-14.445a2.27 2.27 0 0 0-1.234-.723l-64.446-13.695Zm-1.054 5.754a2.265 2.265 0 0 0-2.77 1.602 2.26 2.26 0 0 0 1.598 2.765l64.383 17.246c.492.13.984.09 1.425-.082l63.758 17.082a1.81 1.81 0 0 0 1.75-.469l75.36 20.192a.906.906 0 0 0 .464-1.75l-75.363-20.192a1.79 1.79 0 0 0-1.277-1.277l-63.758-17.086a2.27 2.27 0 0 0-1.195-.789l-64.383-17.246Zm-1.688 5.598a2.263 2.263 0 0 0-2.847 1.453 2.263 2.263 0 0 0 1.453 2.847l62.785 20.395a2.25 2.25 0 0 0 1.433-.012l58.48 19a1.8 1.8 0 0 0 1.77-.375l49.832 16.192a.91.91 0 0 0 1.141-.579.907.907 0 0 0-.582-1.14l-49.836-16.192a1.8 1.8 0 0 0-1.207-1.343l-58.48-18.996a2.25 2.25 0 0 0-1.153-.848l-62.781-20.398Zm-1.64 5.632a2.26 2.26 0 0 0-2.914 1.297 2.246 2.246 0 0 0 1.3 2.907l59.34 22.777c.473.18.965.191 1.422.062l50.363 19.332a1.8 1.8 0 0 0 1.778-.285l36.386 13.969a.896.896 0 0 0 1.164-.52.905.905 0 0 0-.52-1.167l-36.382-13.965a1.8 1.8 0 0 0-1.137-1.399l-50.359-19.324a2.26 2.26 0 0 0-1.106-.91l-59.335-22.77Zm-2.227 5.407a2.258 2.258 0 1 0-1.844 4.12l53.645 23.88c.465.207.965.246 1.422.136l37.023 16.48a1.8 1.8 0 0 0 1.797-.187l39.586 17.625a.903.903 0 1 0 .738-1.648l-39.59-17.621a1.8 1.8 0 0 0-1.062-1.461l-37.028-16.484a2.23 2.23 0 0 0-1.05-.961Zm-2.54 5.254a2.27 2.27 0 0 0-3.046.992 2.27 2.27 0 0 0 .992 3.047l44.274 22.55a2.26 2.26 0 0 0 1.418.215l27.132 13.82a1.83 1.83 0 0 0 1.81-.093l48.636 24.777a.9.9 0 0 0 1.215-.394.9.9 0 0 0-.395-1.215l-48.64-24.778a1.8 1.8 0 0 0-.985-1.52l-27.133-13.823a2.27 2.27 0 0 0-1.008-1.02l-44.273-22.55Zm-2.792 5.128a2.255 2.255 0 0 0-3.086.825 2.257 2.257 0 0 0 .824 3.09l29.078 16.789a2.25 2.25 0 0 0 1.407.285l29.777 17.191a1.8 1.8 0 0 0 1.805 0l55.129 31.824a.91.91 0 0 0 1.234-.332.91.91 0 0 0-.332-1.234l-55.121-31.82a1.82 1.82 0 0 0-.906-1.567l-29.774-17.187a2.23 2.23 0 0 0-.95-1.07l-29.077-16.79Zm-2.79 5.137a2.26 2.26 0 0 0-3.124.664 2.255 2.255 0 0 0 .66 3.125l18.184 11.805c.43.277.91.39 1.382.363l31.993 20.774c.566.367 1.25.382 1.804.093l60.18 39.075a.907.907 0 0 0 1.25-.266.905.905 0 0 0-.266-1.25l-60.183-39.074a1.82 1.82 0 0 0-.817-1.61L437.188 391.5a2.25 2.25 0 0 0-.887-1.117l-18.184-11.809Zm-3.19 4.895a2.261 2.261 0 1 0-2.656 3.66l11.616 8.441c.41.297.891.442 1.364.43l34.187 24.832a1.8 1.8 0 0 0 1.797.188l65.516 47.593a.906.906 0 0 0 1.062-1.465l-65.515-47.593a1.81 1.81 0 0 0-.743-1.653l-34.183-24.836a2.25 2.25 0 0 0-.832-1.164l-11.617-8.433Zm-3.637 4.57a2.25 2.25 0 0 0-3.176.332 2.25 2.25 0 0 0 .332 3.172l8.41 6.812c.395.32.871.489 1.344.504l35.64 28.856a1.8 1.8 0 0 0 1.786.281l70.058 56.723a.9.9 0 0 0 1.27-.13.896.896 0 0 0-.13-1.265l-70.062-56.726a1.8 1.8 0 0 0-.644-1.68l-35.649-28.863a2.3 2.3 0 0 0-.761-1.2l-8.414-6.812Zm-3.613 4.578a2.265 2.265 0 0 0-3.196.172 2.257 2.257 0 0 0 .168 3.191l7.043 6.344c.383.34.84.528 1.313.57l37.53 33.79c.5.449 1.177.566 1.774.375l69.836 62.875c.371.336.946.3 1.278-.07a.9.9 0 0 0-.063-1.278l-69.84-62.875a1.81 1.81 0 0 0-.558-1.719l-37.536-33.785a2.24 2.24 0 0 0-.707-1.246l-7.05-6.344Zm-3.95 4.297a2.273 2.273 0 0 0-3.207 0 2.27 2.27 0 0 0 0 3.203l7.684 7.68c.36.36.812.574 1.277.644l38.656 38.649a1.82 1.82 0 0 0 1.75.469l65.57 65.558a.9.9 0 0 0 1.278 0 .9.9 0 0 0 0-1.277l-65.57-65.567a1.8 1.8 0 0 0-.469-1.746l-38.656-38.652a2.2 2.2 0 0 0-.645-1.277l-7.68-7.68Zm-4.218 4.04a2.253 2.253 0 0 0-3.192-.169 2.26 2.26 0 0 0-.172 3.192l10.024 11.128c.34.38.78.614 1.246.707l36.926 41.004c.449.5 1.113.688 1.722.559l59.442 66a.914.914 0 0 0 1.277.07.915.915 0 0 0 .07-1.28l-59.441-66.005a1.8 1.8 0 0 0-.375-1.77l-36.926-41.003a2.27 2.27 0 0 0-.574-1.309l-10.02-11.133Zm-4.211 4.066a2.25 2.25 0 0 0-3.172-.329 2.26 2.26 0 0 0-.332 3.176l11.207 13.84c.32.395.746.652 1.199.766l34.45 42.535c.421.515 1.07.738 1.683.644l53.008 65.446a.905.905 0 0 0 1.402-1.14l-53.008-65.446a1.8 1.8 0 0 0-.285-1.785l-34.441-42.524a2.28 2.28 0 0 0-.504-1.344Zm-4.684 3.476a2.26 2.26 0 0 0-3.16-.5 2.257 2.257 0 0 0-.504 3.156l11.797 16.227a2.2 2.2 0 0 0 1.164.832l31.422 43.246a1.82 1.82 0 0 0 1.652.742l46.43 63.89a.904.904 0 1 0 1.465-1.062l-46.43-63.89c.25-.575.2-1.262-.188-1.797l-31.43-43.25a2.23 2.23 0 0 0-.429-1.363l-11.789-16.223Zm-4.637 3.578a2.257 2.257 0 1 0-3.785 2.457l11.176 17.207c.277.426.672.73 1.117.887l27.926 43c.367.563.988.852 1.61.816l39.39 60.649a.9.9 0 0 0 1.25.265.894.894 0 0 0 .265-1.246l-39.394-60.648a1.8 1.8 0 0 0-.094-1.8l-27.926-43a2.26 2.26 0 0 0-.363-1.384l-11.176-17.203Zm-4.972 3.059a2.256 2.256 0 0 0-3.086-.824 2.267 2.267 0 0 0-.825 3.09l10.004 17.32c.258.441.637.765 1.07.949l24.157 41.832c.332.578.945.902 1.566.902l32.77 56.75a.9.9 0 0 0 1.234.328.9.9 0 0 0 .332-1.226L415.465 477.5a1.8 1.8 0 0 0 0-1.805l-24.16-41.836a2.22 2.22 0 0 0-.285-1.406l-10.004-17.316Zm-5.098 2.832a2.265 2.265 0 0 0-3.043-.992 2.27 2.27 0 0 0-.992 3.047l7.969 15.632c.234.453.593.793 1.023 1.008l20.434 40.098c.304.597.89.953 1.52.988l26.007 51.04a.906.906 0 1 0 1.613-.824l-26.012-51.04a1.81 1.81 0 0 0 .094-1.809l-20.433-40.097a2.25 2.25 0 0 0-.211-1.414l-7.969-15.633Zm-5.203 2.66a2.258 2.258 0 0 0-4.121 1.844l5.562 12.488c.207.461.551.82.961 1.05l16.692 37.481c.273.614.84 1 1.46 1.063l21.06 47.277a.915.915 0 0 0 1.194.461c.454-.203.657-.738.454-1.195l-21.051-47.278a1.82 1.82 0 0 0 .187-1.796l-16.691-37.485a2.3 2.3 0 0 0-.137-1.426l-5.566-12.488Zm-5.367 2.313a2.255 2.255 0 1 0-4.211 1.613l2.765 7.199c.18.477.504.855.903 1.11l13.207 34.394a1.8 1.8 0 0 0 1.402 1.133L399 519.414a.91.91 0 0 0 1.168.52.91.91 0 0 0 .523-1.164l-19.593-51.032a1.78 1.78 0 0 0 .28-1.773l-13.206-34.402a2.23 2.23 0 0 0-.067-1.422l-2.761-7.2Zm-5.871 2.238a1.804 1.804 0 0 0-2.278-1.16 1.803 1.803 0 0 0-1.164 2.277l11.563 35.582a1.81 1.81 0 0 0 1.343 1.21l17.891 55.056a.907.907 0 0 0 1.14.582.9.9 0 0 0 .583-1.137l-17.89-55.063a1.8 1.8 0 0 0 .374-1.765l-11.562-35.586Zm-5.579 1.734a1.81 1.81 0 0 0-2.21-1.285 1.816 1.816 0 0 0-1.286 2.219l8.22 30.644a1.8 1.8 0 0 0 1.276 1.282l15.856 59.171a.904.904 0 0 0 1.746-.464L361.645 459.3c.44-.442.64-1.102.468-1.75l-8.215-30.645Zm-5.671 1.38a1.807 1.807 0 1 0-3.54.746l5.84 27.48a1.82 1.82 0 0 0 1.211 1.347l13.403 63.043a.903.903 0 0 0 1.765-.375l-13.402-63.047a1.81 1.81 0 0 0 .558-1.718l-5.84-27.477Zm-5.73 1.1a1.808 1.808 0 0 0-3.57.57l4.151 26.192c.102.657.55 1.18 1.133 1.399l10.531 66.484a.905.905 0 0 0 1.035.75.9.9 0 0 0 .75-1.031l-10.53-66.488c.483-.395.75-1.028.644-1.688l-4.145-26.191Zm-5.763.93a1.803 1.803 0 0 0-1.984-1.613 1.806 1.806 0 0 0-1.613 1.984l2.715 25.84a1.79 1.79 0 0 0 1.058 1.465l7.531 71.602a.9.9 0 0 0 .993.808.9.9 0 0 0 .804-.992l-7.531-71.605c.504-.368.805-.98.738-1.645l-2.715-25.84Zm-5.816.457a1.808 1.808 0 0 0-3.61.184l1.422 27.086a1.81 1.81 0 0 0 .985 1.515l4.055 77.45a.904.904 0 0 0 1.804-.094l-4.058-77.45a1.82 1.82 0 0 0 .82-1.609l-1.418-27.086Zm-11.664.309a1.808 1.808 0 0 0-3.61-.184l-1.757 33.489a1.82 1.82 0 0 0 .816 1.609l-5.21 99.457a.9.9 0 1 0 1.8.094l5.215-99.453a1.78 1.78 0 0 0 .98-1.516l1.758-33.484Zm-5.828-.352a1.815 1.815 0 0 0-1.613-1.984 1.813 1.813 0 0 0-1.985 1.613l-4.316 41.035c-.067.66.234 1.278.734 1.645l-11.812 112.402a.91.91 0 0 0 .804.992c.5.047.946-.312.992-.808l11.817-112.395c.57-.257.996-.8 1.058-1.464l4.317-41.028Zm-5.793-.691a1.81 1.81 0 0 0-1.512-2.059 1.803 1.803 0 0 0-2.058 1.512l-8.301 52.723a1.83 1.83 0 0 0 .648 1.683l-19.156 121.664a.905.905 0 0 0 1.789.278l19.152-121.66a1.81 1.81 0 0 0 1.137-1.41l8.3-52.72Zm-5.754-.957a1.805 1.805 0 0 0-1.399-2.14 1.8 1.8 0 0 0-2.14 1.39l-13.527 63.629a1.8 1.8 0 0 0 .558 1.719l-27.41 128.937a.902.902 0 1 0 1.766.375l27.41-128.937a1.81 1.81 0 0 0 1.21-1.348l13.528-63.629Zm-87.895-130.777a1.805 1.805 0 0 0 2.141-1.399 1.803 1.803 0 0 0-1.39-2.14l-36.723-7.805a1.8 1.8 0 0 0-1.715.558L99.473 271.2a.9.9 0 0 0-1.07.696.9.9 0 0 0 .695 1.07l76.824 16.324a1.79 1.79 0 0 0 1.348 1.207l36.718 7.805Zm1.036-5.75a1.816 1.816 0 0 0 2.218-1.286 1.81 1.81 0 0 0-1.281-2.21L182.133 280a1.82 1.82 0 0 0-1.75.469l-79.918-21.406a.904.904 0 0 0-.465 1.746l79.918 21.414a1.81 1.81 0 0 0 1.285 1.277l33.828 9.063ZM216.8 287a1.816 1.816 0 0 0 2.282-1.16 1.806 1.806 0 0 0-1.16-2.277l-32.215-10.465a1.8 1.8 0 0 0-1.77.375L100.23 246.28a.91.91 0 0 0-1.14.582.904.904 0 0 0 .582 1.14l83.707 27.196c.129.61.574 1.133 1.21 1.34l32.22 10.465Zm1.774-5.566a1.806 1.806 0 1 0 1.29-3.375l-31.61-12.133a1.82 1.82 0 0 0-1.785.281L98.594 232.48a.9.9 0 0 0-1.164.52.9.9 0 0 0 .523 1.164l87.871 33.727a1.8 1.8 0 0 0 1.14 1.402l31.61 12.133Zm2.164-5.418a1.806 1.806 0 0 0 1.469-3.297l-32.152-14.317a1.82 1.82 0 0 0-1.797.188l-94.75-42.176a.9.9 0 0 0-1.192.457.906.906 0 0 0 .457 1.195l94.75 42.18a1.8 1.8 0 0 0 1.059 1.461l32.152 14.313Zm2.535-5.246c.895.453 1.98.097 2.434-.79a1.8 1.8 0 0 0-.793-2.433l-33.512-17.074a1.81 1.81 0 0 0-1.804.093L83.355 196.441a.906.906 0 0 0-1.214.395.9.9 0 0 0 .394 1.215l106.242 54.125a1.82 1.82 0 0 0 .985 1.52l33.511 17.07Zm2.711-5.165a1.81 1.81 0 0 0 2.47-.656 1.81 1.81 0 0 0-.657-2.469l-36.317-20.96a1.81 1.81 0 0 0-1.812 0l-119.79-69.15a.903.903 0 0 0-1.23.328.907.907 0 0 0 .329 1.23l119.789 69.15a1.8 1.8 0 0 0 .902 1.566Zm2.891-5.066c.832.54 1.953.305 2.496-.531a1.81 1.81 0 0 0-.527-2.496l-40.766-26.473a1.8 1.8 0 0 0-1.8-.094L59.964 147.63a.903.903 0 0 0-1.25.27.903.903 0 0 0 .265 1.25l128.313 83.312a1.83 1.83 0 0 0 .82 1.61l40.766 26.468Zm3.152-4.91c.809.59 1.942.406 2.528-.402a1.807 1.807 0 0 0-.403-2.528l-47.28-34.344a1.8 1.8 0 0 0-1.798-.187l-131.5-95.523a.906.906 0 0 0-1.261.203.9.9 0 0 0 .203 1.261l131.492 95.524a1.79 1.79 0 0 0 .738 1.652Zm3.407-4.742c.777.633 1.91.511 2.543-.262a1.806 1.806 0 0 0-.262-2.543l-57.942-46.91a1.82 1.82 0 0 0-1.789-.281L51.81 98.73a.897.897 0 0 0-1.27.132.9.9 0 0 0 .129 1.27l126.18 102.16a1.8 1.8 0 0 0 .648 1.684l57.941 46.91Zm3.785-4.442a1.82 1.82 0 0 0 2.558-.132 1.814 1.814 0 0 0-.132-2.56l-66.348-59.726a1.8 1.8 0 0 0-1.77-.375L56.355 78.172a.903.903 0 0 0-1.277.07.903.903 0 0 0 .063 1.278L172.316 185a1.8 1.8 0 0 0 .559 1.723l66.344 59.726Zm189.715 37.016a1.8 1.8 0 0 0-1.16 2.277 1.8 1.8 0 0 0 2.277 1.16l36.394-11.82a1.79 1.79 0 0 0 1.207-1.344l89.434-29.046a.905.905 0 0 0-.563-1.72l-89.433 29.048a1.81 1.81 0 0 0-1.766-.375l-36.394 11.824Zm1.55 5.629a1.804 1.804 0 0 0-1.277 2.219 1.81 1.81 0 0 0 2.215 1.277l39.644-10.621a1.81 1.81 0 0 0 1.278-1.281l115.55-30.957a.906.906 0 0 0 .645-1.106.906.906 0 0 0-1.11-.64l-115.554 30.957a1.82 1.82 0 0 0-1.746-.47Zm1.582 5.629a1.81 1.81 0 0 0-1.398 2.144 1.815 1.815 0 0 0 2.148 1.395l47.196-10.031a1.8 1.8 0 0 0 1.343-1.207l139.293-29.602a.91.91 0 0 0 .696-1.07.907.907 0 0 0-1.07-.7L480.98 285.25a1.81 1.81 0 0 0-1.718-.555l-47.196 10.028Zm.942 5.765a1.8 1.8 0 0 0-1.5 2.067 1.8 1.8 0 0 0 2.066 1.504l59.79-9.47a1.8 1.8 0 0 0 1.402-1.136l153.39-24.289a.903.903 0 0 0 .75-1.031.9.9 0 0 0-1.031-.75l-153.387 24.289a1.81 1.81 0 0 0-1.691-.645l-59.79 9.473Zm0 0" style="stroke:none;fill-rule:nonzero;fill:#0d2740;fill-opacity:1"/></g></g><mask id="j"><g filter="url(#e)"><path d="M0 0h1200v675H0z" style="fill:#000;fill-opacity:.75;stroke:none"/></g></mask></g></g></svg>