<svg xmlns="http://www.w3.org/2000/svg" width="1600" height="900" viewBox="0 0 1200 675"><defs><clipPath id="c"><path d="M74 479h373v150H74Zm0 0"/></clipPath><clipPath id="d"><path d="M.531 107.918 641.551.023l95.34 566.43L95.87 674.348Zm0 0"/></clipPath><clipPath id="e"><path d="M.531 107.918 641.551.023l95.34 566.43L95.87 674.348Zm0 0"/></clipPath><clipPath id="f"><path d="M146 335h373v149H146Zm0 0"/></clipPath><clipPath id="g"><path d="M.531 107.918 641.551.023l95.34 566.43L95.87 674.348Zm0 0"/></clipPath><clipPath id="h"><path d="M.531 107.918 641.551.023l95.34 566.43L95.87 674.348Zm0 0"/></clipPath><clipPath id="i"><path d="M218 190h373v149H218Zm0 0"/></clipPath><clipPath id="j"><path d="M.531 107.918 641.551.023l95.34 566.43L95.87 674.348Zm0 0"/></clipPath><clipPath id="k"><path d="M.531 107.918 641.551.023l95.34 566.43L95.87 674.348Zm0 0"/></clipPath><clipPath id="l"><path d="M290 45h373v150H290Zm0 0"/></clipPath><clipPath id="m"><path d="M.531 107.918 641.551.023l95.34 566.43L95.87 674.348Zm0 0"/></clipPath><clipPath id="n"><path d="M.531 107.918 641.551.023l95.34 566.43L95.87 674.348Zm0 0"/></clipPath><clipPath id="o"><path d="M290 106h18v80h-18Zm0 0"/></clipPath><clipPath id="p"><path d="M.531 107.918 641.551.023l95.34 566.43L95.87 674.348Zm0 0"/></clipPath><clipPath id="q"><path d="M.531 107.918 641.551.023l95.34 566.43L95.87 674.348Zm0 0"/></clipPath><clipPath id="r"><path d="M218 251h18v80h-18Zm0 0"/></clipPath><clipPath id="s"><path d="M.531 107.918 641.551.023l95.34 566.43L95.87 674.348Zm0 0"/></clipPath><clipPath id="t"><path d="M.531 107.918 641.551.023l95.34 566.43L95.87 674.348Zm0 0"/></clipPath><clipPath id="u"><path d="M146 395h18v81h-18Zm0 0"/></clipPath><clipPath id="v"><path d="M.531 107.918 641.551.023l95.34 566.43L95.87 674.348Zm0 0"/></clipPath><clipPath id="w"><path d="M.531 107.918 641.551.023l95.34 566.43L95.87 674.348Zm0 0"/></clipPath><clipPath id="x"><path d="M74 540h17v73H74Zm0 0"/></clipPath><clipPath id="y"><path d="M.531 107.918 641.551.023l95.34 566.43L95.87 674.348Zm0 0"/></clipPath><clipPath id="z"><path d="M.531 107.918 641.551.023l95.34 566.43L95.87 674.348Zm0 0"/></clipPath><clipPath id="b"><path d="M0 0h738v674H0z"/></clipPath><clipPath id="D"><path d="M.813 5.309H285.39V280H.813Zm0 0"/></clipPath><clipPath id="C"><path d="M0 0h290v280H0z"/></clipPath><filter id="A" width="100%" height="100%" x="0%" y="0%" filterUnits="objectBoundingBox"><feColorMatrix in="SourceGraphic" values="0 0 0 0 1 0 0 0 0 1 0 0 0 0 1 0 0 0 1 0"/></filter></defs><g mask="url(#a)" transform="translate(201)"><g clip-path="url(#b)"><g clip-path="url(#c)"><g clip-path="url(#d)"><g clip-path="url(#e)"><path d="m154.27 479.883 280.843 11.922 11.867 72.425-80.011 64.168-11.864-72.425L74.258 544.05z" style="stroke:none;fill-rule:nonzero;fill:#0d2740;fill-opacity:1"/></g></g></g><g clip-path="url(#f)"><g clip-path="url(#g)"><g clip-path="url(#h)"><path d="m226.223 335.172 280.843 11.918 11.868 72.426-80.008 64.168-11.867-72.422-280.844-11.926z" style="stroke:none;fill-rule:nonzero;fill:#0d2740;fill-opacity:1"/></g></g></g><g clip-path="url(#i)"><g clip-path="url(#j)"><g clip-path="url(#k)"><path d="m298.18 190.457 280.843 11.922 11.868 72.422-80.012 64.168-11.863-72.422-280.844-11.922z" style="stroke:none;fill-rule:nonzero;fill:#0d2740;fill-opacity:1"/></g></g></g><g clip-path="url(#l)"><g clip-path="url(#m)"><g clip-path="url(#n)"><path d="m650.984 57.664 11.86 72.426-80.012 64.164-11.86-72.418-275.96-11.719-4.88-.207v-.008l4.266-3.422 75.735-60.738z" style="stroke:none;fill-rule:nonzero;fill:#0d2740;fill-opacity:1"/></g></g></g><g clip-path="url(#o)"><g clip-path="url(#p)"><g clip-path="url(#q)"><path d="m294.398 106.48 13.235 78.622-4.711.793-12.79-75.993z" style="stroke:none;fill-rule:nonzero;fill:#0d2740;fill-opacity:1"/></g></g></g><g clip-path="url(#r)"><g clip-path="url(#s)"><g clip-path="url(#t)"><path d="m222.422 251.098 13.234 78.625-4.71.789-12.79-75.989z" style="stroke:none;fill-rule:nonzero;fill:#0d2740;fill-opacity:1"/></g></g></g><g clip-path="url(#u)"><g clip-path="url(#v)"><g clip-path="url(#w)"><path d="m150.48 395.898 13.235 78.622-4.711.793-12.79-75.993z" style="stroke:none;fill-rule:nonzero;fill:#0d2740;fill-opacity:1"/></g></g></g><g clip-path="url(#x)"><g clip-path="url(#y)"><g clip-path="url(#z)"><path d="m78.523 540.602 12.118 71.996-4.895-.282L74.25 544.02z" style="stroke:none;fill-rule:nonzero;fill:#0d2740;fill-opacity:1"/></g></g></g></g><mask id="a"><g filter="url(#A)"><path d="M0 0h1200v675H0z" style="fill:#000;fill-opacity:.75;stroke:none"/></g></mask></g><g mask="url(#B)" transform="translate(713 394)"><g clip-path="url(#C)"><g clip-path="url(#D)"><path d="M118.61 5.309c-28.45 0-50.032 6.375-64.747 20.109C40.13 38.664 32.77 58.281 30.81 83.789a32 32 0 0 0-5.95.922q-1.459.37-2.879.875a32 32 0 0 0-7.972 4.203 31.3 31.3 0 0 0-4.512 3.98 31.7 31.7 0 0 0-3.687 4.758 33 33 0 0 0-1.489 2.621 32 32 0 0 0-2.894 8.532 32 32 0 0 0-.54 5.992v132.441c0 1.047.051 2.086.153 3.125q.155 1.558.461 3.098.306 1.535.758 3.035.457 1.496 1.055 2.945.602 1.447 1.34 2.829a31 31 0 0 0 1.609 2.683q.867 1.303 1.863 2.512a32 32 0 0 0 4.418 4.422q1.212.99 2.512 1.863a33 33 0 0 0 2.687 1.61 31 31 0 0 0 2.828 1.335q1.447.598 2.946 1.055a31.8 31.8 0 0 0 9.254 1.371 32 32 0 0 0 6.222-.61 33 33 0 0 0 3.035-.761 33 33 0 0 0 2.946-1.055 31.6 31.6 0 0 0 5.511-2.945 32 32 0 0 0 4.832-3.965 32 32 0 0 0 5.575-7.515q.738-1.382 1.336-2.829c.398-.964.75-1.949 1.054-2.945.305-1 .555-2.012.762-3.035a32 32 0 0 0 .61-6.223v-7.355H221.62v7.355q0 1.568.152 3.125.152 1.558.461 3.098.305 1.535.758 3.035.457 1.496 1.055 2.945a32 32 0 0 0 1.34 2.829 32 32 0 0 0 1.605 2.683 32 32 0 0 0 3.965 4.832 32 32 0 0 0 7.516 5.574q1.382.74 2.828 1.336 1.448.598 2.949 1.055a31.8 31.8 0 0 0 9.254 1.371 32 32 0 0 0 6.219-.61 32 32 0 0 0 5.984-1.816 31.6 31.6 0 0 0 5.512-2.945 32 32 0 0 0 4.832-3.965 31 31 0 0 0 2.097-2.32 32 32 0 0 0 1.868-2.512 32 32 0 0 0 1.605-2.683 31.7 31.7 0 0 0 3.152-8.81 31 31 0 0 0 .461-3.097q.153-1.556.153-3.125V115.676a31 31 0 0 0-.157-3.004 32 32 0 0 0-.433-2.973 31 31 0 0 0-.715-2.918 32.1 32.1 0 0 0-5.445-10.64 31.8 31.8 0 0 0-6.45-6.258 33 33 0 0 0-2.507-1.656 32.4 32.4 0 0 0-5.422-2.57 32 32 0 0 0-2.867-.895 32 32 0 0 0-2.942-.625 32 32 0 0 0-2.984-.348c-1.961-25.508-8.828-45.125-23.055-58.371-14.222-13.242-36.297-20.11-64.746-20.11Zm0 9.808h49.054q7.628.101 15.203.98l-10.3 43.169v77.5a127 127 0 0 0-29.43-3.434 130.5 130.5 0 0 0-29.43 3.434v-77.5l-10.3-43.168c5.05-.586 10.12-.914 15.202-.98m-14.715 45.13v78.972a71.4 71.4 0 0 0-11.286 5.02 71 71 0 0 0-10.257 6.886 71 71 0 0 0-8.915 8.547 71 71 0 0 0-7.312 9.96c-.488.981-.98 1.47-1.473 2.45v-56.41a32 32 0 0 0-.453-5.234 32 32 0 0 0-1.304-5.094A32.1 32.1 0 0 0 50.2 89.02a32 32 0 0 0-4.618-2.516 32 32 0 0 0-4.965-1.734c1.473-24.524 8.34-41.204 20.113-52.485a60.6 60.6 0 0 1 15.266-10.12 60.5 60.5 0 0 1 8.606-3.212 61 61 0 0 1 8.992-1.875Zm88.785-43.169a63 63 0 0 1 8.972 1.934 62.3 62.3 0 0 1 16.61 7.688 62 62 0 0 1 7.281 5.585c11.773 10.793 18.152 27.961 20.113 52.485a32 32 0 0 0-4.965 1.734 32 32 0 0 0-4.617 2.516 32.5 32.5 0 0 0-4.14 3.238 32 32 0 0 0-3.555 3.875 31.8 31.8 0 0 0-4.996 9.21 32 32 0 0 0-1.309 5.094 32 32 0 0 0-.453 5.235v56.41c-.492-.98-.98-1.469-1.473-2.45a73.64 73.64 0 0 0-26.535-25.316 73.6 73.6 0 0 0-11.234-5.097V60.246ZM54.844 248.113q0 1.086-.106 2.164-.104 1.08-.32 2.145-.211 1.06-.523 2.101a22 22 0 0 1-1.657 3.997 24 24 0 0 1-1.113 1.859c-.402.598-.832 1.18-1.293 1.738a21.7 21.7 0 0 1-3.059 3.059c-.558.46-1.14.89-1.738 1.293q-.902.598-1.86 1.113a22.4 22.4 0 0 1-3.995 1.656q-1.043.311-2.102.524c-.71.14-1.426.25-2.144.32a22 22 0 0 1-4.329 0 22.6 22.6 0 0 1-4.242-.844 22 22 0 0 1-4-1.656 24 24 0 0 1-1.855-1.113 22 22 0 0 1-1.742-1.293 21.7 21.7 0 0 1-3.059-3.059 22 22 0 0 1-2.402-3.598 20 20 0 0 1-.926-1.957 22 22 0 0 1-1.684-8.45V115.677q-.001-1.089.11-2.164a22 22 0 0 1 3.613-10.102q.603-.901 1.289-1.738c.457-.559.945-1.094 1.453-1.606a23 23 0 0 1 1.606-1.457 22.5 22.5 0 0 1 3.597-2.402q.96-.51 1.961-.926a22 22 0 0 1 4.14-1.258 22 22 0 0 1 4.306-.421 22 22 0 0 1 4.308.421 22 22 0 0 1 6.098 2.184 22 22 0 0 1 3.597 2.402q.838.691 1.606 1.457.768.768 1.453 1.606a21.6 21.6 0 0 1 2.406 3.598 22.4 22.4 0 0 1 1.657 3.996c.207.691.382 1.394.523 2.101.145.711.25 1.422.32 2.145q.106 1.075.106 2.164Zm198.66-154.511q1.084-.007 2.168.097a22 22 0 0 1 4.25.828q1.042.316 2.043.727a23 23 0 0 1 1.965.922c.636.344 1.257.71 1.86 1.113a22 22 0 0 1 1.745 1.293 21.7 21.7 0 0 1 3.063 3.063q.685.838 1.289 1.742.603.901 1.113 1.863c.34.637.648 1.293.922 1.96q.416 1.005.726 2.044a22 22 0 0 1 .93 6.418v132.441q0 1.086-.105 2.164-.111 1.08-.32 2.145-.212 1.06-.528 2.101a22 22 0 0 1-.727 2.04q-.416 1.001-.925 1.957a23 23 0 0 1-1.118 1.859c-.398.598-.828 1.18-1.289 1.738a21.7 21.7 0 0 1-3.058 3.059q-.839.69-1.742 1.293a23 23 0 0 1-1.856 1.113 22.5 22.5 0 0 1-4 1.656 22.6 22.6 0 0 1-4.242.844 22 22 0 0 1-4.328 0 22.6 22.6 0 0 1-4.242-.844 22.2 22.2 0 0 1-5.856-2.77 22 22 0 0 1-1.742-1.292 21.7 21.7 0 0 1-3.059-3.059c-.46-.558-.89-1.14-1.289-1.738a23 23 0 0 1-1.117-1.86q-.51-.954-.926-1.957a22 22 0 0 1-.726-2.039 22 22 0 0 1-.953-6.41V115.676q-.005-1.09.097-2.168a22 22 0 0 1 .832-4.254q.311-1.04.727-2.043.41-1.004.922-1.961.51-.96 1.113-1.863.603-.904 1.29-1.742.689-.841 1.456-1.61a22 22 0 0 1 1.606-1.453 22 22 0 0 1 3.606-2.406 22.5 22.5 0 0 1 4.007-1.649 22.1 22.1 0 0 1 6.418-.926m-110.367 49.05c40.222 0 58.863 16.188 68.672 31.883a75.5 75.5 0 0 1 9.32 26.98H65.145a75.5 75.5 0 0 1 9.32-26.98c9.808-15.695 28.45-31.883 68.672-31.883m-78.485 68.672h156.97v19.621H64.651Zm0 0" style="stroke:none;fill-rule:nonzero;fill:#0d2740;fill-opacity:1"/></g></g><mask id="B"><g filter="url(#A)"><path d="M0 0h1200v675H0z" style="fill:#000;fill-opacity:.75;stroke:none"/></g></mask></g></svg>