<svg xmlns="http://www.w3.org/2000/svg" width="1600" height="900" viewBox="0 0 1200 675"><defs><clipPath id="b"><path d="M.105 0H834v674H.105Zm0 0"/></clipPath><clipPath id="e"><path d="M1 2h832v670.914H1Zm0 0"/></clipPath><clipPath id="d"><path d="M0 0h834v674H0z"/></clipPath><clipPath id="g"><path d="M552 208h566.29v394H552Zm0 0"/></clipPath><clipPath id="j"><path d="M.055 37h566.234v320H.055Zm0 0"/></clipPath><clipPath id="k"><path d="M.055 1.09h566.234V21H.055Zm0 0"/></clipPath><clipPath id="l"><path d="M.055 373h566.234v20H.055Zm0 0"/></clipPath><clipPath id="i"><path d="M0 0h567v394H0z"/></clipPath><clipPath id="a"><path d="M0 0h1119v674H0z"/></clipPath><filter id="f" width="100%" height="100%" x="0%" y="0%" filterUnits="objectBoundingBox"><feColorMatrix in="SourceGraphic" values="0 0 0 0 1 0 0 0 0 1 0 0 0 0 1 0 0 0 1 0"/></filter></defs><g clip-path="url(#a)" transform="translate(42)"><g clip-path="url(#b)" mask="url(#c)"><g clip-path="url(#d)"><g clip-path="url(#e)"><path d="M721.938 673.996a27 27 0 0 1-5.391-.531 27.3 27.3 0 0 1-5.184-1.578 27.5 27.5 0 0 1-8.945-6.024L92.468 50.828a28 28 0 0 1-1.847-2.047 29 29 0 0 1-1.64-2.218 30 30 0 0 1-1.41-2.372 27 27 0 0 1-1.173-2.496 27 27 0 0 1-.921-2.597 28 28 0 0 1-.665-2.68 27 27 0 0 1-.398-2.73 27 27 0 0 1-.129-2.754q.004-1.383.145-2.754.135-1.375.41-2.727a27.7 27.7 0 0 1 1.613-5.27q.534-1.272 1.184-2.492a29 29 0 0 1 1.425-2.359 27 27 0 0 1 1.649-2.21 27 27 0 0 1 1.86-2.04 27 27 0 0 1 2.046-1.848 28 28 0 0 1 2.219-1.636 28 28 0 0 1 4.867-2.586 28.12 28.12 0 0 1 21.512.054c.847.356 1.68.75 2.488 1.188q1.22.653 2.363 1.422a28 28 0 0 1 4.25 3.508L742.27 626.117q1.492 1.466 2.75 3.14a27.95 27.95 0 0 1 5.07 11.344c.273 1.372.441 2.75.504 4.145a28 28 0 0 1-.114 4.172 28 28 0 0 1-2.078 8.059 28 28 0 0 1-7.277 10.074 28 28 0 0 1-7.004 4.504 28 28 0 0 1-3.922 1.418 27.5 27.5 0 0 1-4.094.824 28 28 0 0 1-4.168.2m-461.329-374.61a2.46 2.46 0 0 0-.898-1.085 2.5 2.5 0 0 0-1.336-.442 3.3 3.3 0 0 0-1.227.184 3.3 3.3 0 0 0-1.078.617q-.48.41-.777.965a3.3 3.3 0 0 0-.375 1.184 175.3 175.3 0 0 0-4.066 37.207q-.03 4.1.14 8.203c.113 2.734.297 5.46.547 8.187q.37 4.083.945 8.149a167 167 0 0 0 7.743 31.836q1.36 3.873 2.902 7.675a169 169 0 0 0 6.918 14.872 168 168 0 0 0 8.344 14.125 168 168 0 0 0 9.691 13.234 169 169 0 0 0 10.945 12.219 166 166 0 0 0 5.91 5.687 165 165 0 0 0 6.18 5.395 164 164 0 0 0 13.125 9.844 166 166 0 0 0 6.906 4.425q3.509 2.132 7.118 4.082a169 169 0 0 0 7.308 3.727 166 166 0 0 0 15.121 6.352 167 167 0 0 0 23.672 6.675q4.019.816 8.078 1.438 4.053.622 8.137 1.039 4.085.422 8.18.64 4.096.222 8.199.239a172.4 172.4 0 0 0 36.902-4.067q.62-.093 1.168-.398.548-.301.953-.778.41-.48.621-1.066c.141-.395.211-.797.207-1.215a2.6 2.6 0 0 0-.296-1.332 2.63 2.63 0 0 0-.922-1.008ZM416.96 170.685a172.5 172.5 0 0 0-36.902 4.066 3.6 3.6 0 0 0-1.063.48 3.57 3.57 0 0 0-1.394 1.829 3.5 3.5 0 0 0-.184 1.148q.012 1.477.914 2.645l194.98 196.503a3.65 3.65 0 0 0 2.543 1.122 3.2 3.2 0 0 0 2.133-.879q.438-.406.7-.942.262-.534.316-1.129a157.6 157.6 0 0 0 4.375-37.004c.012-2.734-.047-5.468-.168-8.199q-.183-4.1-.57-8.183a166 166 0 0 0-2.336-16.234 169 169 0 0 0-1.762-8.012 168 168 0 0 0-7.613-23.383 174 174 0 0 0-3.293-7.512 171 171 0 0 0-3.657-7.344 169 169 0 0 0-4.015-7.156 164 164 0 0 0-4.36-6.95 169 169 0 0 0-9.71-13.214 169 169 0 0 0-5.332-6.234 173 173 0 0 0-5.633-5.965 166 166 0 0 0-5.918-5.68 162 162 0 0 0-6.188-5.387 169 169 0 0 0-6.445-5.074 164 164 0 0 0-6.688-4.75 166.6 166.6 0 0 0-21.344-12.21 161 161 0 0 0-7.484-3.356 160 160 0 0 0-7.64-2.985 172 172 0 0 0-7.778-2.61 168 168 0 0 0-32.105-6.526 168 168 0 0 0-16.38-.875m406.637 137.343a590 590 0 0 0-35.735-50.445 590 590 0 0 0-40.82-46.422 589 589 0 0 0-45.453-41.894 589 589 0 0 0-49.594-36.907 433.5 433.5 0 0 0-54.156-30.949 432 432 0 0 0-28.606-12.48 435 435 0 0 0-29.425-10.39 435 435 0 0 0-30.098-8.25 434 434 0 0 0-30.613-6.063 432 432 0 0 0-30.97-3.852 433 433 0 0 0-31.167-1.617 385.6 385.6 0 0 0-66.027 5.633 385.4 385.4 0 0 0-64.094 16.836 3.25 3.25 0 0 0-1.586.882q-.673.664-.895 1.579a3.3 3.3 0 0 0 .059 1.816q.287.898.996 1.516l37.41 38.02a6.8 6.8 0 0 0 4.676 2.034h2.035q42.88-12.07 87.426-12.199a371 371 0 0 1 54.32 4.684 373 373 0 0 1 26.754 5.316 371 371 0 0 1 26.293 7.262 373 373 0 0 1 25.692 9.172 374 374 0 0 1 24.949 11.03 374 374 0 0 1 24.074 12.833 371 371 0 0 1 23.066 14.562 529.6 529.6 0 0 1 86.035 71.164 529.8 529.8 0 0 1 69.2 87.625 547 547 0 0 1-50.586 67.836 547.4 547.4 0 0 1-60.426 59.239 3.35 3.35 0 0 0-.992 1.113q-.375.669-.434 1.426-.013.768.309 1.46.323.699.914 1.184l34.258 34.563q.447.601 1.12.922.674.325 1.423.3a2.43 2.43 0 0 0 2.03-.914 592 592 0 0 0 64.567-63.757 592 592 0 0 0 54.07-72.875 56.8 56.8 0 0 0 6.598-14.618 56.8 56.8 0 0 0 2.258-15.879 56.8 56.8 0 0 0-2.258-15.878 56.8 56.8 0 0 0-6.598-14.617M416.96 562.172a373 373 0 0 1-27.313-1.192 375 375 0 0 1-27.156-3.183 374 374 0 0 1-53.25-12.27 372 372 0 0 1-25.808-9.015 373 373 0 0 1-25.082-10.88 373.4 373.4 0 0 1-47.454-27.097A524 524 0 0 1 88.785 385.004a524 524 0 0 1-31.898-45.77 639 639 0 0 1 52.281-66.78 639 639 0 0 1 60.66-59.274 2.95 2.95 0 0 0 1.223-2.645 3.14 3.14 0 0 0-.918-2.34l-34.563-34.867q-1.12-1.043-2.644-.914a4.7 4.7 0 0 0-1.93.61 691 691 0 0 0-64.379 63.378 691 691 0 0 0-55.578 71.22 56 56 0 0 0-4.035 7.042 55 55 0 0 0-2.973 7.555 55.4 55.4 0 0 0-1.847 7.906 55.5 55.5 0 0 0-.684 8.09c-.031 2.71.133 5.414.496 8.101q.54 4.037 1.66 7.946a56 56 0 0 0 2.801 7.625 55.4 55.4 0 0 0 3.871 7.133 577 577 0 0 0 35.18 50.546 578 578 0 0 0 40.351 46.52 578 578 0 0 0 45.067 41.965 578 578 0 0 0 49.273 36.941 428 428 0 0 0 83.324 43.653 427.6 427.6 0 0 0 59.997 18.496 429 429 0 0 0 30.855 5.902 429 429 0 0 0 62.586 4.941 416.5 416.5 0 0 0 66.46-5.816 416 416 0 0 0 64.68-16.348q.522-.153.973-.453a3.56 3.56 0 0 0 1.57-2.695 4.16 4.16 0 0 0-1.12-2.645l-37.919-38.02a6 6 0 0 0-2.105-1.343 6.05 6.05 0 0 0-2.469-.387H505c-28.84 7.73-58.184 11.692-88.04 11.895m0 0" style="stroke:none;fill-rule:nonzero;fill:#0d2740;fill-opacity:1"/></g></g><mask id="c"><g filter="url(#f)"><path d="M0 0h1119v674H0z" style="fill:#000;fill-opacity:.75;stroke:none"/></g></mask></g><g clip-path="url(#g)"><g mask="url(#h)" transform="translate(552 208)"><g clip-path="url(#i)"><g clip-path="url(#j)"><path d="M556.535 37.309H9.648c-5.117 0-9.593 4.156-9.593 9.433v44.934c0 5.117 4.16 9.277 9.277 9.277h53.086V292.84H9.648c-5.117-.16-9.433 3.84-9.593 8.797v45.254c0 5.117 4.16 9.593 9.593 9.593h546.887c5.117 0 9.594-4.156 9.594-9.433v-44.934c0-5.117-4.156-9.277-9.274-9.277h-53.09V100.793h52.77c5.117.16 9.434-3.84 9.594-8.797V46.582c0-5.117-4.156-9.273-9.594-9.273M81.61 100.793h22.868V292.68H81.609ZM376.797 292.68V100.793h66.043V292.68Zm-19.188 0h-21.425V100.793h21.425Zm-40.937 0h-67.16V100.793h67.16Zm-86.348 0h-21.43V100.793h21.43Zm-40.937 0h-65.883V100.793h66.043Zm357.554 44.297H19.246V311.87h527.695Zm-62.367-44.297h-22.863V100.793h22.863Zm62.367-211.078H19.246V56.496h527.695Zm0 0" style="stroke:none;fill-rule:nonzero;fill:#0d2740;fill-opacity:1"/></g><g clip-path="url(#k)"><path d="M556.535 1.168H9.648c-5.433 0-9.593 4.16-9.593 9.598 0 5.433 4.16 9.593 9.593 9.593h546.887c5.438 0 9.594-4.16 9.594-9.593 0-5.118-4.156-9.598-9.594-9.598m0 0" style="stroke:none;fill-rule:nonzero;fill:#0d2740;fill-opacity:1"/></g><g clip-path="url(#l)"><path d="M556.535 373.113H9.648c-5.433 0-9.593 4.16-9.593 9.598 0 5.434 4.16 9.594 9.593 9.594h546.887c5.438 0 9.594-4.16 9.594-9.594 0-5.438-4.156-9.598-9.594-9.598m0 0" style="stroke:none;fill-rule:nonzero;fill:#0d2740;fill-opacity:1"/></g></g><mask id="h"><g filter="url(#f)"><path d="M0 0h1119v674H0z" style="fill:#000;fill-opacity:.5;stroke:none"/></g></mask></g></g></g></svg>