<svg xmlns="http://www.w3.org/2000/svg" xmlns:xlink="http://www.w3.org/1999/xlink" width="1200" zoomAndPan="magnify" viewBox="0 0 900 675.000002" height="900" preserveAspectRatio="xMidYMid meet" version="1.2"><g id="6f424f5210"><path style=" stroke:none;fill-rule:nonzero;fill:#0c1e27;fill-opacity:1;" d="M 569.152344 159.328125 C 565.109375 158.113281 563.367188 156.402344 564.449219 151.503906 C 566.324219 143.050781 562.542969 139.203125 553.664062 139.074219 C 551.855469 139.039062 550.015625 139.304688 548.207031 139.335938 C 544.195312 139.371094 541.039062 140.949219 539.359375 144.628906 C 537.519531 148.644531 539.195312 152.390625 541.101562 155.878906 C 541.992188 157.519531 543.636719 158.507812 545.640625 158.34375 C 547.21875 158.210938 548.566406 157.554688 549.292969 156.042969 C 550.210938 154.167969 549.09375 153.082031 547.613281 152.589844 C 544.949219 151.667969 543.175781 150.089844 544.160156 147.230469 C 545.117188 144.5 547.910156 144.433594 550.3125 144.269531 C 559.253906 143.578125 562.117188 147.820312 558.335938 155.878906 C 554.617188 163.800781 547.449219 167.222656 539.789062 169.425781 C 534.035156 171.101562 529.132812 167.75 527.0625 161.761719 C 525.976562 158.640625 525.023438 155.316406 524.824219 152.03125 C 524.53125 147.164062 517.492188 145.125 519.070312 140.914062 C 520.386719 137.394531 525.285156 135.523438 527.425781 131.609375 C 533.113281 121.25 530.152344 111.847656 520.253906 107.273438 C 514.074219 104.414062 507.199219 111.976562 507.496094 116.480469 C 507.660156 119.308594 509.863281 119.277344 512.132812 119.507812 C 515.78125 119.871094 516.40625 121.777344 514.140625 124.570312 C 510.585938 128.976562 505.6875 129.703125 501.511719 125.855469 C 497.136719 121.777344 493.324219 117.042969 493.355469 110.597656 C 493.421875 96.390625 488.324219 91.195312 473.101562 91.457031 C 468.429688 91.328125 462.742188 92.214844 457.480469 94.878906 C 455.375 95.964844 452.679688 100.140625 450.542969 100.335938 C 447.253906 100.632812 444.886719 96.359375 442.386719 94.878906 C 437.882812 92.214844 431.929688 91.328125 426.765625 91.457031 C 411.574219 91.195312 406.445312 96.421875 406.511719 110.597656 C 406.542969 117.042969 402.761719 121.777344 398.355469 125.855469 C 394.179688 129.734375 389.277344 128.976562 385.726562 124.570312 C 383.457031 121.777344 384.082031 119.871094 387.734375 119.507812 C 390.035156 119.277344 392.207031 119.308594 392.371094 116.480469 C 392.632812 111.976562 385.792969 104.414062 379.609375 107.273438 C 369.714844 111.847656 366.722656 121.25 372.441406 131.609375 C 374.582031 135.523438 379.480469 137.394531 380.796875 140.914062 C 382.375 145.15625 375.335938 147.164062 375.039062 152.03125 C 374.84375 155.316406 373.890625 158.640625 372.804688 161.761719 C 370.734375 167.75 365.800781 171.101562 360.078125 169.425781 C 352.449219 167.222656 345.28125 163.800781 341.53125 155.878906 C 337.75 147.851562 340.609375 143.578125 349.554688 144.269531 C 351.988281 144.464844 354.785156 144.5 355.703125 147.230469 C 356.691406 150.089844 354.914062 151.667969 352.253906 152.589844 C 350.738281 153.113281 349.652344 154.167969 350.574219 156.042969 C 351.332031 157.585938 352.648438 158.210938 354.226562 158.34375 C 356.230469 158.507812 357.875 157.519531 358.761719 155.878906 C 360.671875 152.359375 362.347656 148.644531 360.507812 144.628906 C 358.828125 140.949219 355.671875 139.371094 351.660156 139.335938 C 349.851562 139.335938 348.011719 139.074219 346.203125 139.074219 C 337.324219 139.203125 333.542969 143.050781 335.414062 151.503906 C 336.5 156.402344 334.757812 158.082031 330.714844 159.328125 C 325.976562 160.777344 323.214844 164.359375 321.503906 168.765625 C 319.695312 173.371094 321.867188 179.058594 326.371094 182.382812 C 329.628906 184.78125 335.644531 184.222656 339.066406 181.132812 C 340.316406 180.015625 340.644531 178.566406 339.820312 177.054688 C 339.164062 175.871094 337.949219 175.476562 336.699219 175.738281 C 335.875 175.902344 335.152344 176.59375 334.332031 176.921875 C 330.1875 178.5 327.160156 176.726562 326.832031 172.613281 C 326.472656 167.648438 333.113281 162.191406 337.355469 164.589844 C 342.058594 167.289062 347.253906 168.472656 352.023438 170.972656 C 362.90625 176.625 368.496094 175.179688 376.421875 165.675781 C 377.539062 164.328125 378.296875 163.605469 380.039062 164.03125 C 382.40625 164.625 384.871094 164.789062 387.175781 165.511719 C 390.167969 166.464844 391.710938 168.539062 390.464844 171.824219 C 389.707031 173.832031 388.6875 175.738281 388.160156 177.777344 C 387.140625 181.886719 388.753906 186 392.4375 187.9375 C 397.074219 190.371094 402.136719 191.589844 407.363281 191.6875 C 410.851562 191.753906 413.152344 190.078125 413.351562 186.292969 C 413.414062 185.078125 413.414062 183.859375 413.480469 182.644531 C 413.679688 179.488281 415.09375 177.582031 418.511719 177.382812 C 422.230469 177.1875 422.164062 179.683594 422.230469 182.183594 C 422.292969 185.175781 423.511719 187.90625 426.339844 188.664062 C 429.496094 189.550781 432.09375 187.578125 434.066406 185.078125 C 434.824219 184.125 435.480469 183.007812 434.757812 181.789062 C 433.933594 180.441406 432.621094 179.058594 431.105469 180.046875 C 428.902344 181.492188 428.148438 182.316406 427.324219 178.699219 C 425.878906 172.21875 424.136719 171.367188 417.789062 171.988281 C 409.796875 172.78125 408.746094 173.863281 407.761719 182.578125 C 407.59375 184.058594 407.792969 185.667969 406.050781 186.394531 C 404.175781 187.148438 396.710938 184.945312 394.96875 183.171875 C 392.667969 180.769531 393.488281 178.269531 394.410156 175.542969 C 397.992188 165.019531 396.449219 162.519531 385.265625 160.085938 C 384.378906 159.890625 383.492188 159.660156 382.570312 159.59375 C 379.644531 159.429688 379.117188 157.914062 379.90625 155.351562 C 381.878906 148.839844 386.1875 145.191406 392.894531 144.234375 C 398.75 143.414062 403.945312 141.539062 407.726562 136.378906 C 411.804688 130.785156 413.582031 131.246094 417 137.296875 C 419.203125 141.210938 418.941406 144.859375 416.96875 148.542969 C 415.390625 151.46875 413.679688 153.871094 410.160156 150.285156 C 408.320312 148.414062 405.851562 147.589844 403.878906 150.285156 C 400.066406 155.449219 402.269531 162.421875 408.285156 164.359375 C 411.9375 165.542969 415.421875 165.28125 418.742188 163.046875 C 422.984375 160.25 425.78125 156.335938 427.65625 151.765625 C 429.003906 148.476562 430.089844 145.058594 431.304688 141.703125 C 435.382812 144.105469 434.757812 149.039062 437.058594 152.359375 C 437.386719 152.851562 437.652344 153.445312 437.882812 153.96875 C 439 156.5 438.308594 157.457031 435.644531 156.304688 C 434.132812 155.648438 432.6875 155.121094 431.765625 156.863281 C 430.976562 158.375 431.796875 159.757812 432.785156 160.972656 C 434.230469 162.75 436.367188 163.113281 438.339844 163.835938 C 443.242188 165.644531 444.492188 167.714844 443.996094 172.648438 C 443.800781 174.851562 442.8125 176.691406 441.628906 178.46875 C 440.480469 180.179688 440.25 182.019531 442.582031 182.875 C 444.722656 183.664062 446.957031 183.464844 447.945312 180.96875 C 448.734375 178.894531 449.457031 176.726562 449.851562 174.554688 C 450.246094 176.726562 450.9375 178.894531 451.757812 180.96875 C 452.710938 183.464844 454.949219 183.664062 457.117188 182.875 C 459.421875 182.019531 459.222656 180.179688 458.070312 178.46875 C 456.855469 176.660156 455.902344 174.816406 455.671875 172.648438 C 455.179688 167.714844 456.429688 165.609375 461.328125 163.835938 C 463.332031 163.113281 465.472656 162.78125 466.886719 160.972656 C 467.871094 159.757812 468.726562 158.375 467.902344 156.863281 C 466.984375 155.121094 465.535156 155.648438 464.023438 156.304688 C 461.359375 157.457031 460.703125 156.5 461.789062 153.96875 C 462.019531 153.410156 462.28125 152.851562 462.609375 152.359375 C 464.910156 149.003906 464.320312 144.070312 468.363281 141.703125 C 469.582031 145.058594 470.667969 148.476562 472.015625 151.765625 C 473.890625 156.335938 476.683594 160.25 480.925781 163.046875 C 484.246094 165.25 487.765625 165.542969 491.382812 164.359375 C 497.402344 162.421875 499.605469 155.449219 495.789062 150.285156 C 493.816406 147.625 491.351562 148.445312 489.507812 150.285156 C 485.992188 153.871094 484.28125 151.4375 482.703125 148.542969 C 480.730469 144.859375 480.433594 141.210938 482.667969 137.296875 C 486.089844 131.214844 487.832031 130.753906 491.941406 136.378906 C 495.691406 141.539062 500.886719 143.414062 506.773438 144.234375 C 513.515625 145.191406 517.789062 148.839844 519.761719 155.351562 C 520.550781 157.949219 520.023438 159.429688 517.097656 159.59375 C 516.210938 159.660156 515.289062 159.890625 514.402344 160.085938 C 503.222656 162.519531 501.675781 165.019531 505.261719 175.542969 C 506.179688 178.269531 507.003906 180.769531 504.699219 183.171875 C 502.957031 184.980469 495.527344 187.183594 493.621094 186.394531 C 491.84375 185.667969 492.074219 184.089844 491.910156 182.578125 C 490.921875 173.863281 489.871094 172.78125 481.878906 171.988281 C 475.535156 171.367188 473.789062 172.21875 472.34375 178.699219 C 471.523438 182.347656 470.796875 181.492188 468.5625 180.046875 C 467.082031 179.058594 465.734375 180.472656 464.910156 181.789062 C 464.1875 183.007812 464.847656 184.125 465.601562 185.078125 C 467.574219 187.578125 470.171875 189.515625 473.332031 188.664062 C 476.15625 187.871094 477.375 185.175781 477.441406 182.183594 C 477.507812 179.683594 477.472656 177.1875 481.15625 177.382812 C 484.578125 177.582031 485.992188 179.488281 486.1875 182.644531 C 486.253906 183.859375 486.253906 185.078125 486.320312 186.292969 C 486.515625 190.078125 488.820312 191.785156 492.304688 191.6875 C 497.53125 191.589844 502.597656 190.371094 507.234375 187.9375 C 510.917969 186.03125 512.527344 181.921875 511.507812 177.777344 C 510.980469 175.738281 509.960938 173.832031 509.207031 171.824219 C 507.988281 168.539062 509.503906 166.464844 512.496094 165.511719 C 514.796875 164.789062 517.261719 164.625 519.628906 164.03125 C 521.375 163.605469 522.128906 164.328125 523.246094 165.675781 C 531.171875 175.179688 536.796875 176.625 547.648438 170.972656 C 552.414062 168.503906 557.609375 167.289062 562.3125 164.589844 C 566.554688 162.15625 573.199219 167.648438 572.835938 172.613281 C 572.539062 176.726562 569.480469 178.5 565.339844 176.921875 C 564.515625 176.625 563.824219 175.902344 562.972656 175.738281 C 561.722656 175.476562 560.503906 175.871094 559.847656 177.054688 C 558.992188 178.566406 559.355469 180.015625 560.605469 181.132812 C 563.992188 184.222656 570.042969 184.78125 573.296875 182.382812 C 577.800781 179.058594 579.9375 173.371094 578.164062 168.765625 C 576.652344 164.359375 573.886719 160.742188 569.152344 159.328125 Z M 406.742188 127.925781 C 405.390625 133.613281 400.261719 137.625 394.34375 137.625 C 387.636719 137.625 381.816406 135.816406 377.96875 129.867188 C 374.085938 123.882812 374.121094 121.21875 378.527344 115.132812 C 378.164062 120.722656 378.164062 126.117188 383.394531 130.128906 C 389.542969 134.832031 394.308594 135.128906 400.722656 130.65625 C 402.203125 129.636719 403.484375 128.320312 404.898438 127.203125 C 405.328125 126.839844 405.953125 126.347656 406.378906 126.445312 C 407.070312 126.578125 406.90625 127.234375 406.742188 127.925781 Z M 425.910156 137.101562 C 425.8125 137.890625 425.976562 139.105469 424.628906 138.910156 C 424.136719 138.84375 423.511719 138.25 423.378906 137.757812 C 422.0625 133.613281 419.664062 130.226562 415.980469 127.894531 C 413.414062 126.25 413.84375 123.882812 413.941406 121.511719 C 414.007812 120.296875 414.140625 119.046875 415.222656 118.324219 C 416.902344 117.171875 418.152344 118.6875 419.105469 119.507812 C 423.644531 123.355469 426.503906 128.125 425.945312 133.15625 C 425.945312 135.324219 426.011719 136.246094 425.910156 137.101562 Z M 431.730469 128.023438 C 429.363281 128.089844 429.757812 124.113281 428.3125 122.171875 C 424.992188 117.730469 421.273438 113.621094 416.015625 111.746094 C 412.921875 110.660156 412.527344 108.589844 412.527344 106.191406 C 412.5625 101.289062 415.980469 96.851562 420.75 96.917969 C 427.65625 97.015625 433.871094 96.191406 440.316406 99.382812 C 444.984375 101.683594 445.742188 102.96875 443.734375 107.40625 C 442.8125 109.476562 439.886719 109.972656 439.394531 112.011719 C 438.738281 114.707031 441.5 119.703125 442.058594 122.46875 C 442.355469 123.945312 442.320312 125.789062 440.316406 126.019531 C 437.355469 126.378906 434.496094 127.925781 431.730469 128.023438 Z M 462.773438 137.066406 C 461.359375 141.078125 460.308594 145.453125 457.875 148.773438 C 454.390625 153.476562 453.664062 159.132812 451.101562 164.132812 C 450.574219 165.183594 450.210938 166.269531 449.984375 167.351562 C 449.753906 166.269531 449.390625 165.148438 448.863281 164.132812 C 446.300781 159.132812 445.609375 153.476562 442.089844 148.773438 C 439.625 145.484375 438.570312 141.078125 437.191406 137.066406 C 436.238281 134.304688 436.992188 132.300781 440.445312 132.167969 C 442.976562 132.070312 445.3125 131.378906 446.53125 128.878906 C 448.734375 124.40625 445.445312 117.238281 448.304688 113.128906 C 452.875 106.550781 451.726562 125.460938 453.433594 128.878906 C 454.683594 131.378906 456.988281 132.070312 459.519531 132.167969 C 462.972656 132.265625 463.761719 134.304688 462.773438 137.066406 Z M 484.015625 127.925781 C 480.367188 130.261719 477.964844 133.613281 476.617188 137.789062 C 476.453125 138.285156 475.828125 138.875 475.367188 138.941406 C 473.988281 139.140625 474.152344 137.957031 474.085938 137.132812 C 473.988281 136.246094 474.054688 135.359375 474.054688 133.1875 C 473.496094 128.15625 476.355469 123.421875 480.894531 119.539062 C 481.847656 118.71875 483.097656 117.207031 484.773438 118.355469 C 485.824219 119.082031 485.992188 120.328125 486.054688 121.546875 C 486.15625 123.914062 486.582031 126.28125 484.015625 127.925781 Z M 483.984375 111.78125 C 478.722656 113.65625 475.007812 117.765625 471.6875 122.203125 C 470.238281 124.113281 470.632812 128.125 468.300781 128.058594 C 465.535156 127.957031 462.675781 126.414062 459.683594 126.050781 C 457.710938 125.820312 457.644531 123.980469 457.941406 122.5 C 458.402344 120.132812 458.992188 117.730469 459.847656 115.496094 C 462.28125 108.953125 451.167969 105.335938 460.734375 98.988281 C 465.964844 95.503906 473.496094 97.082031 479.28125 96.980469 C 484.050781 96.917969 487.503906 101.355469 487.503906 106.253906 C 487.46875 108.625 487.074219 110.660156 483.984375 111.78125 Z M 505.621094 137.660156 C 499.703125 137.660156 494.574219 133.613281 493.226562 127.957031 C 493.058594 127.269531 492.894531 126.609375 493.585938 126.445312 C 494.015625 126.347656 494.640625 126.839844 495.066406 127.203125 C 496.480469 128.320312 497.761719 129.636719 499.242188 130.65625 C 505.65625 135.128906 510.421875 134.832031 516.570312 130.128906 C 521.800781 126.148438 521.800781 120.722656 521.4375 115.132812 C 525.84375 121.183594 525.878906 123.882812 521.996094 129.867188 C 518.152344 135.851562 512.363281 137.660156 505.621094 137.660156 Z M 505.621094 137.660156 "/><path style=" stroke:none;fill-rule:nonzero;fill:#0c1e27;fill-opacity:1;" d="M 793.320312 596.585938 C 793.222656 596.550781 793.089844 596.519531 792.925781 596.519531 C 790.789062 596.421875 782.832031 598.066406 782.800781 597.375 C 782.535156 592.277344 782.273438 587.148438 782.011719 582.050781 C 781.945312 580.703125 781.84375 579.320312 781.253906 578.105469 C 778.394531 572.414062 771.949219 578.894531 771.027344 570.640625 C 769.25 554.527344 770.304688 538.378906 769.84375 522.269531 C 768.824219 485.472656 767.933594 448.675781 765.699219 411.910156 C 764.054688 385.207031 763.890625 358.40625 762.675781 331.671875 C 762.050781 318.027344 763.234375 304.3125 760.964844 290.699219 C 760.40625 287.445312 760.734375 284.023438 760.765625 280.671875 C 760.800781 274.585938 760.832031 274.585938 766.75 275.3125 C 778.65625 276.726562 787.304688 267.15625 784.96875 255.480469 C 784.441406 252.917969 781.550781 249.925781 783.652344 247.953125 C 785.296875 246.40625 788.816406 246.867188 791.511719 246.503906 C 797.792969 245.617188 799.140625 243.875 798.683594 237.496094 C 797.992188 227.496094 796.347656 217.402344 797.957031 207.40625 C 800.128906 193.921875 795.523438 194.648438 783.984375 189.515625 C 768.164062 182.445312 752.941406 172.449219 737.878906 163.867188 C 723.113281 155.484375 708.746094 146.441406 693.914062 138.1875 C 676.914062 128.714844 659.519531 119.933594 642.417969 110.628906 C 624.53125 100.929688 606.804688 90.933594 588.917969 81.164062 C 582.535156 77.679688 575.863281 74.71875 569.449219 71.265625 C 535.675781 53.179688 501.839844 35.226562 469.152344 15.199219 C 459.714844 9.414062 453.5 0.0429688 442.878906 7.046875 C 438.800781 9.707031 434.921875 12.667969 430.777344 15.199219 C 398.125 35.257812 364.253906 53.179688 330.484375 71.265625 C 324.070312 74.71875 317.394531 77.679688 311.015625 81.164062 C 293.160156 90.867188 275.4375 100.894531 257.546875 110.597656 C 240.449219 119.871094 223.050781 128.683594 206.050781 138.152344 C 191.21875 146.40625 176.851562 155.449219 162.085938 163.835938 C 147.023438 172.417969 131.800781 182.414062 115.980469 189.484375 C 104.472656 194.648438 99.871094 193.890625 102.007812 207.371094 C 103.617188 217.371094 101.972656 227.464844 101.285156 237.460938 C 100.855469 243.839844 102.171875 245.582031 108.453125 246.472656 C 111.148438 246.832031 114.667969 246.40625 116.3125 247.917969 C 118.414062 249.890625 115.523438 252.882812 114.996094 255.449219 C 112.660156 267.15625 121.308594 276.691406 133.214844 275.277344 C 139.132812 274.585938 139.164062 274.585938 139.199219 280.636719 C 139.230469 283.992188 139.527344 287.410156 139 290.667969 C 136.730469 304.25 137.882812 317.992188 137.292969 331.640625 C 136.105469 358.375 135.910156 385.175781 134.265625 411.878906 C 131.996094 448.640625 131.140625 485.4375 130.121094 522.234375 C 129.660156 538.347656 130.714844 554.492188 128.9375 570.605469 C 128.476562 574.71875 127.558594 576.164062 123.085938 576.097656 C 115.652344 576 116.046875 576.425781 117.132812 583.992188 C 117.496094 586.523438 120.027344 593.035156 117.957031 595.300781 C 113.550781 600.203125 105.425781 591.160156 101.414062 598.917969 C 100 601.648438 101.710938 604.90625 101.941406 607.699219 C 102.433594 613.191406 101.875 618.75 102.367188 624.242188 C 103.421875 635.75 103.222656 647.226562 102.863281 658.734375 C 102.664062 664.488281 102.730469 664.785156 108.714844 665.179688 C 133.902344 666.921875 158.996094 668.273438 184.085938 670.277344 C 197.171875 671.328125 210.195312 671.789062 223.316406 671.265625 C 231.207031 670.933594 239.199219 671.035156 247.023438 671.789062 C 260.375 673.105469 273.726562 673.960938 287.109375 673.136719 C 308.121094 671.855469 329.101562 673.039062 350.113281 673.074219 C 373.5625 673.105469 396.972656 672.316406 420.386719 671.527344 C 430.21875 671.199219 440.085938 671.066406 449.949219 670.933594 C 459.816406 671.066406 469.648438 671.199219 479.511719 671.527344 C 502.925781 672.316406 526.339844 673.136719 549.785156 673.074219 C 570.796875 673.039062 591.777344 671.855469 612.789062 673.136719 C 626.171875 673.960938 639.523438 673.105469 652.875 671.789062 C 660.734375 671.035156 668.691406 670.933594 676.585938 671.265625 C 689.707031 671.789062 702.726562 671.328125 715.816406 670.277344 C 740.90625 668.238281 765.996094 666.921875 791.183594 665.179688 C 797.167969 664.753906 797.234375 664.457031 797.039062 658.734375 C 796.675781 647.226562 796.480469 635.75 797.53125 624.242188 C 798.023438 618.8125 797.695312 613.289062 797.859375 607.832031 C 798.058594 603.492188 798.1875 598.394531 793.320312 596.585938 Z M 769.21875 585.699219 C 770.007812 583.101562 771.71875 582.640625 773.984375 583.070312 C 776.550781 583.53125 775.992188 585.570312 776.058594 587.773438 C 775.5 590.304688 776.484375 593.988281 772.902344 595.863281 C 771.847656 596.421875 770.367188 596.15625 769.679688 595.105469 C 767.707031 592.113281 768.230469 588.957031 769.21875 585.699219 Z M 762.113281 445.746094 C 764.648438 486.09375 763.921875 526.574219 764.679688 566.988281 C 764.878906 577.382812 762.90625 578.730469 752.480469 578.136719 C 740.082031 577.414062 727.816406 574.617188 715.289062 575.902344 C 714.402344 576 713.480469 575.769531 712.558594 575.671875 C 710.355469 575.472656 709.335938 574.160156 709.304688 572.085938 C 709.269531 569.949219 709.402344 567.84375 709.433594 565.707031 C 709.664062 548.671875 709.699219 531.671875 711.179688 516.085938 C 710.519531 489.382812 711.804688 464.164062 713.117188 438.972656 C 715.453125 394.054688 715.847656 349.035156 720.484375 304.25 C 721.535156 294.25 722.195312 284.289062 722.195312 274.226562 C 722.195312 272.089844 722.195312 269.820312 724.890625 269.128906 C 732.914062 267.121094 741.035156 265.9375 749.257812 267.417969 C 752.21875 267.945312 754.683594 269.753906 754.878906 273.601562 C 755.308594 282.378906 756.359375 291.160156 756.558594 299.941406 C 757.082031 321.214844 756.886719 342.492188 757.742188 363.734375 C 758.792969 391.128906 760.40625 418.453125 762.113281 445.746094 Z M 762.871094 590.664062 C 763.035156 592.605469 763.429688 594.941406 760.996094 595.960938 C 759.8125 596.453125 758.53125 595.894531 757.9375 594.808594 C 757.414062 593.824219 757.347656 592.574219 757.183594 591.949219 C 757.511719 589.382812 757.050781 587.214844 758.332031 585.4375 C 759.058594 584.417969 760.40625 583.660156 761.425781 584.285156 C 763.921875 585.765625 762.675781 588.460938 762.871094 590.664062 Z M 752.316406 591.0625 C 752.316406 594.152344 752.480469 597.277344 747.941406 597.339844 C 743.699219 597.375 742.449219 596.355469 742.449219 592.308594 C 742.484375 587.179688 744.160156 583.890625 746.921875 583.660156 C 750.804688 583.265625 752.316406 585.339844 752.316406 591.0625 Z M 737.417969 587.542969 C 737.550781 589.613281 737.1875 591.71875 737.253906 593.824219 C 737.417969 598.03125 734.492188 597.605469 731.761719 597.769531 C 728.441406 597.964844 727.652344 596.125 727.6875 593.328125 C 727.6875 592.113281 727.554688 590.929688 727.488281 589.910156 C 727.621094 587.9375 727.785156 586.128906 727.816406 584.320312 C 727.882812 581.886719 729.429688 581.394531 731.433594 581.457031 C 735.710938 581.621094 737.15625 583.003906 737.417969 587.542969 Z M 695.984375 583.890625 C 696.347656 588.460938 697.695312 593.429688 697.957031 595.402344 C 694.671875 595.46875 691.347656 595.5 688.0625 595.566406 C 687.667969 595.566406 687.238281 595.566406 686.941406 595.300781 C 686.613281 595.007812 686.546875 594.511719 686.546875 594.085938 C 686.382812 590.765625 686.253906 587.476562 686.089844 584.15625 C 685.59375 574.027344 675.300781 578.5 675.007812 569.816406 C 674.710938 561.003906 674.085938 552.226562 673.824219 543.410156 C 673.394531 529.4375 673.855469 515.394531 672.636719 501.519531 C 671.191406 485.140625 670.304688 468.699219 670.335938 452.324219 C 670.402344 416.742188 667.605469 381.261719 667.804688 345.714844 C 667.902344 324.4375 667.015625 303.128906 667.871094 281.855469 C 668 278.269531 668.59375 276 673 276.691406 C 677.011719 277.316406 680.792969 276.132812 684.476562 274.488281 C 692.5 270.9375 694.636719 266.003906 691.613281 257.71875 C 690.625 254.988281 687.304688 251.929688 689.113281 249.597656 C 691.019531 247.164062 695.296875 247.753906 698.582031 247.359375 C 702.988281 247.097656 703.054688 247.128906 701.082031 251.371094 C 699.40625 255.023438 698.253906 258.769531 698.222656 262.78125 C 698.1875 269.359375 703.746094 275.9375 710.09375 275.015625 C 715.320312 274.257812 715.519531 276.757812 716.273438 280.078125 C 716.933594 282.808594 716.605469 285.539062 716.375 288.234375 C 714.070312 313.0625 712.097656 337.855469 710.980469 362.78125 C 709.402344 397.703125 708.152344 432.625 706.34375 467.550781 C 704.800781 497.308594 704.765625 527.132812 703.945312 556.894531 C 703.8125 561.433594 703.054688 565.96875 702.464844 570.476562 C 702.265625 571.921875 702.496094 574.027344 700.820312 574.421875 C 696.378906 574.554688 695.625 579.023438 695.984375 583.890625 Z M 679.117188 594.414062 C 678.6875 595.664062 677.605469 596.089844 676.253906 595.894531 C 675.234375 595.730469 674.808594 594.972656 674.578125 594.117188 C 674.347656 593.265625 674.347656 592.375 674.183594 590.894531 C 674.511719 589.121094 674.875 586.785156 675.464844 584.484375 C 675.761719 583.332031 676.617188 582.3125 677.964844 582.445312 C 679.25 582.578125 680.070312 583.496094 680.234375 584.78125 C 680.695312 588.101562 680.234375 591.324219 679.117188 594.414062 Z M 626.402344 577.085938 C 618.90625 577.414062 617.65625 576.03125 617.886719 567.941406 C 618.214844 556.992188 619.136719 546.042969 619.332031 535.160156 C 620.1875 492.574219 620.222656 449.957031 621.371094 407.371094 C 621.933594 394.316406 622.226562 381.230469 623.148438 368.175781 C 624.332031 351.171875 625.777344 334.207031 627.554688 317.269531 C 628.804688 305.136719 629.199219 293.035156 629.363281 280.867188 C 629.429688 274.457031 629.890625 273.929688 636.007812 271.824219 C 641.890625 269.785156 648.074219 270.476562 654.09375 270.246094 C 660.308594 269.984375 661.917969 271.890625 662.148438 278.535156 C 662.378906 284.914062 662.117188 291.324219 662.148438 297.703125 C 662.28125 322.664062 662.179688 347.621094 662.640625 372.546875 C 663.035156 393.199219 664.1875 413.851562 664.878906 434.5 C 665.570312 455.777344 665.964844 477.085938 666.621094 498.359375 C 667.34375 522.367188 668.296875 546.371094 668.988281 570.410156 C 669.152344 575.96875 668.332031 576.65625 662.773438 576.589844 C 650.671875 576.558594 638.539062 576.527344 626.402344 577.085938 Z M 654.355469 591.0625 C 654.355469 594.941406 652.414062 595.863281 645.804688 596.289062 C 641.367188 596.585938 641.890625 593.855469 641.890625 592.703125 C 641.859375 583.726562 642.484375 582.871094 647.84375 582.808594 C 652.84375 582.773438 654.320312 584.648438 654.355469 591.0625 Z M 636.664062 589.152344 C 636.664062 589.875 636.695312 590.46875 636.664062 591.09375 C 636.464844 596.421875 635.675781 597.109375 630.121094 597.046875 C 626.074219 597.011719 625.679688 596.488281 625.777344 591.160156 C 625.777344 590.566406 625.777344 589.941406 625.84375 589.351562 C 626.304688 584.617188 628.835938 582.445312 633.703125 582.972656 C 637.914062 583.429688 636.234375 586.917969 636.664062 589.152344 Z M 605.324219 581.492188 C 605.359375 585.4375 605.324219 589.417969 605.09375 593.363281 C 604.832031 598.296875 600.03125 598.523438 598.125 595.203125 C 596.050781 591.585938 599.539062 585.042969 597.105469 580.769531 C 594.835938 576.820312 593.519531 578.761719 589.542969 578.136719 C 582.765625 577.085938 582.40625 576.261719 581.945312 568.898438 C 581.78125 566.167969 581.746094 563.4375 581.617188 560.707031 C 580.597656 542.195312 580.003906 523.648438 579.347656 505.101562 C 578.230469 474.125 576.355469 443.148438 574.941406 412.171875 C 574.480469 402.144531 574.777344 392.082031 574.285156 382.050781 C 573.363281 363.800781 571.914062 345.582031 571.09375 327.367188 C 570.402344 312.46875 569.613281 297.574219 570.238281 282.675781 C 570.5 276.066406 570.535156 275.96875 576.816406 276.691406 C 579.25 276.988281 581.582031 277.183594 584.050781 276.726562 C 593.652344 275.015625 598.253906 266.957031 595.03125 257.683594 C 594.277344 255.480469 591.285156 253.441406 592.730469 251.273438 C 594.078125 249.234375 597.269531 250.484375 599.636719 250.1875 C 602.367188 249.859375 605.09375 249.597656 607.824219 249.628906 C 609.46875 249.628906 610.882812 250.320312 609.632812 252.457031 C 608.417969 254.5625 606.9375 256.566406 606.082031 258.804688 C 602.234375 268.898438 607.398438 277.414062 618.28125 277.941406 C 623.082031 278.171875 623.804688 280.113281 623.773438 284.023438 C 623.707031 293.460938 623.773438 302.898438 622.722656 312.304688 C 619.332031 342.855469 616.144531 373.4375 616.605469 404.246094 C 616.734375 413.0625 617.066406 421.972656 616.308594 430.71875 C 614.269531 454.394531 614.960938 478.136719 614.269531 502.570312 C 614.269531 507.632812 614.136719 513.390625 614.304688 519.175781 C 614.699219 535.324219 612.328125 551.371094 612.164062 567.484375 C 612.132812 570.3125 612.660156 574.222656 608.875 575.242188 C 605.03125 576.261719 605.292969 578.695312 605.324219 581.492188 Z M 592.269531 592.113281 C 592.269531 593.59375 591.941406 595.136719 591.382812 596.488281 C 589.871094 600.070312 586.550781 599.578125 583.65625 599.214844 C 580.894531 598.886719 581.023438 596.453125 581.058594 594.316406 C 581.1875 593.132812 581.289062 591.914062 581.417969 590.730469 C 582.109375 585.40625 584.445312 583.695312 589.9375 584.84375 C 594.800781 585.863281 592.269531 589.515625 592.269531 592.113281 Z M 571.226562 578.269531 C 562.148438 578.464844 553.074219 578.300781 543.996094 579.058594 C 537.914062 579.550781 532.09375 581.457031 525.910156 581.328125 C 522.164062 581.261719 521.042969 579.714844 521.4375 576.328125 C 521.996094 571.789062 522.753906 567.285156 522.953125 562.746094 C 524.167969 534.828125 525.515625 506.878906 526.304688 478.925781 C 527.226562 446.996094 527.621094 415.066406 528.179688 383.136719 C 528.378906 371.265625 528.9375 359.460938 530.582031 347.65625 C 533.246094 328.679688 535.90625 309.738281 536.238281 290.535156 C 536.335938 285.472656 533.738281 279.191406 537.652344 275.671875 C 541.332031 272.382812 547.515625 274.128906 552.644531 274.027344 C 564.023438 273.832031 564.253906 273.898438 564.617188 285.472656 C 565.46875 314.015625 566.6875 342.558594 568.332031 371.101562 C 569.054688 383.859375 568.855469 396.652344 569.417969 409.410156 C 570.664062 437.65625 572.113281 465.90625 573.460938 494.152344 C 573.296875 494.152344 573.132812 494.152344 572.96875 494.183594 C 573.460938 506.945312 573.988281 519.703125 574.449219 532.460938 C 574.941406 546.140625 576.519531 559.753906 576.027344 573.46875 C 575.925781 576.988281 574.710938 578.203125 571.226562 578.269531 Z M 576.027344 592.703125 C 575.925781 599.445312 575.796875 599.542969 568.59375 599.414062 C 561.492188 599.28125 560.703125 598.953125 561.128906 594.644531 C 562.015625 585.273438 561.292969 584.582031 568.824219 584.582031 C 575.597656 584.582031 576.125 585.339844 576.027344 592.703125 Z M 555.175781 597.867188 C 554.257812 599.085938 546.695312 600.367188 544.753906 599.480469 C 541.726562 598.097656 543.042969 595.433594 543.175781 593.199219 C 543.175781 591.390625 543.175781 589.582031 543.175781 587.773438 C 543.175781 586.457031 543.703125 585.304688 545.015625 585.074219 C 548.238281 584.515625 551.59375 583.5625 554.585938 585.667969 C 555.96875 586.589844 556.261719 596.488281 555.175781 597.867188 Z M 536.105469 598.164062 C 534.757812 600.597656 532.289062 600.828125 529.855469 600.367188 C 528.082031 600.039062 527.820312 598.425781 527.753906 595.894531 C 528.179688 594.21875 528.671875 591.554688 529.527344 589.054688 C 530.21875 587.113281 532.160156 586.785156 534 586.753906 C 536.367188 586.71875 536.863281 588.496094 537.191406 590.304688 C 537.652344 593.035156 537.453125 595.730469 536.105469 598.164062 Z M 519.136719 600.597656 C 514.402344 600.828125 513.316406 598.691406 514.039062 592.574219 C 514.535156 588.460938 517.261719 587.507812 520.320312 587.507812 C 524.101562 587.507812 522.621094 590.929688 523.148438 593.199219 C 522.394531 595.894531 524.628906 600.332031 519.136719 600.597656 Z M 509.140625 600.53125 C 506.773438 599.445312 504.109375 599.019531 501.511719 599.25 C 500.589844 599.347656 503.945312 579.320312 495.296875 579.058594 C 494.078125 579.023438 492.863281 579.253906 491.644531 579.253906 C 485.925781 579.386719 485.890625 579.355469 485.300781 573.433594 C 485.101562 571.625 485.035156 569.785156 484.972656 567.976562 C 484.578125 557.652344 484.609375 547.324219 483.261719 537 C 480.300781 514.671875 478.066406 492.210938 478 469.71875 C 477.800781 427.070312 475.140625 384.550781 472.804688 342 C 471.75 323.15625 472.707031 304.25 470.730469 285.4375 C 470.4375 282.511719 471.257812 280.636719 474.710938 281.132812 C 475.597656 281.261719 476.550781 281.230469 477.441406 281.164062 C 492.039062 280.175781 497.566406 270.117188 490.363281 257.554688 C 489.34375 255.777344 488.421875 254.265625 491.582031 254.035156 C 498.257812 253.507812 504.929688 252.917969 511.605469 252.421875 C 514.335938 252.226562 514.5 253.902344 513.875 255.941406 C 513.613281 256.796875 513.152344 257.621094 512.855469 258.472656 C 509.171875 268.832031 513.644531 275.804688 524.53125 276.691406 C 530.644531 277.183594 530.679688 277.183594 531.207031 283.203125 C 531.335938 284.714844 531.335938 286.226562 531.335938 287.742188 C 531.371094 303.917969 529.296875 319.902344 527.09375 335.882812 C 525.253906 349.136719 523.410156 362.453125 523.28125 375.835938 C 523.050781 395.007812 522.917969 414.144531 522.0625 433.316406 C 520.386719 471.625 519.960938 510.003906 518.316406 548.277344 C 517.953125 556.433594 517.230469 564.589844 516.210938 572.710938 C 515.289062 580.078125 508.8125 579.253906 508.21875 586.195312 C 507.757812 590.996094 508.089844 595.828125 509.140625 600.53125 Z M 492.46875 592.871094 C 492.007812 593.953125 491.382812 595.136719 491.417969 596.257812 C 491.644531 600.992188 488.226562 599.675781 485.761719 599.710938 C 482.570312 599.710938 482.964844 597.210938 482.769531 594.875 C 482.933594 593.625 482.933594 592.078125 483.328125 590.632812 C 484.378906 586.71875 487.175781 585.109375 490.855469 586.292969 C 494.835938 587.609375 493.621094 590.238281 492.46875 592.871094 Z M 472.96875 580.539062 C 465.304688 580.175781 457.644531 580.242188 449.984375 579.8125 C 442.320312 580.242188 434.660156 580.175781 426.996094 580.539062 C 422 580.769531 421.144531 579.914062 421.144531 574.816406 C 421.109375 562.945312 420.816406 551.105469 421.933594 539.269531 C 424.003906 517.761719 426.175781 496.289062 426.765625 474.652344 C 427.589844 445.484375 428.609375 416.316406 429.792969 387.148438 C 430.910156 359.492188 433.707031 331.902344 433.835938 304.183594 C 433.871094 297.507812 434.625 290.832031 435.285156 284.15625 C 436.46875 272.21875 463.597656 272.714844 464.714844 284.15625 C 465.371094 290.832031 466.128906 297.507812 466.160156 304.183594 C 466.292969 331.902344 469.089844 359.492188 470.207031 387.148438 C 471.390625 416.316406 472.410156 445.484375 473.230469 474.652344 C 473.824219 496.257812 475.992188 517.761719 478.066406 539.269531 C 479.183594 551.105469 478.886719 562.976562 478.855469 574.816406 C 478.820312 579.914062 478 580.769531 472.96875 580.539062 Z M 473.230469 599.839844 C 468.988281 600.105469 468.464844 599.511719 468.265625 594.480469 C 468.035156 588.265625 468.757812 587.246094 473.230469 586.820312 C 478.261719 586.324219 477.34375 589.941406 477.507812 592.835938 C 477.703125 599.214844 477.472656 599.609375 473.230469 599.839844 Z M 462.9375 595.039062 C 463.003906 599.050781 462.117188 599.839844 458.335938 599.707031 C 454.027344 599.542969 453.535156 596.847656 453.796875 593.722656 C 453.863281 587.839844 454.421875 586.753906 457.480469 586.652344 C 461.394531 586.488281 462.28125 587.609375 462.773438 593.230469 C 462.839844 593.824219 462.9375 594.449219 462.9375 595.039062 Z M 441.628906 599.710938 C 437.847656 599.839844 436.960938 599.085938 437.027344 595.039062 C 437.027344 594.449219 437.125 593.824219 437.191406 593.230469 C 437.683594 587.609375 438.539062 586.488281 442.484375 586.652344 C 445.542969 586.785156 446.136719 587.839844 446.167969 593.722656 C 446.464844 596.847656 445.9375 599.542969 441.628906 599.710938 Z M 431.730469 594.480469 C 431.535156 599.511719 431.007812 600.105469 426.765625 599.839844 C 422.523438 599.578125 422.292969 599.214844 422.492188 592.804688 C 422.65625 589.910156 421.734375 586.292969 426.765625 586.785156 C 431.273438 587.246094 431.960938 588.296875 431.730469 594.480469 Z M 416.738281 537.03125 C 415.390625 547.359375 415.421875 557.683594 415.027344 568.007812 C 414.960938 569.816406 414.894531 571.660156 414.699219 573.46875 C 414.105469 579.386719 414.074219 579.417969 408.351562 579.289062 C 407.136719 579.253906 405.917969 579.058594 404.703125 579.089844 C 399.933594 579.222656 398.617188 580.570312 399.539062 585.238281 C 400.195312 588.5625 400.789062 591.816406 400.328125 595.171875 C 400.03125 597.277344 399.800781 599.542969 396.941406 599.808594 C 393.851562 600.070312 392.4375 598.03125 391.976562 595.53125 C 391.449219 592.539062 391.648438 589.449219 391.253906 586.457031 C 390.890625 583.628906 391.351562 580.40625 386.910156 579.683594 C 383.394531 579.089844 384.148438 575.210938 383.851562 572.777344 C 382.835938 564.6875 382.109375 556.53125 381.75 548.378906 C 380.105469 510.167969 379.675781 471.792969 378 433.414062 C 377.144531 414.246094 377.011719 395.105469 376.785156 375.933594 C 376.617188 362.550781 374.777344 349.265625 372.96875 335.980469 C 370.765625 320 368.695312 304.019531 368.726562 287.839844 C 368.726562 286.328125 368.726562 284.8125 368.859375 283.300781 C 369.382812 277.316406 369.417969 277.316406 375.535156 276.789062 C 386.417969 275.902344 390.890625 268.929688 387.207031 258.574219 C 386.910156 257.71875 386.453125 256.894531 386.1875 256.039062 C 385.5625 254.003906 385.726562 252.324219 388.457031 252.523438 C 395.132812 253.015625 401.808594 253.609375 408.484375 254.132812 C 411.640625 254.398438 410.71875 255.875 409.699219 257.652344 C 402.53125 270.214844 408.023438 280.277344 422.625 281.261719 C 423.542969 281.328125 424.464844 281.363281 425.351562 281.230469 C 428.804688 280.738281 429.628906 282.609375 429.332031 285.539062 C 427.359375 304.347656 428.3125 323.253906 427.261719 342.097656 C 424.925781 384.648438 422.230469 427.167969 422.0625 469.816406 C 421.898438 492.246094 419.664062 514.703125 416.738281 537.03125 Z M 417.199219 594.875 C 417 597.210938 417.394531 599.742188 414.207031 599.707031 C 411.738281 599.707031 408.320312 601.023438 408.550781 596.257812 C 408.613281 595.136719 407.957031 593.953125 407.496094 592.871094 C 406.347656 590.238281 405.160156 587.574219 409.109375 586.292969 C 412.792969 585.074219 415.585938 586.6875 416.636719 590.632812 C 417.03125 592.078125 417.03125 593.625 417.199219 594.875 Z M 376.816406 593.199219 C 377.34375 590.929688 375.863281 587.507812 379.644531 587.507812 C 382.703125 587.507812 385.464844 588.460938 385.925781 592.574219 C 386.648438 598.691406 385.597656 600.859375 380.828125 600.597656 C 375.371094 600.332031 377.605469 595.894531 376.816406 593.199219 Z M 356 579.058594 C 346.925781 578.300781 337.847656 578.464844 328.773438 578.269531 C 325.289062 578.203125 324.105469 576.984375 323.972656 573.433594 C 323.511719 559.722656 325.058594 546.109375 325.550781 532.429688 C 326.011719 519.671875 326.535156 506.910156 327.03125 494.152344 C 326.867188 494.152344 326.703125 494.152344 326.535156 494.121094 C 327.917969 465.871094 329.363281 437.625 330.582031 409.378906 C 331.140625 396.617188 330.945312 383.828125 331.667969 371.066406 C 333.277344 342.558594 334.496094 314.015625 335.382812 285.4375 C 335.746094 273.863281 335.941406 273.796875 347.351562 273.996094 C 352.449219 274.09375 358.664062 272.351562 362.347656 275.640625 C 366.261719 279.125 363.695312 285.4375 363.761719 290.503906 C 364.089844 309.707031 366.753906 328.679688 369.417969 347.621094 C 371.0625 359.394531 371.621094 371.234375 371.816406 383.105469 C 372.378906 415.035156 372.773438 446.964844 373.691406 478.894531 C 374.480469 506.84375 375.828125 534.761719 377.046875 562.714844 C 377.242188 567.253906 378 571.789062 378.558594 576.296875 C 378.953125 579.683594 377.835938 581.195312 374.085938 581.292969 C 367.90625 581.457031 362.050781 579.550781 356 579.058594 Z M 372.246094 595.925781 C 372.148438 598.460938 371.917969 600.070312 370.140625 600.398438 C 367.742188 600.859375 365.273438 600.628906 363.894531 598.195312 C 362.542969 595.761719 362.347656 593.066406 362.808594 590.335938 C 363.136719 588.527344 363.628906 586.753906 365.996094 586.785156 C 367.839844 586.820312 369.777344 587.148438 370.46875 589.085938 C 371.324219 591.585938 371.816406 594.21875 372.246094 595.925781 Z M 355.210938 599.445312 C 353.273438 600.332031 345.707031 599.050781 344.789062 597.835938 C 343.734375 596.453125 344 586.554688 345.378906 585.601562 C 348.371094 583.496094 351.726562 584.484375 354.949219 585.011719 C 356.265625 585.238281 356.789062 586.425781 356.789062 587.707031 C 356.824219 589.515625 356.789062 591.324219 356.789062 593.132812 C 356.921875 595.433594 358.238281 598.097656 355.210938 599.445312 Z M 331.4375 599.414062 C 324.234375 599.542969 324.105469 599.445312 324.003906 592.703125 C 323.875 585.339844 324.433594 584.582031 331.207031 584.582031 C 338.769531 584.582031 338.011719 585.273438 338.902344 594.644531 C 339.296875 598.953125 338.507812 599.28125 331.4375 599.414062 Z M 318.414062 560.675781 C 318.25 563.40625 318.25 566.167969 318.085938 568.898438 C 317.460938 578.335938 317.328125 578.464844 307.859375 578.039062 C 306.640625 577.972656 305.457031 577.644531 304.242188 577.609375 C 301.609375 577.578125 300.066406 578.761719 300.988281 581.558594 C 302.300781 585.4375 301.609375 589.417969 302.070312 593.328125 C 302.269531 595.039062 303.222656 597.046875 300.425781 597.570312 C 297.433594 598.128906 295.066406 596.488281 294.902344 593.394531 C 294.671875 589.449219 294.640625 585.46875 294.671875 581.523438 C 294.707031 578.730469 294.96875 576.296875 291.21875 575.242188 C 287.472656 574.222656 287.964844 570.3125 287.929688 567.484375 C 287.765625 551.335938 285.398438 535.324219 285.792969 519.175781 C 285.925781 513.390625 285.828125 507.601562 285.828125 502.570312 C 285.101562 478.136719 285.828125 454.394531 283.789062 430.71875 C 283.03125 421.941406 283.359375 413.0625 283.492188 404.25 C 283.917969 373.4375 280.761719 342.855469 277.375 312.304688 C 276.324219 302.898438 276.390625 293.460938 276.324219 284.023438 C 276.289062 280.113281 277.015625 278.171875 281.816406 277.941406 C 292.699219 277.382812 297.863281 268.898438 294.015625 258.804688 C 293.160156 256.566406 291.679688 254.5625 290.464844 252.457031 C 289.214844 250.320312 290.628906 249.628906 292.273438 249.628906 C 295 249.628906 297.730469 249.890625 300.460938 250.1875 C 302.828125 250.484375 306.015625 249.234375 307.367188 251.273438 C 308.8125 253.476562 305.820312 255.480469 305.0625 257.683594 C 301.839844 266.957031 306.476562 275.015625 316.046875 276.726562 C 318.511719 277.152344 320.847656 276.957031 323.28125 276.691406 C 329.5625 275.96875 329.5625 276.066406 329.859375 282.675781 C 330.484375 297.605469 329.695312 312.503906 329.003906 327.367188 C 328.179688 345.617188 326.734375 363.832031 325.8125 382.050781 C 325.320312 392.082031 325.582031 402.144531 325.121094 412.171875 C 323.710938 443.148438 321.800781 474.125 320.714844 505.101562 C 319.992188 523.648438 319.433594 542.164062 318.414062 560.675781 Z M 316.34375 599.25 C 313.449219 599.609375 310.128906 600.105469 308.617188 596.519531 C 308.054688 595.171875 307.695312 593.59375 307.726562 592.144531 C 307.761719 589.546875 305.226562 585.898438 310.03125 584.910156 C 315.519531 583.761719 317.855469 585.46875 318.546875 590.796875 C 318.710938 591.980469 318.808594 593.199219 318.90625 594.382812 C 318.972656 596.453125 319.074219 598.886719 316.34375 599.25 Z M 266.292969 582.972656 C 271.160156 582.445312 273.691406 584.617188 274.152344 589.351562 C 274.21875 589.941406 274.1875 590.566406 274.21875 591.160156 C 274.316406 596.488281 273.921875 597.011719 269.878906 597.046875 C 264.320312 597.109375 263.53125 596.386719 263.335938 591.09375 C 263.300781 590.5 263.335938 589.875 263.335938 589.152344 C 263.761719 586.917969 262.085938 583.429688 266.292969 582.972656 Z M 273.5625 577.085938 C 261.425781 576.527344 249.324219 576.558594 237.191406 576.625 C 231.632812 576.65625 230.8125 576 230.976562 570.441406 C 231.667969 546.4375 232.589844 522.433594 233.34375 498.394531 C 234.003906 477.117188 234.398438 455.808594 235.085938 434.535156 C 235.746094 413.882812 236.929688 393.230469 237.324219 372.582031 C 237.785156 347.621094 237.683594 322.664062 237.816406 297.738281 C 237.847656 291.359375 237.585938 284.945312 237.816406 278.566406 C 238.046875 271.921875 239.65625 270.015625 245.875 270.28125 C 251.890625 270.511719 258.105469 269.820312 263.960938 271.859375 C 270.042969 273.960938 270.503906 274.488281 270.601562 280.902344 C 270.765625 293.066406 271.160156 305.203125 272.410156 317.304688 C 274.152344 334.238281 275.632812 351.207031 276.816406 368.207031 C 277.738281 381.261719 278.035156 394.316406 278.59375 407.40625 C 279.777344 449.988281 279.808594 492.605469 280.632812 535.191406 C 280.863281 546.074219 281.75 557.058594 282.078125 567.976562 C 282.308594 576.03125 281.058594 577.445312 273.5625 577.085938 Z M 254.191406 596.289062 C 247.617188 595.863281 245.644531 594.941406 245.644531 591.0625 C 245.675781 584.648438 247.15625 582.773438 252.121094 582.839844 C 257.515625 582.90625 258.140625 583.761719 258.074219 592.738281 C 258.105469 593.886719 258.632812 596.585938 254.191406 596.289062 Z M 224.992188 569.851562 C 224.859375 573.796875 223.808594 576.195312 219.105469 575.769531 C 214.832031 575.375 213.023438 577.578125 213.746094 581.984375 C 214.140625 584.351562 214.140625 586.851562 214.074219 589.253906 C 213.976562 591.914062 215.816406 595.761719 210.457031 595.632812 C 203.652344 595.433594 201.644531 594.117188 201.742188 589.21875 C 201.777344 587.410156 202.203125 585.601562 202.53125 583.824219 C 203.191406 580.078125 205.195312 576 199.144531 574.617188 C 197.433594 574.222656 197.699219 572.121094 197.5 570.671875 C 196.941406 566.132812 196.152344 561.628906 196.019531 557.089844 C 195.199219 527.300781 195.167969 497.472656 193.621094 467.746094 C 191.8125 432.824219 190.5625 397.902344 188.984375 362.980469 C 187.867188 338.054688 185.894531 313.257812 183.589844 288.429688 C 183.328125 285.703125 183.03125 283.003906 183.691406 280.277344 C 184.480469 276.953125 184.644531 274.421875 189.871094 275.210938 C 196.21875 276.132812 201.777344 269.554688 201.742188 262.980469 C 201.710938 258.96875 200.558594 255.1875 198.882812 251.570312 C 196.910156 247.328125 196.976562 247.292969 201.382812 247.558594 C 204.703125 247.953125 208.976562 247.359375 210.851562 249.792969 C 212.660156 252.128906 209.339844 255.152344 208.351562 257.914062 C 205.328125 266.167969 207.464844 271.101562 215.488281 274.6875 C 219.203125 276.332031 222.953125 277.515625 226.964844 276.890625 C 231.371094 276.199219 231.929688 278.46875 232.09375 282.050781 C 232.949219 303.328125 232.0625 324.636719 232.160156 345.914062 C 232.359375 381.460938 229.5625 416.941406 229.628906 452.519531 C 229.660156 468.863281 228.773438 485.304688 227.328125 501.714844 C 226.109375 515.59375 226.570312 529.632812 226.144531 543.609375 C 225.914062 552.257812 225.320312 561.039062 224.992188 569.851562 Z M 225.78125 590.894531 C 225.617188 592.375 225.617188 593.265625 225.386719 594.117188 C 225.15625 594.941406 224.730469 595.730469 223.710938 595.894531 C 222.359375 596.089844 221.308594 595.664062 220.847656 594.414062 C 219.761719 591.324219 219.269531 588.101562 219.699219 584.8125 C 219.863281 583.53125 220.683594 582.609375 221.964844 582.476562 C 223.316406 582.347656 224.167969 583.367188 224.464844 584.515625 C 225.089844 586.785156 225.453125 589.121094 225.78125 590.894531 Z M 196.121094 590.601562 C 195.921875 593.855469 195.003906 595.761719 191.484375 595.828125 C 189.675781 595.863281 187.898438 596.257812 186.089844 596.421875 C 178.59375 597.144531 178.59375 597.144531 178.558594 589.285156 C 178.460938 588.066406 178.328125 586.882812 178.230469 585.667969 C 177.96875 582.476562 179.679688 581.394531 182.636719 581.492188 C 184.445312 581.558594 186.253906 581.457031 188.0625 581.457031 C 195.855469 581.589844 196.613281 582.578125 196.121094 590.601562 Z M 275.832031 250.386719 C 282.308594 250.515625 289.410156 258.507812 289.082031 264.984375 C 288.917969 268.472656 286.453125 271.132812 282.734375 271.660156 C 279.941406 272.054688 277.179688 271.496094 274.875 269.949219 C 268.859375 265.972656 262.25 265.183594 255.144531 264.425781 C 247.1875 263.570312 239.988281 264.097656 233.246094 268.109375 C 229.003906 270.640625 224.628906 270.90625 220.09375 270.179688 C 215.523438 269.457031 213.417969 266.398438 213.84375 261.761719 C 214.402344 255.417969 218.808594 251.042969 225.714844 249.925781 C 231.800781 248.9375 237.816406 250.550781 243.898438 250.253906 C 246.925781 250.089844 249.984375 250.21875 253.007812 250.21875 C 253.007812 250.253906 253.007812 250.285156 253.007812 250.351562 C 260.636719 250.351562 268.234375 250.21875 275.832031 250.386719 Z M 230.976562 590.207031 C 231.40625 588.167969 230.714844 585.863281 232.160156 584.089844 C 233.902344 581.886719 236.5 581.6875 238.769531 582.414062 C 241.960938 583.464844 240.28125 586.523438 240.808594 589.480469 C 241.070312 591.75 241.761719 594.84375 237.226562 595.566406 C 232.589844 596.320312 229.859375 595.695312 230.976562 590.207031 Z M 279.347656 592.574219 C 279.578125 591.421875 279.316406 590.140625 279.644531 588.988281 C 280.300781 586.785156 277.640625 583.003906 282.144531 582.640625 C 286.878906 582.28125 288.554688 584.222656 288.886719 589.515625 C 288.917969 589.8125 288.949219 590.105469 288.949219 590.402344 C 289.179688 596.320312 288.261719 597.472656 283.753906 597.441406 C 280.46875 597.40625 278.625 596.257812 279.347656 592.574219 Z M 312.429688 257.71875 C 315.554688 253.179688 319.828125 250.648438 325.320312 250.1875 C 332.257812 249.628906 339.230469 249.332031 346.167969 249.925781 C 355.179688 250.648438 364.289062 250.21875 373.167969 252.523438 C 378 253.773438 383.03125 260.613281 382.144531 265.28125 C 381.421875 269.128906 377.96875 271.199219 372.9375 270.214844 C 364.253906 268.535156 355.507812 268.140625 346.726562 267.582031 C 340.214844 267.1875 334.066406 268.273438 327.851562 269.65625 C 325.484375 270.179688 323.050781 270.378906 320.683594 270.9375 C 317.097656 271.757812 313.613281 271.265625 311.804688 268.078125 C 310.03125 264.855469 310.128906 261.070312 312.429688 257.71875 Z M 416.671875 260.25 C 422.625 255.023438 429.921875 254.757812 437.058594 254.5625 C 441.367188 254.460938 445.675781 254.332031 449.984375 254.296875 C 454.289062 254.332031 458.597656 254.429688 462.90625 254.5625 C 470.042969 254.757812 477.34375 254.988281 483.292969 260.25 C 485.925781 262.550781 488.71875 264.625 487.273438 268.503906 C 485.890625 272.21875 482.800781 274.128906 478.855469 274.488281 C 474.183594 274.949219 469.777344 273.566406 465.503906 272.121094 C 456.757812 269.160156 443.242188 269.160156 434.496094 272.121094 C 430.21875 273.566406 425.8125 274.949219 421.144531 274.488281 C 417.199219 274.09375 414.105469 272.21875 412.726562 268.503906 C 411.246094 264.625 414.039062 262.585938 416.671875 260.25 Z M 526.800781 252.523438 C 535.675781 250.21875 544.785156 250.648438 553.796875 249.925781 C 560.769531 249.332031 567.707031 249.628906 574.644531 250.1875 C 580.136719 250.613281 584.410156 253.179688 587.535156 257.71875 C 589.835938 261.070312 589.96875 264.855469 588.128906 268.078125 C 586.351562 271.265625 582.832031 271.757812 579.25 270.9375 C 576.882812 270.378906 574.449219 270.179688 572.078125 269.65625 C 565.863281 268.273438 559.714844 267.1875 553.203125 267.582031 C 544.425781 268.109375 535.675781 268.535156 526.996094 270.214844 C 521.964844 271.167969 518.511719 269.128906 517.789062 265.28125 C 516.933594 260.613281 521.964844 253.773438 526.800781 252.523438 Z M 646.957031 250.21875 C 649.980469 250.21875 653.039062 250.089844 656.066406 250.253906 C 662.148438 250.582031 668.167969 248.972656 674.25 249.925781 C 681.15625 251.042969 685.5625 255.417969 686.121094 261.761719 C 686.546875 266.398438 684.445312 269.457031 679.871094 270.179688 C 675.335938 270.90625 670.960938 270.640625 666.71875 268.109375 C 659.976562 264.097656 652.777344 263.570312 644.820312 264.425781 C 637.75 265.183594 631.105469 265.972656 625.089844 269.949219 C 622.753906 271.496094 620.023438 272.054688 617.230469 271.660156 C 613.511719 271.132812 611.082031 268.472656 610.882812 264.984375 C 610.554688 258.507812 617.65625 250.515625 624.136719 250.386719 C 631.730469 250.21875 639.328125 250.351562 646.921875 250.351562 C 646.957031 250.285156 646.957031 250.253906 646.957031 250.21875 Z M 611.046875 590.402344 C 611.082031 590.105469 611.113281 589.8125 611.113281 589.515625 C 611.441406 584.253906 613.085938 582.28125 617.855469 582.640625 C 622.359375 583.003906 619.695312 586.785156 620.351562 588.988281 C 620.683594 590.105469 620.417969 591.390625 620.648438 592.574219 C 621.371094 596.257812 619.53125 597.40625 616.242188 597.441406 C 611.703125 597.472656 610.816406 596.289062 611.046875 590.402344 Z M 659.1875 589.480469 C 659.714844 586.488281 658.039062 583.464844 661.226562 582.414062 C 663.53125 581.65625 666.128906 581.886719 667.835938 584.089844 C 669.25 585.898438 668.59375 588.167969 669.019531 590.207031 C 670.140625 595.695312 667.410156 596.320312 662.773438 595.566406 C 658.234375 594.84375 658.957031 591.75 659.1875 589.480469 Z M 711.933594 581.492188 C 713.742188 581.457031 715.550781 581.589844 717.359375 581.523438 C 720.320312 581.394531 721.996094 582.511719 721.765625 585.699219 C 721.667969 586.917969 721.535156 588.101562 721.4375 589.316406 C 721.40625 597.175781 721.40625 597.175781 713.90625 596.453125 C 712.097656 596.289062 710.324219 595.894531 708.515625 595.863281 C 704.964844 595.796875 704.074219 593.855469 703.878906 590.632812 C 703.386719 582.578125 704.140625 581.589844 711.933594 581.492188 Z M 778.164062 264.425781 C 775.761719 268.339844 770.335938 270.148438 765.238281 268.371094 C 762.707031 267.484375 760.304688 266.070312 757.9375 264.6875 C 752.84375 261.695312 747.417969 259.953125 741.464844 260.414062 C 731.5 261.171875 721.570312 261.761719 712.722656 267.648438 C 708.480469 270.476562 705.359375 268.4375 704.4375 263.339844 C 703.285156 257.160156 707.199219 251.339844 714.433594 249.070312 C 721.175781 246.964844 728.179688 246.503906 735.085938 247.722656 C 742.054688 248.9375 748.996094 248.640625 755.964844 248.082031 C 758.992188 247.820312 761.984375 247.292969 763.890625 247.0625 C 770.335938 246.996094 773.195312 248.214844 776.222656 251.832031 C 779.410156 255.613281 780.265625 261.007812 778.164062 264.425781 Z M 754.980469 179.847656 C 762.148438 183.730469 769.285156 187.675781 776.386719 191.65625 C 777.042969 192.050781 777.832031 193.070312 777.769531 193.695312 C 777.703125 194.316406 776.648438 195.105469 775.894531 195.273438 C 771.160156 196.226562 766.390625 197.015625 761.621094 197.871094 C 755.867188 198.296875 751.230469 194.546875 745.804688 193.921875 C 744.554688 193.792969 743.699219 192.378906 744.359375 191.160156 C 746.398438 187.476562 748.535156 183.859375 750.867188 180.34375 C 751.855469 178.894531 753.566406 179.058594 754.980469 179.847656 Z M 729.328125 168.011719 C 730.085938 167.582031 730.941406 167.320312 731.699219 166.992188 C 736.597656 169.03125 741.992188 170.804688 744.917969 174.753906 C 747.417969 178.140625 742.8125 181.59375 741.332031 185.011719 C 740.972656 185.835938 740.378906 186.558594 739.917969 187.347656 C 738.867188 189.15625 737.453125 189.878906 735.445312 188.828125 C 734.097656 188.136719 732.683594 187.578125 731.335938 186.917969 C 715.027344 178.699219 718.773438 182.21875 727.980469 169.226562 C 728.3125 168.734375 728.804688 168.308594 729.328125 168.011719 Z M 733.175781 196.816406 C 731.699219 197.144531 730.152344 197.179688 728.640625 197.179688 C 697.039062 197.476562 665.4375 197.769531 633.800781 198.066406 C 628.640625 198.101562 623.476562 198.066406 618.019531 198.066406 C 582.140625 200.929688 545.871094 198.328125 509.730469 199.875 C 489.835938 200.730469 469.910156 200.796875 450.015625 201.421875 C 430.121094 200.796875 410.191406 200.730469 390.296875 199.875 C 354.160156 198.328125 317.886719 200.894531 282.011719 198.066406 C 276.554688 198.066406 271.390625 198.101562 266.226562 198.066406 C 234.625 197.804688 203.027344 197.507812 171.390625 197.179688 C 169.878906 197.179688 168.332031 197.113281 166.855469 196.816406 C 165.636719 196.554688 165.867188 195.46875 166.457031 194.8125 C 167.050781 194.152344 167.871094 193.695312 168.664062 193.234375 C 180.402344 186.789062 192.175781 180.441406 203.878906 173.964844 C 223.480469 163.144531 243.933594 153.871094 262.808594 141.605469 C 268.101562 138.152344 274.382812 136.277344 280.039062 133.320312 C 294.542969 125.65625 308.714844 117.238281 323.445312 110.101562 C 350.871094 96.851562 376.324219 80.179688 403.023438 65.675781 C 418.21875 57.421875 433.3125 48.972656 448.4375 40.585938 C 448.964844 40.289062 449.488281 39.960938 449.984375 39.664062 C 450.507812 39.960938 451.003906 40.289062 451.527344 40.585938 C 466.65625 48.972656 481.75 57.421875 496.941406 65.675781 C 523.640625 80.144531 549.128906 96.816406 576.519531 110.101562 C 591.285156 117.238281 605.425781 125.65625 619.925781 133.320312 C 625.550781 136.277344 631.863281 138.1875 637.15625 141.605469 C 656 153.871094 676.453125 163.144531 696.085938 173.964844 C 707.792969 180.441406 719.5625 186.789062 731.304688 193.234375 C 732.09375 193.660156 732.914062 194.152344 733.507812 194.8125 C 734.164062 195.46875 734.359375 196.554688 733.175781 196.816406 Z M 706.476562 152.984375 C 706.96875 152.71875 707.59375 152.65625 708.449219 152.425781 C 710.289062 153.609375 712.429688 154.792969 714.335938 156.273438 C 717.722656 158.902344 724.496094 159.394531 723.96875 164.195312 C 723.542969 168.011719 718.808594 171.367188 715.980469 174.882812 C 715.78125 175.113281 715.550781 175.3125 715.355469 175.542969 C 714.269531 177.019531 712.824219 177.25 711.34375 176.429688 C 706.34375 173.699219 699.207031 171.988281 697.597656 167.023438 C 696.183594 162.71875 702.199219 158.375 705.128906 154.167969 C 705.457031 153.675781 705.949219 153.246094 706.476562 152.984375 Z M 683.160156 142.328125 C 683.820312 141.375 684.507812 140.289062 686.648438 140.390625 C 690.660156 142.921875 696.675781 143.972656 699.667969 148.542969 C 701.773438 151.734375 697.003906 154.003906 695.753906 156.894531 C 695.03125 158.539062 693.914062 160.019531 693.222656 161.664062 C 692.105469 164.296875 690.429688 164.425781 688.160156 163.242188 C 686.546875 162.421875 684.839844 161.796875 683.226562 161.007812 C 673.921875 156.5 673.921875 156.5 679.707031 147.65625 C 680.890625 145.878906 681.945312 144.039062 683.160156 142.328125 Z M 661.359375 128.023438 C 666.984375 129.933594 672.769531 132.53125 677.964844 136.3125 C 679.050781 137.101562 678.328125 138.515625 677.835938 139.664062 C 672.015625 153.082031 669.582031 153.9375 657.148438 146.734375 C 656.359375 146.273438 655.539062 145.878906 654.78125 145.386719 C 650.441406 142.558594 650.476562 142.558594 653.46875 137.691406 C 655.078125 135.09375 656.65625 132.53125 658.167969 129.867188 C 658.792969 128.746094 659.417969 127.828125 661.359375 128.023438 Z M 650.277344 121.480469 C 651.066406 121.941406 651.789062 122.433594 652.546875 122.960938 C 653.304688 123.488281 653.992188 124.242188 653.632812 125.164062 C 651.722656 130.226562 649.949219 135.785156 645.574219 138.976562 C 642.484375 141.242188 640.050781 136.542969 637.125 135.359375 C 634.625 134.371094 632.324219 132.890625 629.957031 131.511719 C 628.9375 130.917969 628.046875 130.097656 628.113281 128.746094 C 628.410156 128.222656 628.671875 127.664062 628.96875 127.167969 C 638.078125 112.175781 635.972656 113.09375 650.277344 121.480469 Z M 610.71875 101.652344 C 611.144531 101.289062 611.769531 101.191406 612.296875 100.960938 C 612.625 101.027344 612.953125 101.058594 613.183594 101.191406 C 618.675781 104.28125 624.265625 107.273438 629.660156 110.53125 C 631.039062 111.351562 630.976562 113.09375 630.054688 114.574219 C 629.265625 115.859375 628.410156 117.105469 627.6875 118.421875 C 622.390625 127.664062 622.226562 128.023438 613.21875 123.320312 C 595.789062 114.214844 598.417969 117.796875 608.941406 103.691406 C 609.46875 102.96875 610.027344 102.210938 610.71875 101.652344 Z M 587.503906 90.636719 C 588.753906 89.089844 590.265625 88.398438 592.203125 89.351562 C 595.691406 91.128906 599.175781 92.839844 602.628906 94.714844 C 603.945312 95.402344 605.195312 96.324219 605.0625 98.394531 C 602.367188 103.164062 599.539062 108.128906 595.195312 112.011719 C 594.210938 112.863281 592.828125 112.699219 591.777344 112.140625 C 587.304688 109.707031 582.898438 107.175781 578.492188 104.710938 C 579.480469 100.203125 583.195312 97.375 585.398438 93.628906 C 586.054688 92.542969 586.777344 91.554688 587.503906 90.636719 Z M 570.632812 77.648438 C 574.808594 79.949219 581.386719 81.097656 582.40625 85.078125 C 583.589844 89.648438 577.867188 93.660156 575.53125 98.132812 C 574.019531 100.992188 571.683594 101.75 568.691406 100.140625 C 564.15625 97.707031 559.585938 95.371094 555.078125 92.90625 C 554.324219 92.511719 553.730469 91.785156 553.007812 91.128906 C 553.46875 90.207031 553.765625 89.386719 554.222656 88.695312 C 556.03125 85.902344 557.808594 83.105469 559.714844 80.34375 C 563.660156 74.554688 564.417969 74.195312 570.632812 77.648438 Z M 541.597656 62.488281 C 542.417969 62.949219 543.4375 63.539062 544.492188 64.097656 C 547.976562 65.90625 551.363281 67.914062 554.949219 69.492188 C 558.5 71.035156 558.761719 73.109375 556.425781 75.671875 C 553.007812 79.457031 552.808594 86.886719 547.648438 87.609375 C 542.976562 88.269531 538.40625 83.863281 534.066406 81.097656 C 532.785156 80.308594 531.402344 79.683594 530.152344 78.832031 C 529.066406 78.074219 528.671875 76.890625 529.363281 75.671875 C 532.125 70.9375 535.875 66.992188 539.625 63.078125 C 539.953125 62.75 540.707031 62.75 541.597656 62.488281 Z M 514.402344 48.183594 C 514.699219 48.117188 514.992188 48.085938 515.289062 48.050781 C 517.722656 48.511719 519.761719 49.828125 521.636719 51.339844 C 525.320312 54.332031 532.554688 54.5625 532.949219 59.164062 C 533.277344 63.078125 528.773438 67.386719 526.503906 71.597656 C 524.824219 74.621094 522.820312 74.984375 519.894531 73.175781 C 515.027344 70.183594 509.996094 67.453125 504.996094 64.625 C 503.945312 64.03125 502.890625 63.441406 503.089844 61.960938 C 503.253906 60.613281 513.25 48.480469 514.402344 48.183594 Z M 488.851562 34.175781 C 492.664062 34.800781 495.65625 36.96875 498.878906 38.679688 C 509.207031 44.136719 509.207031 44.171875 502.300781 53.476562 C 497.566406 59.890625 497.269531 59.988281 490.5625 56.4375 C 487.339844 54.726562 484.117188 52.984375 480.960938 51.207031 C 480.203125 50.78125 479.414062 50.121094 479.019531 49.367188 C 478.03125 47.523438 486.84375 34.238281 488.851562 34.175781 Z M 466.226562 22.007812 C 468.496094 20.660156 481.714844 28.714844 481.78125 31.609375 C 480.105469 34.832031 478.359375 38.351562 476.488281 41.804688 C 473.726562 46.964844 473.625 47.066406 468.660156 43.875 C 465.140625 41.605469 459.683594 40.488281 458.597656 36.839844 C 457.480469 33.054688 462.25 29.601562 463.664062 25.589844 C 464.1875 24.242188 465.078125 22.699219 466.226562 22.007812 Z M 445.246094 13.851562 C 451.5625 11.484375 462.183594 15.101562 457.875 23.78125 C 456.921875 25.691406 455.902344 27.566406 455.015625 29.503906 C 450.738281 38.941406 444.359375 28.191406 442.15625 23.78125 C 439.492188 18.457031 441.664062 15.199219 445.246094 13.851562 Z M 433.769531 22.007812 C 434.921875 22.699219 435.808594 24.242188 436.304688 25.589844 C 437.71875 29.601562 442.484375 33.054688 441.367188 36.839844 C 440.28125 40.488281 434.824219 41.605469 431.304688 43.875 C 426.371094 47.066406 426.242188 46.964844 423.476562 41.804688 C 421.636719 38.351562 419.859375 34.832031 418.183594 31.609375 C 418.25 28.714844 431.503906 20.660156 433.769531 22.007812 Z M 401.117188 38.679688 C 404.308594 37.003906 407.300781 34.800781 411.148438 34.175781 C 413.152344 34.238281 421.933594 47.492188 420.980469 49.367188 C 420.585938 50.121094 419.796875 50.746094 419.039062 51.207031 C 415.882812 53.015625 412.660156 54.726562 409.4375 56.4375 C 402.761719 59.988281 402.433594 59.890625 397.699219 53.476562 C 390.792969 44.171875 390.792969 44.136719 401.117188 38.679688 Z M 378.328125 51.371094 C 380.203125 49.859375 382.242188 48.542969 384.675781 48.085938 C 384.972656 48.117188 385.265625 48.148438 385.5625 48.214844 C 386.714844 48.480469 396.710938 60.644531 396.875 61.992188 C 397.074219 63.472656 396.019531 64.066406 394.96875 64.65625 C 390.003906 67.484375 384.9375 70.183594 380.070312 73.207031 C 377.113281 75.015625 375.105469 74.6875 373.460938 71.628906 C 371.160156 67.453125 366.65625 63.144531 367.015625 59.199219 C 367.445312 54.5625 374.644531 54.363281 378.328125 51.371094 Z M 345.050781 69.492188 C 348.636719 67.945312 352.023438 65.941406 355.507812 64.097656 C 356.558594 63.539062 357.578125 62.949219 358.402344 62.488281 C 359.289062 62.75 360.046875 62.75 360.40625 63.113281 C 364.15625 67.023438 367.90625 70.972656 370.667969 75.707031 C 371.359375 76.890625 370.964844 78.105469 369.878906 78.863281 C 368.628906 79.71875 367.246094 80.308594 365.964844 81.132812 C 361.625 83.863281 357.019531 88.269531 352.382812 87.644531 C 347.222656 86.917969 347.054688 79.488281 343.605469 75.707031 C 341.234375 73.109375 341.5 71.035156 345.050781 69.492188 Z M 317.558594 85.078125 C 318.578125 81.097656 325.15625 79.949219 329.332031 77.648438 C 335.546875 74.226562 336.304688 74.554688 340.28125 80.34375 C 342.15625 83.074219 343.964844 85.867188 345.773438 88.695312 C 346.234375 89.417969 346.5625 90.242188 346.992188 91.128906 C 346.265625 91.753906 345.675781 92.511719 344.917969 92.90625 C 340.382812 95.339844 335.808594 97.707031 331.304688 100.140625 C 328.3125 101.75 325.976562 101.027344 324.464844 98.132812 C 322.097656 93.660156 316.410156 89.648438 317.558594 85.078125 Z M 297.335938 94.714844 C 300.757812 92.871094 304.273438 91.128906 307.761719 89.351562 C 309.699219 88.367188 311.246094 89.058594 312.460938 90.636719 C 313.21875 91.589844 313.941406 92.542969 314.535156 93.59375 C 316.738281 97.34375 320.453125 100.171875 321.472656 104.675781 C 317.035156 107.175781 312.628906 109.707031 308.1875 112.109375 C 307.136719 112.699219 305.722656 112.863281 304.769531 111.976562 C 300.425781 108.097656 297.632812 103.132812 294.902344 98.363281 C 294.769531 96.292969 296.054688 95.402344 297.335938 94.714844 Z M 270.339844 110.53125 C 275.730469 107.273438 281.289062 104.28125 286.8125 101.191406 C 287.078125 101.058594 287.40625 101.027344 287.703125 100.960938 C 288.226562 101.160156 288.851562 101.289062 289.28125 101.652344 C 289.9375 102.242188 290.496094 102.96875 291.054688 103.691406 C 301.578125 117.765625 304.207031 114.214844 286.78125 123.320312 C 277.769531 128.023438 277.605469 127.664062 272.3125 118.421875 C 271.554688 117.105469 270.734375 115.859375 269.945312 114.574219 C 269.023438 113.09375 268.957031 111.351562 270.339844 110.53125 Z M 247.453125 122.925781 C 248.207031 122.402344 248.929688 121.90625 249.71875 121.449219 C 264.023438 113.0625 261.921875 112.140625 270.996094 127.136719 C 271.292969 127.664062 271.589844 128.1875 271.851562 128.714844 C 271.882812 130.097656 271.027344 130.886719 270.011719 131.476562 C 267.675781 132.824219 265.339844 134.304688 262.839844 135.324219 C 259.914062 136.507812 257.480469 141.210938 254.390625 138.941406 C 250.015625 135.753906 248.242188 130.226562 246.332031 125.128906 C 246.003906 124.210938 246.664062 123.453125 247.453125 122.925781 Z M 222.03125 136.3125 C 227.226562 132.53125 233.015625 129.898438 238.640625 128.023438 C 240.578125 127.828125 241.203125 128.746094 241.863281 129.867188 C 243.375 132.496094 244.953125 135.09375 246.5625 137.691406 C 249.554688 142.558594 249.589844 142.558594 245.25 145.386719 C 244.492188 145.878906 243.671875 146.273438 242.878906 146.734375 C 230.449219 153.902344 228.015625 153.082031 222.195312 139.664062 C 221.636719 138.515625 220.949219 137.101562 222.03125 136.3125 Z M 200.328125 148.542969 C 203.355469 143.972656 209.339844 142.921875 213.351562 140.390625 C 215.488281 140.289062 216.179688 141.375 216.835938 142.328125 C 218.054688 144.039062 219.105469 145.878906 220.257812 147.65625 C 226.042969 156.5 226.042969 156.5 216.738281 161.007812 C 215.09375 161.796875 213.382812 162.421875 211.804688 163.242188 C 209.535156 164.425781 207.859375 164.296875 206.742188 161.664062 C 206.050781 160.019531 204.933594 158.539062 204.210938 156.894531 C 202.960938 153.96875 198.226562 151.734375 200.328125 148.542969 Z M 185.664062 156.238281 C 187.539062 154.757812 189.675781 153.609375 191.550781 152.390625 C 192.402344 152.621094 193.027344 152.6875 193.523438 152.949219 C 194.046875 153.246094 194.542969 153.640625 194.871094 154.132812 C 197.765625 158.34375 203.78125 162.71875 202.402344 166.992188 C 200.789062 171.957031 193.652344 173.667969 188.65625 176.398438 C 187.207031 177.1875 185.730469 176.988281 184.644531 175.507812 C 184.480469 175.277344 184.214844 175.082031 184.019531 174.851562 C 181.191406 171.300781 176.421875 167.945312 176.027344 164.164062 C 175.503906 159.363281 182.277344 158.902344 185.664062 156.238281 Z M 155.082031 174.785156 C 158.007812 170.804688 163.433594 169.0625 168.300781 167.023438 C 169.089844 167.351562 169.910156 167.617188 170.667969 168.042969 C 171.195312 168.339844 171.6875 168.765625 172.015625 169.226562 C 181.222656 182.21875 184.972656 178.699219 168.664062 186.917969 C 167.3125 187.609375 165.898438 188.136719 164.550781 188.828125 C 162.511719 189.878906 161.132812 189.15625 160.078125 187.347656 C 159.617188 186.558594 159.027344 185.835938 158.664062 185.011719 C 157.1875 181.625 152.550781 178.171875 155.082031 174.785156 Z M 123.578125 191.65625 C 130.679688 187.644531 137.851562 183.730469 144.984375 179.847656 C 146.398438 179.09375 148.109375 178.894531 149.0625 180.34375 C 151.398438 183.859375 153.535156 187.476562 155.574219 191.160156 C 156.230469 192.378906 155.378906 193.792969 154.128906 193.921875 C 148.734375 194.546875 144.066406 198.296875 138.308594 197.871094 C 133.542969 197.015625 128.773438 196.226562 124.039062 195.273438 C 123.28125 195.105469 122.230469 194.316406 122.164062 193.695312 C 122.132812 193.070312 122.921875 192.050781 123.578125 191.65625 Z M 110.160156 200.730469 C 111.347656 200.136719 112.464844 200.53125 113.679688 200.632812 C 123.019531 201.421875 132.261719 203.03125 141.664062 203.164062 C 163.53125 203.394531 185.398438 201.519531 207.300781 202.933594 C 221.242188 203.820312 235.285156 203.195312 249.261719 203.261719 C 272.671875 203.359375 296.054688 204.316406 319.433594 205.136719 C 334.332031 205.664062 349.257812 205.105469 364.15625 205.105469 C 379.085938 205.105469 393.949219 205.5 408.84375 206.550781 C 422.492188 207.503906 436.238281 207.109375 449.949219 207.273438 C 463.664062 207.109375 477.40625 207.539062 491.054688 206.550781 C 505.949219 205.5 520.847656 205.105469 535.742188 205.105469 C 550.640625 205.105469 565.570312 205.664062 580.464844 205.136719 C 603.84375 204.316406 627.226562 203.359375 650.640625 203.261719 C 664.613281 203.195312 678.65625 203.855469 692.597656 202.933594 C 714.53125 201.519531 736.367188 203.394531 758.234375 203.164062 C 767.640625 203.066406 776.914062 201.421875 786.21875 200.632812 C 787.4375 200.53125 788.554688 200.105469 789.738281 200.730469 C 791.316406 201.550781 791.710938 202.933594 791.644531 204.546875 C 791.578125 206.023438 790.660156 206.714844 789.308594 206.75 C 774.480469 207.339844 760.898438 210.167969 746.101562 209.511719 C 730.941406 208.851562 715.714844 212.503906 700.492188 212.140625 C 679.808594 211.648438 659.125 212.601562 638.472656 212.570312 C 617.855469 212.535156 597.269531 213.816406 576.617188 213.226562 C 565.074219 212.898438 553.535156 213.882812 541.992188 214.3125 C 521.339844 215.066406 500.65625 213.6875 479.972656 215.167969 C 470.007812 215.890625 459.945312 215.59375 449.917969 215.5625 C 439.886719 215.5625 429.859375 215.855469 419.859375 215.167969 C 399.175781 213.6875 378.492188 215.066406 357.84375 214.3125 C 346.300781 213.882812 334.726562 212.929688 323.214844 213.226562 C 302.566406 213.816406 281.980469 212.535156 261.363281 212.570312 C 240.675781 212.601562 220.027344 211.648438 199.34375 212.140625 C 184.710938 212.503906 170.140625 212.601562 155.738281 209.476562 C 154.589844 209.214844 153.273438 209.179688 152.15625 209.476562 C 137.980469 212.996094 124.433594 207.308594 110.523438 206.75 C 109.175781 206.683594 108.253906 206.023438 108.1875 204.546875 C 108.1875 202.902344 108.582031 201.519531 110.160156 200.730469 Z M 791.90625 220.230469 C 792.238281 223.191406 791.054688 224.441406 787.765625 224.242188 C 782.339844 223.945312 781.285156 223.191406 781.417969 218.949219 C 781.484375 215.660156 782.632812 213.851562 786.25 213.984375 C 790.824219 214.148438 791.941406 215.199219 791.90625 220.230469 Z M 770.863281 223.945312 C 768.164062 224.175781 765.535156 224.734375 762.839844 224.867188 C 759.484375 225.03125 758.890625 223.878906 759.550781 220.492188 C 760.667969 214.738281 765.4375 216.777344 768.691406 215.921875 C 769.121094 215.890625 769.414062 215.824219 769.710938 215.824219 C 772.242188 215.824219 775.171875 214.773438 775.566406 219.113281 C 775.925781 222.960938 773.886719 223.683594 770.863281 223.945312 Z M 753.761719 220.65625 C 753.894531 224.078125 752.777344 226.609375 748.796875 226.808594 C 746.691406 226.90625 744.589844 227.167969 742.449219 227.398438 C 739.886719 227.664062 737.386719 227.792969 737.1875 224.273438 C 737.023438 221.28125 736.5 217.929688 740.476562 216.84375 C 742.78125 216.21875 745.210938 216.019531 746.691406 215.792969 C 752.085938 215.890625 753.632812 217.074219 753.761719 220.65625 Z M 725.613281 227.5625 C 723.507812 227.628906 721.371094 227.5625 719.269531 227.433594 C 717.425781 227.300781 715.484375 227.136719 715.519531 224.539062 C 715.550781 222.039062 715.914062 219.441406 718.644531 218.585938 C 720.617188 217.960938 722.851562 218.160156 724.628906 218.027344 C 727.519531 218.289062 731.171875 215.527344 731.699219 220.988281 C 732.257812 226.875 732.027344 227.367188 725.613281 227.5625 Z M 709.796875 223.550781 C 709.894531 226.3125 708.449219 227.234375 705.984375 227.234375 C 704.175781 227.234375 702.398438 227.234375 699.636719 227.234375 C 698.484375 227.167969 696.378906 227.070312 694.308594 226.972656 C 692.5 226.875 690.363281 226.875 690.953125 224.175781 C 691.480469 221.84375 690 218.125 694.113281 217.863281 C 698.289062 217.601562 702.496094 217.765625 706.671875 218.125 C 709.929688 218.390625 709.730469 221.117188 709.796875 223.550781 Z M 684.738281 224.570312 C 684.050781 228.1875 680.792969 227.992188 678.261719 228.285156 C 674.777344 228.648438 671.125 229.964844 667.738281 227.726562 C 667.542969 227.597656 667.507812 227.203125 667.410156 226.90625 C 665.996094 223.089844 668.398438 218.980469 672.507812 218.289062 C 674.28125 217.996094 676.125 217.960938 680.039062 217.601562 C 685.234375 217.039062 685.726562 219.308594 684.738281 224.570312 Z M 661.359375 227.101562 C 660.898438 228.222656 660.109375 228.320312 659.289062 228.386719 C 657.808594 228.515625 656.296875 228.417969 654.78125 228.417969 C 646.726562 228.648438 645.148438 227.136719 647.085938 221.25 C 648.535156 216.875 652.382812 217.960938 655.441406 217.828125 C 660.144531 217.601562 663.136719 222.632812 661.359375 227.101562 Z M 640.578125 224.898438 C 640.808594 229.011719 638.011719 229.042969 635.085938 228.945312 C 633.867188 228.910156 632.652344 228.945312 630.351562 228.945312 C 629.921875 228.976562 628.410156 229.109375 626.898438 229.109375 C 622.328125 229.042969 621.570312 228.089844 622.160156 223.816406 C 622.621094 220.691406 623.90625 218.75 627.390625 218.949219 C 630.121094 219.113281 632.847656 219.277344 635.578125 219.078125 C 640.082031 218.785156 640.414062 221.710938 640.578125 224.898438 Z M 609.007812 229.964844 C 608.417969 229.964844 607.792969 229.996094 607.199219 229.964844 C 604.46875 229.765625 601.742188 229.832031 601.808594 225.722656 C 601.871094 220.886719 602.597656 219.703125 607.101562 219.144531 C 608.582031 218.949219 610.09375 219.046875 611.605469 218.914062 C 614.925781 218.652344 616.441406 219.933594 616.605469 223.484375 C 616.902344 229.304688 616.210938 230.03125 609.007812 229.964844 Z M 596.28125 227.890625 C 596.183594 230.261719 594.113281 230.359375 592.304688 230.457031 C 590.824219 230.554688 589.3125 230.621094 587.796875 230.6875 C 581.351562 230.851562 579.773438 228.617188 581.945312 222.730469 C 582.800781 220.429688 584.28125 219.34375 586.613281 219.375 C 589.542969 219.410156 592.894531 218.226562 595.296875 220.230469 C 597.5 222.105469 596.382812 225.292969 596.28125 227.890625 Z M 575.039062 227.269531 C 575.730469 230.621094 574.117188 231.640625 571.191406 231.707031 C 569.382812 231.738281 567.574219 231.707031 565.765625 231.707031 L 565.765625 231.9375 C 565.175781 231.9375 564.550781 231.9375 563.957031 231.9375 C 555.605469 232.070312 555.144531 231.28125 557.710938 223.519531 C 558.5 221.117188 559.714844 219.96875 562.050781 219.769531 C 565.371094 219.507812 568.660156 219.277344 571.980469 219.144531 C 574.449219 219.046875 576.125 219.835938 575.46875 222.828125 C 575.203125 224.308594 574.777344 225.886719 575.039062 227.269531 Z M 551.164062 228.285156 C 550.3125 233.878906 546.035156 232.003906 542.78125 232.59375 C 540.347656 232.035156 537.089844 234.007812 535.480469 230.984375 C 532.652344 225.722656 535.511719 220.625 541.269531 220.132812 C 542.15625 220.066406 543.078125 220.097656 543.964844 220.097656 C 551.199219 220 552.21875 221.316406 551.164062 228.285156 Z M 526.765625 232.628906 C 522.523438 234.304688 517.921875 233.679688 513.449219 233.484375 C 513.019531 233.449219 512.332031 232.757812 512.265625 232.300781 C 511.574219 228.714844 511.605469 225 512.824219 221.675781 C 513.578125 219.574219 516.507812 220.363281 519.300781 220.132812 C 520.980469 220.328125 523.347656 220.625 525.746094 220.855469 C 528.671875 221.152344 528.835938 223.320312 528.738281 225.460938 C 528.640625 227.992188 530.085938 231.3125 526.765625 232.628906 Z M 500.292969 234.699219 C 497.007812 234.929688 493.71875 235.390625 490.429688 235.652344 C 489.3125 235.75 487.535156 235.71875 487.734375 234.238281 C 488.257812 230.390625 487.863281 226.25 489.804688 222.761719 C 491.582031 219.574219 495.261719 221.152344 498.027344 220.328125 C 499.144531 220 500.425781 220.363281 501.609375 220.230469 C 504.371094 219.902344 505.523438 221.183594 505.554688 223.78125 C 505.589844 225.292969 505.554688 226.808594 505.554688 228.285156 C 505.886719 234.371094 505.886719 234.335938 500.292969 234.699219 Z M 466.65625 228.351562 C 466.488281 227.496094 466.820312 226.542969 466.820312 225.65625 C 466.71875 222.632812 468.199219 221.21875 471.191406 221.28125 C 472.707031 221.316406 474.21875 221.28125 475.730469 221.28125 C 482.964844 221.21875 483.65625 222.039062 482.308594 228.976562 C 482.242188 229.273438 482.207031 229.570312 482.144531 229.867188 C 480.761719 235.457031 477.113281 237.332031 470.171875 236.246094 C 464.847656 235.421875 467.214844 231.246094 466.65625 228.351562 Z M 456.429688 236.246094 C 454.289062 236.246094 452.152344 236.210938 450.015625 236.210938 C 447.878906 236.210938 445.742188 236.246094 443.601562 236.246094 C 440.839844 236.246094 438.867188 235.355469 439.195312 231.96875 C 440.28125 220.953125 437.519531 221.875 449.753906 221.382812 C 449.851562 221.382812 449.949219 221.382812 450.046875 221.382812 C 450.148438 221.382812 450.246094 221.382812 450.34375 221.382812 C 462.542969 221.875 459.816406 220.953125 460.898438 231.96875 C 461.164062 235.355469 459.191406 236.246094 456.429688 236.246094 Z M 429.824219 236.246094 C 422.886719 237.332031 419.234375 235.457031 417.855469 229.867188 C 417.789062 229.570312 417.757812 229.273438 417.691406 228.976562 C 416.308594 222.039062 417 221.21875 424.265625 221.28125 C 425.78125 221.28125 427.292969 221.316406 428.804688 221.28125 C 431.796875 221.21875 433.246094 222.632812 433.179688 225.65625 C 433.144531 226.542969 433.507812 227.496094 433.34375 228.351562 C 432.75 231.246094 435.152344 235.421875 429.824219 236.246094 Z M 412.265625 234.238281 C 412.460938 235.71875 410.6875 235.75 409.570312 235.652344 C 406.28125 235.390625 402.992188 234.929688 399.703125 234.699219 C 394.082031 234.335938 394.082031 234.371094 394.441406 228.285156 C 394.441406 226.773438 394.410156 225.261719 394.441406 223.78125 C 394.476562 221.183594 395.625 219.902344 398.386719 220.230469 C 399.570312 220.363281 400.855469 220 401.972656 220.328125 C 404.734375 221.152344 408.417969 219.605469 410.191406 222.761719 C 412.132812 226.25 411.707031 230.390625 412.265625 234.238281 Z M 374.25 220.886719 C 376.652344 220.65625 379.019531 220.328125 380.695312 220.164062 C 383.457031 220.363281 386.386719 219.605469 387.175781 221.710938 C 388.390625 225.03125 388.425781 228.746094 387.734375 232.332031 C 387.636719 232.792969 386.976562 233.484375 386.550781 233.515625 C 382.078125 233.710938 377.472656 234.335938 373.230469 232.660156 C 369.878906 231.34375 371.359375 228.023438 371.257812 225.492188 C 371.160156 223.355469 371.324219 221.183594 374.25 220.886719 Z M 364.550781 230.949219 C 362.90625 233.976562 359.683594 232.035156 357.25 232.5625 C 353.996094 231.96875 349.71875 233.878906 348.863281 228.253906 C 347.8125 221.28125 348.800781 219.96875 356.066406 220.035156 C 356.953125 220.035156 357.875 220 358.761719 220.066406 C 364.519531 220.625 367.347656 225.722656 364.550781 230.949219 Z M 328.773438 231.707031 C 325.847656 231.675781 324.269531 230.65625 324.925781 227.269531 C 325.222656 225.886719 324.761719 224.273438 324.464844 222.828125 C 323.839844 219.835938 325.484375 219.046875 327.949219 219.144531 C 331.273438 219.277344 334.59375 219.539062 337.882812 219.769531 C 340.214844 219.933594 341.433594 221.117188 342.222656 223.519531 C 344.789062 231.246094 344.328125 232.070312 335.976562 231.9375 C 335.382812 231.9375 334.757812 231.9375 334.167969 231.9375 L 334.167969 231.707031 C 332.390625 231.707031 330.582031 231.738281 328.773438 231.707031 Z M 312.199219 230.6875 C 310.6875 230.589844 309.207031 230.554688 307.695312 230.457031 C 305.886719 230.324219 303.8125 230.226562 303.714844 227.890625 C 303.617188 225.292969 302.464844 222.136719 304.703125 220.261719 C 307.101562 218.257812 310.425781 219.410156 313.382812 219.410156 C 315.71875 219.375 317.230469 220.429688 318.054688 222.761719 C 320.222656 228.617188 318.644531 230.851562 312.199219 230.6875 Z M 298.191406 225.722656 C 298.257812 229.800781 295.527344 229.765625 292.796875 229.964844 C 292.207031 229.996094 291.582031 229.964844 290.988281 229.964844 C 283.753906 230.0625 283.097656 229.304688 283.394531 223.484375 C 283.558594 219.933594 285.070312 218.652344 288.390625 218.914062 C 289.90625 219.046875 291.417969 218.949219 292.898438 219.144531 C 297.402344 219.703125 298.125 220.886719 298.191406 225.722656 Z M 273.066406 229.109375 C 271.554688 229.109375 270.042969 228.976562 269.617188 228.945312 C 267.3125 228.945312 266.097656 228.910156 264.878906 228.945312 C 261.984375 229.042969 259.191406 229.011719 259.386719 224.898438 C 259.554688 221.710938 259.914062 218.785156 264.355469 219.078125 C 267.050781 219.277344 269.8125 219.078125 272.542969 218.949219 C 276.058594 218.75 277.34375 220.691406 277.769531 223.816406 C 278.394531 228.121094 277.640625 229.078125 273.066406 229.109375 Z M 245.214844 228.417969 C 243.703125 228.417969 242.191406 228.515625 240.710938 228.386719 C 239.886719 228.320312 239.097656 228.222656 238.640625 227.101562 C 236.863281 222.632812 239.855469 217.601562 244.558594 217.828125 C 247.617188 217.960938 251.464844 216.875 252.910156 221.25 C 254.851562 227.136719 253.273438 228.648438 245.214844 228.417969 Z M 232.589844 226.90625 C 232.488281 227.167969 232.457031 227.597656 232.257812 227.726562 C 228.871094 229.964844 225.222656 228.683594 221.738281 228.285156 C 219.238281 228.023438 215.949219 228.1875 215.257812 224.570312 C 214.273438 219.308594 214.765625 217.039062 219.960938 217.601562 C 223.875 217.960938 225.714844 217.996094 227.492188 218.289062 C 231.601562 218.980469 234.003906 223.089844 232.589844 226.90625 Z M 205.6875 226.972656 C 203.585938 227.070312 201.511719 227.167969 200.363281 227.234375 C 197.601562 227.234375 195.824219 227.234375 194.015625 227.234375 C 191.550781 227.234375 190.101562 226.3125 190.199219 223.550781 C 190.300781 221.117188 190.070312 218.355469 193.359375 218.09375 C 197.535156 217.730469 201.742188 217.566406 205.917969 217.828125 C 209.996094 218.09375 208.550781 221.84375 209.078125 224.144531 C 209.636719 226.875 207.53125 226.875 205.6875 226.972656 Z M 184.480469 224.539062 C 184.511719 227.101562 182.570312 227.300781 180.730469 227.433594 C 178.625 227.5625 176.488281 227.628906 174.382812 227.5625 C 167.972656 227.332031 167.742188 226.875 168.300781 220.988281 C 168.828125 215.496094 172.476562 218.289062 175.371094 218.027344 C 177.144531 218.160156 179.382812 217.960938 181.355469 218.585938 C 184.050781 219.441406 184.445312 222.039062 184.480469 224.539062 Z M 162.777344 224.273438 C 162.578125 227.792969 160.078125 227.695312 157.515625 227.398438 C 155.410156 227.167969 153.304688 226.9375 151.167969 226.808594 C 147.1875 226.609375 146.070312 224.109375 146.203125 220.65625 C 146.335938 217.039062 147.878906 215.855469 153.273438 215.757812 C 154.71875 215.988281 157.152344 216.152344 159.488281 216.8125 C 163.464844 217.894531 162.941406 221.25 162.777344 224.273438 Z M 137.125 224.867188 C 134.429688 224.734375 131.800781 224.175781 129.101562 223.945312 C 126.109375 223.683594 124.039062 222.960938 124.402344 219.113281 C 124.796875 214.773438 127.6875 215.824219 130.253906 215.824219 C 130.550781 215.824219 130.847656 215.890625 131.273438 215.921875 C 134.5625 216.777344 139.296875 214.738281 140.414062 220.492188 C 141.074219 223.878906 140.480469 225.066406 137.125 224.867188 Z M 113.746094 213.984375 C 117.363281 213.851562 118.515625 215.660156 118.582031 218.949219 C 118.679688 223.191406 117.660156 223.945312 112.234375 224.242188 C 108.945312 224.441406 107.761719 223.15625 108.089844 220.230469 C 108.023438 215.199219 109.175781 214.148438 113.746094 213.984375 Z M 116.9375 240.847656 C 115.421875 240.75 113.945312 240.355469 112.429688 240.09375 C 109.601562 239.632812 108.253906 238.019531 108.15625 235.125 C 108.058594 231.90625 110.0625 231.015625 112.695312 230.589844 C 119.996094 229.371094 127.359375 229.667969 134.496094 230.984375 C 148.964844 233.613281 163.5 234.007812 178.132812 233.546875 C 187.539062 233.253906 196.941406 232.890625 206.347656 233.121094 C 240.085938 233.976562 273.792969 235.027344 307.496094 236.113281 C 327.554688 236.769531 347.648438 237.132812 367.675781 238.515625 C 393.785156 240.289062 419.859375 242.261719 446.003906 242.558594 C 447.351562 242.558594 448.667969 242.589844 450.015625 242.625 C 451.363281 242.589844 452.679688 242.589844 454.027344 242.558594 C 480.203125 242.261719 506.28125 240.289062 532.355469 238.515625 C 552.382812 237.132812 572.472656 236.769531 592.535156 236.113281 C 626.238281 235.027344 659.976562 233.976562 693.683594 233.121094 C 703.089844 232.890625 712.492188 233.21875 721.898438 233.546875 C 736.53125 234.007812 751.035156 233.613281 765.535156 230.984375 C 772.671875 229.699219 780.035156 229.371094 787.335938 230.589844 C 789.933594 231.015625 791.972656 231.90625 791.875 235.125 C 791.777344 238.019531 790.429688 239.632812 787.601562 240.09375 C 786.085938 240.355469 784.609375 240.75 783.09375 240.847656 C 779.773438 241.046875 776.386719 240.949219 773.066406 241.277344 C 751.492188 243.414062 729.921875 241.40625 708.351562 241.570312 C 700.457031 241.636719 692.597656 243.019531 684.707031 243.578125 C 667.410156 244.792969 650.046875 245.1875 632.71875 244.992188 C 610.355469 244.730469 587.996094 243.972656 565.601562 243.972656 C 552.546875 243.972656 539.425781 244.300781 526.4375 245.648438 C 500.984375 248.28125 475.5 248.542969 449.984375 248.773438 C 424.464844 248.542969 398.980469 248.28125 373.527344 245.648438 C 360.539062 244.300781 347.417969 243.972656 334.363281 243.972656 C 312.003906 243.972656 289.640625 244.730469 267.246094 244.992188 C 249.886719 245.1875 232.554688 244.828125 215.257812 243.578125 C 207.367188 243.019531 199.507812 241.636719 191.613281 241.570312 C 170.042969 241.441406 148.472656 243.414062 126.898438 241.277344 C 123.644531 240.914062 120.257812 241.046875 116.9375 240.847656 Z M 134.757812 268.371094 C 129.695312 270.148438 124.234375 268.339844 121.835938 264.425781 C 119.730469 261.007812 120.554688 255.613281 123.777344 251.800781 C 126.800781 248.183594 129.660156 246.964844 136.105469 247.03125 C 138.015625 247.292969 141.007812 247.820312 144.03125 248.050781 C 151.003906 248.640625 157.941406 248.90625 164.914062 247.6875 C 171.851562 246.503906 178.824219 246.964844 185.5625 249.035156 C 192.796875 251.273438 196.679688 257.09375 195.5625 263.308594 C 194.605469 268.40625 191.515625 270.445312 187.273438 267.617188 C 178.429688 261.761719 168.496094 261.136719 158.535156 260.382812 C 152.613281 259.921875 147.15625 261.664062 142.058594 264.65625 C 139.691406 266.070312 137.292969 267.484375 134.757812 268.371094 Z M 137.851562 445.746094 C 139.558594 418.453125 141.171875 391.128906 142.289062 363.800781 C 143.144531 342.558594 142.945312 321.25 143.472656 300.007812 C 143.703125 291.226562 144.753906 282.445312 145.148438 273.667969 C 145.347656 269.820312 147.8125 268.011719 150.773438 267.484375 C 158.960938 266.003906 167.117188 267.1875 175.140625 269.195312 C 177.871094 269.886719 177.835938 272.152344 177.835938 274.292969 C 177.835938 284.320312 178.527344 294.316406 179.546875 304.3125 C 184.183594 349.101562 184.546875 394.121094 186.914062 439.039062 C 188.226562 464.226562 189.511719 489.449219 188.851562 516.152344 C 190.300781 531.707031 190.332031 548.738281 190.59375 565.773438 C 190.628906 567.910156 190.761719 570.015625 190.726562 572.152344 C 190.695312 574.222656 189.675781 575.539062 187.472656 575.738281 C 186.550781 575.800781 185.628906 576.066406 184.742188 575.96875 C 172.214844 574.683594 159.949219 577.480469 147.550781 578.203125 C 137.125 578.796875 135.152344 577.445312 135.351562 567.054688 C 136.074219 526.574219 135.316406 486.09375 137.851562 445.746094 Z M 172.507812 589.875 C 172.445312 590.894531 172.3125 592.113281 172.3125 593.296875 C 172.34375 596.089844 171.554688 597.964844 168.234375 597.734375 C 165.503906 597.570312 162.578125 597.964844 162.742188 593.789062 C 162.808594 591.71875 162.445312 589.582031 162.578125 587.507812 C 162.839844 582.972656 164.289062 581.589844 168.5625 581.425781 C 170.570312 581.359375 172.082031 581.851562 172.179688 584.285156 C 172.214844 586.09375 172.378906 587.902344 172.507812 589.875 Z M 157.515625 592.277344 C 157.515625 596.320312 156.265625 597.375 152.023438 597.308594 C 147.484375 597.277344 147.648438 594.152344 147.648438 591.027344 C 147.648438 585.339844 149.160156 583.265625 153.042969 583.597656 C 155.804688 583.859375 157.515625 587.148438 157.515625 592.277344 Z M 138.574219 584.253906 C 139.59375 583.628906 140.941406 584.386719 141.664062 585.40625 C 142.945312 587.214844 142.519531 589.382812 142.816406 591.914062 C 142.652344 592.574219 142.585938 593.789062 142.058594 594.777344 C 141.46875 595.863281 140.21875 596.453125 139 595.925781 C 136.566406 594.90625 136.929688 592.574219 137.125 590.632812 C 137.324219 588.460938 136.042969 585.765625 138.574219 584.253906 Z M 126.011719 583.070312 C 128.28125 582.675781 129.992188 583.136719 130.78125 585.699219 C 131.765625 588.957031 132.292969 592.113281 130.285156 595.105469 C 129.597656 596.125 128.117188 596.386719 127.0625 595.863281 C 123.511719 593.988281 124.464844 590.335938 123.90625 587.773438 C 124.007812 585.570312 123.445312 583.53125 126.011719 583.070312 Z M 790.394531 651.664062 C 789.703125 658.898438 789.640625 659.457031 782.238281 659.589844 C 760.371094 660.019531 738.832031 663.863281 716.933594 664.554688 C 696.875 665.179688 676.816406 664.359375 656.820312 665.671875 C 640.117188 666.757812 623.445312 667.351562 606.707031 667.1875 C 575.730469 666.921875 544.6875 668.140625 513.746094 666.890625 C 492.5 666.035156 471.226562 666.167969 449.984375 665.542969 C 428.738281 666.167969 407.464844 666.035156 386.222656 666.890625 C 355.277344 668.140625 324.269531 666.921875 293.257812 667.1875 C 276.519531 667.316406 259.847656 666.757812 243.144531 665.671875 C 223.152344 664.359375 203.058594 665.179688 183.03125 664.554688 C 161.097656 663.863281 139.558594 660.019531 117.726562 659.589844 C 110.292969 659.425781 110.226562 658.898438 109.570312 651.664062 C 109.078125 646.238281 109.308594 646.171875 114.566406 645.84375 C 121.605469 645.417969 128.511719 646.832031 135.515625 647.027344 C 181.453125 648.179688 227.425781 645.910156 273.332031 648.707031 C 283.097656 649.296875 292.796875 648.3125 302.53125 648.375 C 318.679688 648.507812 334.726562 650.25 350.804688 650.875 C 371.753906 651.699219 392.796875 650.875 413.777344 650.710938 C 425.847656 650.613281 437.914062 649.496094 449.984375 649.855469 C 462.050781 649.496094 474.121094 650.613281 486.1875 650.710938 C 507.199219 650.875 528.214844 651.699219 549.160156 650.875 C 565.238281 650.25 581.289062 648.507812 597.433594 648.375 C 607.167969 648.277344 616.867188 649.296875 626.632812 648.707031 C 672.539062 645.910156 718.511719 648.179688 764.449219 647.027344 C 771.453125 646.863281 778.328125 645.417969 785.398438 645.84375 C 790.660156 646.140625 790.921875 646.238281 790.394531 651.664062 Z M 791.152344 630.882812 C 789.933594 639.398438 789.933594 639.234375 781.84375 639.792969 C 749.652344 642.03125 717.425781 641.933594 685.199219 641.867188 C 666.359375 641.832031 647.480469 641.339844 628.605469 642.984375 C 617.195312 643.96875 605.554688 642.65625 594.046875 642.785156 C 583.722656 642.917969 573.363281 643.3125 563.070312 644.101562 C 551.230469 645.054688 539.394531 645.777344 527.523438 645.484375 C 503.1875 644.890625 478.886719 644.167969 454.554688 643.773438 C 453.039062 643.742188 451.527344 643.742188 450.015625 643.773438 C 448.503906 643.742188 446.988281 643.742188 445.476562 643.773438 C 421.144531 644.167969 396.808594 644.890625 372.507812 645.484375 C 360.636719 645.777344 348.800781 645.054688 336.960938 644.101562 C 326.667969 643.28125 316.308594 642.886719 305.984375 642.785156 C 294.476562 642.65625 282.867188 643.96875 271.425781 642.984375 C 252.546875 641.339844 233.671875 641.832031 214.832031 641.867188 C 182.570312 641.933594 150.378906 642.03125 118.1875 639.792969 C 110.097656 639.234375 110.097656 639.398438 108.878906 630.882812 C 107.597656 621.808594 108.089844 621.214844 116.835938 621.839844 C 119.566406 622.035156 122.296875 622.203125 125.027344 622.597656 C 138.605469 624.535156 152.21875 625.457031 165.964844 625.292969 C 186.945312 625.0625 207.957031 625.324219 228.9375 625.359375 C 251.757812 625.390625 274.546875 627.757812 297.402344 626.9375 C 309.898438 626.476562 322.359375 626.871094 334.824219 627.726562 C 346.367188 628.515625 357.90625 629.007812 369.449219 629.5 C 374.910156 629.730469 380.367188 629.632812 385.828125 629.894531 C 400.128906 630.585938 414.402344 631.34375 428.675781 629.5 C 433.179688 628.910156 437.78125 629.007812 442.355469 629.042969 C 444.917969 629.074219 447.484375 629.140625 450.015625 629.171875 C 452.582031 629.105469 455.144531 629.042969 457.675781 629.042969 C 462.25 629.007812 466.851562 628.910156 471.355469 629.5 C 485.628906 631.34375 499.898438 630.585938 514.203125 629.894531 C 519.664062 629.632812 525.121094 629.730469 530.582031 629.5 C 542.121094 628.976562 553.664062 628.515625 565.207031 627.726562 C 577.671875 626.871094 590.132812 626.476562 602.628906 626.9375 C 625.484375 627.757812 648.238281 625.390625 671.09375 625.359375 C 692.074219 625.324219 713.085938 625.0625 734.066406 625.292969 C 747.8125 625.425781 761.425781 624.535156 775.003906 622.597656 C 777.703125 622.203125 780.464844 622.003906 783.195312 621.839844 C 791.941406 621.246094 792.433594 621.808594 791.152344 630.882812 Z M 792.238281 610.332031 C 792.171875 613.882812 790.625 614.933594 787.371094 615.394531 C 768.988281 617.992188 750.671875 620.359375 731.992188 619.964844 C 701.246094 619.308594 670.535156 619.734375 639.820312 621.050781 C 619.464844 621.9375 599.042969 621.214844 578.65625 621.742188 C 555.242188 622.332031 531.863281 623.285156 508.449219 624.503906 C 499.011719 624.996094 489.574219 625.09375 480.203125 624.207031 C 470.140625 623.222656 460.078125 623.1875 449.984375 623.285156 C 439.921875 623.1875 429.859375 623.222656 419.761719 624.207031 C 410.390625 625.09375 400.953125 624.996094 391.515625 624.503906 C 368.136719 623.285156 344.722656 622.332031 321.308594 621.742188 C 300.921875 621.214844 280.5 621.9375 260.144531 621.050781 C 229.429688 619.734375 198.683594 619.273438 167.972656 619.964844 C 149.292969 620.359375 130.976562 617.992188 112.59375 615.394531 C 109.339844 614.933594 107.792969 613.847656 107.730469 610.332031 C 107.597656 603.753906 107.925781 603.359375 114.535156 602.570312 C 124.300781 601.453125 133.96875 603.359375 143.671875 603.328125 C 161.296875 603.292969 178.921875 602.535156 196.515625 602.207031 C 216.476562 601.847656 236.535156 600.992188 256.59375 602.734375 C 269.910156 603.886719 283.425781 602.40625 296.710938 603.753906 C 308.84375 604.96875 320.914062 605.757812 333.113281 605.363281 C 336.140625 605.265625 339.230469 605.136719 342.222656 605.464844 C 363.167969 607.765625 384.183594 606.714844 405.128906 606.1875 C 420.058594 605.824219 435.019531 606.484375 449.949219 606.21875 C 464.878906 606.484375 479.839844 605.824219 494.769531 606.1875 C 515.71875 606.714844 536.730469 607.796875 557.675781 605.464844 C 560.667969 605.136719 563.761719 605.265625 566.785156 605.363281 C 578.953125 605.726562 591.019531 604.9375 603.1875 603.753906 C 616.472656 602.4375 630.019531 603.917969 643.304688 602.734375 C 663.367188 600.992188 683.425781 601.847656 703.386719 602.207031 C 720.976562 602.535156 738.601562 603.292969 756.230469 603.328125 C 765.960938 603.328125 775.597656 601.417969 785.363281 602.570312 C 792.039062 603.359375 792.367188 603.722656 792.238281 610.332031 Z M 792.238281 610.332031 "/></g></svg>